G04 #@! TF.FileFunction,Copper,L1,Top,Signal*
%FSLAX46Y46*%
G04 Gerber Fmt 4.6, Leading zero omitted, Abs format (unit mm)*
G04 Created by KiCad (PCBNEW 4.0.7-e2-6376~58~ubuntu14.04.1) date Wed Mar  7 22:27:56 2018*
%MOMM*%
%LPD*%
G01*
G04 APERTURE LIST*
%ADD10C,0.100000*%
%ADD11O,1.524000X2.199640*%
%ADD12O,1.524000X2.197100*%
%ADD13O,2.197100X1.524000*%
%ADD14R,2.197100X1.524000*%
%ADD15C,1.000000*%
%ADD16C,1.000000*%
G04 APERTURE END LIST*
D10*
D11*
X42030000Y20620000D03*
X39490000Y20620000D03*
X36950000Y20620000D03*
X34410000Y20620000D03*
X31870000Y20620000D03*
X29330000Y20620000D03*
X26790000Y20620000D03*
X24250000Y20620000D03*
X21710000Y20620000D03*
X19170000Y20620000D03*
X16630000Y20620000D03*
X14090000Y20620000D03*
X11550000Y20620000D03*
X9010000Y20620000D03*
X6470000Y20620000D03*
X6470000Y5380000D03*
X9010000Y5380000D03*
X11550000Y5380000D03*
X14090000Y5380000D03*
D12*
X16630000Y5380000D03*
X19170000Y5380000D03*
X21710000Y5380000D03*
X24250000Y5380000D03*
X26790000Y5380000D03*
X29330000Y5380000D03*
X31870000Y5380000D03*
X34410000Y5380000D03*
X36950000Y5380000D03*
X39490000Y5380000D03*
X42030000Y5380000D03*
D13*
X53598800Y14445000D03*
X53598800Y11905000D03*
X53598800Y19525000D03*
X53598800Y16985000D03*
D14*
X53598800Y6825000D03*
D13*
X53598800Y9365000D03*
D15*
X37500000Y9250000D03*
X44500000Y9250000D03*
X34121100Y5376400D03*
D16*
X44500000Y9250000D02*
X37500000Y9250000D01*
M02*
