M48
;DRILL file {KiCad 4.0.7-e2-6376~58~ubuntu14.04.1} date Wed Mar  7 22:29:48 2018
;FORMAT={-:-/ absolute / metric / decimal}
FMAT,2
METRIC,TZ
T1C0.800
T2C0.998
T3C1.001
T4C1.016
T5C2.200
%
G90
G05
M71
T1
X34.121Y5.376
X37.5Y9.25
X44.5Y9.25
T2
X26.79Y5.38
X29.33Y5.38
X31.87Y5.38
X34.41Y5.38
X36.95Y5.38
X39.49Y5.38
X42.03Y5.38
T3
X6.47Y20.62
X6.47Y5.38
X9.01Y20.62
X9.01Y5.38
X11.55Y20.62
X11.55Y5.38
X14.09Y20.62
X14.09Y5.38
X16.63Y20.62
X16.63Y5.38
X19.17Y20.62
X19.17Y5.38
X21.71Y20.62
X21.71Y5.38
X24.25Y20.62
X24.25Y5.38
X26.79Y20.62
X29.33Y20.62
X31.87Y20.62
X34.41Y20.62
X36.95Y20.62
X39.49Y20.62
X42.03Y20.62
T4
X53.599Y19.525
X53.599Y16.985
X53.599Y14.445
X53.599Y11.905
X53.599Y9.365
X53.599Y6.825
T5
X2.Y24.25
X2.5Y2.75
X57.Y24.
X57.Y2.75
T0
M30
