G04 #@! TF.FileFunction,Copper,L2,Bot,Signal*
%FSLAX46Y46*%
G04 Gerber Fmt 4.6, Leading zero omitted, Abs format (unit mm)*
G04 Created by KiCad (PCBNEW 4.0.7-e2-6376~58~ubuntu14.04.1) date Wed Mar  7 22:27:56 2018*
%MOMM*%
%LPD*%
G01*
G04 APERTURE LIST*
%ADD10C,0.100000*%
%ADD11O,1.524000X2.199640*%
%ADD12O,1.524000X2.197100*%
%ADD13O,2.197100X1.524000*%
%ADD14R,2.197100X1.524000*%
%ADD15C,1.000000*%
%ADD16C,1.000000*%
%ADD17C,0.254000*%
G04 APERTURE END LIST*
D10*
D11*
X42030000Y20620000D03*
X39490000Y20620000D03*
X36950000Y20620000D03*
X34410000Y20620000D03*
X31870000Y20620000D03*
X29330000Y20620000D03*
X26790000Y20620000D03*
X24250000Y20620000D03*
X21710000Y20620000D03*
X19170000Y20620000D03*
X16630000Y20620000D03*
X14090000Y20620000D03*
X11550000Y20620000D03*
X9010000Y20620000D03*
X6470000Y20620000D03*
X6470000Y5380000D03*
X9010000Y5380000D03*
X11550000Y5380000D03*
X14090000Y5380000D03*
D12*
X16630000Y5380000D03*
X19170000Y5380000D03*
X21710000Y5380000D03*
X24250000Y5380000D03*
X26790000Y5380000D03*
X29330000Y5380000D03*
X31870000Y5380000D03*
X34410000Y5380000D03*
X36950000Y5380000D03*
X39490000Y5380000D03*
X42030000Y5380000D03*
D13*
X53598800Y14445000D03*
X53598800Y11905000D03*
X53598800Y19525000D03*
X53598800Y16985000D03*
D14*
X53598800Y6825000D03*
D13*
X53598800Y9365000D03*
D15*
X37500000Y9250000D03*
X44500000Y9250000D03*
X34121100Y5376400D03*
D16*
X53598800Y11905000D02*
X9095000Y11905000D01*
X16630000Y21870000D02*
X16630000Y20620000D01*
X15250000Y23250000D02*
X16630000Y21870000D01*
X6000000Y23250000D02*
X15250000Y23250000D01*
X4000000Y21250000D02*
X6000000Y23250000D01*
X4000000Y17000000D02*
X4000000Y21250000D01*
X9095000Y11905000D02*
X4000000Y17000000D01*
X53598800Y16985000D02*
X11015000Y16985000D01*
X9010000Y18990000D02*
X9010000Y20620000D01*
X11015000Y16985000D02*
X9010000Y18990000D01*
X53598800Y14445000D02*
X10055000Y14445000D01*
X6470000Y18030000D02*
X6470000Y20620000D01*
X10055000Y14445000D02*
X6470000Y18030000D01*
X55225000Y19525000D02*
X57500000Y17250000D01*
X56250000Y5750000D02*
X52750000Y1500000D01*
X52750000Y1500000D02*
X7250000Y1500000D01*
X7250000Y1500000D02*
X6470000Y3530000D01*
X6470000Y5380000D02*
X6470000Y3530000D01*
X55225000Y19525000D02*
X53598800Y19525000D01*
X57500000Y7000000D02*
X56250000Y5750000D01*
X57500000Y17250000D02*
X57500000Y7000000D01*
X37500000Y9250000D02*
X36250000Y9250000D01*
X34410000Y5380000D02*
X34410000Y7410000D01*
X44500000Y9250000D02*
X53483800Y9250000D01*
X36250000Y9250000D02*
X34410000Y7410000D01*
X53598800Y9365000D02*
X53483800Y9250000D01*
D17*
G36*
X55966440Y25549758D02*
X55452048Y25036264D01*
X55173318Y24365007D01*
X55172684Y23638182D01*
X55450242Y22966440D01*
X55963736Y22452048D01*
X56634993Y22173318D01*
X57361818Y22172684D01*
X58033560Y22450242D01*
X58547952Y22963736D01*
X58698000Y23325092D01*
X58698000Y17395793D01*
X58633600Y17719553D01*
X58367620Y18117620D01*
X56092620Y20392620D01*
X55694553Y20658600D01*
X55225000Y20752000D01*
X54763411Y20752000D01*
X54540931Y20900657D01*
X53971115Y21014000D01*
X53226485Y21014000D01*
X52656669Y20900657D01*
X52173603Y20577882D01*
X51850828Y20094816D01*
X51737485Y19525000D01*
X51850828Y18955184D01*
X52173603Y18472118D01*
X52498542Y18255000D01*
X52434189Y18212000D01*
X11523240Y18212000D01*
X10631570Y19103670D01*
X10980184Y18870733D01*
X11550000Y18757390D01*
X12119816Y18870733D01*
X12602882Y19193508D01*
X12820000Y19518447D01*
X13037118Y19193508D01*
X13520184Y18870733D01*
X14090000Y18757390D01*
X14659816Y18870733D01*
X15142882Y19193508D01*
X15360000Y19518447D01*
X15577118Y19193508D01*
X16060184Y18870733D01*
X16630000Y18757390D01*
X17199816Y18870733D01*
X17682882Y19193508D01*
X17900000Y19518447D01*
X18117118Y19193508D01*
X18600184Y18870733D01*
X19170000Y18757390D01*
X19739816Y18870733D01*
X20222882Y19193508D01*
X20440000Y19518447D01*
X20657118Y19193508D01*
X21140184Y18870733D01*
X21710000Y18757390D01*
X22279816Y18870733D01*
X22762882Y19193508D01*
X22980000Y19518447D01*
X23197118Y19193508D01*
X23680184Y18870733D01*
X24250000Y18757390D01*
X24819816Y18870733D01*
X25302882Y19193508D01*
X25520000Y19518447D01*
X25737118Y19193508D01*
X26220184Y18870733D01*
X26790000Y18757390D01*
X27359816Y18870733D01*
X27842882Y19193508D01*
X28060000Y19518447D01*
X28277118Y19193508D01*
X28760184Y18870733D01*
X29330000Y18757390D01*
X29899816Y18870733D01*
X30382882Y19193508D01*
X30600000Y19518447D01*
X30817118Y19193508D01*
X31300184Y18870733D01*
X31870000Y18757390D01*
X32439816Y18870733D01*
X32922882Y19193508D01*
X33193536Y19598569D01*
X33511974Y19204550D01*
X33992723Y18942920D01*
X34066930Y18927960D01*
X34283000Y19050460D01*
X34283000Y20493000D01*
X34263000Y20493000D01*
X34263000Y20747000D01*
X34283000Y20747000D01*
X34283000Y22189540D01*
X34537000Y22189540D01*
X34537000Y20747000D01*
X34557000Y20747000D01*
X34557000Y20493000D01*
X34537000Y20493000D01*
X34537000Y19050460D01*
X34753070Y18927960D01*
X34827277Y18942920D01*
X35308026Y19204550D01*
X35626464Y19598569D01*
X35897118Y19193508D01*
X36380184Y18870733D01*
X36950000Y18757390D01*
X37519816Y18870733D01*
X38002882Y19193508D01*
X38220000Y19518447D01*
X38437118Y19193508D01*
X38920184Y18870733D01*
X39490000Y18757390D01*
X40059816Y18870733D01*
X40542882Y19193508D01*
X40760000Y19518447D01*
X40977118Y19193508D01*
X41460184Y18870733D01*
X42030000Y18757390D01*
X42599816Y18870733D01*
X43082882Y19193508D01*
X43405657Y19676574D01*
X43519000Y20246390D01*
X43519000Y20993610D01*
X43405657Y21563426D01*
X43082882Y22046492D01*
X42599816Y22369267D01*
X42030000Y22482610D01*
X41460184Y22369267D01*
X40977118Y22046492D01*
X40760000Y21721553D01*
X40542882Y22046492D01*
X40059816Y22369267D01*
X39490000Y22482610D01*
X38920184Y22369267D01*
X38437118Y22046492D01*
X38220000Y21721553D01*
X38002882Y22046492D01*
X37519816Y22369267D01*
X36950000Y22482610D01*
X36380184Y22369267D01*
X35897118Y22046492D01*
X35626464Y21641431D01*
X35308026Y22035450D01*
X34827277Y22297080D01*
X34753070Y22312040D01*
X34537000Y22189540D01*
X34283000Y22189540D01*
X34066930Y22312040D01*
X33992723Y22297080D01*
X33511974Y22035450D01*
X33193536Y21641431D01*
X32922882Y22046492D01*
X32439816Y22369267D01*
X31870000Y22482610D01*
X31300184Y22369267D01*
X30817118Y22046492D01*
X30600000Y21721553D01*
X30382882Y22046492D01*
X29899816Y22369267D01*
X29330000Y22482610D01*
X28760184Y22369267D01*
X28277118Y22046492D01*
X28060000Y21721553D01*
X27842882Y22046492D01*
X27359816Y22369267D01*
X26790000Y22482610D01*
X26220184Y22369267D01*
X25737118Y22046492D01*
X25520000Y21721553D01*
X25302882Y22046492D01*
X24819816Y22369267D01*
X24250000Y22482610D01*
X23680184Y22369267D01*
X23197118Y22046492D01*
X22980000Y21721553D01*
X22762882Y22046492D01*
X22279816Y22369267D01*
X21710000Y22482610D01*
X21140184Y22369267D01*
X20657118Y22046492D01*
X20440000Y21721553D01*
X20222882Y22046492D01*
X19739816Y22369267D01*
X19170000Y22482610D01*
X18600184Y22369267D01*
X18117118Y22046492D01*
X17900000Y21721553D01*
X17857000Y21785906D01*
X17857000Y21870000D01*
X17763601Y22339552D01*
X17497620Y22737620D01*
X16117620Y24117620D01*
X15719553Y24383600D01*
X15250000Y24477000D01*
X6000000Y24477000D01*
X5530447Y24383600D01*
X5132380Y24117620D01*
X3132380Y22117620D01*
X2866400Y21719553D01*
X2773000Y21250000D01*
X2773000Y17000000D01*
X2866400Y16530447D01*
X3132380Y16132380D01*
X8227380Y11037380D01*
X8625447Y10771400D01*
X9095000Y10678000D01*
X52434189Y10678000D01*
X52498542Y10635000D01*
X52262079Y10477000D01*
X44500000Y10477000D01*
X44257005Y10477212D01*
X43805869Y10290806D01*
X43460407Y9945947D01*
X43273214Y9495136D01*
X43272788Y9007005D01*
X43459194Y8555869D01*
X43804053Y8210407D01*
X44254864Y8023214D01*
X44500000Y8023000D01*
X44500075Y8023000D01*
X44742995Y8022788D01*
X44743508Y8023000D01*
X52038225Y8023000D01*
X51961923Y7946698D01*
X51865250Y7713309D01*
X51865250Y7110750D01*
X52024000Y6952000D01*
X53471800Y6952000D01*
X53471800Y6972000D01*
X53725800Y6972000D01*
X53725800Y6952000D01*
X55173600Y6952000D01*
X55332350Y7110750D01*
X55332350Y7713309D01*
X55235677Y7946698D01*
X55057049Y8125327D01*
X54864073Y8205260D01*
X55023997Y8312118D01*
X55346772Y8795184D01*
X55460115Y9365000D01*
X55346772Y9934816D01*
X55023997Y10417882D01*
X54699058Y10635000D01*
X55023997Y10852118D01*
X55346772Y11335184D01*
X55460115Y11905000D01*
X55346772Y12474816D01*
X55023997Y12957882D01*
X54699058Y13175000D01*
X55023997Y13392118D01*
X55346772Y13875184D01*
X55460115Y14445000D01*
X55346772Y15014816D01*
X55023997Y15497882D01*
X54699058Y15715000D01*
X55023997Y15932118D01*
X55346772Y16415184D01*
X55460115Y16985000D01*
X55346772Y17554816D01*
X55118880Y17895880D01*
X56273000Y16741760D01*
X56273000Y7508240D01*
X55382380Y6617620D01*
X55349147Y6567883D01*
X55324156Y6547444D01*
X55173600Y6698000D01*
X53725800Y6698000D01*
X53725800Y5586750D01*
X53884550Y5428000D01*
X54395302Y5428000D01*
X52170949Y2727000D01*
X8093000Y2727000D01*
X7697000Y3757616D01*
X7697000Y4214094D01*
X7740000Y4278447D01*
X7957118Y3953508D01*
X8440184Y3630733D01*
X9010000Y3517390D01*
X9579816Y3630733D01*
X10062882Y3953508D01*
X10280000Y4278447D01*
X10497118Y3953508D01*
X10980184Y3630733D01*
X11550000Y3517390D01*
X12119816Y3630733D01*
X12602882Y3953508D01*
X12820000Y4278447D01*
X13037118Y3953508D01*
X13520184Y3630733D01*
X14090000Y3517390D01*
X14659816Y3630733D01*
X15142882Y3953508D01*
X15360433Y4279095D01*
X15577118Y3954803D01*
X16060184Y3632028D01*
X16630000Y3518685D01*
X17199816Y3632028D01*
X17682882Y3954803D01*
X17900000Y4279742D01*
X18117118Y3954803D01*
X18600184Y3632028D01*
X19170000Y3518685D01*
X19739816Y3632028D01*
X20222882Y3954803D01*
X20440000Y4279742D01*
X20657118Y3954803D01*
X21140184Y3632028D01*
X21710000Y3518685D01*
X22279816Y3632028D01*
X22762882Y3954803D01*
X22980000Y4279742D01*
X23197118Y3954803D01*
X23680184Y3632028D01*
X24250000Y3518685D01*
X24819816Y3632028D01*
X25302882Y3954803D01*
X25520000Y4279742D01*
X25737118Y3954803D01*
X26220184Y3632028D01*
X26790000Y3518685D01*
X27359816Y3632028D01*
X27842882Y3954803D01*
X28060000Y4279742D01*
X28277118Y3954803D01*
X28760184Y3632028D01*
X29330000Y3518685D01*
X29899816Y3632028D01*
X30382882Y3954803D01*
X30600000Y4279742D01*
X30817118Y3954803D01*
X31300184Y3632028D01*
X31870000Y3518685D01*
X32439816Y3632028D01*
X32922882Y3954803D01*
X33140000Y4279742D01*
X33357118Y3954803D01*
X33840184Y3632028D01*
X34410000Y3518685D01*
X34979816Y3632028D01*
X35462882Y3954803D01*
X35680000Y4279742D01*
X35897118Y3954803D01*
X36380184Y3632028D01*
X36950000Y3518685D01*
X37519816Y3632028D01*
X38002882Y3954803D01*
X38273527Y4359851D01*
X38591974Y3965820D01*
X39072723Y3704190D01*
X39146930Y3689230D01*
X39363000Y3811730D01*
X39363000Y5253000D01*
X39343000Y5253000D01*
X39343000Y5507000D01*
X39363000Y5507000D01*
X39363000Y6948270D01*
X39617000Y6948270D01*
X39617000Y5507000D01*
X39637000Y5507000D01*
X39637000Y5253000D01*
X39617000Y5253000D01*
X39617000Y3811730D01*
X39833070Y3689230D01*
X39907277Y3704190D01*
X40388026Y3965820D01*
X40706473Y4359851D01*
X40977118Y3954803D01*
X41460184Y3632028D01*
X42030000Y3518685D01*
X42599816Y3632028D01*
X43082882Y3954803D01*
X43405657Y4437869D01*
X43519000Y5007685D01*
X43519000Y5752315D01*
X43405657Y6322131D01*
X43260583Y6539250D01*
X51865250Y6539250D01*
X51865250Y5936691D01*
X51961923Y5703302D01*
X52140551Y5524673D01*
X52373940Y5428000D01*
X53313050Y5428000D01*
X53471800Y5586750D01*
X53471800Y6698000D01*
X52024000Y6698000D01*
X51865250Y6539250D01*
X43260583Y6539250D01*
X43082882Y6805197D01*
X42599816Y7127972D01*
X42030000Y7241315D01*
X41460184Y7127972D01*
X40977118Y6805197D01*
X40706473Y6400149D01*
X40388026Y6794180D01*
X39907277Y7055810D01*
X39833070Y7070770D01*
X39617000Y6948270D01*
X39363000Y6948270D01*
X39146930Y7070770D01*
X39072723Y7055810D01*
X38591974Y6794180D01*
X38273527Y6400149D01*
X38002882Y6805197D01*
X37519816Y7127972D01*
X36950000Y7241315D01*
X36380184Y7127972D01*
X35897118Y6805197D01*
X35680000Y6480258D01*
X35637000Y6544611D01*
X35637000Y6901760D01*
X36758240Y8023000D01*
X37500000Y8023000D01*
X37742995Y8022788D01*
X38194131Y8209194D01*
X38539593Y8554053D01*
X38726786Y9004864D01*
X38727212Y9492995D01*
X38540806Y9944131D01*
X38195947Y10289593D01*
X37745136Y10476786D01*
X37500000Y10477000D01*
X37499925Y10477000D01*
X37257005Y10477212D01*
X37256492Y10477000D01*
X36250000Y10477000D01*
X35780447Y10383600D01*
X35639756Y10289593D01*
X35382380Y10117620D01*
X33542380Y8277620D01*
X33276400Y7879553D01*
X33183000Y7410000D01*
X33183000Y6544611D01*
X33140000Y6480258D01*
X32922882Y6805197D01*
X32439816Y7127972D01*
X31870000Y7241315D01*
X31300184Y7127972D01*
X30817118Y6805197D01*
X30600000Y6480258D01*
X30382882Y6805197D01*
X29899816Y7127972D01*
X29330000Y7241315D01*
X28760184Y7127972D01*
X28277118Y6805197D01*
X28060000Y6480258D01*
X27842882Y6805197D01*
X27359816Y7127972D01*
X26790000Y7241315D01*
X26220184Y7127972D01*
X25737118Y6805197D01*
X25520000Y6480258D01*
X25302882Y6805197D01*
X24819816Y7127972D01*
X24250000Y7241315D01*
X23680184Y7127972D01*
X23197118Y6805197D01*
X22980000Y6480258D01*
X22762882Y6805197D01*
X22279816Y7127972D01*
X21710000Y7241315D01*
X21140184Y7127972D01*
X20657118Y6805197D01*
X20440000Y6480258D01*
X20222882Y6805197D01*
X19739816Y7127972D01*
X19170000Y7241315D01*
X18600184Y7127972D01*
X18117118Y6805197D01*
X17900000Y6480258D01*
X17682882Y6805197D01*
X17199816Y7127972D01*
X16630000Y7241315D01*
X16060184Y7127972D01*
X15577118Y6805197D01*
X15360433Y6480905D01*
X15142882Y6806492D01*
X14659816Y7129267D01*
X14090000Y7242610D01*
X13520184Y7129267D01*
X13037118Y6806492D01*
X12820000Y6481553D01*
X12602882Y6806492D01*
X12119816Y7129267D01*
X11550000Y7242610D01*
X10980184Y7129267D01*
X10497118Y6806492D01*
X10280000Y6481553D01*
X10062882Y6806492D01*
X9579816Y7129267D01*
X9010000Y7242610D01*
X8440184Y7129267D01*
X7957118Y6806492D01*
X7740000Y6481553D01*
X7522882Y6806492D01*
X7039816Y7129267D01*
X6470000Y7242610D01*
X5900184Y7129267D01*
X5417118Y6806492D01*
X5094343Y6323426D01*
X4981000Y5753610D01*
X4981000Y5006390D01*
X5094343Y4436574D01*
X5243000Y4214094D01*
X5243000Y3530000D01*
X5286666Y3310478D01*
X5324640Y3089911D01*
X6104639Y1059911D01*
X6113253Y1046269D01*
X6116400Y1030447D01*
X6240744Y844353D01*
X6267486Y802000D01*
X802000Y802000D01*
X802000Y2075213D01*
X950242Y1716440D01*
X1463736Y1202048D01*
X2134993Y923318D01*
X2861818Y922684D01*
X3533560Y1200242D01*
X4047952Y1713736D01*
X4326682Y2384993D01*
X4327316Y3111818D01*
X4049758Y3783560D01*
X3536264Y4297952D01*
X2865007Y4576682D01*
X2138182Y4577316D01*
X1466440Y4299758D01*
X952048Y3786264D01*
X802000Y3424908D01*
X802000Y22864067D01*
X963736Y22702048D01*
X1634993Y22423318D01*
X2361818Y22422684D01*
X3033560Y22700242D01*
X3547952Y23213736D01*
X3826682Y23884993D01*
X3827316Y24611818D01*
X3549758Y25283560D01*
X3136042Y25698000D01*
X56325213Y25698000D01*
X55966440Y25549758D01*
X55966440Y25549758D01*
G37*
X55966440Y25549758D02*
X55452048Y25036264D01*
X55173318Y24365007D01*
X55172684Y23638182D01*
X55450242Y22966440D01*
X55963736Y22452048D01*
X56634993Y22173318D01*
X57361818Y22172684D01*
X58033560Y22450242D01*
X58547952Y22963736D01*
X58698000Y23325092D01*
X58698000Y17395793D01*
X58633600Y17719553D01*
X58367620Y18117620D01*
X56092620Y20392620D01*
X55694553Y20658600D01*
X55225000Y20752000D01*
X54763411Y20752000D01*
X54540931Y20900657D01*
X53971115Y21014000D01*
X53226485Y21014000D01*
X52656669Y20900657D01*
X52173603Y20577882D01*
X51850828Y20094816D01*
X51737485Y19525000D01*
X51850828Y18955184D01*
X52173603Y18472118D01*
X52498542Y18255000D01*
X52434189Y18212000D01*
X11523240Y18212000D01*
X10631570Y19103670D01*
X10980184Y18870733D01*
X11550000Y18757390D01*
X12119816Y18870733D01*
X12602882Y19193508D01*
X12820000Y19518447D01*
X13037118Y19193508D01*
X13520184Y18870733D01*
X14090000Y18757390D01*
X14659816Y18870733D01*
X15142882Y19193508D01*
X15360000Y19518447D01*
X15577118Y19193508D01*
X16060184Y18870733D01*
X16630000Y18757390D01*
X17199816Y18870733D01*
X17682882Y19193508D01*
X17900000Y19518447D01*
X18117118Y19193508D01*
X18600184Y18870733D01*
X19170000Y18757390D01*
X19739816Y18870733D01*
X20222882Y19193508D01*
X20440000Y19518447D01*
X20657118Y19193508D01*
X21140184Y18870733D01*
X21710000Y18757390D01*
X22279816Y18870733D01*
X22762882Y19193508D01*
X22980000Y19518447D01*
X23197118Y19193508D01*
X23680184Y18870733D01*
X24250000Y18757390D01*
X24819816Y18870733D01*
X25302882Y19193508D01*
X25520000Y19518447D01*
X25737118Y19193508D01*
X26220184Y18870733D01*
X26790000Y18757390D01*
X27359816Y18870733D01*
X27842882Y19193508D01*
X28060000Y19518447D01*
X28277118Y19193508D01*
X28760184Y18870733D01*
X29330000Y18757390D01*
X29899816Y18870733D01*
X30382882Y19193508D01*
X30600000Y19518447D01*
X30817118Y19193508D01*
X31300184Y18870733D01*
X31870000Y18757390D01*
X32439816Y18870733D01*
X32922882Y19193508D01*
X33193536Y19598569D01*
X33511974Y19204550D01*
X33992723Y18942920D01*
X34066930Y18927960D01*
X34283000Y19050460D01*
X34283000Y20493000D01*
X34263000Y20493000D01*
X34263000Y20747000D01*
X34283000Y20747000D01*
X34283000Y22189540D01*
X34537000Y22189540D01*
X34537000Y20747000D01*
X34557000Y20747000D01*
X34557000Y20493000D01*
X34537000Y20493000D01*
X34537000Y19050460D01*
X34753070Y18927960D01*
X34827277Y18942920D01*
X35308026Y19204550D01*
X35626464Y19598569D01*
X35897118Y19193508D01*
X36380184Y18870733D01*
X36950000Y18757390D01*
X37519816Y18870733D01*
X38002882Y19193508D01*
X38220000Y19518447D01*
X38437118Y19193508D01*
X38920184Y18870733D01*
X39490000Y18757390D01*
X40059816Y18870733D01*
X40542882Y19193508D01*
X40760000Y19518447D01*
X40977118Y19193508D01*
X41460184Y18870733D01*
X42030000Y18757390D01*
X42599816Y18870733D01*
X43082882Y19193508D01*
X43405657Y19676574D01*
X43519000Y20246390D01*
X43519000Y20993610D01*
X43405657Y21563426D01*
X43082882Y22046492D01*
X42599816Y22369267D01*
X42030000Y22482610D01*
X41460184Y22369267D01*
X40977118Y22046492D01*
X40760000Y21721553D01*
X40542882Y22046492D01*
X40059816Y22369267D01*
X39490000Y22482610D01*
X38920184Y22369267D01*
X38437118Y22046492D01*
X38220000Y21721553D01*
X38002882Y22046492D01*
X37519816Y22369267D01*
X36950000Y22482610D01*
X36380184Y22369267D01*
X35897118Y22046492D01*
X35626464Y21641431D01*
X35308026Y22035450D01*
X34827277Y22297080D01*
X34753070Y22312040D01*
X34537000Y22189540D01*
X34283000Y22189540D01*
X34066930Y22312040D01*
X33992723Y22297080D01*
X33511974Y22035450D01*
X33193536Y21641431D01*
X32922882Y22046492D01*
X32439816Y22369267D01*
X31870000Y22482610D01*
X31300184Y22369267D01*
X30817118Y22046492D01*
X30600000Y21721553D01*
X30382882Y22046492D01*
X29899816Y22369267D01*
X29330000Y22482610D01*
X28760184Y22369267D01*
X28277118Y22046492D01*
X28060000Y21721553D01*
X27842882Y22046492D01*
X27359816Y22369267D01*
X26790000Y22482610D01*
X26220184Y22369267D01*
X25737118Y22046492D01*
X25520000Y21721553D01*
X25302882Y22046492D01*
X24819816Y22369267D01*
X24250000Y22482610D01*
X23680184Y22369267D01*
X23197118Y22046492D01*
X22980000Y21721553D01*
X22762882Y22046492D01*
X22279816Y22369267D01*
X21710000Y22482610D01*
X21140184Y22369267D01*
X20657118Y22046492D01*
X20440000Y21721553D01*
X20222882Y22046492D01*
X19739816Y22369267D01*
X19170000Y22482610D01*
X18600184Y22369267D01*
X18117118Y22046492D01*
X17900000Y21721553D01*
X17857000Y21785906D01*
X17857000Y21870000D01*
X17763601Y22339552D01*
X17497620Y22737620D01*
X16117620Y24117620D01*
X15719553Y24383600D01*
X15250000Y24477000D01*
X6000000Y24477000D01*
X5530447Y24383600D01*
X5132380Y24117620D01*
X3132380Y22117620D01*
X2866400Y21719553D01*
X2773000Y21250000D01*
X2773000Y17000000D01*
X2866400Y16530447D01*
X3132380Y16132380D01*
X8227380Y11037380D01*
X8625447Y10771400D01*
X9095000Y10678000D01*
X52434189Y10678000D01*
X52498542Y10635000D01*
X52262079Y10477000D01*
X44500000Y10477000D01*
X44257005Y10477212D01*
X43805869Y10290806D01*
X43460407Y9945947D01*
X43273214Y9495136D01*
X43272788Y9007005D01*
X43459194Y8555869D01*
X43804053Y8210407D01*
X44254864Y8023214D01*
X44500000Y8023000D01*
X44500075Y8023000D01*
X44742995Y8022788D01*
X44743508Y8023000D01*
X52038225Y8023000D01*
X51961923Y7946698D01*
X51865250Y7713309D01*
X51865250Y7110750D01*
X52024000Y6952000D01*
X53471800Y6952000D01*
X53471800Y6972000D01*
X53725800Y6972000D01*
X53725800Y6952000D01*
X55173600Y6952000D01*
X55332350Y7110750D01*
X55332350Y7713309D01*
X55235677Y7946698D01*
X55057049Y8125327D01*
X54864073Y8205260D01*
X55023997Y8312118D01*
X55346772Y8795184D01*
X55460115Y9365000D01*
X55346772Y9934816D01*
X55023997Y10417882D01*
X54699058Y10635000D01*
X55023997Y10852118D01*
X55346772Y11335184D01*
X55460115Y11905000D01*
X55346772Y12474816D01*
X55023997Y12957882D01*
X54699058Y13175000D01*
X55023997Y13392118D01*
X55346772Y13875184D01*
X55460115Y14445000D01*
X55346772Y15014816D01*
X55023997Y15497882D01*
X54699058Y15715000D01*
X55023997Y15932118D01*
X55346772Y16415184D01*
X55460115Y16985000D01*
X55346772Y17554816D01*
X55118880Y17895880D01*
X56273000Y16741760D01*
X56273000Y7508240D01*
X55382380Y6617620D01*
X55349147Y6567883D01*
X55324156Y6547444D01*
X55173600Y6698000D01*
X53725800Y6698000D01*
X53725800Y5586750D01*
X53884550Y5428000D01*
X54395302Y5428000D01*
X52170949Y2727000D01*
X8093000Y2727000D01*
X7697000Y3757616D01*
X7697000Y4214094D01*
X7740000Y4278447D01*
X7957118Y3953508D01*
X8440184Y3630733D01*
X9010000Y3517390D01*
X9579816Y3630733D01*
X10062882Y3953508D01*
X10280000Y4278447D01*
X10497118Y3953508D01*
X10980184Y3630733D01*
X11550000Y3517390D01*
X12119816Y3630733D01*
X12602882Y3953508D01*
X12820000Y4278447D01*
X13037118Y3953508D01*
X13520184Y3630733D01*
X14090000Y3517390D01*
X14659816Y3630733D01*
X15142882Y3953508D01*
X15360433Y4279095D01*
X15577118Y3954803D01*
X16060184Y3632028D01*
X16630000Y3518685D01*
X17199816Y3632028D01*
X17682882Y3954803D01*
X17900000Y4279742D01*
X18117118Y3954803D01*
X18600184Y3632028D01*
X19170000Y3518685D01*
X19739816Y3632028D01*
X20222882Y3954803D01*
X20440000Y4279742D01*
X20657118Y3954803D01*
X21140184Y3632028D01*
X21710000Y3518685D01*
X22279816Y3632028D01*
X22762882Y3954803D01*
X22980000Y4279742D01*
X23197118Y3954803D01*
X23680184Y3632028D01*
X24250000Y3518685D01*
X24819816Y3632028D01*
X25302882Y3954803D01*
X25520000Y4279742D01*
X25737118Y3954803D01*
X26220184Y3632028D01*
X26790000Y3518685D01*
X27359816Y3632028D01*
X27842882Y3954803D01*
X28060000Y4279742D01*
X28277118Y3954803D01*
X28760184Y3632028D01*
X29330000Y3518685D01*
X29899816Y3632028D01*
X30382882Y3954803D01*
X30600000Y4279742D01*
X30817118Y3954803D01*
X31300184Y3632028D01*
X31870000Y3518685D01*
X32439816Y3632028D01*
X32922882Y3954803D01*
X33140000Y4279742D01*
X33357118Y3954803D01*
X33840184Y3632028D01*
X34410000Y3518685D01*
X34979816Y3632028D01*
X35462882Y3954803D01*
X35680000Y4279742D01*
X35897118Y3954803D01*
X36380184Y3632028D01*
X36950000Y3518685D01*
X37519816Y3632028D01*
X38002882Y3954803D01*
X38273527Y4359851D01*
X38591974Y3965820D01*
X39072723Y3704190D01*
X39146930Y3689230D01*
X39363000Y3811730D01*
X39363000Y5253000D01*
X39343000Y5253000D01*
X39343000Y5507000D01*
X39363000Y5507000D01*
X39363000Y6948270D01*
X39617000Y6948270D01*
X39617000Y5507000D01*
X39637000Y5507000D01*
X39637000Y5253000D01*
X39617000Y5253000D01*
X39617000Y3811730D01*
X39833070Y3689230D01*
X39907277Y3704190D01*
X40388026Y3965820D01*
X40706473Y4359851D01*
X40977118Y3954803D01*
X41460184Y3632028D01*
X42030000Y3518685D01*
X42599816Y3632028D01*
X43082882Y3954803D01*
X43405657Y4437869D01*
X43519000Y5007685D01*
X43519000Y5752315D01*
X43405657Y6322131D01*
X43260583Y6539250D01*
X51865250Y6539250D01*
X51865250Y5936691D01*
X51961923Y5703302D01*
X52140551Y5524673D01*
X52373940Y5428000D01*
X53313050Y5428000D01*
X53471800Y5586750D01*
X53471800Y6698000D01*
X52024000Y6698000D01*
X51865250Y6539250D01*
X43260583Y6539250D01*
X43082882Y6805197D01*
X42599816Y7127972D01*
X42030000Y7241315D01*
X41460184Y7127972D01*
X40977118Y6805197D01*
X40706473Y6400149D01*
X40388026Y6794180D01*
X39907277Y7055810D01*
X39833070Y7070770D01*
X39617000Y6948270D01*
X39363000Y6948270D01*
X39146930Y7070770D01*
X39072723Y7055810D01*
X38591974Y6794180D01*
X38273527Y6400149D01*
X38002882Y6805197D01*
X37519816Y7127972D01*
X36950000Y7241315D01*
X36380184Y7127972D01*
X35897118Y6805197D01*
X35680000Y6480258D01*
X35637000Y6544611D01*
X35637000Y6901760D01*
X36758240Y8023000D01*
X37500000Y8023000D01*
X37742995Y8022788D01*
X38194131Y8209194D01*
X38539593Y8554053D01*
X38726786Y9004864D01*
X38727212Y9492995D01*
X38540806Y9944131D01*
X38195947Y10289593D01*
X37745136Y10476786D01*
X37500000Y10477000D01*
X37499925Y10477000D01*
X37257005Y10477212D01*
X37256492Y10477000D01*
X36250000Y10477000D01*
X35780447Y10383600D01*
X35639756Y10289593D01*
X35382380Y10117620D01*
X33542380Y8277620D01*
X33276400Y7879553D01*
X33183000Y7410000D01*
X33183000Y6544611D01*
X33140000Y6480258D01*
X32922882Y6805197D01*
X32439816Y7127972D01*
X31870000Y7241315D01*
X31300184Y7127972D01*
X30817118Y6805197D01*
X30600000Y6480258D01*
X30382882Y6805197D01*
X29899816Y7127972D01*
X29330000Y7241315D01*
X28760184Y7127972D01*
X28277118Y6805197D01*
X28060000Y6480258D01*
X27842882Y6805197D01*
X27359816Y7127972D01*
X26790000Y7241315D01*
X26220184Y7127972D01*
X25737118Y6805197D01*
X25520000Y6480258D01*
X25302882Y6805197D01*
X24819816Y7127972D01*
X24250000Y7241315D01*
X23680184Y7127972D01*
X23197118Y6805197D01*
X22980000Y6480258D01*
X22762882Y6805197D01*
X22279816Y7127972D01*
X21710000Y7241315D01*
X21140184Y7127972D01*
X20657118Y6805197D01*
X20440000Y6480258D01*
X20222882Y6805197D01*
X19739816Y7127972D01*
X19170000Y7241315D01*
X18600184Y7127972D01*
X18117118Y6805197D01*
X17900000Y6480258D01*
X17682882Y6805197D01*
X17199816Y7127972D01*
X16630000Y7241315D01*
X16060184Y7127972D01*
X15577118Y6805197D01*
X15360433Y6480905D01*
X15142882Y6806492D01*
X14659816Y7129267D01*
X14090000Y7242610D01*
X13520184Y7129267D01*
X13037118Y6806492D01*
X12820000Y6481553D01*
X12602882Y6806492D01*
X12119816Y7129267D01*
X11550000Y7242610D01*
X10980184Y7129267D01*
X10497118Y6806492D01*
X10280000Y6481553D01*
X10062882Y6806492D01*
X9579816Y7129267D01*
X9010000Y7242610D01*
X8440184Y7129267D01*
X7957118Y6806492D01*
X7740000Y6481553D01*
X7522882Y6806492D01*
X7039816Y7129267D01*
X6470000Y7242610D01*
X5900184Y7129267D01*
X5417118Y6806492D01*
X5094343Y6323426D01*
X4981000Y5753610D01*
X4981000Y5006390D01*
X5094343Y4436574D01*
X5243000Y4214094D01*
X5243000Y3530000D01*
X5286666Y3310478D01*
X5324640Y3089911D01*
X6104639Y1059911D01*
X6113253Y1046269D01*
X6116400Y1030447D01*
X6240744Y844353D01*
X6267486Y802000D01*
X802000Y802000D01*
X802000Y2075213D01*
X950242Y1716440D01*
X1463736Y1202048D01*
X2134993Y923318D01*
X2861818Y922684D01*
X3533560Y1200242D01*
X4047952Y1713736D01*
X4326682Y2384993D01*
X4327316Y3111818D01*
X4049758Y3783560D01*
X3536264Y4297952D01*
X2865007Y4576682D01*
X2138182Y4577316D01*
X1466440Y4299758D01*
X952048Y3786264D01*
X802000Y3424908D01*
X802000Y22864067D01*
X963736Y22702048D01*
X1634993Y22423318D01*
X2361818Y22422684D01*
X3033560Y22700242D01*
X3547952Y23213736D01*
X3826682Y23884993D01*
X3827316Y24611818D01*
X3549758Y25283560D01*
X3136042Y25698000D01*
X56325213Y25698000D01*
X55966440Y25549758D01*
M02*
