M48
;DRILL file {KiCad 4.0.7-e2-6376~58~ubuntu14.04.1} date Wed Mar  7 22:38:35 2018
;FORMAT={-:-/ absolute / metric / decimal}
FMAT,2
METRIC,TZ
T1C0.800
T2C0.800
T3C0.998
T4C1.001
T5C1.016
T6C1.270
T7C1.520
T8C1.524
T9C2.200
%
G90
G05
M71
T1
X2.611Y97.608
X5.55Y100.75
X24.711Y54.508
X24.711Y49.508
X24.711Y96.258
X24.711Y91.258
X24.711Y75.508
X24.711Y70.508
X24.711Y33.758
X24.711Y28.758
X30.5Y99.5
X30.525Y86.725
X34.691Y99.5
X36.211Y55.508
X36.211Y50.508
X41.15Y97.325
X42.625Y77.475
X42.65Y69.45
X48.261Y11.258
X54.711Y74.758
X54.711Y69.758
X54.711Y95.758
X54.711Y90.758
X54.711Y54.008
X54.711Y49.008
X54.711Y33.258
X54.711Y28.258
X57.461Y5.008
X59.961Y5.008
X60.961Y11.258
T2
X13.901Y75.508
X13.901Y96.258
X13.901Y54.508
X13.901Y33.758
X21.521Y75.508
X21.521Y96.258
X21.521Y54.508
X21.521Y33.758
X57.901Y33.258
X57.901Y95.758
X57.901Y74.758
X57.901Y54.008
X65.521Y33.258
X65.521Y95.758
X65.521Y74.758
X65.521Y54.008
T3
X33.091Y55.468
X33.091Y52.928
X33.091Y50.388
X33.091Y47.848
X33.091Y45.308
X33.091Y42.768
X33.091Y40.228
T4
X33.091Y75.788
X33.091Y73.248
X33.091Y70.708
X33.091Y68.168
X33.091Y65.628
X33.091Y63.088
X33.091Y60.548
X33.091Y58.008
X34.461Y26.938
X34.461Y24.398
X34.461Y21.858
X34.461Y19.318
X34.461Y16.778
X34.461Y14.238
X34.461Y11.698
X34.461Y9.158
X34.461Y6.618
X34.461Y4.078
X45.711Y105.938
X45.711Y103.398
X45.711Y100.858
X45.711Y98.318
X45.711Y95.778
X45.711Y93.238
X45.711Y90.698
X45.711Y88.158
X45.711Y85.618
X45.711Y83.078
X48.331Y75.788
X48.331Y73.248
X48.331Y70.708
X48.331Y68.168
X48.331Y65.628
X48.331Y63.088
X48.331Y60.548
X48.331Y58.008
X48.331Y55.468
X48.331Y52.928
X48.331Y50.388
X48.331Y47.848
X48.331Y45.308
X48.331Y42.768
X48.331Y40.228
T5
X7.15Y106.576
X9.69Y106.576
X12.23Y106.576
X14.77Y106.576
X17.31Y106.576
X19.85Y106.576
T6
X13.961Y65.258
X13.961Y23.508
X13.961Y86.008
X13.961Y44.258
X65.461Y85.258
X65.461Y64.508
X65.461Y43.758
X65.461Y23.008
T7
X65.881Y8.258
X70.961Y8.258
T8
X7.611Y71.608
X7.611Y58.908
X7.611Y29.858
X7.611Y17.158
X7.611Y92.358
X7.611Y79.658
X7.611Y50.608
X7.611Y37.908
X20.311Y71.608
X20.311Y58.908
X20.311Y29.858
X20.311Y17.158
X20.311Y92.358
X20.311Y79.658
X20.311Y50.608
X20.311Y37.908
X59.111Y91.608
X59.111Y78.908
X59.111Y70.858
X59.111Y58.158
X59.111Y50.108
X59.111Y37.408
X59.111Y29.358
X59.111Y16.658
X71.811Y91.608
X71.811Y78.908
X71.811Y70.858
X71.811Y58.158
X71.811Y50.108
X71.811Y37.408
X71.811Y29.358
X71.811Y16.658
T9
X3.25Y3.25
X8.25Y97.75
X75.5Y114.25
X76.Y3.25
T0
M30
