G04 #@! TF.FileFunction,Copper,L2,Bot,Signal*
%FSLAX46Y46*%
G04 Gerber Fmt 4.6, Leading zero omitted, Abs format (unit mm)*
G04 Created by KiCad (PCBNEW 4.0.7-e2-6376~58~ubuntu14.04.1) date Wed Mar  7 22:38:55 2018*
%MOMM*%
%LPD*%
G01*
G04 APERTURE LIST*
%ADD10C,0.100000*%
%ADD11R,2.199640X1.524000*%
%ADD12O,2.199640X1.524000*%
%ADD13R,1.600000X1.600000*%
%ADD14C,1.600000*%
%ADD15C,3.810000*%
%ADD16C,3.556000*%
%ADD17O,1.600000X1.600000*%
%ADD18C,1.998980*%
%ADD19O,2.197100X1.524000*%
%ADD20R,3.000000X3.000000*%
%ADD21C,3.000000*%
%ADD22O,1.524000X2.197100*%
%ADD23R,1.524000X2.197100*%
%ADD24C,1.000000*%
%ADD25C,1.000000*%
%ADD26C,0.254000*%
G04 APERTURE END LIST*
D10*
D11*
X45711417Y105937883D03*
D12*
X45711417Y103397883D03*
X45711417Y100857883D03*
X45711417Y98317883D03*
X45711417Y95777883D03*
X45711417Y93237883D03*
X45711417Y90697883D03*
X45711417Y88157883D03*
X45711417Y85617883D03*
X45711417Y83077883D03*
D13*
X59961418Y5007883D03*
D14*
X57461418Y5007883D03*
X54711418Y95757882D03*
X54711418Y90757882D03*
X54711418Y54007882D03*
X54711418Y49007882D03*
X54711418Y33257882D03*
X54711418Y28257882D03*
X54711417Y74757882D03*
X54711417Y69757882D03*
X24711418Y33757883D03*
X24711418Y28757883D03*
X24711416Y54507882D03*
X24711416Y49507882D03*
X24711418Y75507882D03*
X24711418Y70507882D03*
X24711417Y96257883D03*
X24711417Y91257883D03*
D15*
X71811418Y91607882D03*
D16*
X65461418Y85257882D03*
D15*
X71811418Y78907882D03*
X59111418Y91607882D03*
X59111418Y78907882D03*
X71811418Y50107883D03*
D16*
X65461418Y43757883D03*
D15*
X71811418Y37407883D03*
X59111418Y50107883D03*
X59111418Y37407883D03*
X71811418Y29357882D03*
D16*
X65461418Y23007882D03*
D15*
X71811418Y16657882D03*
X59111418Y29357882D03*
X59111418Y16657882D03*
X71811418Y70857882D03*
D16*
X65461418Y64507882D03*
D15*
X71811418Y58157882D03*
X59111418Y70857882D03*
X59111418Y58157882D03*
X20311417Y29857882D03*
D16*
X13961417Y23507882D03*
D15*
X20311417Y17157882D03*
X7611417Y29857882D03*
X7611417Y17157882D03*
X20311418Y50607882D03*
D16*
X13961418Y44257882D03*
D15*
X20311418Y37907882D03*
X7611418Y50607882D03*
X7611418Y37907882D03*
X20311417Y71607881D03*
D16*
X13961417Y65257881D03*
D15*
X20311417Y58907881D03*
X7611417Y71607881D03*
X7611417Y58907881D03*
X20311418Y92357882D03*
D16*
X13961418Y86007882D03*
D15*
X20311418Y79657882D03*
X7611418Y92357882D03*
X7611418Y79657882D03*
D14*
X60961418Y11257882D03*
D17*
X48261418Y11257882D03*
D18*
X57901417Y95757883D03*
X65521417Y95757883D03*
X57901418Y54007883D03*
X65521418Y54007883D03*
X57901416Y33257882D03*
X65521416Y33257882D03*
X57901418Y74757883D03*
X65521418Y74757883D03*
X21521418Y33757882D03*
X13901418Y33757882D03*
X21521418Y54507882D03*
X13901418Y54507882D03*
X21521417Y75507881D03*
X13901417Y75507881D03*
X21521418Y96257882D03*
X13901418Y96257882D03*
D11*
X34461418Y4077882D03*
D12*
X34461418Y6617882D03*
X34461418Y9157882D03*
X34461418Y11697882D03*
X34461418Y14237882D03*
X34461418Y16777882D03*
X34461418Y19317882D03*
X34461418Y21857882D03*
X34461418Y24397882D03*
X34461418Y26937882D03*
X48331418Y40227883D03*
X48331418Y42767883D03*
X48331418Y45307883D03*
X48331418Y47847883D03*
X48331418Y50387883D03*
X48331418Y52927883D03*
X48331418Y55467883D03*
X48331418Y58007883D03*
X48331418Y60547883D03*
X48331418Y63087883D03*
X48331418Y65627883D03*
X48331418Y68167883D03*
X48331418Y70707883D03*
X48331418Y73247883D03*
X48331418Y75787883D03*
X33091418Y75787883D03*
X33091418Y73247883D03*
X33091418Y70707883D03*
X33091418Y68167883D03*
D19*
X33091418Y65627883D03*
X33091418Y63087883D03*
X33091418Y60547883D03*
X33091418Y58007883D03*
X33091418Y55467883D03*
X33091418Y52927883D03*
X33091418Y50387883D03*
X33091418Y47847883D03*
X33091418Y45307883D03*
X33091418Y42767883D03*
X33091418Y40227883D03*
D20*
X70961417Y8257882D03*
D21*
X65881417Y8257882D03*
D22*
X14770000Y106576200D03*
X12230000Y106576200D03*
X19850000Y106576200D03*
X17310000Y106576200D03*
D23*
X7150000Y106576200D03*
D22*
X9690000Y106576200D03*
D24*
X5550000Y100750000D03*
X2611418Y97607883D03*
X42650000Y69450000D03*
X42625000Y77475000D03*
X36211417Y55507882D03*
X36211417Y50507881D03*
X30525000Y86725000D03*
X41150000Y97325000D03*
X34691420Y99500000D03*
X30500000Y99500000D03*
D25*
X42500000Y105937883D02*
X37512605Y105937883D01*
X31250484Y112200004D02*
X29750000Y112200004D01*
X37512605Y105937883D02*
X31250484Y112200004D01*
X45711417Y105937883D02*
X42500000Y105937883D01*
X42500000Y105937883D02*
X42012121Y105937883D01*
X42012121Y105937883D02*
X41962117Y105937883D01*
X9690000Y109750000D02*
X12140004Y112200004D01*
X12140004Y112200004D02*
X29750000Y112200004D01*
X45649300Y106000000D02*
X45711417Y105937883D01*
X9690000Y106576200D02*
X9690000Y104890000D01*
X2611418Y97607883D02*
X2611418Y10357882D01*
X2611418Y10357882D02*
X8141418Y4077882D01*
X8141418Y4077882D02*
X34461417Y4077882D01*
X9690000Y104890000D02*
X5550000Y100750000D01*
X9690000Y106576200D02*
X9690000Y109750000D01*
X9690000Y109750000D02*
X9690000Y109940000D01*
X48261417Y11257883D02*
X46211418Y11257882D01*
X46211418Y11257882D02*
X39031417Y4077882D01*
X39031417Y4077882D02*
X34461417Y4077882D01*
X59961418Y5007883D02*
X59961418Y8007882D01*
X56711418Y11257882D02*
X48261417Y11257883D01*
X59961418Y8007882D02*
X56711418Y11257882D01*
X33091418Y47847882D02*
X33621418Y47847883D01*
X33621418Y47847883D02*
X35461418Y46007883D01*
X35461418Y46007883D02*
X35461417Y41507882D01*
X35461417Y41507882D02*
X35461418Y40227882D01*
X33091418Y40227882D02*
X35461418Y40227882D01*
X35461418Y40227882D02*
X35461418Y37857882D01*
X35461418Y37857882D02*
X36711418Y36607882D01*
X34461417Y14237882D02*
X33441417Y14237882D01*
X33441417Y14237882D02*
X31711418Y12507882D01*
X31711417Y5757881D02*
X33391418Y4077882D01*
X31711418Y12507882D02*
X31711417Y5757881D01*
X33391418Y4077882D02*
X34461417Y4077882D01*
X35691418Y14237882D02*
X34461417Y14237882D01*
X36711418Y36607882D02*
X36711418Y15257883D01*
X36711418Y15257883D02*
X35691418Y14237882D01*
X45711416Y90697882D02*
X47651417Y90697881D01*
X54711418Y95757882D02*
X57901418Y95757882D01*
X47651417Y90697881D02*
X52711418Y95757882D01*
X52711418Y95757882D02*
X54711418Y95757882D01*
X52711418Y81007882D02*
X52711418Y67757882D01*
X48101418Y85617882D02*
X45711418Y85617882D01*
X52711418Y81007882D02*
X48101418Y85617882D01*
X54711417Y65757882D02*
X54711418Y54007882D01*
X52711418Y67757882D02*
X54711417Y65757882D01*
X54711418Y54007882D02*
X57901418Y54007882D01*
X46961289Y83007882D02*
X50798197Y79167891D01*
X50798197Y67408359D02*
X53111415Y65095140D01*
X53111415Y65095140D02*
X53111416Y56157880D01*
X53111416Y56157880D02*
X52461418Y55507882D01*
X52461418Y55507882D02*
X52461418Y47257882D01*
X52461418Y47257882D02*
X54711418Y45007882D01*
X54711418Y45007882D02*
X54711418Y33257882D01*
X50798197Y79167891D02*
X50798197Y67408359D01*
X57901417Y33257881D02*
X54711418Y33257882D01*
X46961289Y83007882D02*
X46891289Y83077882D01*
X46891289Y83077882D02*
X45711418Y83077882D01*
X46801418Y83167882D02*
X46961289Y83007882D01*
X45711418Y88157882D02*
X48311418Y88157883D01*
X48311418Y88157883D02*
X54711418Y81757883D01*
X54711418Y81757883D02*
X54711417Y74757882D01*
X54711417Y74757882D02*
X57901418Y74757883D01*
X24711418Y33757883D02*
X26711418Y31757883D01*
X28151418Y19317882D02*
X34461417Y19317883D01*
X26711418Y20757882D02*
X28151418Y19317882D01*
X26711418Y31757883D02*
X26711418Y20757882D01*
X21521418Y33757882D02*
X24711418Y33757883D01*
X29111418Y21857883D02*
X28311420Y22657881D01*
X34461418Y21857882D02*
X29111418Y21857883D01*
X24711418Y52257882D02*
X24711416Y54507882D01*
X26711418Y50257882D02*
X24711418Y52257882D01*
X26711417Y34507883D02*
X26711418Y50257882D01*
X28311420Y32907880D02*
X26711417Y34507883D01*
X28311420Y22657881D02*
X28311420Y32907880D01*
X24711416Y54507882D02*
X21521419Y54507882D01*
X29911422Y25257882D02*
X29911422Y33570622D01*
X26711418Y73507883D02*
X24711418Y75507882D01*
X26711418Y55507883D02*
X26711418Y73507883D01*
X28311420Y53907881D02*
X26711418Y55507883D01*
X28311420Y35170624D02*
X28311420Y53907881D01*
X29911422Y33570622D02*
X28311420Y35170624D01*
X34461417Y24397882D02*
X30771421Y24397882D01*
X30771421Y24397882D02*
X29911422Y25257882D01*
X21521418Y75507882D02*
X24711418Y75507882D01*
X31711418Y26937882D02*
X31511424Y27137878D01*
X28311420Y92657880D02*
X26211417Y94757882D01*
X28311420Y56170624D02*
X28311420Y92657880D01*
X29911421Y54570623D02*
X28311420Y56170624D01*
X29911422Y35833367D02*
X29911421Y54570623D01*
X31511424Y34233365D02*
X29911422Y35833367D01*
X31511424Y27137878D02*
X31511424Y34233365D01*
X24711417Y96257883D02*
X26211417Y94757882D01*
X31711418Y26937882D02*
X34461417Y26937882D01*
X24711417Y96257883D02*
X21521418Y96257883D01*
X36211417Y58007883D02*
X36211417Y58211417D01*
X42650000Y65946464D02*
X42650000Y69450000D01*
X42625000Y77475000D02*
X42625000Y95875000D01*
X42625000Y95875000D02*
X45067883Y98317883D01*
X42650000Y64650000D02*
X42650000Y65946464D01*
X36211417Y58211417D02*
X42650000Y64650000D01*
X36211417Y58007883D02*
X34711419Y58007883D01*
X34711419Y58007883D02*
X33091418Y58007883D01*
X36211417Y58007883D02*
X36211417Y55507882D01*
X36211418Y47757883D02*
X36211417Y50507881D01*
X38336418Y14382881D02*
X38336418Y29232884D01*
X37061420Y46907881D02*
X36211418Y47757883D01*
X37061420Y38520624D02*
X37061420Y46907881D01*
X38336417Y37245627D02*
X37061420Y38520624D01*
X38336418Y29232884D02*
X38336417Y37245627D01*
X35651418Y11697882D02*
X38336418Y14382881D01*
X35651418Y11697882D02*
X34461418Y11697882D01*
X45067883Y98317883D02*
X45711417Y98317883D01*
X45711417Y100857883D02*
X44682883Y100857883D01*
X44682883Y100857883D02*
X41150000Y97325000D01*
X30525000Y56821465D02*
X31878582Y55467883D01*
X30525000Y86725000D02*
X30525000Y56821465D01*
X31878582Y55467883D02*
X33091418Y55467883D01*
X33091418Y55467883D02*
X33851420Y55467882D01*
X33851420Y55467882D02*
X37811420Y51507882D01*
X39961416Y16982884D02*
X39961418Y37883371D01*
X39961418Y37883371D02*
X38661422Y39183367D01*
X38661422Y39183367D02*
X38661422Y47907881D01*
X38661422Y47907881D02*
X37811421Y48757882D01*
X37811421Y48757882D02*
X37811420Y51507882D01*
X39961417Y13257882D02*
X39961416Y16982884D01*
X34461418Y9157882D02*
X35861417Y9157882D01*
X35861417Y9157882D02*
X39961417Y13257882D01*
X60961418Y11257882D02*
X65211417Y8257882D01*
X65211417Y8257882D02*
X65881417Y8257883D01*
X65521417Y95757883D02*
X65521418Y86567881D01*
X65521418Y86567881D02*
X65461419Y86507882D01*
X65521418Y54007883D02*
X65521419Y43817882D01*
X65521419Y43817882D02*
X65461418Y43757883D01*
X65521418Y33257882D02*
X65521419Y23067882D01*
X65521419Y23067882D02*
X65461418Y23007882D01*
X65521418Y74757882D02*
X65521418Y64317883D01*
X65521418Y64317883D02*
X65461418Y64257883D01*
X13901418Y33757882D02*
X13901418Y23567882D01*
X13901418Y23567882D02*
X13961417Y23507882D01*
X13901418Y54507882D02*
X13901418Y44317882D01*
X13901418Y44317882D02*
X13961418Y44257882D01*
X13901417Y75507882D02*
X13901418Y65317882D01*
X13901418Y65317882D02*
X13961417Y65257881D01*
X13901418Y96257882D02*
X13901418Y86067882D01*
X13901418Y86067882D02*
X13961418Y86007882D01*
X44250002Y67499998D02*
X44250002Y66249998D01*
X44250002Y70249998D02*
X44250002Y67499998D01*
X40588536Y71647881D02*
X42852119Y71647881D01*
X34691420Y99500000D02*
X36211417Y97980003D01*
X36211417Y97588583D02*
X36211417Y97980003D01*
X36211417Y76025000D02*
X40588536Y71647881D01*
X36211417Y97588583D02*
X36211417Y76025000D01*
X42852119Y71647881D02*
X44250002Y70249998D01*
X44872117Y65627883D02*
X46122117Y65627883D01*
X44250002Y66249998D02*
X44872117Y65627883D01*
X48331418Y65627883D02*
X46122117Y65627883D01*
X12230000Y106576200D02*
X12230000Y103020000D01*
X19000000Y99500000D02*
X30500000Y99500000D01*
X15750000Y99500000D02*
X19000000Y99500000D01*
X12230000Y103020000D02*
X15750000Y99500000D01*
X17310000Y107750000D02*
X18560000Y109000000D01*
X18560000Y109000000D02*
X29925000Y109000000D01*
X17310000Y106576200D02*
X17310000Y107750000D01*
X29925000Y109000000D02*
X36575000Y102350000D01*
X48331418Y73247883D02*
X41327117Y73247883D01*
X37811419Y101113581D02*
X37811419Y76763581D01*
X41327117Y73247883D02*
X37811419Y76763581D01*
X37811419Y101113581D02*
X36575000Y102350000D01*
X36575000Y102350000D02*
X37811419Y101113581D01*
X14770000Y108000000D02*
X17370002Y110600002D01*
X30587742Y110600002D02*
X31218872Y109968872D01*
X17370002Y110600002D02*
X30587742Y110600002D01*
X14770000Y108020000D02*
X14770000Y108000000D01*
X14770000Y108000000D02*
X14770000Y106576200D01*
X39411421Y101776323D02*
X39411421Y77426323D01*
X39411421Y77426323D02*
X41049861Y75787883D01*
X41049861Y75787883D02*
X48331418Y75787883D01*
X31218872Y109968872D02*
X39411421Y101776323D01*
X19850000Y106576200D02*
X30086056Y106576200D01*
X30086056Y106576200D02*
X30956128Y105706128D01*
X33091418Y103570838D02*
X33091418Y75787883D01*
X30956128Y105706128D02*
X33091418Y103570838D01*
D26*
G36*
X77948000Y802000D02*
X802000Y802000D01*
X802000Y2888182D01*
X1422684Y2888182D01*
X1700242Y2216440D01*
X2213736Y1702048D01*
X2884993Y1423318D01*
X3611818Y1422684D01*
X4283560Y1700242D01*
X4797952Y2213736D01*
X5076682Y2884993D01*
X5077316Y3611818D01*
X4799758Y4283560D01*
X4286264Y4797952D01*
X3615007Y5076682D01*
X2888182Y5077316D01*
X2216440Y4799758D01*
X1702048Y4286264D01*
X1423318Y3615007D01*
X1422684Y2888182D01*
X802000Y2888182D01*
X802000Y97364888D01*
X1384206Y97364888D01*
X1384418Y97364375D01*
X1384418Y10357882D01*
X1423670Y10160549D01*
X1450337Y9961119D01*
X1470125Y9927006D01*
X1477818Y9888329D01*
X1589597Y9721040D01*
X1690554Y9546994D01*
X7220555Y3266994D01*
X7251889Y3243052D01*
X7273798Y3210262D01*
X7441097Y3098477D01*
X7600965Y2976320D01*
X7639076Y2966191D01*
X7671865Y2944282D01*
X7869197Y2905030D01*
X8063654Y2853348D01*
X8102743Y2858575D01*
X8141418Y2850882D01*
X32796908Y2850882D01*
X32830270Y2799036D01*
X33073213Y2633039D01*
X33361598Y2574640D01*
X35561238Y2574640D01*
X35830648Y2625333D01*
X36078084Y2784554D01*
X36123404Y2850882D01*
X39031417Y2850882D01*
X39218936Y2888182D01*
X74172684Y2888182D01*
X74450242Y2216440D01*
X74963736Y1702048D01*
X75634993Y1423318D01*
X76361818Y1422684D01*
X77033560Y1700242D01*
X77547952Y2213736D01*
X77826682Y2884993D01*
X77827316Y3611818D01*
X77549758Y4283560D01*
X77036264Y4797952D01*
X76365007Y5076682D01*
X75638182Y5077316D01*
X74966440Y4799758D01*
X74452048Y4286264D01*
X74173318Y3615007D01*
X74172684Y2888182D01*
X39218936Y2888182D01*
X39500970Y2944282D01*
X39899037Y3210262D01*
X46719658Y10030882D01*
X47372121Y10030883D01*
X47647144Y9847118D01*
X48231502Y9730882D01*
X48291334Y9730882D01*
X48875692Y9847118D01*
X49150715Y10030883D01*
X56203178Y10030882D01*
X58734418Y7499642D01*
X58734418Y6397025D01*
X58644572Y6339211D01*
X58478575Y6096268D01*
X58420176Y5807883D01*
X58420176Y4207883D01*
X58470869Y3938473D01*
X58630090Y3691037D01*
X58873033Y3525040D01*
X59161418Y3466641D01*
X60761418Y3466641D01*
X61030828Y3517334D01*
X61278264Y3676555D01*
X61444261Y3919498D01*
X61502660Y4207883D01*
X61502660Y5807883D01*
X61451967Y6077293D01*
X61292746Y6324729D01*
X61188418Y6396014D01*
X61188418Y8007882D01*
X61095018Y8477435D01*
X60829038Y8875502D01*
X58749065Y10955475D01*
X59434153Y10955475D01*
X59666135Y10394036D01*
X60095312Y9964109D01*
X60656346Y9731147D01*
X60997030Y9730850D01*
X63654065Y7855295D01*
X63654031Y7816848D01*
X63992357Y6998036D01*
X64618275Y6371024D01*
X65436496Y6031269D01*
X66322451Y6030496D01*
X67141263Y6368822D01*
X67768275Y6994740D01*
X68108030Y7812961D01*
X68108803Y8698916D01*
X67770477Y9517728D01*
X67144559Y10144740D01*
X66326338Y10484495D01*
X65440383Y10485268D01*
X64647661Y10157722D01*
X62417857Y11731702D01*
X62256701Y12121728D01*
X61827524Y12551655D01*
X61266490Y12784617D01*
X60659011Y12785147D01*
X60097572Y12553165D01*
X59667645Y12123988D01*
X59434683Y11562954D01*
X59434153Y10955475D01*
X58749065Y10955475D01*
X57579038Y12125502D01*
X57377297Y12260301D01*
X57180971Y12391482D01*
X56711418Y12484882D01*
X49150713Y12484883D01*
X48875692Y12668646D01*
X48291334Y12784882D01*
X48231502Y12784882D01*
X47647144Y12668646D01*
X47372123Y12484883D01*
X46211417Y12484882D01*
X45741864Y12391482D01*
X45343799Y12125503D01*
X45343798Y12125502D01*
X38523177Y5304882D01*
X36125928Y5304882D01*
X36092566Y5356728D01*
X35849623Y5522725D01*
X35561238Y5581124D01*
X33623416Y5581124D01*
X32938417Y6266122D01*
X32938417Y8249435D01*
X33034926Y8105000D01*
X33517992Y7782225D01*
X34087808Y7668882D01*
X34835028Y7668882D01*
X35404844Y7782225D01*
X35627324Y7930882D01*
X35861417Y7930882D01*
X36330970Y8024282D01*
X36729037Y8290262D01*
X40829037Y12390262D01*
X41095018Y12788330D01*
X41188417Y13257882D01*
X41188416Y16982884D01*
X41188416Y22511793D01*
X62955984Y22511793D01*
X63336544Y21590767D01*
X64040597Y20885485D01*
X64960957Y20503318D01*
X65957507Y20502448D01*
X66878533Y20883008D01*
X67583815Y21587061D01*
X67965982Y22507421D01*
X67966852Y23503971D01*
X67586292Y24424997D01*
X66882239Y25130279D01*
X66748419Y25185846D01*
X66748418Y32043247D01*
X66984210Y32278627D01*
X67247606Y32912955D01*
X67248205Y33599795D01*
X66985916Y34234582D01*
X66500671Y34720676D01*
X65866343Y34984072D01*
X65179503Y34984671D01*
X64544716Y34722382D01*
X64058622Y34237137D01*
X63795226Y33602809D01*
X63794627Y32915969D01*
X64056916Y32281182D01*
X64294418Y32043264D01*
X64294419Y25236102D01*
X64044303Y25132756D01*
X63339021Y24428703D01*
X62956854Y23508343D01*
X62955984Y22511793D01*
X41188416Y22511793D01*
X41188418Y37883371D01*
X41095018Y38352924D01*
X40829038Y38750991D01*
X39888422Y39691607D01*
X39888422Y45307883D01*
X46468808Y45307883D01*
X46582151Y44738067D01*
X46904926Y44255001D01*
X47229865Y44037883D01*
X46904926Y43820765D01*
X46582151Y43337699D01*
X46468808Y42767883D01*
X46582151Y42198067D01*
X46904926Y41715001D01*
X47229865Y41497883D01*
X46904926Y41280765D01*
X46582151Y40797699D01*
X46468808Y40227883D01*
X46582151Y39658067D01*
X46904926Y39175001D01*
X47387992Y38852226D01*
X47957808Y38738883D01*
X48705028Y38738883D01*
X49274844Y38852226D01*
X49757910Y39175001D01*
X50080685Y39658067D01*
X50194028Y40227883D01*
X50080685Y40797699D01*
X49757910Y41280765D01*
X49432971Y41497883D01*
X49757910Y41715001D01*
X50080685Y42198067D01*
X50194028Y42767883D01*
X50080685Y43337699D01*
X49757910Y43820765D01*
X49432971Y44037883D01*
X49757910Y44255001D01*
X50080685Y44738067D01*
X50194028Y45307883D01*
X50080685Y45877699D01*
X49757910Y46360765D01*
X49274844Y46683540D01*
X48705028Y46796883D01*
X47957808Y46796883D01*
X47387992Y46683540D01*
X46904926Y46360765D01*
X46582151Y45877699D01*
X46468808Y45307883D01*
X39888422Y45307883D01*
X39888422Y47907881D01*
X39795022Y48377434D01*
X39529042Y48775501D01*
X39038421Y49266122D01*
X39038420Y51507882D01*
X39029599Y51552226D01*
X38945021Y51977434D01*
X38679040Y52375502D01*
X36680468Y54374074D01*
X36905548Y54467076D01*
X37251010Y54811935D01*
X37438203Y55262746D01*
X37438629Y55750877D01*
X37438417Y55751390D01*
X37438417Y57703177D01*
X43517620Y63782380D01*
X43637331Y63961540D01*
X43783600Y64180447D01*
X43877000Y64650000D01*
X43877000Y64887760D01*
X44004497Y64760263D01*
X44402564Y64494283D01*
X44872117Y64400883D01*
X47165512Y64400883D01*
X47229865Y64357883D01*
X46904926Y64140765D01*
X46582151Y63657699D01*
X46468808Y63087883D01*
X46582151Y62518067D01*
X46904926Y62035001D01*
X47229865Y61817883D01*
X46904926Y61600765D01*
X46582151Y61117699D01*
X46468808Y60547883D01*
X46582151Y59978067D01*
X46904926Y59495001D01*
X47229865Y59277883D01*
X46904926Y59060765D01*
X46582151Y58577699D01*
X46468808Y58007883D01*
X46582151Y57438067D01*
X46904926Y56955001D01*
X47229865Y56737883D01*
X46904926Y56520765D01*
X46582151Y56037699D01*
X46468808Y55467883D01*
X46582151Y54898067D01*
X46904926Y54415001D01*
X47229865Y54197883D01*
X46904926Y53980765D01*
X46582151Y53497699D01*
X46468808Y52927883D01*
X46582151Y52358067D01*
X46904926Y51875001D01*
X47229865Y51657883D01*
X46904926Y51440765D01*
X46582151Y50957699D01*
X46468808Y50387883D01*
X46582151Y49818067D01*
X46904926Y49335001D01*
X47387992Y49012226D01*
X47957808Y48898883D01*
X48705028Y48898883D01*
X49274844Y49012226D01*
X49757910Y49335001D01*
X50080685Y49818067D01*
X50194028Y50387883D01*
X50080685Y50957699D01*
X49757910Y51440765D01*
X49432971Y51657883D01*
X49757910Y51875001D01*
X50080685Y52358067D01*
X50194028Y52927883D01*
X50080685Y53497699D01*
X49757910Y53980765D01*
X49432971Y54197883D01*
X49757910Y54415001D01*
X50080685Y54898067D01*
X50194028Y55467883D01*
X50080685Y56037699D01*
X49757910Y56520765D01*
X49432971Y56737883D01*
X49757910Y56955001D01*
X50080685Y57438067D01*
X50194028Y58007883D01*
X50080685Y58577699D01*
X49757910Y59060765D01*
X49432971Y59277883D01*
X49757910Y59495001D01*
X50080685Y59978067D01*
X50194028Y60547883D01*
X50080685Y61117699D01*
X49757910Y61600765D01*
X49432971Y61817883D01*
X49757910Y62035001D01*
X50080685Y62518067D01*
X50194028Y63087883D01*
X50080685Y63657699D01*
X49757910Y64140765D01*
X49432971Y64357883D01*
X49757910Y64575001D01*
X50080685Y65058067D01*
X50194028Y65627883D01*
X50080685Y66197699D01*
X49757910Y66680765D01*
X49432971Y66897883D01*
X49644608Y67039295D01*
X49664597Y66938806D01*
X49869093Y66632756D01*
X49930577Y66540739D01*
X51884415Y64586900D01*
X51884416Y56666120D01*
X51593798Y56375502D01*
X51327818Y55977435D01*
X51234418Y55507882D01*
X51234418Y47257882D01*
X51327818Y46788329D01*
X51561681Y46438329D01*
X51593798Y46390262D01*
X53484418Y44499642D01*
X53484418Y34190645D01*
X53417645Y34123988D01*
X53184683Y33562954D01*
X53184153Y32955475D01*
X53416135Y32394036D01*
X53845312Y31964109D01*
X54406346Y31731147D01*
X55013825Y31730617D01*
X55575264Y31962599D01*
X55643666Y32030882D01*
X56686779Y32030881D01*
X56922161Y31795088D01*
X57556489Y31531692D01*
X58243329Y31531093D01*
X58878116Y31793382D01*
X59364210Y32278627D01*
X59627606Y32912955D01*
X59628205Y33599795D01*
X59365916Y34234582D01*
X58880671Y34720676D01*
X58246343Y34984072D01*
X57559503Y34984671D01*
X56924716Y34722382D01*
X56686800Y34484881D01*
X55938418Y34484882D01*
X55938418Y43261794D01*
X62955984Y43261794D01*
X63336544Y42340768D01*
X64040597Y41635486D01*
X64960957Y41253319D01*
X65957507Y41252449D01*
X66878533Y41633009D01*
X67583815Y42337062D01*
X67965982Y43257422D01*
X67966852Y44253972D01*
X67586292Y45174998D01*
X66882239Y45880280D01*
X66748419Y45935847D01*
X66748418Y52793246D01*
X66984212Y53028628D01*
X67247608Y53662956D01*
X67248207Y54349796D01*
X66985918Y54984583D01*
X66500673Y55470677D01*
X65866345Y55734073D01*
X65179505Y55734672D01*
X64544718Y55472383D01*
X64058624Y54987138D01*
X63795228Y54352810D01*
X63794629Y53665970D01*
X64056918Y53031183D01*
X64294418Y52793267D01*
X64294419Y45986103D01*
X64044303Y45882757D01*
X63339021Y45178704D01*
X62956854Y44258344D01*
X62955984Y43261794D01*
X55938418Y43261794D01*
X55938418Y45007882D01*
X55905177Y45174998D01*
X55845019Y45477434D01*
X55579038Y45875502D01*
X53688418Y47766122D01*
X53688418Y52871277D01*
X53845312Y52714109D01*
X54406346Y52481147D01*
X55013825Y52480617D01*
X55575264Y52712599D01*
X55643666Y52780882D01*
X56686782Y52780882D01*
X56922163Y52545089D01*
X57556491Y52281693D01*
X58243331Y52281094D01*
X58878118Y52543383D01*
X59364212Y53028628D01*
X59627608Y53662956D01*
X59628207Y54349796D01*
X59365918Y54984583D01*
X58880673Y55470677D01*
X58246345Y55734073D01*
X57559505Y55734672D01*
X56924718Y55472383D01*
X56686801Y55234882D01*
X55938418Y55234882D01*
X55938418Y64011793D01*
X62955984Y64011793D01*
X63336544Y63090767D01*
X64040597Y62385485D01*
X64960957Y62003318D01*
X65957507Y62002448D01*
X66878533Y62383008D01*
X67583815Y63087061D01*
X67965982Y64007421D01*
X67966852Y65003971D01*
X67586292Y65924997D01*
X66882239Y66630279D01*
X66748418Y66685846D01*
X66748418Y73543246D01*
X66984212Y73778628D01*
X67247608Y74412956D01*
X67248207Y75099796D01*
X66985918Y75734583D01*
X66500673Y76220677D01*
X65866345Y76484073D01*
X65179505Y76484672D01*
X64544718Y76222383D01*
X64058624Y75737138D01*
X63795228Y75102810D01*
X63794629Y74415970D01*
X64056918Y73781183D01*
X64294418Y73543267D01*
X64294418Y66736101D01*
X64044303Y66632756D01*
X63339021Y65928703D01*
X62956854Y65008343D01*
X62955984Y64011793D01*
X55938418Y64011793D01*
X55938417Y65757882D01*
X55845017Y66227435D01*
X55579037Y66625502D01*
X53938418Y68266122D01*
X53938418Y73425448D01*
X54406345Y73231147D01*
X55013824Y73230617D01*
X55575263Y73462599D01*
X55643666Y73530882D01*
X56686781Y73530883D01*
X56922163Y73295089D01*
X57556491Y73031693D01*
X58243331Y73031094D01*
X58878118Y73293383D01*
X59364212Y73778628D01*
X59627608Y74412956D01*
X59628207Y75099796D01*
X59365918Y75734583D01*
X58880673Y76220677D01*
X58246345Y76484073D01*
X57559505Y76484672D01*
X56924718Y76222383D01*
X56686802Y75984883D01*
X55938417Y75984882D01*
X55938418Y81757883D01*
X55845018Y82227436D01*
X55579038Y82625503D01*
X53442748Y84761793D01*
X62955984Y84761793D01*
X63336544Y83840767D01*
X64040597Y83135485D01*
X64960957Y82753318D01*
X65957507Y82752448D01*
X66878533Y83133008D01*
X67583815Y83837061D01*
X67965982Y84757421D01*
X67966852Y85753971D01*
X67586292Y86674997D01*
X66882239Y87380279D01*
X66748418Y87435846D01*
X66748417Y94543246D01*
X66984211Y94778628D01*
X67247607Y95412956D01*
X67248206Y96099796D01*
X66985917Y96734583D01*
X66500672Y97220677D01*
X65866344Y97484073D01*
X65179504Y97484672D01*
X64544717Y97222383D01*
X64058623Y96737138D01*
X63795227Y96102810D01*
X63794628Y95415970D01*
X64056917Y94781183D01*
X64294417Y94543267D01*
X64294418Y87486101D01*
X64044303Y87382756D01*
X63339021Y86678703D01*
X62956854Y85758343D01*
X62955984Y84761793D01*
X53442748Y84761793D01*
X49179038Y89025503D01*
X48780971Y89291483D01*
X48311418Y89384883D01*
X46877324Y89384882D01*
X46812970Y89427883D01*
X46877321Y89470881D01*
X47651417Y89470881D01*
X48120969Y89564281D01*
X48519037Y89830261D01*
X53219658Y94530882D01*
X53778655Y94530882D01*
X53845312Y94464109D01*
X54406346Y94231147D01*
X55013825Y94230617D01*
X55575264Y94462599D01*
X55643666Y94530882D01*
X56686781Y94530882D01*
X56922162Y94295089D01*
X57556490Y94031693D01*
X58243330Y94031094D01*
X58878117Y94293383D01*
X59364211Y94778628D01*
X59627607Y95412956D01*
X59628206Y96099796D01*
X59365917Y96734583D01*
X58880672Y97220677D01*
X58246344Y97484073D01*
X57559504Y97484672D01*
X56924717Y97222383D01*
X56686800Y96984882D01*
X55644181Y96984882D01*
X55577524Y97051655D01*
X55016490Y97284617D01*
X54409011Y97285147D01*
X53847572Y97053165D01*
X53779170Y96984882D01*
X52711418Y96984882D01*
X52241865Y96891482D01*
X51851830Y96630869D01*
X51843798Y96625502D01*
X47143177Y91924881D01*
X46877326Y91924881D01*
X46812970Y91967883D01*
X47137909Y92185001D01*
X47460684Y92668067D01*
X47574027Y93237883D01*
X47460684Y93807699D01*
X47137909Y94290765D01*
X46654843Y94613540D01*
X46085027Y94726883D01*
X45337807Y94726883D01*
X44767991Y94613540D01*
X44284925Y94290765D01*
X43962150Y93807699D01*
X43852000Y93253935D01*
X43852000Y95366760D01*
X45318052Y96832812D01*
X45337807Y96828883D01*
X46085027Y96828883D01*
X46654843Y96942226D01*
X47137909Y97265001D01*
X47460684Y97748067D01*
X47574027Y98317883D01*
X47460684Y98887699D01*
X47137909Y99370765D01*
X46812970Y99587883D01*
X47137909Y99805001D01*
X47460684Y100288067D01*
X47574027Y100857883D01*
X47460684Y101427699D01*
X47137909Y101910765D01*
X46654843Y102233540D01*
X46085027Y102346883D01*
X45337807Y102346883D01*
X44767991Y102233540D01*
X44487281Y102045975D01*
X44213330Y101991483D01*
X43815263Y101725503D01*
X40638421Y98548661D01*
X40638421Y101776323D01*
X40545021Y102245876D01*
X40279041Y102643943D01*
X38212101Y104710883D01*
X44046907Y104710883D01*
X44080269Y104659037D01*
X44323212Y104493040D01*
X44611597Y104434641D01*
X46811237Y104434641D01*
X47080647Y104485334D01*
X47328083Y104644555D01*
X47494080Y104887498D01*
X47552479Y105175883D01*
X47552479Y106699883D01*
X47501786Y106969293D01*
X47342565Y107216729D01*
X47099622Y107382726D01*
X46811237Y107441125D01*
X44611597Y107441125D01*
X44342187Y107390432D01*
X44094751Y107231211D01*
X44049431Y107164883D01*
X38020845Y107164883D01*
X32118104Y113067624D01*
X31720037Y113333604D01*
X31250484Y113427004D01*
X12140004Y113427004D01*
X11670451Y113333604D01*
X11272384Y113067624D01*
X9292740Y111087980D01*
X9220447Y111073600D01*
X8822380Y110807620D01*
X8556400Y110409553D01*
X8463000Y109940000D01*
X8463000Y107740811D01*
X8314343Y107518331D01*
X8201000Y106948515D01*
X8201000Y106203885D01*
X8314343Y105634069D01*
X8463000Y105411589D01*
X8463000Y105398240D01*
X4682380Y101617620D01*
X4510407Y101445947D01*
X4323214Y100995136D01*
X4322788Y100507005D01*
X4509194Y100055869D01*
X4854053Y99710407D01*
X5304864Y99523214D01*
X5550000Y99523000D01*
X5792995Y99522788D01*
X6244131Y99709194D01*
X6589593Y100054053D01*
X6589806Y100054566D01*
X10557620Y104022380D01*
X10707706Y104247000D01*
X10823600Y104420447D01*
X10917000Y104890000D01*
X10917000Y105411589D01*
X10960000Y105475942D01*
X11003000Y105411589D01*
X11003000Y103020000D01*
X11096400Y102550447D01*
X11234452Y102343838D01*
X11362380Y102152380D01*
X14882380Y98632380D01*
X15280448Y98366399D01*
X15750000Y98273000D01*
X30500000Y98273000D01*
X30742995Y98272788D01*
X31194131Y98459194D01*
X31539593Y98804053D01*
X31726786Y99254864D01*
X31727212Y99742995D01*
X31540806Y100194131D01*
X31195947Y100539593D01*
X30745136Y100726786D01*
X30500000Y100727000D01*
X30499925Y100727000D01*
X30257005Y100727212D01*
X30256492Y100727000D01*
X16258240Y100727000D01*
X13457000Y103528240D01*
X13457000Y105411589D01*
X13500000Y105475942D01*
X13717118Y105151003D01*
X14200184Y104828228D01*
X14770000Y104714885D01*
X15339816Y104828228D01*
X15822882Y105151003D01*
X16040000Y105475942D01*
X16257118Y105151003D01*
X16740184Y104828228D01*
X17310000Y104714885D01*
X17879816Y104828228D01*
X18362882Y105151003D01*
X18580000Y105475942D01*
X18797118Y105151003D01*
X19280184Y104828228D01*
X19850000Y104714885D01*
X20419816Y104828228D01*
X20902882Y105151003D01*
X21035313Y105349200D01*
X29577816Y105349200D01*
X31864418Y103062598D01*
X31864418Y76974062D01*
X31752000Y76898946D01*
X31752000Y86725000D01*
X31752212Y86967995D01*
X31565806Y87419131D01*
X31220947Y87764593D01*
X30770136Y87951786D01*
X30525000Y87952000D01*
X30282005Y87952212D01*
X29830869Y87765806D01*
X29538420Y87473867D01*
X29538420Y92657880D01*
X29445020Y93127433D01*
X29179040Y93525500D01*
X27079037Y95625502D01*
X26238600Y96465940D01*
X26238682Y96560290D01*
X26006700Y97121729D01*
X25577523Y97551656D01*
X25016489Y97784618D01*
X24409010Y97785148D01*
X23847571Y97553166D01*
X23779169Y97484883D01*
X22736054Y97484883D01*
X22500673Y97720676D01*
X21866345Y97984072D01*
X21179505Y97984671D01*
X20544718Y97722382D01*
X20058624Y97237137D01*
X19795228Y96602809D01*
X19794629Y95915969D01*
X20056918Y95281182D01*
X20542163Y94795088D01*
X21176491Y94531692D01*
X21863331Y94531093D01*
X22498118Y94793382D01*
X22736035Y95030883D01*
X23778654Y95030883D01*
X23845311Y94964110D01*
X24406345Y94731148D01*
X24502996Y94731064D01*
X25343797Y93890262D01*
X27084420Y92149640D01*
X27084420Y74870122D01*
X26238601Y75715940D01*
X26238683Y75810289D01*
X26006701Y76371728D01*
X25577524Y76801655D01*
X25016490Y77034617D01*
X24409011Y77035147D01*
X23847572Y76803165D01*
X23779170Y76734882D01*
X22736053Y76734882D01*
X22500672Y76970675D01*
X21866344Y77234071D01*
X21179504Y77234670D01*
X20544717Y76972381D01*
X20058623Y76487136D01*
X19795227Y75852808D01*
X19794628Y75165968D01*
X20056917Y74531181D01*
X20542162Y74045087D01*
X21176490Y73781691D01*
X21863330Y73781092D01*
X22498117Y74043381D01*
X22736034Y74280882D01*
X23778655Y74280882D01*
X23845312Y74214109D01*
X24406346Y73981147D01*
X24502998Y73981063D01*
X25484418Y72999643D01*
X25484418Y55840315D01*
X25016488Y56034617D01*
X24409009Y56035147D01*
X23847570Y55803165D01*
X23779168Y55734882D01*
X22736055Y55734882D01*
X22500673Y55970676D01*
X21866345Y56234072D01*
X21179505Y56234671D01*
X20544718Y55972382D01*
X20058624Y55487137D01*
X19795228Y54852809D01*
X19794629Y54165969D01*
X20056918Y53531182D01*
X20542163Y53045088D01*
X21176491Y52781692D01*
X21863331Y52781093D01*
X22498118Y53043382D01*
X22736034Y53280882D01*
X23484417Y53280882D01*
X23484418Y52257881D01*
X23577818Y51788328D01*
X23765207Y51507882D01*
X23843798Y51390262D01*
X25484418Y49749642D01*
X25484417Y35090317D01*
X25016490Y35284618D01*
X24409011Y35285148D01*
X23847572Y35053166D01*
X23779169Y34984883D01*
X22736055Y34984882D01*
X22500673Y35220676D01*
X21866345Y35484072D01*
X21179505Y35484671D01*
X20544718Y35222382D01*
X20058624Y34737137D01*
X19795228Y34102809D01*
X19794629Y33415969D01*
X20056918Y32781182D01*
X20542163Y32295088D01*
X21176491Y32031692D01*
X21863331Y32031093D01*
X22498118Y32293382D01*
X22736034Y32530882D01*
X23778656Y32530883D01*
X23845312Y32464110D01*
X24406346Y32231148D01*
X24502997Y32231064D01*
X25484418Y31249643D01*
X25484418Y20757882D01*
X25577818Y20288329D01*
X25646525Y20185502D01*
X25843798Y19890262D01*
X27283798Y18450262D01*
X27681866Y18184281D01*
X28151418Y18090882D01*
X33295510Y18090883D01*
X33359865Y18047882D01*
X33034926Y17830764D01*
X32712151Y17347698D01*
X32598808Y16777882D01*
X32712151Y16208066D01*
X33034926Y15725000D01*
X33359865Y15507882D01*
X33233665Y15423558D01*
X32971864Y15371482D01*
X32573797Y15105502D01*
X30843798Y13375502D01*
X30577818Y12977435D01*
X30484418Y12507882D01*
X30484417Y5757881D01*
X30484417Y5757880D01*
X30574524Y5304882D01*
X8695865Y5304882D01*
X3838418Y10821115D01*
X3838418Y23011793D01*
X11455983Y23011793D01*
X11836543Y22090767D01*
X12540596Y21385485D01*
X13460956Y21003318D01*
X14457506Y21002448D01*
X15378532Y21383008D01*
X16083814Y22087061D01*
X16465981Y23007421D01*
X16466851Y24003971D01*
X16086291Y24924997D01*
X15382238Y25630279D01*
X15128418Y25735674D01*
X15128418Y32543245D01*
X15364212Y32778627D01*
X15627608Y33412955D01*
X15628207Y34099795D01*
X15365918Y34734582D01*
X14880673Y35220676D01*
X14246345Y35484072D01*
X13559505Y35484671D01*
X12924718Y35222382D01*
X12438624Y34737137D01*
X12175228Y34102809D01*
X12174629Y33415969D01*
X12436918Y32781182D01*
X12674418Y32543266D01*
X12674418Y25686519D01*
X12544302Y25632756D01*
X11839020Y24928703D01*
X11456853Y24008343D01*
X11455983Y23011793D01*
X3838418Y23011793D01*
X3838418Y43761793D01*
X11455984Y43761793D01*
X11836544Y42840767D01*
X12540597Y42135485D01*
X13460957Y41753318D01*
X14457507Y41752448D01*
X15378533Y42133008D01*
X16083815Y42837061D01*
X16465982Y43757421D01*
X16466852Y44753971D01*
X16086292Y45674997D01*
X15382239Y46380279D01*
X15128418Y46485675D01*
X15128418Y53293245D01*
X15364212Y53528627D01*
X15627608Y54162955D01*
X15628207Y54849795D01*
X15365918Y55484582D01*
X14880673Y55970676D01*
X14246345Y56234072D01*
X13559505Y56234671D01*
X12924718Y55972382D01*
X12438624Y55487137D01*
X12175228Y54852809D01*
X12174629Y54165969D01*
X12436918Y53531182D01*
X12674418Y53293266D01*
X12674418Y46436518D01*
X12544303Y46382756D01*
X11839021Y45678703D01*
X11456854Y44758343D01*
X11455984Y43761793D01*
X3838418Y43761793D01*
X3838418Y64761792D01*
X11455983Y64761792D01*
X11836543Y63840766D01*
X12540596Y63135484D01*
X13460956Y62753317D01*
X14457506Y62752447D01*
X15378532Y63133007D01*
X16083814Y63837060D01*
X16465981Y64757420D01*
X16466851Y65753970D01*
X16086291Y66674996D01*
X15382238Y67380278D01*
X15128418Y67485673D01*
X15128417Y74293244D01*
X15364211Y74528626D01*
X15627607Y75162954D01*
X15628206Y75849794D01*
X15365917Y76484581D01*
X14880672Y76970675D01*
X14246344Y77234071D01*
X13559504Y77234670D01*
X12924717Y76972381D01*
X12438623Y76487136D01*
X12175227Y75852808D01*
X12174628Y75165968D01*
X12436917Y74531181D01*
X12674417Y74293265D01*
X12674418Y67436518D01*
X12544302Y67382755D01*
X11839020Y66678702D01*
X11456853Y65758342D01*
X11455983Y64761792D01*
X3838418Y64761792D01*
X3838418Y85511793D01*
X11455984Y85511793D01*
X11836544Y84590767D01*
X12540597Y83885485D01*
X13460957Y83503318D01*
X14457507Y83502448D01*
X15378533Y83883008D01*
X16083815Y84587061D01*
X16465982Y85507421D01*
X16466852Y86503971D01*
X16086292Y87424997D01*
X15382239Y88130279D01*
X15128418Y88235675D01*
X15128418Y95043245D01*
X15364212Y95278627D01*
X15627608Y95912955D01*
X15628207Y96599795D01*
X15365918Y97234582D01*
X14880673Y97720676D01*
X14246345Y97984072D01*
X13559505Y97984671D01*
X12924718Y97722382D01*
X12438624Y97237137D01*
X12175228Y96602809D01*
X12174629Y95915969D01*
X12436918Y95281182D01*
X12674418Y95043266D01*
X12674418Y88186518D01*
X12544303Y88132756D01*
X11839021Y87428703D01*
X11456854Y86508343D01*
X11455984Y85511793D01*
X3838418Y85511793D01*
X3838418Y97388182D01*
X6422684Y97388182D01*
X6700242Y96716440D01*
X7213736Y96202048D01*
X7884993Y95923318D01*
X8611818Y95922684D01*
X9283560Y96200242D01*
X9797952Y96713736D01*
X10076682Y97384993D01*
X10077316Y98111818D01*
X9799758Y98783560D01*
X9286264Y99297952D01*
X8615007Y99576682D01*
X7888182Y99577316D01*
X7216440Y99299758D01*
X6702048Y98786264D01*
X6423318Y98115007D01*
X6422684Y97388182D01*
X3838418Y97388182D01*
X3838418Y97607883D01*
X3838630Y97850878D01*
X3652224Y98302014D01*
X3307365Y98647476D01*
X2856554Y98834669D01*
X2611418Y98834883D01*
X2368423Y98835095D01*
X1917287Y98648689D01*
X1571825Y98303830D01*
X1384632Y97853019D01*
X1384206Y97364888D01*
X802000Y97364888D01*
X802000Y113888182D01*
X73672684Y113888182D01*
X73950242Y113216440D01*
X74463736Y112702048D01*
X75134993Y112423318D01*
X75861818Y112422684D01*
X76533560Y112700242D01*
X77047952Y113213736D01*
X77326682Y113884993D01*
X77327316Y114611818D01*
X77049758Y115283560D01*
X76536264Y115797952D01*
X75865007Y116076682D01*
X75138182Y116077316D01*
X74466440Y115799758D01*
X73952048Y115286264D01*
X73673318Y114615007D01*
X73672684Y113888182D01*
X802000Y113888182D01*
X802000Y116698000D01*
X77948000Y116698000D01*
X77948000Y802000D01*
X77948000Y802000D01*
G37*
X77948000Y802000D02*
X802000Y802000D01*
X802000Y2888182D01*
X1422684Y2888182D01*
X1700242Y2216440D01*
X2213736Y1702048D01*
X2884993Y1423318D01*
X3611818Y1422684D01*
X4283560Y1700242D01*
X4797952Y2213736D01*
X5076682Y2884993D01*
X5077316Y3611818D01*
X4799758Y4283560D01*
X4286264Y4797952D01*
X3615007Y5076682D01*
X2888182Y5077316D01*
X2216440Y4799758D01*
X1702048Y4286264D01*
X1423318Y3615007D01*
X1422684Y2888182D01*
X802000Y2888182D01*
X802000Y97364888D01*
X1384206Y97364888D01*
X1384418Y97364375D01*
X1384418Y10357882D01*
X1423670Y10160549D01*
X1450337Y9961119D01*
X1470125Y9927006D01*
X1477818Y9888329D01*
X1589597Y9721040D01*
X1690554Y9546994D01*
X7220555Y3266994D01*
X7251889Y3243052D01*
X7273798Y3210262D01*
X7441097Y3098477D01*
X7600965Y2976320D01*
X7639076Y2966191D01*
X7671865Y2944282D01*
X7869197Y2905030D01*
X8063654Y2853348D01*
X8102743Y2858575D01*
X8141418Y2850882D01*
X32796908Y2850882D01*
X32830270Y2799036D01*
X33073213Y2633039D01*
X33361598Y2574640D01*
X35561238Y2574640D01*
X35830648Y2625333D01*
X36078084Y2784554D01*
X36123404Y2850882D01*
X39031417Y2850882D01*
X39218936Y2888182D01*
X74172684Y2888182D01*
X74450242Y2216440D01*
X74963736Y1702048D01*
X75634993Y1423318D01*
X76361818Y1422684D01*
X77033560Y1700242D01*
X77547952Y2213736D01*
X77826682Y2884993D01*
X77827316Y3611818D01*
X77549758Y4283560D01*
X77036264Y4797952D01*
X76365007Y5076682D01*
X75638182Y5077316D01*
X74966440Y4799758D01*
X74452048Y4286264D01*
X74173318Y3615007D01*
X74172684Y2888182D01*
X39218936Y2888182D01*
X39500970Y2944282D01*
X39899037Y3210262D01*
X46719658Y10030882D01*
X47372121Y10030883D01*
X47647144Y9847118D01*
X48231502Y9730882D01*
X48291334Y9730882D01*
X48875692Y9847118D01*
X49150715Y10030883D01*
X56203178Y10030882D01*
X58734418Y7499642D01*
X58734418Y6397025D01*
X58644572Y6339211D01*
X58478575Y6096268D01*
X58420176Y5807883D01*
X58420176Y4207883D01*
X58470869Y3938473D01*
X58630090Y3691037D01*
X58873033Y3525040D01*
X59161418Y3466641D01*
X60761418Y3466641D01*
X61030828Y3517334D01*
X61278264Y3676555D01*
X61444261Y3919498D01*
X61502660Y4207883D01*
X61502660Y5807883D01*
X61451967Y6077293D01*
X61292746Y6324729D01*
X61188418Y6396014D01*
X61188418Y8007882D01*
X61095018Y8477435D01*
X60829038Y8875502D01*
X58749065Y10955475D01*
X59434153Y10955475D01*
X59666135Y10394036D01*
X60095312Y9964109D01*
X60656346Y9731147D01*
X60997030Y9730850D01*
X63654065Y7855295D01*
X63654031Y7816848D01*
X63992357Y6998036D01*
X64618275Y6371024D01*
X65436496Y6031269D01*
X66322451Y6030496D01*
X67141263Y6368822D01*
X67768275Y6994740D01*
X68108030Y7812961D01*
X68108803Y8698916D01*
X67770477Y9517728D01*
X67144559Y10144740D01*
X66326338Y10484495D01*
X65440383Y10485268D01*
X64647661Y10157722D01*
X62417857Y11731702D01*
X62256701Y12121728D01*
X61827524Y12551655D01*
X61266490Y12784617D01*
X60659011Y12785147D01*
X60097572Y12553165D01*
X59667645Y12123988D01*
X59434683Y11562954D01*
X59434153Y10955475D01*
X58749065Y10955475D01*
X57579038Y12125502D01*
X57377297Y12260301D01*
X57180971Y12391482D01*
X56711418Y12484882D01*
X49150713Y12484883D01*
X48875692Y12668646D01*
X48291334Y12784882D01*
X48231502Y12784882D01*
X47647144Y12668646D01*
X47372123Y12484883D01*
X46211417Y12484882D01*
X45741864Y12391482D01*
X45343799Y12125503D01*
X45343798Y12125502D01*
X38523177Y5304882D01*
X36125928Y5304882D01*
X36092566Y5356728D01*
X35849623Y5522725D01*
X35561238Y5581124D01*
X33623416Y5581124D01*
X32938417Y6266122D01*
X32938417Y8249435D01*
X33034926Y8105000D01*
X33517992Y7782225D01*
X34087808Y7668882D01*
X34835028Y7668882D01*
X35404844Y7782225D01*
X35627324Y7930882D01*
X35861417Y7930882D01*
X36330970Y8024282D01*
X36729037Y8290262D01*
X40829037Y12390262D01*
X41095018Y12788330D01*
X41188417Y13257882D01*
X41188416Y16982884D01*
X41188416Y22511793D01*
X62955984Y22511793D01*
X63336544Y21590767D01*
X64040597Y20885485D01*
X64960957Y20503318D01*
X65957507Y20502448D01*
X66878533Y20883008D01*
X67583815Y21587061D01*
X67965982Y22507421D01*
X67966852Y23503971D01*
X67586292Y24424997D01*
X66882239Y25130279D01*
X66748419Y25185846D01*
X66748418Y32043247D01*
X66984210Y32278627D01*
X67247606Y32912955D01*
X67248205Y33599795D01*
X66985916Y34234582D01*
X66500671Y34720676D01*
X65866343Y34984072D01*
X65179503Y34984671D01*
X64544716Y34722382D01*
X64058622Y34237137D01*
X63795226Y33602809D01*
X63794627Y32915969D01*
X64056916Y32281182D01*
X64294418Y32043264D01*
X64294419Y25236102D01*
X64044303Y25132756D01*
X63339021Y24428703D01*
X62956854Y23508343D01*
X62955984Y22511793D01*
X41188416Y22511793D01*
X41188418Y37883371D01*
X41095018Y38352924D01*
X40829038Y38750991D01*
X39888422Y39691607D01*
X39888422Y45307883D01*
X46468808Y45307883D01*
X46582151Y44738067D01*
X46904926Y44255001D01*
X47229865Y44037883D01*
X46904926Y43820765D01*
X46582151Y43337699D01*
X46468808Y42767883D01*
X46582151Y42198067D01*
X46904926Y41715001D01*
X47229865Y41497883D01*
X46904926Y41280765D01*
X46582151Y40797699D01*
X46468808Y40227883D01*
X46582151Y39658067D01*
X46904926Y39175001D01*
X47387992Y38852226D01*
X47957808Y38738883D01*
X48705028Y38738883D01*
X49274844Y38852226D01*
X49757910Y39175001D01*
X50080685Y39658067D01*
X50194028Y40227883D01*
X50080685Y40797699D01*
X49757910Y41280765D01*
X49432971Y41497883D01*
X49757910Y41715001D01*
X50080685Y42198067D01*
X50194028Y42767883D01*
X50080685Y43337699D01*
X49757910Y43820765D01*
X49432971Y44037883D01*
X49757910Y44255001D01*
X50080685Y44738067D01*
X50194028Y45307883D01*
X50080685Y45877699D01*
X49757910Y46360765D01*
X49274844Y46683540D01*
X48705028Y46796883D01*
X47957808Y46796883D01*
X47387992Y46683540D01*
X46904926Y46360765D01*
X46582151Y45877699D01*
X46468808Y45307883D01*
X39888422Y45307883D01*
X39888422Y47907881D01*
X39795022Y48377434D01*
X39529042Y48775501D01*
X39038421Y49266122D01*
X39038420Y51507882D01*
X39029599Y51552226D01*
X38945021Y51977434D01*
X38679040Y52375502D01*
X36680468Y54374074D01*
X36905548Y54467076D01*
X37251010Y54811935D01*
X37438203Y55262746D01*
X37438629Y55750877D01*
X37438417Y55751390D01*
X37438417Y57703177D01*
X43517620Y63782380D01*
X43637331Y63961540D01*
X43783600Y64180447D01*
X43877000Y64650000D01*
X43877000Y64887760D01*
X44004497Y64760263D01*
X44402564Y64494283D01*
X44872117Y64400883D01*
X47165512Y64400883D01*
X47229865Y64357883D01*
X46904926Y64140765D01*
X46582151Y63657699D01*
X46468808Y63087883D01*
X46582151Y62518067D01*
X46904926Y62035001D01*
X47229865Y61817883D01*
X46904926Y61600765D01*
X46582151Y61117699D01*
X46468808Y60547883D01*
X46582151Y59978067D01*
X46904926Y59495001D01*
X47229865Y59277883D01*
X46904926Y59060765D01*
X46582151Y58577699D01*
X46468808Y58007883D01*
X46582151Y57438067D01*
X46904926Y56955001D01*
X47229865Y56737883D01*
X46904926Y56520765D01*
X46582151Y56037699D01*
X46468808Y55467883D01*
X46582151Y54898067D01*
X46904926Y54415001D01*
X47229865Y54197883D01*
X46904926Y53980765D01*
X46582151Y53497699D01*
X46468808Y52927883D01*
X46582151Y52358067D01*
X46904926Y51875001D01*
X47229865Y51657883D01*
X46904926Y51440765D01*
X46582151Y50957699D01*
X46468808Y50387883D01*
X46582151Y49818067D01*
X46904926Y49335001D01*
X47387992Y49012226D01*
X47957808Y48898883D01*
X48705028Y48898883D01*
X49274844Y49012226D01*
X49757910Y49335001D01*
X50080685Y49818067D01*
X50194028Y50387883D01*
X50080685Y50957699D01*
X49757910Y51440765D01*
X49432971Y51657883D01*
X49757910Y51875001D01*
X50080685Y52358067D01*
X50194028Y52927883D01*
X50080685Y53497699D01*
X49757910Y53980765D01*
X49432971Y54197883D01*
X49757910Y54415001D01*
X50080685Y54898067D01*
X50194028Y55467883D01*
X50080685Y56037699D01*
X49757910Y56520765D01*
X49432971Y56737883D01*
X49757910Y56955001D01*
X50080685Y57438067D01*
X50194028Y58007883D01*
X50080685Y58577699D01*
X49757910Y59060765D01*
X49432971Y59277883D01*
X49757910Y59495001D01*
X50080685Y59978067D01*
X50194028Y60547883D01*
X50080685Y61117699D01*
X49757910Y61600765D01*
X49432971Y61817883D01*
X49757910Y62035001D01*
X50080685Y62518067D01*
X50194028Y63087883D01*
X50080685Y63657699D01*
X49757910Y64140765D01*
X49432971Y64357883D01*
X49757910Y64575001D01*
X50080685Y65058067D01*
X50194028Y65627883D01*
X50080685Y66197699D01*
X49757910Y66680765D01*
X49432971Y66897883D01*
X49644608Y67039295D01*
X49664597Y66938806D01*
X49869093Y66632756D01*
X49930577Y66540739D01*
X51884415Y64586900D01*
X51884416Y56666120D01*
X51593798Y56375502D01*
X51327818Y55977435D01*
X51234418Y55507882D01*
X51234418Y47257882D01*
X51327818Y46788329D01*
X51561681Y46438329D01*
X51593798Y46390262D01*
X53484418Y44499642D01*
X53484418Y34190645D01*
X53417645Y34123988D01*
X53184683Y33562954D01*
X53184153Y32955475D01*
X53416135Y32394036D01*
X53845312Y31964109D01*
X54406346Y31731147D01*
X55013825Y31730617D01*
X55575264Y31962599D01*
X55643666Y32030882D01*
X56686779Y32030881D01*
X56922161Y31795088D01*
X57556489Y31531692D01*
X58243329Y31531093D01*
X58878116Y31793382D01*
X59364210Y32278627D01*
X59627606Y32912955D01*
X59628205Y33599795D01*
X59365916Y34234582D01*
X58880671Y34720676D01*
X58246343Y34984072D01*
X57559503Y34984671D01*
X56924716Y34722382D01*
X56686800Y34484881D01*
X55938418Y34484882D01*
X55938418Y43261794D01*
X62955984Y43261794D01*
X63336544Y42340768D01*
X64040597Y41635486D01*
X64960957Y41253319D01*
X65957507Y41252449D01*
X66878533Y41633009D01*
X67583815Y42337062D01*
X67965982Y43257422D01*
X67966852Y44253972D01*
X67586292Y45174998D01*
X66882239Y45880280D01*
X66748419Y45935847D01*
X66748418Y52793246D01*
X66984212Y53028628D01*
X67247608Y53662956D01*
X67248207Y54349796D01*
X66985918Y54984583D01*
X66500673Y55470677D01*
X65866345Y55734073D01*
X65179505Y55734672D01*
X64544718Y55472383D01*
X64058624Y54987138D01*
X63795228Y54352810D01*
X63794629Y53665970D01*
X64056918Y53031183D01*
X64294418Y52793267D01*
X64294419Y45986103D01*
X64044303Y45882757D01*
X63339021Y45178704D01*
X62956854Y44258344D01*
X62955984Y43261794D01*
X55938418Y43261794D01*
X55938418Y45007882D01*
X55905177Y45174998D01*
X55845019Y45477434D01*
X55579038Y45875502D01*
X53688418Y47766122D01*
X53688418Y52871277D01*
X53845312Y52714109D01*
X54406346Y52481147D01*
X55013825Y52480617D01*
X55575264Y52712599D01*
X55643666Y52780882D01*
X56686782Y52780882D01*
X56922163Y52545089D01*
X57556491Y52281693D01*
X58243331Y52281094D01*
X58878118Y52543383D01*
X59364212Y53028628D01*
X59627608Y53662956D01*
X59628207Y54349796D01*
X59365918Y54984583D01*
X58880673Y55470677D01*
X58246345Y55734073D01*
X57559505Y55734672D01*
X56924718Y55472383D01*
X56686801Y55234882D01*
X55938418Y55234882D01*
X55938418Y64011793D01*
X62955984Y64011793D01*
X63336544Y63090767D01*
X64040597Y62385485D01*
X64960957Y62003318D01*
X65957507Y62002448D01*
X66878533Y62383008D01*
X67583815Y63087061D01*
X67965982Y64007421D01*
X67966852Y65003971D01*
X67586292Y65924997D01*
X66882239Y66630279D01*
X66748418Y66685846D01*
X66748418Y73543246D01*
X66984212Y73778628D01*
X67247608Y74412956D01*
X67248207Y75099796D01*
X66985918Y75734583D01*
X66500673Y76220677D01*
X65866345Y76484073D01*
X65179505Y76484672D01*
X64544718Y76222383D01*
X64058624Y75737138D01*
X63795228Y75102810D01*
X63794629Y74415970D01*
X64056918Y73781183D01*
X64294418Y73543267D01*
X64294418Y66736101D01*
X64044303Y66632756D01*
X63339021Y65928703D01*
X62956854Y65008343D01*
X62955984Y64011793D01*
X55938418Y64011793D01*
X55938417Y65757882D01*
X55845017Y66227435D01*
X55579037Y66625502D01*
X53938418Y68266122D01*
X53938418Y73425448D01*
X54406345Y73231147D01*
X55013824Y73230617D01*
X55575263Y73462599D01*
X55643666Y73530882D01*
X56686781Y73530883D01*
X56922163Y73295089D01*
X57556491Y73031693D01*
X58243331Y73031094D01*
X58878118Y73293383D01*
X59364212Y73778628D01*
X59627608Y74412956D01*
X59628207Y75099796D01*
X59365918Y75734583D01*
X58880673Y76220677D01*
X58246345Y76484073D01*
X57559505Y76484672D01*
X56924718Y76222383D01*
X56686802Y75984883D01*
X55938417Y75984882D01*
X55938418Y81757883D01*
X55845018Y82227436D01*
X55579038Y82625503D01*
X53442748Y84761793D01*
X62955984Y84761793D01*
X63336544Y83840767D01*
X64040597Y83135485D01*
X64960957Y82753318D01*
X65957507Y82752448D01*
X66878533Y83133008D01*
X67583815Y83837061D01*
X67965982Y84757421D01*
X67966852Y85753971D01*
X67586292Y86674997D01*
X66882239Y87380279D01*
X66748418Y87435846D01*
X66748417Y94543246D01*
X66984211Y94778628D01*
X67247607Y95412956D01*
X67248206Y96099796D01*
X66985917Y96734583D01*
X66500672Y97220677D01*
X65866344Y97484073D01*
X65179504Y97484672D01*
X64544717Y97222383D01*
X64058623Y96737138D01*
X63795227Y96102810D01*
X63794628Y95415970D01*
X64056917Y94781183D01*
X64294417Y94543267D01*
X64294418Y87486101D01*
X64044303Y87382756D01*
X63339021Y86678703D01*
X62956854Y85758343D01*
X62955984Y84761793D01*
X53442748Y84761793D01*
X49179038Y89025503D01*
X48780971Y89291483D01*
X48311418Y89384883D01*
X46877324Y89384882D01*
X46812970Y89427883D01*
X46877321Y89470881D01*
X47651417Y89470881D01*
X48120969Y89564281D01*
X48519037Y89830261D01*
X53219658Y94530882D01*
X53778655Y94530882D01*
X53845312Y94464109D01*
X54406346Y94231147D01*
X55013825Y94230617D01*
X55575264Y94462599D01*
X55643666Y94530882D01*
X56686781Y94530882D01*
X56922162Y94295089D01*
X57556490Y94031693D01*
X58243330Y94031094D01*
X58878117Y94293383D01*
X59364211Y94778628D01*
X59627607Y95412956D01*
X59628206Y96099796D01*
X59365917Y96734583D01*
X58880672Y97220677D01*
X58246344Y97484073D01*
X57559504Y97484672D01*
X56924717Y97222383D01*
X56686800Y96984882D01*
X55644181Y96984882D01*
X55577524Y97051655D01*
X55016490Y97284617D01*
X54409011Y97285147D01*
X53847572Y97053165D01*
X53779170Y96984882D01*
X52711418Y96984882D01*
X52241865Y96891482D01*
X51851830Y96630869D01*
X51843798Y96625502D01*
X47143177Y91924881D01*
X46877326Y91924881D01*
X46812970Y91967883D01*
X47137909Y92185001D01*
X47460684Y92668067D01*
X47574027Y93237883D01*
X47460684Y93807699D01*
X47137909Y94290765D01*
X46654843Y94613540D01*
X46085027Y94726883D01*
X45337807Y94726883D01*
X44767991Y94613540D01*
X44284925Y94290765D01*
X43962150Y93807699D01*
X43852000Y93253935D01*
X43852000Y95366760D01*
X45318052Y96832812D01*
X45337807Y96828883D01*
X46085027Y96828883D01*
X46654843Y96942226D01*
X47137909Y97265001D01*
X47460684Y97748067D01*
X47574027Y98317883D01*
X47460684Y98887699D01*
X47137909Y99370765D01*
X46812970Y99587883D01*
X47137909Y99805001D01*
X47460684Y100288067D01*
X47574027Y100857883D01*
X47460684Y101427699D01*
X47137909Y101910765D01*
X46654843Y102233540D01*
X46085027Y102346883D01*
X45337807Y102346883D01*
X44767991Y102233540D01*
X44487281Y102045975D01*
X44213330Y101991483D01*
X43815263Y101725503D01*
X40638421Y98548661D01*
X40638421Y101776323D01*
X40545021Y102245876D01*
X40279041Y102643943D01*
X38212101Y104710883D01*
X44046907Y104710883D01*
X44080269Y104659037D01*
X44323212Y104493040D01*
X44611597Y104434641D01*
X46811237Y104434641D01*
X47080647Y104485334D01*
X47328083Y104644555D01*
X47494080Y104887498D01*
X47552479Y105175883D01*
X47552479Y106699883D01*
X47501786Y106969293D01*
X47342565Y107216729D01*
X47099622Y107382726D01*
X46811237Y107441125D01*
X44611597Y107441125D01*
X44342187Y107390432D01*
X44094751Y107231211D01*
X44049431Y107164883D01*
X38020845Y107164883D01*
X32118104Y113067624D01*
X31720037Y113333604D01*
X31250484Y113427004D01*
X12140004Y113427004D01*
X11670451Y113333604D01*
X11272384Y113067624D01*
X9292740Y111087980D01*
X9220447Y111073600D01*
X8822380Y110807620D01*
X8556400Y110409553D01*
X8463000Y109940000D01*
X8463000Y107740811D01*
X8314343Y107518331D01*
X8201000Y106948515D01*
X8201000Y106203885D01*
X8314343Y105634069D01*
X8463000Y105411589D01*
X8463000Y105398240D01*
X4682380Y101617620D01*
X4510407Y101445947D01*
X4323214Y100995136D01*
X4322788Y100507005D01*
X4509194Y100055869D01*
X4854053Y99710407D01*
X5304864Y99523214D01*
X5550000Y99523000D01*
X5792995Y99522788D01*
X6244131Y99709194D01*
X6589593Y100054053D01*
X6589806Y100054566D01*
X10557620Y104022380D01*
X10707706Y104247000D01*
X10823600Y104420447D01*
X10917000Y104890000D01*
X10917000Y105411589D01*
X10960000Y105475942D01*
X11003000Y105411589D01*
X11003000Y103020000D01*
X11096400Y102550447D01*
X11234452Y102343838D01*
X11362380Y102152380D01*
X14882380Y98632380D01*
X15280448Y98366399D01*
X15750000Y98273000D01*
X30500000Y98273000D01*
X30742995Y98272788D01*
X31194131Y98459194D01*
X31539593Y98804053D01*
X31726786Y99254864D01*
X31727212Y99742995D01*
X31540806Y100194131D01*
X31195947Y100539593D01*
X30745136Y100726786D01*
X30500000Y100727000D01*
X30499925Y100727000D01*
X30257005Y100727212D01*
X30256492Y100727000D01*
X16258240Y100727000D01*
X13457000Y103528240D01*
X13457000Y105411589D01*
X13500000Y105475942D01*
X13717118Y105151003D01*
X14200184Y104828228D01*
X14770000Y104714885D01*
X15339816Y104828228D01*
X15822882Y105151003D01*
X16040000Y105475942D01*
X16257118Y105151003D01*
X16740184Y104828228D01*
X17310000Y104714885D01*
X17879816Y104828228D01*
X18362882Y105151003D01*
X18580000Y105475942D01*
X18797118Y105151003D01*
X19280184Y104828228D01*
X19850000Y104714885D01*
X20419816Y104828228D01*
X20902882Y105151003D01*
X21035313Y105349200D01*
X29577816Y105349200D01*
X31864418Y103062598D01*
X31864418Y76974062D01*
X31752000Y76898946D01*
X31752000Y86725000D01*
X31752212Y86967995D01*
X31565806Y87419131D01*
X31220947Y87764593D01*
X30770136Y87951786D01*
X30525000Y87952000D01*
X30282005Y87952212D01*
X29830869Y87765806D01*
X29538420Y87473867D01*
X29538420Y92657880D01*
X29445020Y93127433D01*
X29179040Y93525500D01*
X27079037Y95625502D01*
X26238600Y96465940D01*
X26238682Y96560290D01*
X26006700Y97121729D01*
X25577523Y97551656D01*
X25016489Y97784618D01*
X24409010Y97785148D01*
X23847571Y97553166D01*
X23779169Y97484883D01*
X22736054Y97484883D01*
X22500673Y97720676D01*
X21866345Y97984072D01*
X21179505Y97984671D01*
X20544718Y97722382D01*
X20058624Y97237137D01*
X19795228Y96602809D01*
X19794629Y95915969D01*
X20056918Y95281182D01*
X20542163Y94795088D01*
X21176491Y94531692D01*
X21863331Y94531093D01*
X22498118Y94793382D01*
X22736035Y95030883D01*
X23778654Y95030883D01*
X23845311Y94964110D01*
X24406345Y94731148D01*
X24502996Y94731064D01*
X25343797Y93890262D01*
X27084420Y92149640D01*
X27084420Y74870122D01*
X26238601Y75715940D01*
X26238683Y75810289D01*
X26006701Y76371728D01*
X25577524Y76801655D01*
X25016490Y77034617D01*
X24409011Y77035147D01*
X23847572Y76803165D01*
X23779170Y76734882D01*
X22736053Y76734882D01*
X22500672Y76970675D01*
X21866344Y77234071D01*
X21179504Y77234670D01*
X20544717Y76972381D01*
X20058623Y76487136D01*
X19795227Y75852808D01*
X19794628Y75165968D01*
X20056917Y74531181D01*
X20542162Y74045087D01*
X21176490Y73781691D01*
X21863330Y73781092D01*
X22498117Y74043381D01*
X22736034Y74280882D01*
X23778655Y74280882D01*
X23845312Y74214109D01*
X24406346Y73981147D01*
X24502998Y73981063D01*
X25484418Y72999643D01*
X25484418Y55840315D01*
X25016488Y56034617D01*
X24409009Y56035147D01*
X23847570Y55803165D01*
X23779168Y55734882D01*
X22736055Y55734882D01*
X22500673Y55970676D01*
X21866345Y56234072D01*
X21179505Y56234671D01*
X20544718Y55972382D01*
X20058624Y55487137D01*
X19795228Y54852809D01*
X19794629Y54165969D01*
X20056918Y53531182D01*
X20542163Y53045088D01*
X21176491Y52781692D01*
X21863331Y52781093D01*
X22498118Y53043382D01*
X22736034Y53280882D01*
X23484417Y53280882D01*
X23484418Y52257881D01*
X23577818Y51788328D01*
X23765207Y51507882D01*
X23843798Y51390262D01*
X25484418Y49749642D01*
X25484417Y35090317D01*
X25016490Y35284618D01*
X24409011Y35285148D01*
X23847572Y35053166D01*
X23779169Y34984883D01*
X22736055Y34984882D01*
X22500673Y35220676D01*
X21866345Y35484072D01*
X21179505Y35484671D01*
X20544718Y35222382D01*
X20058624Y34737137D01*
X19795228Y34102809D01*
X19794629Y33415969D01*
X20056918Y32781182D01*
X20542163Y32295088D01*
X21176491Y32031692D01*
X21863331Y32031093D01*
X22498118Y32293382D01*
X22736034Y32530882D01*
X23778656Y32530883D01*
X23845312Y32464110D01*
X24406346Y32231148D01*
X24502997Y32231064D01*
X25484418Y31249643D01*
X25484418Y20757882D01*
X25577818Y20288329D01*
X25646525Y20185502D01*
X25843798Y19890262D01*
X27283798Y18450262D01*
X27681866Y18184281D01*
X28151418Y18090882D01*
X33295510Y18090883D01*
X33359865Y18047882D01*
X33034926Y17830764D01*
X32712151Y17347698D01*
X32598808Y16777882D01*
X32712151Y16208066D01*
X33034926Y15725000D01*
X33359865Y15507882D01*
X33233665Y15423558D01*
X32971864Y15371482D01*
X32573797Y15105502D01*
X30843798Y13375502D01*
X30577818Y12977435D01*
X30484418Y12507882D01*
X30484417Y5757881D01*
X30484417Y5757880D01*
X30574524Y5304882D01*
X8695865Y5304882D01*
X3838418Y10821115D01*
X3838418Y23011793D01*
X11455983Y23011793D01*
X11836543Y22090767D01*
X12540596Y21385485D01*
X13460956Y21003318D01*
X14457506Y21002448D01*
X15378532Y21383008D01*
X16083814Y22087061D01*
X16465981Y23007421D01*
X16466851Y24003971D01*
X16086291Y24924997D01*
X15382238Y25630279D01*
X15128418Y25735674D01*
X15128418Y32543245D01*
X15364212Y32778627D01*
X15627608Y33412955D01*
X15628207Y34099795D01*
X15365918Y34734582D01*
X14880673Y35220676D01*
X14246345Y35484072D01*
X13559505Y35484671D01*
X12924718Y35222382D01*
X12438624Y34737137D01*
X12175228Y34102809D01*
X12174629Y33415969D01*
X12436918Y32781182D01*
X12674418Y32543266D01*
X12674418Y25686519D01*
X12544302Y25632756D01*
X11839020Y24928703D01*
X11456853Y24008343D01*
X11455983Y23011793D01*
X3838418Y23011793D01*
X3838418Y43761793D01*
X11455984Y43761793D01*
X11836544Y42840767D01*
X12540597Y42135485D01*
X13460957Y41753318D01*
X14457507Y41752448D01*
X15378533Y42133008D01*
X16083815Y42837061D01*
X16465982Y43757421D01*
X16466852Y44753971D01*
X16086292Y45674997D01*
X15382239Y46380279D01*
X15128418Y46485675D01*
X15128418Y53293245D01*
X15364212Y53528627D01*
X15627608Y54162955D01*
X15628207Y54849795D01*
X15365918Y55484582D01*
X14880673Y55970676D01*
X14246345Y56234072D01*
X13559505Y56234671D01*
X12924718Y55972382D01*
X12438624Y55487137D01*
X12175228Y54852809D01*
X12174629Y54165969D01*
X12436918Y53531182D01*
X12674418Y53293266D01*
X12674418Y46436518D01*
X12544303Y46382756D01*
X11839021Y45678703D01*
X11456854Y44758343D01*
X11455984Y43761793D01*
X3838418Y43761793D01*
X3838418Y64761792D01*
X11455983Y64761792D01*
X11836543Y63840766D01*
X12540596Y63135484D01*
X13460956Y62753317D01*
X14457506Y62752447D01*
X15378532Y63133007D01*
X16083814Y63837060D01*
X16465981Y64757420D01*
X16466851Y65753970D01*
X16086291Y66674996D01*
X15382238Y67380278D01*
X15128418Y67485673D01*
X15128417Y74293244D01*
X15364211Y74528626D01*
X15627607Y75162954D01*
X15628206Y75849794D01*
X15365917Y76484581D01*
X14880672Y76970675D01*
X14246344Y77234071D01*
X13559504Y77234670D01*
X12924717Y76972381D01*
X12438623Y76487136D01*
X12175227Y75852808D01*
X12174628Y75165968D01*
X12436917Y74531181D01*
X12674417Y74293265D01*
X12674418Y67436518D01*
X12544302Y67382755D01*
X11839020Y66678702D01*
X11456853Y65758342D01*
X11455983Y64761792D01*
X3838418Y64761792D01*
X3838418Y85511793D01*
X11455984Y85511793D01*
X11836544Y84590767D01*
X12540597Y83885485D01*
X13460957Y83503318D01*
X14457507Y83502448D01*
X15378533Y83883008D01*
X16083815Y84587061D01*
X16465982Y85507421D01*
X16466852Y86503971D01*
X16086292Y87424997D01*
X15382239Y88130279D01*
X15128418Y88235675D01*
X15128418Y95043245D01*
X15364212Y95278627D01*
X15627608Y95912955D01*
X15628207Y96599795D01*
X15365918Y97234582D01*
X14880673Y97720676D01*
X14246345Y97984072D01*
X13559505Y97984671D01*
X12924718Y97722382D01*
X12438624Y97237137D01*
X12175228Y96602809D01*
X12174629Y95915969D01*
X12436918Y95281182D01*
X12674418Y95043266D01*
X12674418Y88186518D01*
X12544303Y88132756D01*
X11839021Y87428703D01*
X11456854Y86508343D01*
X11455984Y85511793D01*
X3838418Y85511793D01*
X3838418Y97388182D01*
X6422684Y97388182D01*
X6700242Y96716440D01*
X7213736Y96202048D01*
X7884993Y95923318D01*
X8611818Y95922684D01*
X9283560Y96200242D01*
X9797952Y96713736D01*
X10076682Y97384993D01*
X10077316Y98111818D01*
X9799758Y98783560D01*
X9286264Y99297952D01*
X8615007Y99576682D01*
X7888182Y99577316D01*
X7216440Y99299758D01*
X6702048Y98786264D01*
X6423318Y98115007D01*
X6422684Y97388182D01*
X3838418Y97388182D01*
X3838418Y97607883D01*
X3838630Y97850878D01*
X3652224Y98302014D01*
X3307365Y98647476D01*
X2856554Y98834669D01*
X2611418Y98834883D01*
X2368423Y98835095D01*
X1917287Y98648689D01*
X1571825Y98303830D01*
X1384632Y97853019D01*
X1384206Y97364888D01*
X802000Y97364888D01*
X802000Y113888182D01*
X73672684Y113888182D01*
X73950242Y113216440D01*
X74463736Y112702048D01*
X75134993Y112423318D01*
X75861818Y112422684D01*
X76533560Y112700242D01*
X77047952Y113213736D01*
X77326682Y113884993D01*
X77327316Y114611818D01*
X77049758Y115283560D01*
X76536264Y115797952D01*
X75865007Y116076682D01*
X75138182Y116077316D01*
X74466440Y115799758D01*
X73952048Y115286264D01*
X73673318Y114615007D01*
X73672684Y113888182D01*
X802000Y113888182D01*
X802000Y116698000D01*
X77948000Y116698000D01*
X77948000Y802000D01*
M02*
