G04 #@! TF.FileFunction,Glue,Top*
%FSLAX46Y46*%
G04 Gerber Fmt 4.6, Leading zero omitted, Abs format (unit mm)*
G04 Created by KiCad (PCBNEW 4.0.7-e2-6376~58~ubuntu14.04.1) date Mon Feb 26 15:39:35 2018*
%MOMM*%
%LPD*%
G01*
G04 APERTURE LIST*
%ADD10C,0.100000*%
%ADD11C,0.150000*%
G04 APERTURE END LIST*
D10*
D11*
X750000Y53750000D02*
X0Y53750000D01*
X49500000Y153750000D02*
X50250000Y153750000D01*
X1750000Y50000000D02*
X1750000Y49750000D01*
X101750000Y50000000D02*
X101750000Y49750000D01*
X54000000Y53750000D02*
X53500000Y53750000D01*
X53500000Y153750000D02*
X54000000Y153750000D01*
X101750000Y49500000D02*
X101750000Y49750000D01*
X1750000Y49750000D02*
X1750000Y49500000D01*
X750000Y53750000D02*
X50250000Y53750000D01*
X50250000Y53750000D02*
X50250000Y153750000D01*
X103500000Y53750000D02*
X103500000Y153750000D01*
X54000000Y53750000D02*
X103500000Y53750000D01*
X103500000Y153750000D02*
X54000000Y153750000D01*
X53500000Y153750000D02*
X53500000Y53750000D01*
X0Y153750000D02*
X0Y53750000D01*
X49500000Y153750000D02*
X0Y153750000D01*
X1750000Y50000000D02*
X101750000Y50000000D01*
X101750000Y49500000D02*
X101750000Y0D01*
X1750000Y0D02*
X1750000Y49500000D01*
X1750000Y0D02*
X101750000Y0D01*
M02*
