G04 #@! TF.FileFunction,Copper,L2,Bot,Signal*
%FSLAX46Y46*%
G04 Gerber Fmt 4.6, Leading zero omitted, Abs format (unit mm)*
G04 Created by KiCad (PCBNEW 4.0.7-e2-6376~58~ubuntu14.04.1) date Mon Feb 26 15:39:35 2018*
%MOMM*%
%LPD*%
G01*
G04 APERTURE LIST*
%ADD10C,0.100000*%
%ADD11C,2.500000*%
%ADD12R,3.000000X3.000000*%
%ADD13C,3.000000*%
%ADD14C,1.998980*%
%ADD15R,1.600000X1.600000*%
%ADD16C,1.600000*%
%ADD17R,2.400000X1.600000*%
%ADD18O,2.400000X1.600000*%
%ADD19R,1.600000X2.400000*%
%ADD20O,1.600000X2.400000*%
%ADD21R,1.800000X1.800000*%
%ADD22C,1.800000*%
%ADD23R,2.200000X2.200000*%
%ADD24O,2.200000X2.200000*%
%ADD25C,3.810000*%
%ADD26C,3.556000*%
%ADD27O,1.600000X1.600000*%
%ADD28R,1.800000X1.300000*%
%ADD29O,1.800000X1.300000*%
%ADD30C,1.600000*%
%ADD31R,1.300000X1.800000*%
%ADD32O,1.300000X1.800000*%
%ADD33C,1.000000*%
%ADD34C,1.000000*%
%ADD35C,0.254000*%
G04 APERTURE END LIST*
D10*
D11*
X46500000Y96750000D03*
X46500000Y91750000D03*
X46500000Y86750000D03*
D12*
X7696068Y88701272D03*
D13*
X7696068Y83621272D03*
X7696068Y78541272D03*
D14*
X26836067Y146471272D03*
X19216067Y146471272D03*
X27026068Y135661272D03*
X27026068Y143281272D03*
X35086067Y126721272D03*
X27466067Y126721272D03*
X23466068Y121721271D03*
X31086068Y121721271D03*
X15216067Y131471271D03*
X22836067Y131471271D03*
X16716067Y77321272D03*
X24336067Y77321272D03*
X24336068Y74121272D03*
X16716068Y74121272D03*
X31026068Y99411271D03*
X31026068Y107031271D03*
X30086068Y57221271D03*
X22466068Y57221271D03*
X15776068Y117911271D03*
X15776068Y125531271D03*
X47286068Y116821272D03*
X39666068Y116821272D03*
X27716068Y96221271D03*
X35336068Y96221271D03*
X27776068Y99411271D03*
X27776068Y107031271D03*
X34276068Y99411271D03*
X34276068Y107031271D03*
X16826068Y70981272D03*
X16826068Y63361272D03*
D15*
X16276068Y56721272D03*
D16*
X13776068Y56721272D03*
D15*
X12276068Y62721272D03*
D16*
X9776068Y62721272D03*
D17*
X23526067Y135221271D03*
D18*
X15906067Y142841271D03*
X23526067Y137761271D03*
X15906067Y140301271D03*
X23526067Y140301271D03*
X15906067Y137761271D03*
X23526067Y142841271D03*
X15906067Y135221271D03*
D19*
X15526068Y103471272D03*
D20*
X23146068Y111091272D03*
X18066068Y103471272D03*
X20606068Y111091272D03*
X20606068Y103471272D03*
X18066068Y111091272D03*
X23146068Y103471272D03*
X15526068Y111091272D03*
D17*
X24376068Y80721272D03*
D18*
X16756068Y88341272D03*
X24376068Y83261272D03*
X16756068Y85801272D03*
X24376068Y85801272D03*
X16756068Y83261272D03*
X24376068Y88341272D03*
X16756068Y80721272D03*
D16*
X19526068Y150971272D03*
X27026068Y150971272D03*
X23276068Y92971271D03*
X23276068Y100471271D03*
X37526068Y99721272D03*
X37526068Y107221272D03*
X15776068Y128221271D03*
X23276068Y128221271D03*
D21*
X22926068Y65721272D03*
D22*
X22926068Y68261272D03*
D23*
X33526068Y131471272D03*
D24*
X25906068Y131471272D03*
D23*
X37776068Y131471272D03*
D24*
X45396068Y131471272D03*
D23*
X34026068Y59721272D03*
D24*
X41646068Y59721272D03*
D25*
X44376068Y64371271D03*
D26*
X38026068Y70721271D03*
D25*
X31676068Y64371271D03*
X44376068Y77071271D03*
X31676068Y77071271D03*
X32426068Y135871271D03*
D26*
X38776068Y142221271D03*
D25*
X32426068Y148571271D03*
X45126068Y135871271D03*
X45126068Y148571271D03*
D15*
X22776068Y60221272D03*
D27*
X30396068Y60221272D03*
D16*
X25776068Y117721272D03*
X20776068Y117721272D03*
X19776068Y114721271D03*
X14776068Y114721271D03*
X17476068Y96021272D03*
X17476068Y91021272D03*
X13026068Y150721271D03*
X13026068Y145721271D03*
X38776068Y126721272D03*
X43776068Y126721272D03*
D28*
X34276068Y87221272D03*
D29*
X34276068Y89221272D03*
D16*
X12946068Y73951271D03*
D30*
X3965812Y64971015D02*
X3965812Y64971015D01*
D16*
X15946067Y99451271D03*
D27*
X3246067Y99451271D03*
D16*
X69196067Y99451271D03*
D27*
X56496067Y99451271D03*
D16*
X66196068Y73951271D03*
D30*
X57215812Y64971015D02*
X57215812Y64971015D01*
D28*
X87526068Y87221272D03*
D29*
X87526068Y89221272D03*
D16*
X92026068Y126721272D03*
X97026068Y126721272D03*
X66276068Y150721271D03*
X66276068Y145721271D03*
X70726068Y96021272D03*
X70726068Y91021272D03*
X73026068Y114721271D03*
X68026068Y114721271D03*
X79026068Y117721272D03*
X74026068Y117721272D03*
D15*
X76026068Y60221272D03*
D27*
X83646068Y60221272D03*
D25*
X85676068Y135871271D03*
D26*
X92026068Y142221271D03*
D25*
X85676068Y148571271D03*
X98376068Y135871271D03*
X98376068Y148571271D03*
X97626068Y64371271D03*
D26*
X91276068Y70721271D03*
D25*
X84926068Y64371271D03*
X97626068Y77071271D03*
X84926068Y77071271D03*
D23*
X87276068Y59721272D03*
D24*
X94896068Y59721272D03*
D23*
X91026068Y131471272D03*
D24*
X98646068Y131471272D03*
D23*
X86776068Y131471272D03*
D24*
X79156068Y131471272D03*
D21*
X76176068Y65721272D03*
D22*
X76176068Y68261272D03*
D16*
X69026068Y128221271D03*
X76526068Y128221271D03*
X90776068Y99721272D03*
X90776068Y107221272D03*
X76526068Y92971271D03*
X76526068Y100471271D03*
X72776068Y150971272D03*
X80276068Y150971272D03*
D17*
X77626068Y80721272D03*
D18*
X70006068Y88341272D03*
X77626068Y83261272D03*
X70006068Y85801272D03*
X77626068Y85801272D03*
X70006068Y83261272D03*
X77626068Y88341272D03*
X70006068Y80721272D03*
D19*
X68776068Y103471272D03*
D20*
X76396068Y111091272D03*
X71316068Y103471272D03*
X73856068Y111091272D03*
X73856068Y103471272D03*
X71316068Y111091272D03*
X76396068Y103471272D03*
X68776068Y111091272D03*
D17*
X76776067Y135221271D03*
D18*
X69156067Y142841271D03*
X76776067Y137761271D03*
X69156067Y140301271D03*
X76776067Y140301271D03*
X69156067Y137761271D03*
X76776067Y142841271D03*
X69156067Y135221271D03*
D15*
X65526068Y62721272D03*
D16*
X63026068Y62721272D03*
D15*
X69526068Y56721272D03*
D16*
X67026068Y56721272D03*
D14*
X70076068Y70981272D03*
X70076068Y63361272D03*
X87526068Y99411271D03*
X87526068Y107031271D03*
X81026068Y99411271D03*
X81026068Y107031271D03*
X80966068Y96221271D03*
X88586068Y96221271D03*
X100536068Y116821272D03*
X92916068Y116821272D03*
X69026068Y117911271D03*
X69026068Y125531271D03*
X83336068Y57221271D03*
X75716068Y57221271D03*
X84276068Y99411271D03*
X84276068Y107031271D03*
X77586068Y74121272D03*
X69966068Y74121272D03*
X69966067Y77321272D03*
X77586067Y77321272D03*
X68466067Y131471271D03*
X76086067Y131471271D03*
X76716068Y121721271D03*
X84336068Y121721271D03*
X88336067Y126721272D03*
X80716067Y126721272D03*
X80276068Y135661272D03*
X80276068Y143281272D03*
X80086067Y146471272D03*
X72466067Y146471272D03*
D12*
X60946068Y88701272D03*
D13*
X60946068Y83621272D03*
X60946068Y78541272D03*
D11*
X99750000Y96750000D03*
X99750000Y91750000D03*
X99750000Y86750000D03*
D12*
X36750000Y42500000D03*
D13*
X31670000Y42500000D03*
X26590000Y42500000D03*
D14*
X94520000Y23360000D03*
X94520000Y30980000D03*
X83710000Y23170000D03*
X91330000Y23170000D03*
X74770000Y15110000D03*
X74770000Y22730000D03*
X69770000Y26730000D03*
X69770000Y19110000D03*
X79520000Y34980000D03*
X79520000Y27360000D03*
X25370000Y33480000D03*
X25370000Y25860000D03*
X22170000Y25860000D03*
X22170000Y33480000D03*
X47460000Y19170000D03*
X55080000Y19170000D03*
X5270000Y20110000D03*
X5270000Y27730000D03*
X65960000Y34420000D03*
X73580000Y34420000D03*
X64870000Y2910000D03*
X64870000Y10530000D03*
X44270000Y22480000D03*
X44270000Y14860000D03*
X47460000Y22420000D03*
X55080000Y22420000D03*
X47460000Y15920000D03*
X55080000Y15920000D03*
X19030000Y33370000D03*
X11410000Y33370000D03*
D15*
X4770000Y33920000D03*
D16*
X4770000Y36420000D03*
D15*
X10770000Y37920000D03*
D16*
X10770000Y40420000D03*
D19*
X83270000Y26670000D03*
D20*
X90890000Y34290000D03*
X85810000Y26670000D03*
X88350000Y34290000D03*
X88350000Y26670000D03*
X85810000Y34290000D03*
X90890000Y26670000D03*
X83270000Y34290000D03*
D17*
X51520000Y34670000D03*
D18*
X59140000Y27050000D03*
X51520000Y32130000D03*
X59140000Y29590000D03*
X51520000Y29590000D03*
X59140000Y32130000D03*
X51520000Y27050000D03*
X59140000Y34670000D03*
D19*
X28770000Y25820000D03*
D20*
X36390000Y33440000D03*
X31310000Y25820000D03*
X33850000Y33440000D03*
X33850000Y25820000D03*
X31310000Y33440000D03*
X36390000Y25820000D03*
X28770000Y33440000D03*
D16*
X99020000Y30670000D03*
X99020000Y23170000D03*
X41020000Y26920000D03*
X48520000Y26920000D03*
X47770000Y12670000D03*
X55270000Y12670000D03*
X76270000Y34420000D03*
X76270000Y26920000D03*
D21*
X13770000Y27270000D03*
D22*
X16310000Y27270000D03*
D23*
X79520000Y16670000D03*
D24*
X79520000Y24290000D03*
D23*
X79520000Y12420000D03*
D24*
X79520000Y4800000D03*
D23*
X7770000Y16170000D03*
D24*
X7770000Y8550000D03*
D25*
X12420000Y5820000D03*
D26*
X18770000Y12170000D03*
D25*
X12420000Y18520000D03*
X25120000Y5820000D03*
X25120000Y18520000D03*
X83920000Y17770000D03*
D26*
X90270000Y11420000D03*
D25*
X96620000Y17770000D03*
X83920000Y5070000D03*
X96620000Y5070000D03*
D15*
X8270000Y27420000D03*
D27*
X8270000Y19800000D03*
D16*
X65770000Y24420000D03*
X65770000Y29420000D03*
X62770000Y30420000D03*
X62770000Y35420000D03*
X44070000Y32720000D03*
X39070000Y32720000D03*
X98770000Y37170000D03*
X93770000Y37170000D03*
X74770000Y11420000D03*
X74770000Y6420000D03*
D31*
X35270000Y15920000D03*
D32*
X37270000Y15920000D03*
D16*
X22000000Y37250000D03*
D30*
X13019744Y46230256D02*
X13019744Y46230256D01*
D16*
X47500000Y34250000D03*
D27*
X47500000Y46950000D03*
D11*
X45000000Y3750000D03*
X40000000Y3750000D03*
X35000000Y3750000D03*
D33*
X20276068Y88221272D03*
X20276067Y94221271D03*
X27776068Y87471271D03*
X27776068Y82471272D03*
X81026068Y82471272D03*
X81026068Y87471271D03*
X73526067Y94221271D03*
X73526068Y88221272D03*
X36270000Y29920000D03*
X42270000Y29920000D03*
X35520000Y22420000D03*
X30520000Y22420000D03*
X12626069Y111221272D03*
X12676068Y98321272D03*
X65926068Y98321272D03*
X65876069Y111221272D03*
X59270000Y37569998D03*
X46370000Y37520000D03*
X30276068Y110221272D03*
X26696068Y113701271D03*
X79946068Y113701271D03*
X83526068Y110221272D03*
X58270000Y19920000D03*
X61750000Y23500000D03*
D34*
X38776068Y126721272D02*
X37026067Y126721272D01*
X37026067Y126721272D02*
X35086068Y126721272D01*
X29651068Y131346272D02*
X29526068Y131471272D01*
X36276067Y129221272D02*
X31776068Y129221272D01*
X37026067Y128471272D02*
X36276067Y129221272D01*
X37026067Y126721272D02*
X37026067Y128471272D01*
X31776068Y129221272D02*
X29651068Y131346272D01*
X29651068Y131346272D02*
X29276068Y131721272D01*
X29276068Y135971272D02*
X29276067Y136221272D01*
X29276068Y131721272D02*
X29276068Y135971272D01*
X25946068Y140301271D02*
X29276067Y136971272D01*
X29276067Y136971272D02*
X29276068Y135971272D01*
X23526068Y140301271D02*
X25946068Y140301271D01*
X76776068Y140301271D02*
X79196068Y140301271D01*
X82526067Y136971272D02*
X82526068Y135971272D01*
X79196068Y140301271D02*
X82526067Y136971272D01*
X82526068Y131721272D02*
X82526068Y135971272D01*
X82526068Y135971272D02*
X82526067Y136221272D01*
X82901068Y131346272D02*
X82526068Y131721272D01*
X85026068Y129221272D02*
X82901068Y131346272D01*
X90276067Y126721272D02*
X90276067Y128471272D01*
X90276067Y128471272D02*
X89526067Y129221272D01*
X89526067Y129221272D02*
X85026068Y129221272D01*
X82901068Y131346272D02*
X82776068Y131471272D01*
X90276067Y126721272D02*
X88336068Y126721272D01*
X92026068Y126721272D02*
X90276067Y126721272D01*
X74770000Y11420000D02*
X74770000Y13170000D01*
X74770000Y13170000D02*
X74770000Y15110000D01*
X79395000Y20545000D02*
X79520000Y20670000D01*
X77270000Y13920000D02*
X77270000Y18420000D01*
X76520000Y13170000D02*
X77270000Y13920000D01*
X74770000Y13170000D02*
X76520000Y13170000D01*
X77270000Y18420000D02*
X79395000Y20545000D01*
X79395000Y20545000D02*
X79770000Y20920000D01*
X84020000Y20920000D02*
X84270000Y20920000D01*
X79770000Y20920000D02*
X84020000Y20920000D01*
X88350000Y24250000D02*
X85020000Y20920000D01*
X85020000Y20920000D02*
X84020000Y20920000D01*
X88350000Y26670000D02*
X88350000Y24250000D01*
X8696068Y88701271D02*
X8196068Y88701271D01*
X16756068Y88341272D02*
X16156068Y88341272D01*
X20156068Y88341272D02*
X20276068Y88221272D01*
X20276067Y94221271D02*
X18476068Y96021271D01*
X18476068Y96021271D02*
X17476068Y96021272D01*
X16756068Y88341272D02*
X20156068Y88341272D01*
X16276068Y57721272D02*
X14276068Y59721272D01*
X14276068Y59721272D02*
X11776068Y59721272D01*
X11776068Y59721272D02*
X9776068Y61721272D01*
X9776068Y61721272D02*
X9776068Y62721272D01*
X16276068Y56721272D02*
X16276068Y57721272D01*
X24776067Y92971271D02*
X27776068Y89971271D01*
X27776068Y89971271D02*
X27776068Y87471271D01*
X27776068Y82471272D02*
X27776068Y80971271D01*
X27776068Y80971271D02*
X31676068Y77071271D01*
X23276068Y92971271D02*
X24776067Y92971271D01*
X76526068Y92971271D02*
X78026067Y92971271D01*
X81026068Y80971271D02*
X84926068Y77071271D01*
X81026068Y82471272D02*
X81026068Y80971271D01*
X81026068Y89971271D02*
X81026068Y87471271D01*
X78026067Y92971271D02*
X81026068Y89971271D01*
X69526068Y56721272D02*
X69526068Y57721272D01*
X63026068Y61721272D02*
X63026068Y62721272D01*
X65026068Y59721272D02*
X63026068Y61721272D01*
X67526068Y59721272D02*
X65026068Y59721272D01*
X69526068Y57721272D02*
X67526068Y59721272D01*
X70006068Y88341272D02*
X73406068Y88341272D01*
X71726068Y96021271D02*
X70726068Y96021272D01*
X73526067Y94221271D02*
X71726068Y96021271D01*
X73406068Y88341272D02*
X73526068Y88221272D01*
X70006068Y88341272D02*
X69406068Y88341272D01*
X61946068Y88701271D02*
X61446068Y88701271D01*
X36750000Y41500000D02*
X36750000Y42000000D01*
X36390000Y33440000D02*
X36390000Y34040000D01*
X36390000Y30040000D02*
X36270000Y29920000D01*
X42270000Y29920000D02*
X44070000Y31720000D01*
X44070000Y31720000D02*
X44070000Y32720000D01*
X36390000Y33440000D02*
X36390000Y30040000D01*
X5770000Y33920000D02*
X7770000Y35920000D01*
X7770000Y35920000D02*
X7770000Y38420000D01*
X7770000Y38420000D02*
X9770000Y40420000D01*
X9770000Y40420000D02*
X10770000Y40420000D01*
X4770000Y33920000D02*
X5770000Y33920000D01*
X41020000Y25420000D02*
X38020000Y22420000D01*
X38020000Y22420000D02*
X35520000Y22420000D01*
X30520000Y22420000D02*
X29020000Y22420000D01*
X29020000Y22420000D02*
X25120000Y18520000D01*
X41020000Y26920000D02*
X41020000Y25420000D01*
X16696068Y140301272D02*
X19026068Y137971272D01*
X15906068Y140301271D02*
X16696068Y140301272D01*
X17776068Y131471271D02*
X15216068Y131471272D01*
X19026068Y137971272D02*
X19026068Y132721271D01*
X19026068Y132721271D02*
X17776068Y131471271D01*
X19026068Y129471271D02*
X17776068Y128221271D01*
X17776068Y128221271D02*
X15776068Y128221271D01*
X19026068Y132721271D02*
X19026068Y129471271D01*
X15526068Y127971272D02*
X15776068Y128221271D01*
X15776068Y130911272D02*
X15216068Y131471272D01*
X15776068Y128221271D02*
X15776068Y130911272D01*
X15776068Y125531272D02*
X15776068Y128221271D01*
X69026068Y125531272D02*
X69026068Y128221271D01*
X69026068Y128221271D02*
X69026068Y130911272D01*
X69026068Y130911272D02*
X68466068Y131471272D01*
X68776068Y127971272D02*
X69026068Y128221271D01*
X72276068Y132721271D02*
X72276068Y129471271D01*
X71026068Y128221271D02*
X69026068Y128221271D01*
X72276068Y129471271D02*
X71026068Y128221271D01*
X72276068Y132721271D02*
X71026068Y131471271D01*
X72276068Y137971272D02*
X72276068Y132721271D01*
X71026068Y131471271D02*
X68466068Y131471272D01*
X69156068Y140301271D02*
X69946068Y140301272D01*
X69946068Y140301272D02*
X72276068Y137971272D01*
X88350000Y33500000D02*
X86020000Y31170000D01*
X88350000Y34290000D02*
X88350000Y33500000D01*
X79520000Y32420000D02*
X79520000Y34980000D01*
X86020000Y31170000D02*
X80770000Y31170000D01*
X80770000Y31170000D02*
X79520000Y32420000D01*
X77520000Y31170000D02*
X76270000Y32420000D01*
X76270000Y32420000D02*
X76270000Y34420000D01*
X80770000Y31170000D02*
X77520000Y31170000D01*
X76020000Y34670000D02*
X76270000Y34420000D01*
X78960000Y34420000D02*
X79520000Y34980000D01*
X76270000Y34420000D02*
X78960000Y34420000D01*
X73580000Y34420000D02*
X76270000Y34420000D01*
X20626070Y133721272D02*
X20626070Y133721272D01*
X21026068Y136471271D02*
X20626070Y136071273D01*
X22316068Y137761271D02*
X21026068Y136471271D01*
X23526068Y137761272D02*
X22316068Y137761271D01*
X20626070Y136071273D02*
X20626070Y133721272D01*
X23276068Y131031271D02*
X22836068Y131471271D01*
X23276068Y128221271D02*
X23276068Y131031271D01*
X20626070Y133681269D02*
X20626070Y133721272D01*
X20626070Y130871269D02*
X20626070Y133681269D01*
X23276068Y128221271D02*
X20626070Y130871269D01*
X22836068Y131471271D02*
X20626070Y133681269D01*
X23276068Y121911271D02*
X23276068Y128221271D01*
X23466067Y121721271D02*
X23276068Y121911271D01*
X76716067Y121721271D02*
X76526068Y121911271D01*
X76526068Y121911271D02*
X76526068Y128221271D01*
X76086068Y131471271D02*
X73876070Y133681269D01*
X76526068Y128221271D02*
X73876070Y130871269D01*
X73876070Y130871269D02*
X73876070Y133681269D01*
X73876070Y133681269D02*
X73876070Y133721272D01*
X76526068Y128221271D02*
X76526068Y131031271D01*
X76526068Y131031271D02*
X76086068Y131471271D01*
X73876070Y136071273D02*
X73876070Y133721272D01*
X76776068Y137761272D02*
X75566068Y137761271D01*
X75566068Y137761271D02*
X74276068Y136471271D01*
X74276068Y136471271D02*
X73876070Y136071273D01*
X73876070Y133721272D02*
X73876070Y133721272D01*
X81770000Y29569998D02*
X81770000Y29569998D01*
X84520000Y29170000D02*
X84120002Y29569998D01*
X85810000Y27880000D02*
X84520000Y29170000D01*
X85810000Y26670000D02*
X85810000Y27880000D01*
X84120002Y29569998D02*
X81770000Y29569998D01*
X79080000Y26920000D02*
X79520000Y27360000D01*
X76270000Y26920000D02*
X79080000Y26920000D01*
X81729998Y29569998D02*
X81770000Y29569998D01*
X78919998Y29569998D02*
X81729998Y29569998D01*
X76270000Y26920000D02*
X78919998Y29569998D01*
X79520000Y27360000D02*
X81729998Y29569998D01*
X69960000Y26920000D02*
X76270000Y26920000D01*
X69770000Y26730000D02*
X69960000Y26920000D01*
X16826067Y70981272D02*
X15916068Y70981272D01*
X15916068Y70981272D02*
X12946068Y73951271D01*
X15696068Y71201272D02*
X12946068Y73951271D01*
X14316067Y137761272D02*
X12626069Y136071274D01*
X12626069Y130721271D02*
X12626070Y130221271D01*
X12626069Y136071274D02*
X12626069Y130721271D01*
X15906068Y137761272D02*
X14316067Y137761272D01*
X12626070Y114971272D02*
X12626070Y115071274D01*
X12626070Y115721272D02*
X12626070Y114971272D01*
X12626069Y130721271D02*
X12626070Y115721272D01*
X12626069Y110121270D02*
X14276068Y108471271D01*
X14276068Y108471271D02*
X17026068Y108471272D01*
X17026068Y108471272D02*
X18066067Y109511272D01*
X18066067Y109511272D02*
X18066068Y111091272D01*
X12626069Y111221272D02*
X12626069Y110121270D01*
X12626070Y114971272D02*
X12626069Y111221272D01*
X18066068Y113181271D02*
X16526068Y114721271D01*
X16526068Y114721271D02*
X14776068Y114721271D01*
X18066068Y111091272D02*
X18066068Y113181271D01*
X12626070Y145321274D02*
X12626069Y136071274D01*
X13026068Y145721271D02*
X12626070Y145321274D01*
X14976068Y80721272D02*
X16756068Y80721272D01*
X12626070Y83071269D02*
X14976068Y80721272D01*
X12626070Y98321272D02*
X12626070Y83071269D01*
X12676068Y98321272D02*
X12626070Y98321272D01*
X16756068Y77361271D02*
X16716068Y77321272D01*
X16756068Y80721272D02*
X16756068Y77361271D01*
X12626070Y74171271D02*
X12626070Y83071269D01*
X12626070Y74021270D02*
X12626070Y74171271D01*
X12626069Y70181269D02*
X12626070Y74021270D01*
X14086067Y68721271D02*
X12626069Y70181269D01*
X12276067Y65221272D02*
X14086067Y67031272D01*
X14086067Y67031272D02*
X14086067Y68721271D01*
X12276068Y62721272D02*
X12276067Y65221272D01*
X65526068Y62721272D02*
X65526067Y65221272D01*
X67336067Y67031272D02*
X67336067Y68721271D01*
X65526067Y65221272D02*
X67336067Y67031272D01*
X67336067Y68721271D02*
X65876069Y70181269D01*
X65876069Y70181269D02*
X65876070Y74021270D01*
X65876070Y74021270D02*
X65876070Y74171271D01*
X65876070Y74171271D02*
X65876070Y83071269D01*
X70006068Y80721272D02*
X70006068Y77361271D01*
X70006068Y77361271D02*
X69966068Y77321272D01*
X65926068Y98321272D02*
X65876070Y98321272D01*
X65876070Y98321272D02*
X65876070Y83071269D01*
X65876070Y83071269D02*
X68226068Y80721272D01*
X68226068Y80721272D02*
X70006068Y80721272D01*
X66276068Y145721271D02*
X65876070Y145321274D01*
X65876070Y145321274D02*
X65876069Y136071274D01*
X71316068Y111091272D02*
X71316068Y113181271D01*
X69776068Y114721271D02*
X68026068Y114721271D01*
X71316068Y113181271D02*
X69776068Y114721271D01*
X65876070Y114971272D02*
X65876069Y111221272D01*
X65876069Y111221272D02*
X65876069Y110121270D01*
X71316067Y109511272D02*
X71316068Y111091272D01*
X70276068Y108471272D02*
X71316067Y109511272D01*
X67526068Y108471271D02*
X70276068Y108471272D01*
X65876069Y110121270D02*
X67526068Y108471271D01*
X65876069Y130721271D02*
X65876070Y115721272D01*
X65876070Y115721272D02*
X65876070Y114971272D01*
X65876070Y114971272D02*
X65876070Y115071274D01*
X69156068Y137761272D02*
X67566067Y137761272D01*
X65876069Y136071274D02*
X65876069Y130721271D01*
X65876069Y130721271D02*
X65876070Y130221271D01*
X67566067Y137761272D02*
X65876069Y136071274D01*
X68946068Y71201272D02*
X66196068Y73951271D01*
X69166068Y70981272D02*
X66196068Y73951271D01*
X70076067Y70981272D02*
X69166068Y70981272D01*
X19030000Y33370000D02*
X19030000Y34280000D01*
X19030000Y34280000D02*
X22000000Y37250000D01*
X19250000Y34500000D02*
X22000000Y37250000D01*
X85810000Y35880000D02*
X84120002Y37569998D01*
X78770000Y37569998D02*
X78270000Y37569998D01*
X84120002Y37569998D02*
X78770000Y37569998D01*
X85810000Y34290000D02*
X85810000Y35880000D01*
X63020000Y37569998D02*
X63120002Y37569998D01*
X63770000Y37569998D02*
X63020000Y37569998D01*
X78770000Y37569998D02*
X63770000Y37569998D01*
X58169998Y37569998D02*
X56520000Y35920000D01*
X56520000Y35920000D02*
X56520000Y33170000D01*
X56520000Y33170000D02*
X57560000Y32130000D01*
X57560000Y32130000D02*
X59140000Y32130000D01*
X59270000Y37569998D02*
X58169998Y37569998D01*
X63020000Y37569998D02*
X59270000Y37569998D01*
X61230000Y32130000D02*
X62770000Y33670000D01*
X62770000Y33670000D02*
X62770000Y35420000D01*
X59140000Y32130000D02*
X61230000Y32130000D01*
X93370002Y37569998D02*
X84120002Y37569998D01*
X93770000Y37170000D02*
X93370002Y37569998D01*
X28770000Y35220000D02*
X28770000Y33440000D01*
X31119998Y37569998D02*
X28770000Y35220000D01*
X46370000Y37569998D02*
X31119998Y37569998D01*
X46370000Y37520000D02*
X46370000Y37569998D01*
X25410000Y33440000D02*
X25370000Y33480000D01*
X28770000Y33440000D02*
X25410000Y33440000D01*
X22220000Y37569998D02*
X31119998Y37569998D01*
X22069998Y37569998D02*
X22220000Y37569998D01*
X18229998Y37569998D02*
X22069998Y37569998D01*
X16770000Y36110000D02*
X18229998Y37569998D01*
X13270000Y37920000D02*
X15080000Y36110000D01*
X15080000Y36110000D02*
X16770000Y36110000D01*
X10770000Y37920000D02*
X13270000Y37920000D01*
X15946067Y99451271D02*
X14946068Y99451272D01*
X14946068Y99451272D02*
X14446068Y98951272D01*
X17276068Y145221272D02*
X17026068Y145471271D01*
X19656068Y142841272D02*
X17276068Y145221272D01*
X11026068Y127721272D02*
X11026068Y127221271D01*
X23526067Y142841272D02*
X19656068Y142841272D01*
X11026068Y115971271D02*
X11026068Y115221272D01*
X11026068Y127721272D02*
X11026068Y115971271D01*
X11026068Y108971272D02*
X13276068Y106721272D01*
X13276068Y106721272D02*
X22026068Y106721272D01*
X22026068Y106721272D02*
X23146068Y105601272D01*
X23146068Y105601272D02*
X23146068Y103471272D01*
X11026068Y109121272D02*
X11026068Y108971272D01*
X11026068Y115971271D02*
X11026068Y109121272D01*
X23276068Y103341272D02*
X23146068Y103471272D01*
X23276068Y100471272D02*
X23276068Y103341272D01*
X23526067Y148471272D02*
X26026067Y150971272D01*
X26026067Y150971272D02*
X27026068Y150971272D01*
X23526067Y142841272D02*
X23526067Y148471272D01*
X14276068Y148221272D02*
X12526068Y148221272D01*
X12526068Y148221272D02*
X11026068Y146721272D01*
X11026068Y146721272D02*
X11026068Y142971271D01*
X11026068Y142971271D02*
X11026068Y127721272D01*
X17276068Y145221272D02*
X14276068Y148221272D01*
X23196068Y88341271D02*
X24376068Y88341271D01*
X23196068Y88341271D02*
X24376068Y88341271D01*
X11026068Y109121272D02*
X11026068Y102781272D01*
X11026068Y102781272D02*
X11026068Y102371272D01*
X14476068Y98921272D02*
X14446068Y98951272D01*
X14446068Y98951272D02*
X11026068Y102371272D01*
X22776068Y88341271D02*
X22706068Y88341272D01*
X24376068Y88341271D02*
X22776068Y88341271D01*
X20276067Y90841271D02*
X20276068Y91621272D01*
X20276068Y91621272D02*
X18426068Y93471272D01*
X18426068Y93471272D02*
X15976068Y93471272D01*
X15976068Y93471272D02*
X14476068Y94971271D01*
X14476068Y94971271D02*
X14476068Y98921272D01*
X22776068Y88341271D02*
X20276067Y90841271D01*
X20096068Y91021271D02*
X20276067Y90841271D01*
X17476068Y91021272D02*
X20096068Y91021271D01*
X11026068Y99281272D02*
X11026068Y102371272D01*
X11026068Y67971272D02*
X10776067Y67721272D01*
X11776068Y56721271D02*
X13776068Y56721272D01*
X11776068Y56721271D02*
X7776067Y60721272D01*
X7776068Y64721272D02*
X10776067Y67721272D01*
X7776067Y60721272D02*
X7776068Y64721272D01*
X11026068Y99281272D02*
X11026068Y89721271D01*
X11026068Y89721271D02*
X11026068Y67971272D01*
X64276068Y89721271D02*
X64276068Y67971272D01*
X64276068Y99281272D02*
X64276068Y89721271D01*
X61026067Y60721272D02*
X61026068Y64721272D01*
X61026068Y64721272D02*
X64026067Y67721272D01*
X65026068Y56721271D02*
X61026067Y60721272D01*
X65026068Y56721271D02*
X67026068Y56721272D01*
X64276068Y67971272D02*
X64026067Y67721272D01*
X64276068Y99281272D02*
X64276068Y102371272D01*
X70726068Y91021272D02*
X73346068Y91021271D01*
X73346068Y91021271D02*
X73526067Y90841271D01*
X76026068Y88341271D02*
X73526067Y90841271D01*
X67726068Y94971271D02*
X67726068Y98921272D01*
X69226068Y93471272D02*
X67726068Y94971271D01*
X71676068Y93471272D02*
X69226068Y93471272D01*
X73526068Y91621272D02*
X71676068Y93471272D01*
X73526067Y90841271D02*
X73526068Y91621272D01*
X77626068Y88341271D02*
X76026068Y88341271D01*
X76026068Y88341271D02*
X75956068Y88341272D01*
X67696068Y98951272D02*
X64276068Y102371272D01*
X67726068Y98921272D02*
X67696068Y98951272D01*
X64276068Y102781272D02*
X64276068Y102371272D01*
X64276068Y109121272D02*
X64276068Y102781272D01*
X76446068Y88341271D02*
X77626068Y88341271D01*
X76446068Y88341271D02*
X77626068Y88341271D01*
X70526068Y145221272D02*
X67526068Y148221272D01*
X64276068Y142971271D02*
X64276068Y127721272D01*
X64276068Y146721272D02*
X64276068Y142971271D01*
X65776068Y148221272D02*
X64276068Y146721272D01*
X67526068Y148221272D02*
X65776068Y148221272D01*
X76776067Y142841272D02*
X76776067Y148471272D01*
X79276067Y150971272D02*
X80276068Y150971272D01*
X76776067Y148471272D02*
X79276067Y150971272D01*
X76526068Y100471272D02*
X76526068Y103341272D01*
X76526068Y103341272D02*
X76396068Y103471272D01*
X64276068Y115971271D02*
X64276068Y109121272D01*
X64276068Y109121272D02*
X64276068Y108971272D01*
X76396068Y105601272D02*
X76396068Y103471272D01*
X75276068Y106721272D02*
X76396068Y105601272D01*
X66526068Y106721272D02*
X75276068Y106721272D01*
X64276068Y108971272D02*
X66526068Y106721272D01*
X64276068Y127721272D02*
X64276068Y115971271D01*
X64276068Y115971271D02*
X64276068Y115221272D01*
X76776067Y142841272D02*
X72906068Y142841272D01*
X64276068Y127721272D02*
X64276068Y127221271D01*
X72906068Y142841272D02*
X70526068Y145221272D01*
X70526068Y145221272D02*
X70276068Y145471271D01*
X68196068Y99451272D02*
X67696068Y98951272D01*
X69196067Y99451271D02*
X68196068Y99451272D01*
X47500000Y34250000D02*
X47500000Y35250000D01*
X47500000Y35250000D02*
X47000000Y35750000D01*
X93270000Y32920000D02*
X93520000Y33170000D01*
X90890000Y30540000D02*
X93270000Y32920000D01*
X75770000Y39170000D02*
X75270000Y39170000D01*
X90890000Y26670000D02*
X90890000Y30540000D01*
X64020000Y39170000D02*
X63270000Y39170000D01*
X75770000Y39170000D02*
X64020000Y39170000D01*
X57020000Y39170000D02*
X54770000Y36920000D01*
X54770000Y36920000D02*
X54770000Y28170000D01*
X54770000Y28170000D02*
X53650000Y27050000D01*
X53650000Y27050000D02*
X51520000Y27050000D01*
X57170000Y39170000D02*
X57020000Y39170000D01*
X64020000Y39170000D02*
X57170000Y39170000D01*
X51390000Y26920000D02*
X51520000Y27050000D01*
X48520000Y26920000D02*
X51390000Y26920000D01*
X96520000Y26670000D02*
X99020000Y24170000D01*
X99020000Y24170000D02*
X99020000Y23170000D01*
X90890000Y26670000D02*
X96520000Y26670000D01*
X96270000Y35920000D02*
X96270000Y37670000D01*
X96270000Y37670000D02*
X94770000Y39170000D01*
X94770000Y39170000D02*
X91020000Y39170000D01*
X91020000Y39170000D02*
X75770000Y39170000D01*
X93270000Y32920000D02*
X96270000Y35920000D01*
X36390000Y27000000D02*
X36390000Y25820000D01*
X36390000Y27000000D02*
X36390000Y25820000D01*
X57170000Y39170000D02*
X50830000Y39170000D01*
X50830000Y39170000D02*
X50420000Y39170000D01*
X46970000Y35720000D02*
X47000000Y35750000D01*
X47000000Y35750000D02*
X50420000Y39170000D01*
X36390000Y27420000D02*
X36390000Y27490000D01*
X36390000Y25820000D02*
X36390000Y27420000D01*
X38890000Y29920000D02*
X39670000Y29920000D01*
X39670000Y29920000D02*
X41520000Y31770000D01*
X41520000Y31770000D02*
X41520000Y34220000D01*
X41520000Y34220000D02*
X43020000Y35720000D01*
X43020000Y35720000D02*
X46970000Y35720000D01*
X36390000Y27420000D02*
X38890000Y29920000D01*
X39070000Y30100000D02*
X38890000Y29920000D01*
X39070000Y32720000D02*
X39070000Y30100000D01*
X47330000Y39170000D02*
X50420000Y39170000D01*
X16020000Y39170000D02*
X15770000Y39420000D01*
X4770000Y38420000D02*
X4770000Y36420000D01*
X4770000Y38420000D02*
X8770000Y42420000D01*
X12770000Y42420000D02*
X15770000Y39420000D01*
X8770000Y42420000D02*
X12770000Y42420000D01*
X47330000Y39170000D02*
X37770000Y39170000D01*
X37770000Y39170000D02*
X16020000Y39170000D01*
X37276068Y110221271D02*
X37026067Y110221271D01*
X20606068Y101391271D02*
X20606068Y103471271D01*
X15966068Y117721271D02*
X15776068Y117911271D01*
X20776068Y117721272D02*
X15966068Y117721271D01*
X22276067Y97971272D02*
X20606068Y99641271D01*
X20606068Y99641271D02*
X20606068Y101391271D01*
X27026068Y102971271D02*
X25526068Y101471271D01*
X28026068Y103971271D02*
X38276068Y103971272D01*
X38276068Y103971272D02*
X39776068Y105471272D01*
X39776068Y105471272D02*
X39776068Y108221272D01*
X39776068Y108221272D02*
X39776068Y108721272D01*
X39776068Y108721272D02*
X38276068Y110221271D01*
X37276068Y110221271D02*
X38276068Y110221271D01*
X27026068Y102971271D02*
X28026068Y103971271D01*
X24276068Y97971272D02*
X23526068Y97971272D01*
X25526068Y99221272D02*
X24276068Y97971272D01*
X25526068Y101471271D02*
X25526068Y99221272D01*
X23526068Y97971272D02*
X22276067Y97971272D01*
X39776068Y116711271D02*
X39666068Y116821272D01*
X39776068Y108221272D02*
X39776068Y116711271D01*
X20796067Y117701272D02*
X20776068Y117721272D01*
X30446068Y110221271D02*
X30276068Y110221272D01*
X26696068Y113701271D02*
X22696068Y117701272D01*
X30446068Y110221271D02*
X37276068Y110221271D01*
X20796067Y117701272D02*
X22696068Y117701272D01*
X74046067Y117701272D02*
X75946068Y117701272D01*
X83696068Y110221271D02*
X90526068Y110221271D01*
X79946068Y113701271D02*
X75946068Y117701272D01*
X83696068Y110221271D02*
X83526068Y110221272D01*
X74046067Y117701272D02*
X74026068Y117721272D01*
X93026068Y108221272D02*
X93026068Y116711271D01*
X93026068Y116711271D02*
X92916068Y116821272D01*
X76776068Y97971272D02*
X75526067Y97971272D01*
X78776068Y101471271D02*
X78776068Y99221272D01*
X78776068Y99221272D02*
X77526068Y97971272D01*
X77526068Y97971272D02*
X76776068Y97971272D01*
X80276068Y102971271D02*
X81276068Y103971271D01*
X90526068Y110221271D02*
X91526068Y110221271D01*
X93026068Y108721272D02*
X91526068Y110221271D01*
X93026068Y108221272D02*
X93026068Y108721272D01*
X93026068Y105471272D02*
X93026068Y108221272D01*
X91526068Y103971272D02*
X93026068Y105471272D01*
X81276068Y103971271D02*
X91526068Y103971272D01*
X80276068Y102971271D02*
X78776068Y101471271D01*
X73856068Y99641271D02*
X73856068Y101391271D01*
X75526067Y97971272D02*
X73856068Y99641271D01*
X74026068Y117721272D02*
X69216068Y117721271D01*
X69216068Y117721271D02*
X69026068Y117911271D01*
X73856068Y101391271D02*
X73856068Y103471271D01*
X90526068Y110221271D02*
X90276067Y110221271D01*
X58270000Y12920000D02*
X58270000Y13170000D01*
X49440000Y29590000D02*
X51520000Y29590000D01*
X65770000Y34230000D02*
X65960000Y34420000D01*
X65770000Y29420000D02*
X65770000Y34230000D01*
X46020000Y27920000D02*
X47690000Y29590000D01*
X47690000Y29590000D02*
X49440000Y29590000D01*
X51020000Y23170000D02*
X49520000Y24670000D01*
X52020000Y22170000D02*
X52020000Y11920000D01*
X52020000Y11920000D02*
X53520000Y10420000D01*
X53520000Y10420000D02*
X56270000Y10420000D01*
X56270000Y10420000D02*
X56770000Y10420000D01*
X56770000Y10420000D02*
X58270000Y11920000D01*
X58270000Y12920000D02*
X58270000Y11920000D01*
X51020000Y23170000D02*
X52020000Y22170000D01*
X46020000Y25920000D02*
X46020000Y26670000D01*
X47270000Y24670000D02*
X46020000Y25920000D01*
X49520000Y24670000D02*
X47270000Y24670000D01*
X46020000Y26670000D02*
X46020000Y27920000D01*
X64760000Y10420000D02*
X64870000Y10530000D01*
X56270000Y10420000D02*
X64760000Y10420000D01*
X65750000Y29400000D02*
X65770000Y29420000D01*
X58270000Y19750000D02*
X58270000Y19920000D01*
X61750000Y23500000D02*
X65750000Y27500000D01*
X58270000Y19750000D02*
X58270000Y12920000D01*
X65750000Y29400000D02*
X65750000Y27500000D01*
X35276068Y101971272D02*
X30336068Y101971271D01*
X30336068Y101971271D02*
X27776068Y99411271D01*
X37526068Y99721272D02*
X35276068Y101971272D01*
X27836068Y99351271D02*
X27776068Y99411271D01*
X27836068Y96221271D02*
X27836068Y99351271D01*
X21026068Y96221271D02*
X18066067Y99181272D01*
X18066067Y99181272D02*
X18066068Y100931271D01*
X22776068Y96221272D02*
X27716068Y96221271D01*
X18066067Y103471272D02*
X18066068Y100931271D01*
X22776068Y96221272D02*
X21026068Y96221271D01*
X76026068Y96221272D02*
X74276068Y96221271D01*
X71316067Y103471272D02*
X71316068Y100931271D01*
X76026068Y96221272D02*
X80966068Y96221271D01*
X71316067Y99181272D02*
X71316068Y100931271D01*
X74276068Y96221271D02*
X71316067Y99181272D01*
X81086068Y96221271D02*
X81086068Y99351271D01*
X81086068Y99351271D02*
X81026068Y99411271D01*
X90776068Y99721272D02*
X88526068Y101971272D01*
X83586068Y101971271D02*
X81026068Y99411271D01*
X88526068Y101971272D02*
X83586068Y101971271D01*
X50020000Y14920000D02*
X50020000Y19860000D01*
X50020000Y19860000D02*
X47460000Y22420000D01*
X47770000Y12670000D02*
X50020000Y14920000D01*
X47400000Y22360000D02*
X47460000Y22420000D01*
X44270000Y22360000D02*
X47400000Y22360000D01*
X44270000Y29170000D02*
X47230000Y32130000D01*
X47230000Y32130000D02*
X48980000Y32130000D01*
X44270000Y27420000D02*
X44270000Y22480000D01*
X51520000Y32130000D02*
X48980000Y32130000D01*
X44270000Y27420000D02*
X44270000Y29170000D01*
X26336068Y108471271D02*
X27776068Y107031272D01*
X22276068Y108471272D02*
X26336068Y108471271D01*
X20606068Y110141272D02*
X22276068Y108471272D01*
X20606068Y111091272D02*
X20606068Y110141272D01*
X31026068Y107031272D02*
X27776068Y107031272D01*
X34276068Y107031272D02*
X31026068Y107031272D01*
X34466068Y107221272D02*
X34276068Y107031272D01*
X37526068Y107221271D02*
X34466068Y107221272D01*
X90776068Y107221271D02*
X87716068Y107221272D01*
X87716068Y107221272D02*
X87526068Y107031272D01*
X87526068Y107031272D02*
X84276068Y107031272D01*
X84276068Y107031272D02*
X81026068Y107031272D01*
X73856068Y111091272D02*
X73856068Y110141272D01*
X73856068Y110141272D02*
X75526068Y108471272D01*
X75526068Y108471272D02*
X79586068Y108471271D01*
X79586068Y108471271D02*
X81026068Y107031272D01*
X56520000Y23860000D02*
X55080000Y22420000D01*
X56520000Y27920000D02*
X56520000Y23860000D01*
X58190000Y29590000D02*
X56520000Y27920000D01*
X59140000Y29590000D02*
X58190000Y29590000D01*
X55080000Y19170000D02*
X55080000Y22420000D01*
X55080000Y15920000D02*
X55080000Y19170000D01*
X55270000Y15730000D02*
X55080000Y15920000D01*
X55270000Y12670000D02*
X55270000Y15730000D01*
X37776068Y131471272D02*
X33526068Y131471272D01*
X91026068Y131471272D02*
X86776068Y131471272D01*
X79520000Y12420000D02*
X79520000Y16670000D01*
X26906068Y135541272D02*
X27026068Y135661271D01*
X26716068Y127471272D02*
X26656068Y127531272D01*
X27466068Y126721272D02*
X26716068Y127471272D01*
X25906068Y128281272D02*
X25906068Y131471271D01*
X26716068Y127471272D02*
X25906068Y128281272D01*
X25906068Y131471271D02*
X25776068Y131601271D01*
X25906067Y133291272D02*
X25906068Y131471271D01*
X27026068Y135661271D02*
X25906067Y133291272D01*
X80276068Y135661271D02*
X79156067Y133291272D01*
X79156067Y133291272D02*
X79156068Y131471271D01*
X79156068Y131471271D02*
X79026068Y131601271D01*
X79966068Y127471272D02*
X79156068Y128281272D01*
X79156068Y128281272D02*
X79156068Y131471271D01*
X80716068Y126721272D02*
X79966068Y127471272D01*
X79966068Y127471272D02*
X79906068Y127531272D01*
X80156068Y135541272D02*
X80276068Y135661271D01*
X83590000Y23290000D02*
X83710000Y23170000D01*
X75520000Y23480000D02*
X75580000Y23540000D01*
X74770000Y22730000D02*
X75520000Y23480000D01*
X76330000Y24290000D02*
X79520000Y24290000D01*
X75520000Y23480000D02*
X76330000Y24290000D01*
X79520000Y24290000D02*
X79650000Y24420000D01*
X81340000Y24290000D02*
X79520000Y24290000D01*
X83710000Y23170000D02*
X81340000Y24290000D01*
X25076068Y65721272D02*
X27276068Y67921271D01*
X27276068Y67921271D02*
X27276068Y77821272D01*
X27276068Y77821272D02*
X24376068Y80721272D01*
X22926068Y65721272D02*
X25076068Y65721272D01*
X22926068Y60371271D02*
X22926068Y65721272D01*
X22776068Y60221272D02*
X22926068Y60371271D01*
X76026068Y60221272D02*
X76176068Y60371271D01*
X76176068Y60371271D02*
X76176068Y65721272D01*
X76176068Y65721272D02*
X78326068Y65721272D01*
X80526068Y77821272D02*
X77626068Y80721272D01*
X80526068Y67921271D02*
X80526068Y77821272D01*
X78326068Y65721272D02*
X80526068Y67921271D01*
X13770000Y25120000D02*
X15970000Y22920000D01*
X15970000Y22920000D02*
X25870000Y22920000D01*
X25870000Y22920000D02*
X28770000Y25820000D01*
X13770000Y27270000D02*
X13770000Y25120000D01*
X8420000Y27270000D02*
X13770000Y27270000D01*
X8270000Y27420000D02*
X8420000Y27270000D01*
X30386067Y60211272D02*
X30396067Y60221272D01*
X30086067Y59911272D02*
X30396067Y60221272D01*
X30086068Y57221271D02*
X30086067Y59911272D01*
X83336068Y57221271D02*
X83336067Y59911272D01*
X83336067Y59911272D02*
X83646067Y60221272D01*
X83636067Y60211272D02*
X83646067Y60221272D01*
X8260000Y19810000D02*
X8270000Y19800000D01*
X7960000Y20110000D02*
X8270000Y19800000D01*
X5270000Y20110000D02*
X7960000Y20110000D01*
X34026068Y59721272D02*
X38026068Y63721272D01*
X38026068Y63721272D02*
X38026068Y70721271D01*
X32776068Y97911271D02*
X32776068Y93721272D01*
X32776068Y97911271D02*
X34276068Y99411271D01*
X31776068Y92721272D02*
X32776068Y93721272D01*
X31776068Y84971272D02*
X31776068Y92721272D01*
X31776068Y84721272D02*
X31776068Y84971272D01*
X31776068Y84971272D02*
X31776068Y84971272D01*
X31776068Y83721272D02*
X31776068Y84971272D01*
X38026068Y77471272D02*
X31776068Y83721272D01*
X38026068Y70721271D02*
X38026068Y77471272D01*
X91276068Y70721271D02*
X91276068Y77471272D01*
X91276068Y77471272D02*
X85026068Y83721272D01*
X85026068Y83721272D02*
X85026068Y84971272D01*
X85026068Y84971272D02*
X85026068Y84971272D01*
X85026068Y84721272D02*
X85026068Y84971272D01*
X85026068Y84971272D02*
X85026068Y92721272D01*
X85026068Y92721272D02*
X86026068Y93721272D01*
X86026068Y97911271D02*
X87526068Y99411271D01*
X86026068Y97911271D02*
X86026068Y93721272D01*
X91276068Y63721272D02*
X91276068Y70721271D01*
X87276068Y59721272D02*
X91276068Y63721272D01*
X7770000Y16170000D02*
X11770000Y12170000D01*
X11770000Y12170000D02*
X18770000Y12170000D01*
X45960000Y17420000D02*
X41770000Y17420000D01*
X45960000Y17420000D02*
X47460000Y15920000D01*
X40770000Y18420000D02*
X41770000Y17420000D01*
X33020000Y18420000D02*
X40770000Y18420000D01*
X32770000Y18420000D02*
X33020000Y18420000D01*
X33020000Y18420000D02*
X33020000Y18420000D01*
X31770000Y18420000D02*
X33020000Y18420000D01*
X25520000Y12170000D02*
X31770000Y18420000D01*
X18770000Y12170000D02*
X25520000Y12170000D01*
X18366067Y63361272D02*
X20276067Y65271272D01*
X20276067Y65271272D02*
X20276068Y67321271D01*
X20276068Y67321271D02*
X21216068Y68261271D01*
X21216068Y68261271D02*
X22926068Y68261271D01*
X16826068Y63361272D02*
X18366067Y63361272D01*
X70076068Y63361272D02*
X71616067Y63361272D01*
X74466068Y68261271D02*
X76176068Y68261271D01*
X73526068Y67321271D02*
X74466068Y68261271D01*
X73526067Y65271272D02*
X73526068Y67321271D01*
X71616067Y63361272D02*
X73526067Y65271272D01*
X11410000Y31830000D02*
X13320000Y29920000D01*
X13320000Y29920000D02*
X15370000Y29920000D01*
X15370000Y29920000D02*
X16310000Y28980000D01*
X16310000Y28980000D02*
X16310000Y27270000D01*
X11410000Y33370000D02*
X11410000Y31830000D01*
X27216067Y143471271D02*
X27026068Y143281272D01*
X37716068Y143281271D02*
X38776068Y142221271D01*
X27026068Y143281272D02*
X37716068Y143281271D01*
X27026068Y143281272D02*
X27026068Y146661272D01*
X80276068Y143281272D02*
X80276068Y146661272D01*
X80276068Y143281272D02*
X90966068Y143281271D01*
X90966068Y143281271D02*
X92026068Y142221271D01*
X80466067Y143471271D02*
X80276068Y143281272D01*
X91520000Y22980000D02*
X91330000Y23170000D01*
X91330000Y12480000D02*
X90270000Y11420000D01*
X91330000Y23170000D02*
X91330000Y12480000D01*
X91330000Y23170000D02*
X94710000Y23170000D01*
X46276068Y92221272D02*
X46526067Y91971272D01*
X46526067Y86971272D02*
X46526067Y91971272D01*
X46526067Y91971272D02*
X41776068Y87221272D01*
X40776068Y87221271D02*
X34276068Y87221272D01*
X41776068Y87221272D02*
X40776068Y87221271D01*
X46276068Y87221271D02*
X40776068Y87221271D01*
X46526067Y86971272D02*
X46276068Y87221271D01*
X99776067Y86971272D02*
X99526068Y87221271D01*
X99526068Y87221271D02*
X94026068Y87221271D01*
X95026068Y87221272D02*
X94026068Y87221271D01*
X94026068Y87221271D02*
X87526068Y87221272D01*
X99776067Y91971272D02*
X95026068Y87221272D01*
X99776067Y86971272D02*
X99776067Y91971272D01*
X99526068Y92221272D02*
X99776067Y91971272D01*
X40270000Y3920000D02*
X40020000Y3670000D01*
X35020000Y3670000D02*
X40020000Y3670000D01*
X40020000Y3670000D02*
X35270000Y8420000D01*
X35270000Y9420000D02*
X35270000Y15920000D01*
X35270000Y8420000D02*
X35270000Y9420000D01*
X35270000Y3920000D02*
X35270000Y9420000D01*
X35020000Y3670000D02*
X35270000Y3920000D01*
X3246067Y99451271D02*
X3946068Y98751271D01*
X3946068Y87371271D02*
X3946068Y90641271D01*
X3946068Y87371271D02*
X7696068Y83621271D01*
X3946068Y98751271D02*
X3946068Y90641271D01*
X8696068Y83621272D02*
X8696068Y83701272D01*
X7696068Y83621271D02*
X6776068Y83621272D01*
X60946068Y83621271D02*
X60026068Y83621272D01*
X61946068Y83621272D02*
X61946068Y83701272D01*
X57196068Y98751271D02*
X57196068Y90641271D01*
X57196068Y87371271D02*
X60946068Y83621271D01*
X57196068Y87371271D02*
X57196068Y90641271D01*
X56496067Y99451271D02*
X57196068Y98751271D01*
X47500000Y46950000D02*
X46800000Y46250000D01*
X35420000Y46250000D02*
X38690000Y46250000D01*
X35420000Y46250000D02*
X31670000Y42500000D01*
X46800000Y46250000D02*
X38690000Y46250000D01*
X31670000Y41500000D02*
X31750000Y41500000D01*
X31670000Y42500000D02*
X31670000Y43420000D01*
X3965812Y64971015D02*
X7696068Y68701272D01*
X7696068Y68701272D02*
X7696068Y78541272D01*
X7386068Y78231272D02*
X7696068Y78541272D01*
X60636068Y78231272D02*
X60946068Y78541272D01*
X60946068Y68701272D02*
X60946068Y78541272D01*
X57215812Y64971015D02*
X60946068Y68701272D01*
X13019744Y46230256D02*
X16750000Y42500000D01*
X16750000Y42500000D02*
X26590000Y42500000D01*
X26280000Y42810000D02*
X26590000Y42500000D01*
X22456068Y85801272D02*
X24376068Y85801272D01*
X21626068Y84971272D02*
X22456068Y85801272D01*
X21626068Y79121271D02*
X21626068Y84971272D01*
X23426068Y77321272D02*
X21626068Y79121271D01*
X24336067Y77321272D02*
X23426068Y77321272D01*
X24336068Y74121272D02*
X24336067Y77321272D01*
X14676067Y64871271D02*
X14676068Y61821272D01*
X21626068Y79121271D02*
X21626068Y71821272D01*
X17926067Y68121271D02*
X21626068Y71821272D01*
X17926067Y68121271D02*
X14676067Y64871271D01*
X19276068Y57221272D02*
X14676068Y61821272D01*
X22466068Y57221271D02*
X19276068Y57221272D01*
X75716068Y57221271D02*
X72526068Y57221272D01*
X72526068Y57221272D02*
X67926068Y61821272D01*
X71176067Y68121271D02*
X67926067Y64871271D01*
X71176067Y68121271D02*
X74876068Y71821272D01*
X74876068Y79121271D02*
X74876068Y71821272D01*
X67926067Y64871271D02*
X67926068Y61821272D01*
X77586068Y74121272D02*
X77586067Y77321272D01*
X77586067Y77321272D02*
X76676068Y77321272D01*
X76676068Y77321272D02*
X74876068Y79121271D01*
X74876068Y79121271D02*
X74876068Y84971272D01*
X74876068Y84971272D02*
X75706068Y85801272D01*
X75706068Y85801272D02*
X77626068Y85801272D01*
X33850000Y27740000D02*
X33850000Y25820000D01*
X33020000Y28570000D02*
X33850000Y27740000D01*
X27170000Y28570000D02*
X33020000Y28570000D01*
X25370000Y26770000D02*
X27170000Y28570000D01*
X25370000Y25860000D02*
X25370000Y26770000D01*
X22170000Y25860000D02*
X25370000Y25860000D01*
X12920000Y35520000D02*
X9870000Y35520000D01*
X27170000Y28570000D02*
X19870000Y28570000D01*
X16170000Y32270000D02*
X19870000Y28570000D01*
X16170000Y32270000D02*
X12920000Y35520000D01*
X5270000Y30920000D02*
X9870000Y35520000D01*
X5270000Y27730000D02*
X5270000Y30920000D01*
X26116068Y83261272D02*
X29626068Y86771271D01*
X29626068Y86771271D02*
X29626068Y93871271D01*
X29626068Y93871271D02*
X31026068Y95271271D01*
X31026068Y95271271D02*
X31026068Y99411271D01*
X24376068Y83261272D02*
X26116068Y83261272D01*
X77626068Y83261272D02*
X79366068Y83261272D01*
X84276068Y95271271D02*
X84276068Y99411271D01*
X82876068Y93871271D02*
X84276068Y95271271D01*
X82876068Y86771271D02*
X82876068Y93871271D01*
X79366068Y83261272D02*
X82876068Y86771271D01*
X31310000Y24080000D02*
X34820000Y20570000D01*
X34820000Y20570000D02*
X41920000Y20570000D01*
X41920000Y20570000D02*
X43320000Y19170000D01*
X43320000Y19170000D02*
X47460000Y19170000D01*
X31310000Y25820000D02*
X31310000Y24080000D01*
X35336068Y96221271D02*
X40776068Y96221271D01*
X40776068Y96221271D02*
X41526068Y96971271D01*
X41526068Y96971271D02*
X46526067Y96971272D01*
X94776068Y96971271D02*
X99776067Y96971272D01*
X94026068Y96221271D02*
X94776068Y96971271D01*
X88586068Y96221271D02*
X94026068Y96221271D01*
X44270000Y14860000D02*
X44270000Y9420000D01*
X44270000Y9420000D02*
X45020000Y8670000D01*
X45020000Y8670000D02*
X45020000Y3670000D01*
D35*
G36*
X101128034Y1002000D02*
X1882036Y1002000D01*
X1897596Y4098574D01*
X2722649Y4098574D01*
X3030591Y3353297D01*
X3600298Y2782595D01*
X4345036Y2473353D01*
X5151426Y2472649D01*
X5896703Y2780591D01*
X6467405Y3350298D01*
X6776647Y4095036D01*
X6777351Y4901426D01*
X6469409Y5646703D01*
X5899702Y6217405D01*
X5154964Y6526647D01*
X4348574Y6527351D01*
X3603297Y6219409D01*
X3032595Y5649702D01*
X2723353Y4904964D01*
X2722649Y4098574D01*
X1897596Y4098574D01*
X2058297Y36077986D01*
X3042701Y36077986D01*
X3305067Y35443011D01*
X3790456Y34956774D01*
X4424971Y34693300D01*
X5112014Y34692701D01*
X5746989Y34955067D01*
X6233226Y35440456D01*
X6496700Y36074971D01*
X6497299Y36762014D01*
X6234933Y37396989D01*
X6197000Y37434988D01*
X6197000Y37828918D01*
X9361083Y40993000D01*
X12178918Y40993000D01*
X14170052Y39001865D01*
X13816089Y39238376D01*
X13270000Y39347000D01*
X12268112Y39347000D01*
X12247499Y39379033D01*
X11937721Y39590696D01*
X11570000Y39665161D01*
X9970000Y39665161D01*
X9626474Y39600522D01*
X9310967Y39397499D01*
X9099304Y39087721D01*
X9024839Y38720000D01*
X9024839Y37120000D01*
X9089478Y36776474D01*
X9132111Y36710220D01*
X8860958Y36529041D01*
X4260959Y31929041D01*
X3951624Y31466089D01*
X3843000Y30920000D01*
X3843000Y29027582D01*
X3637754Y28822694D01*
X3343845Y28114884D01*
X3343176Y27348479D01*
X3635849Y26640157D01*
X4177306Y26097754D01*
X4885116Y25803845D01*
X5651521Y25803176D01*
X6359843Y26095849D01*
X6581778Y26317397D01*
X6589478Y26276474D01*
X6792501Y25960967D01*
X7102279Y25749304D01*
X7470000Y25674839D01*
X9070000Y25674839D01*
X9413526Y25739478D01*
X9574404Y25843000D01*
X12107540Y25843000D01*
X12192501Y25710967D01*
X12343000Y25608135D01*
X12343000Y25120000D01*
X12446112Y24601624D01*
X12451624Y24573911D01*
X12760959Y24110959D01*
X14960959Y21910959D01*
X15423911Y21601624D01*
X15970000Y21493000D01*
X25870000Y21493000D01*
X26416089Y21601624D01*
X26879041Y21910959D01*
X28642922Y23674839D01*
X29570000Y23674839D01*
X29913526Y23739478D01*
X29946512Y23760704D01*
X29957809Y23703911D01*
X29991624Y23533911D01*
X30300959Y23070959D01*
X33524917Y19847000D01*
X31770000Y19847000D01*
X31223911Y19738376D01*
X30760959Y19429042D01*
X24928918Y13597000D01*
X21107189Y13597000D01*
X21064524Y13700258D01*
X20304260Y14461850D01*
X19310418Y14874529D01*
X18234303Y14875468D01*
X17239742Y14464524D01*
X16478150Y13704260D01*
X16433612Y13597000D01*
X12361083Y13597000D01*
X9815161Y16142921D01*
X9815161Y17270000D01*
X9750522Y17613526D01*
X9547499Y17929033D01*
X9237721Y18140696D01*
X8967881Y18195340D01*
X9491173Y18544993D01*
X9865540Y19105272D01*
X9997000Y19766166D01*
X9997000Y19833834D01*
X9865540Y20494728D01*
X9491173Y21055007D01*
X8930894Y21429374D01*
X8270000Y21560834D01*
X8055089Y21518086D01*
X7960000Y21537000D01*
X6567582Y21537000D01*
X6362694Y21742246D01*
X5654884Y22036155D01*
X4888479Y22036824D01*
X4180157Y21744151D01*
X3637754Y21202694D01*
X3343845Y20494884D01*
X3343176Y19728479D01*
X3635849Y19020157D01*
X4177306Y18477754D01*
X4885116Y18183845D01*
X5651521Y18183176D01*
X6359843Y18475849D01*
X6567356Y18683000D01*
X6956614Y18683000D01*
X7048827Y18544993D01*
X7542455Y18215161D01*
X6670000Y18215161D01*
X6326474Y18150522D01*
X6010967Y17947499D01*
X5799304Y17637721D01*
X5724839Y17270000D01*
X5724839Y15070000D01*
X5789478Y14726474D01*
X5992501Y14410967D01*
X6302279Y14199304D01*
X6670000Y14124839D01*
X7797079Y14124839D01*
X10760958Y11160959D01*
X11223910Y10851624D01*
X11247157Y10847000D01*
X11770000Y10743000D01*
X16432811Y10743000D01*
X16475476Y10639742D01*
X17235740Y9878150D01*
X18229582Y9465471D01*
X19305697Y9464532D01*
X20300258Y9875476D01*
X21061850Y10635740D01*
X21106388Y10743000D01*
X25520000Y10743000D01*
X26066089Y10851624D01*
X26529041Y11160959D01*
X32361083Y16993000D01*
X33709872Y16993000D01*
X33674839Y16820000D01*
X33674839Y15020000D01*
X33739478Y14676474D01*
X33843000Y14515596D01*
X33843000Y5627455D01*
X33768440Y5596647D01*
X33155505Y4984782D01*
X32823379Y4184932D01*
X32822623Y3318868D01*
X33153353Y2518440D01*
X33765218Y1905505D01*
X34565068Y1573379D01*
X35431132Y1572623D01*
X36231560Y1903353D01*
X36571801Y2243000D01*
X38428312Y2243000D01*
X38765218Y1905505D01*
X39565068Y1573379D01*
X40431132Y1572623D01*
X41231560Y1903353D01*
X41844495Y2515218D01*
X42176621Y3315068D01*
X42177377Y4181132D01*
X41846647Y4981560D01*
X41234782Y5594495D01*
X40434932Y5926621D01*
X39780891Y5927192D01*
X36697000Y9011082D01*
X36697000Y14515151D01*
X36790696Y14652279D01*
X36865161Y15020000D01*
X36865161Y16820000D01*
X36832609Y16993000D01*
X40178918Y16993000D01*
X40760959Y16410958D01*
X41121579Y16170000D01*
X41223911Y16101624D01*
X41770000Y15993000D01*
X42678130Y15993000D01*
X42637754Y15952694D01*
X42343845Y15244884D01*
X42343176Y14478479D01*
X42635849Y13770157D01*
X42843000Y13562644D01*
X42843000Y9420000D01*
X42927936Y8993000D01*
X42951624Y8873911D01*
X43260959Y8410959D01*
X43593000Y8078918D01*
X43593000Y5421513D01*
X43155505Y4984782D01*
X42823379Y4184932D01*
X42822623Y3318868D01*
X43153353Y2518440D01*
X43765218Y1905505D01*
X44565068Y1573379D01*
X45431132Y1572623D01*
X46231560Y1903353D01*
X46844495Y2515218D01*
X47176621Y3315068D01*
X47177235Y4018574D01*
X67992649Y4018574D01*
X68300591Y3273297D01*
X68870298Y2702595D01*
X69615036Y2393353D01*
X70421426Y2392649D01*
X71166703Y2700591D01*
X71737405Y3270298D01*
X72046647Y4015036D01*
X72047351Y4821426D01*
X71739409Y5566703D01*
X71169702Y6137405D01*
X70424964Y6446647D01*
X69618574Y6447351D01*
X68873297Y6139409D01*
X68302595Y5569702D01*
X67993353Y4824964D01*
X67992649Y4018574D01*
X47177235Y4018574D01*
X47177377Y4181132D01*
X46846647Y4981560D01*
X46447000Y5381906D01*
X46447000Y8670000D01*
X46338376Y9216089D01*
X46029041Y9679041D01*
X45697000Y10011082D01*
X45697000Y13562418D01*
X45902246Y13767306D01*
X46191489Y14463878D01*
X46367306Y14287754D01*
X46776069Y14118020D01*
X46306774Y13649544D01*
X46043300Y13015029D01*
X46042701Y12327986D01*
X46305067Y11693011D01*
X46790456Y11206774D01*
X47424971Y10943300D01*
X48112014Y10942701D01*
X48746989Y11205067D01*
X49233226Y11690456D01*
X49496700Y12324971D01*
X49496747Y12378664D01*
X50593000Y13474917D01*
X50593000Y11920000D01*
X50644527Y11660959D01*
X50701624Y11373911D01*
X51010959Y10910959D01*
X52510958Y9410959D01*
X52973910Y9101624D01*
X53064512Y9083602D01*
X53520000Y8993000D01*
X63682226Y8993000D01*
X63777306Y8897754D01*
X64485116Y8603845D01*
X65251521Y8603176D01*
X65959843Y8895849D01*
X66502246Y9437306D01*
X66796155Y10145116D01*
X66796824Y10911521D01*
X66504151Y11619843D01*
X65962694Y12162246D01*
X65254884Y12456155D01*
X64488479Y12456824D01*
X63780157Y12164151D01*
X63462452Y11847000D01*
X59682479Y11847000D01*
X59697000Y11920000D01*
X59697000Y19918755D01*
X59697248Y20202603D01*
X59480457Y20727275D01*
X59079386Y21129047D01*
X58555093Y21346752D01*
X57987397Y21347248D01*
X57462725Y21130457D01*
X57060953Y20729386D01*
X56843248Y20205093D01*
X56843023Y19947948D01*
X56714151Y20259843D01*
X56507000Y20467356D01*
X56507000Y21122418D01*
X56712246Y21327306D01*
X57006155Y22035116D01*
X57006411Y22328328D01*
X57529042Y22850959D01*
X57838376Y23313911D01*
X57947000Y23860000D01*
X57947000Y25514887D01*
X58037436Y25454460D01*
X58698330Y25323000D01*
X59581670Y25323000D01*
X60242564Y25454460D01*
X60802843Y25828827D01*
X61177210Y26389106D01*
X61308670Y27050000D01*
X61177210Y27710894D01*
X60802843Y28271173D01*
X60729768Y28320000D01*
X60802843Y28368827D01*
X61177210Y28929106D01*
X61308670Y29590000D01*
X61177210Y30250894D01*
X60875122Y30703000D01*
X61230000Y30703000D01*
X61776089Y30811624D01*
X62239041Y31120959D01*
X63779041Y32660959D01*
X64088376Y33123911D01*
X64193240Y33651096D01*
X64325849Y33330157D01*
X64343000Y33312976D01*
X64343000Y30435707D01*
X64306774Y30399544D01*
X64043300Y29765029D01*
X64042701Y29077986D01*
X64305067Y28443011D01*
X64323000Y28425047D01*
X64323000Y28091083D01*
X60742125Y24510207D01*
X60540953Y24309386D01*
X60323248Y23785093D01*
X60322752Y23217397D01*
X60539543Y22692725D01*
X60940614Y22290953D01*
X61464907Y22073248D01*
X62032603Y22072752D01*
X62557275Y22289543D01*
X62959047Y22690614D01*
X62959296Y22691214D01*
X66759041Y26490958D01*
X67068376Y26953910D01*
X67087489Y27050000D01*
X67177000Y27500000D01*
X67177000Y28384328D01*
X67233226Y28440456D01*
X67496700Y29074971D01*
X67497299Y29762014D01*
X67234933Y30396989D01*
X67197000Y30434988D01*
X67197000Y32932749D01*
X67592246Y33327306D01*
X67886155Y34035116D01*
X67886824Y34801521D01*
X67594151Y35509843D01*
X67052694Y36052246D01*
X66834139Y36142998D01*
X72705183Y36142998D01*
X72490157Y36054151D01*
X71947754Y35512694D01*
X71653845Y34804884D01*
X71653176Y34038479D01*
X71945849Y33330157D01*
X72487306Y32787754D01*
X73195116Y32493845D01*
X73961521Y32493176D01*
X74669843Y32785849D01*
X74843000Y32958704D01*
X74843000Y32420000D01*
X74937881Y31943000D01*
X74951624Y31873911D01*
X75260959Y31410959D01*
X76510959Y30160959D01*
X76973911Y29851624D01*
X77148762Y29816844D01*
X75979172Y28647254D01*
X75927986Y28647299D01*
X75293011Y28384933D01*
X75255012Y28347000D01*
X70877913Y28347000D01*
X70862694Y28362246D01*
X70154884Y28656155D01*
X69388479Y28656824D01*
X68680157Y28364151D01*
X68137754Y27822694D01*
X67843845Y27114884D01*
X67843176Y26348479D01*
X68135849Y25640157D01*
X68677306Y25097754D01*
X69385116Y24803845D01*
X70151521Y24803176D01*
X70859843Y25095849D01*
X71257688Y25493000D01*
X75254293Y25493000D01*
X75290456Y25456774D01*
X75454857Y25388509D01*
X75320959Y25299041D01*
X74678489Y24656571D01*
X74388479Y24656824D01*
X73680157Y24364151D01*
X73137754Y23822694D01*
X72843845Y23114884D01*
X72843176Y22348479D01*
X73135849Y21640157D01*
X73677306Y21097754D01*
X74385116Y20803845D01*
X75151521Y20803176D01*
X75859843Y21095849D01*
X76402246Y21637306D01*
X76696155Y22345116D01*
X76696411Y22638329D01*
X76921082Y22863000D01*
X78055948Y22863000D01*
X78086695Y22816984D01*
X78744301Y22377585D01*
X79334032Y22260280D01*
X79223911Y22238376D01*
X78760959Y21929041D01*
X78510962Y21679044D01*
X78510959Y21679042D01*
X78385962Y21554044D01*
X78385959Y21554042D01*
X76260960Y19429042D01*
X76260959Y19429041D01*
X75951624Y18966089D01*
X75843000Y18420000D01*
X75843000Y16750424D01*
X75154884Y17036155D01*
X74388479Y17036824D01*
X73680157Y16744151D01*
X73137754Y16202694D01*
X72843845Y15494884D01*
X72843176Y14728479D01*
X73135849Y14020157D01*
X73343000Y13812644D01*
X73343000Y12435707D01*
X73306774Y12399544D01*
X73043300Y11765029D01*
X73042701Y11077986D01*
X73305067Y10443011D01*
X73790456Y9956774D01*
X74424971Y9693300D01*
X75112014Y9692701D01*
X75746989Y9955067D01*
X76233226Y10440456D01*
X76496700Y11074971D01*
X76497282Y11743000D01*
X76520000Y11743000D01*
X77066089Y11851624D01*
X77474839Y12124742D01*
X77474839Y11320000D01*
X77539478Y10976474D01*
X77742501Y10660967D01*
X78052279Y10449304D01*
X78420000Y10374839D01*
X80620000Y10374839D01*
X80963526Y10439478D01*
X81279033Y10642501D01*
X81490696Y10952279D01*
X81565161Y11320000D01*
X81565161Y13520000D01*
X81500522Y13863526D01*
X81297499Y14179033D01*
X80987721Y14390696D01*
X80947000Y14398942D01*
X80947000Y14686368D01*
X80963526Y14689478D01*
X81279033Y14892501D01*
X81490696Y15202279D01*
X81565161Y15570000D01*
X81565161Y17770000D01*
X81500522Y18113526D01*
X81297499Y18429033D01*
X80987721Y18640696D01*
X80620000Y18715161D01*
X79583244Y18715161D01*
X80361083Y19493000D01*
X85020000Y19493000D01*
X85566089Y19601624D01*
X86029041Y19910959D01*
X89359041Y23240959D01*
X89403629Y23307690D01*
X89403176Y22788479D01*
X89695849Y22080157D01*
X89903000Y21872644D01*
X89903000Y14125321D01*
X89734303Y14125468D01*
X88739742Y13714524D01*
X87978150Y12954260D01*
X87565471Y11960418D01*
X87564532Y10884303D01*
X87975476Y9889742D01*
X88735740Y9128150D01*
X89729582Y8715471D01*
X90805697Y8714532D01*
X91800258Y9125476D01*
X92561850Y9885740D01*
X92974529Y10879582D01*
X92975468Y11955697D01*
X92757000Y12484430D01*
X92757000Y21743000D01*
X93412087Y21743000D01*
X93427306Y21727754D01*
X94135116Y21433845D01*
X94901521Y21433176D01*
X95609843Y21725849D01*
X96152246Y22267306D01*
X96446155Y22975116D01*
X96446824Y23741521D01*
X96154151Y24449843D01*
X95612694Y24992246D01*
X95008813Y25243000D01*
X95928918Y25243000D01*
X97399979Y23771939D01*
X97293300Y23515029D01*
X97292701Y22827986D01*
X97555067Y22193011D01*
X98040456Y21706774D01*
X98674971Y21443300D01*
X99362014Y21442701D01*
X99996989Y21705067D01*
X100483226Y22190456D01*
X100746700Y22824971D01*
X100747299Y23512014D01*
X100484933Y24146989D01*
X100443277Y24188718D01*
X100338376Y24716089D01*
X100029041Y25179041D01*
X97529041Y27679041D01*
X97066089Y27988376D01*
X97064611Y27988670D01*
X96520000Y28097000D01*
X92317000Y28097000D01*
X92317000Y29948918D01*
X94279041Y31910958D01*
X94279043Y31910961D01*
X94381082Y32013000D01*
X94529041Y32160958D01*
X94529043Y32160961D01*
X97279042Y34910959D01*
X97588376Y35373911D01*
X97697000Y35920000D01*
X97697000Y37670000D01*
X97588376Y38216089D01*
X97588376Y38216090D01*
X97279041Y38679042D01*
X95779041Y40179041D01*
X95316089Y40488376D01*
X95303103Y40490959D01*
X94770000Y40597000D01*
X33198971Y40597000D01*
X33726311Y41123420D01*
X34096578Y42015122D01*
X34097359Y42909277D01*
X34286656Y43098574D01*
X94722649Y43098574D01*
X95030591Y42353297D01*
X95600298Y41782595D01*
X96345036Y41473353D01*
X97151426Y41472649D01*
X97896703Y41780591D01*
X98467405Y42350298D01*
X98776647Y43095036D01*
X98777351Y43901426D01*
X98469409Y44646703D01*
X97899702Y45217405D01*
X97154964Y45526647D01*
X96348574Y45527351D01*
X95603297Y45219409D01*
X95032595Y44649702D01*
X94723353Y43904964D01*
X94722649Y43098574D01*
X34286656Y43098574D01*
X36011082Y44823000D01*
X46800000Y44823000D01*
X47346089Y44931624D01*
X47809041Y45240959D01*
X47821123Y45253041D01*
X48160894Y45320626D01*
X48721173Y45694993D01*
X49095540Y46255272D01*
X49227000Y46916166D01*
X49227000Y46983834D01*
X49095540Y47644728D01*
X48721173Y48205007D01*
X48160894Y48579374D01*
X47500000Y48710834D01*
X46839106Y48579374D01*
X46278827Y48205007D01*
X45926023Y47677000D01*
X35420000Y47677000D01*
X34873911Y47568376D01*
X34410959Y47259041D01*
X32078563Y44926645D01*
X31189358Y44927421D01*
X30297011Y44558710D01*
X29613689Y43876580D01*
X29243422Y42984878D01*
X29242579Y42019358D01*
X29611290Y41127011D01*
X30140376Y40597000D01*
X28118971Y40597000D01*
X28646311Y41123420D01*
X29016578Y42015122D01*
X29017421Y42980642D01*
X28648710Y43872989D01*
X27966580Y44556311D01*
X27074878Y44926578D01*
X26109358Y44927421D01*
X25217011Y44558710D01*
X24584197Y43927000D01*
X17341083Y43927000D01*
X14698391Y46569691D01*
X14639208Y46867227D01*
X14264841Y47427506D01*
X14216993Y47475353D01*
X13656715Y47849720D01*
X12995820Y47981179D01*
X12334925Y47849720D01*
X11774647Y47475353D01*
X11400280Y46915075D01*
X11268821Y46254180D01*
X11400280Y45593285D01*
X11774647Y45033007D01*
X11822494Y44985159D01*
X12382773Y44610792D01*
X12680309Y44551609D01*
X15740959Y41490958D01*
X16203911Y41181624D01*
X16750000Y41073000D01*
X24585207Y41073000D01*
X25060376Y40597000D01*
X16611083Y40597000D01*
X13779041Y43429041D01*
X13316089Y43738376D01*
X12770000Y43847000D01*
X8770000Y43847000D01*
X8314512Y43756398D01*
X8223910Y43738376D01*
X7760958Y43429041D01*
X3760959Y39429041D01*
X3451624Y38966089D01*
X3343000Y38420000D01*
X3343000Y37435707D01*
X3306774Y37399544D01*
X3043300Y36765029D01*
X3042701Y36077986D01*
X2058297Y36077986D01*
X2098601Y44098574D01*
X3222649Y44098574D01*
X3530591Y43353297D01*
X4100298Y42782595D01*
X4845036Y42473353D01*
X5651426Y42472649D01*
X6396703Y42780591D01*
X6967405Y43350298D01*
X7276647Y44095036D01*
X7277351Y44901426D01*
X6969409Y45646703D01*
X6399702Y46217405D01*
X5654964Y46526647D01*
X4848574Y46527351D01*
X4103297Y46219409D01*
X3532595Y45649702D01*
X3223353Y44904964D01*
X3222649Y44098574D01*
X2098601Y44098574D01*
X2126363Y49623000D01*
X101372361Y49623000D01*
X101128034Y1002000D01*
X101128034Y1002000D01*
G37*
X101128034Y1002000D02*
X1882036Y1002000D01*
X1897596Y4098574D01*
X2722649Y4098574D01*
X3030591Y3353297D01*
X3600298Y2782595D01*
X4345036Y2473353D01*
X5151426Y2472649D01*
X5896703Y2780591D01*
X6467405Y3350298D01*
X6776647Y4095036D01*
X6777351Y4901426D01*
X6469409Y5646703D01*
X5899702Y6217405D01*
X5154964Y6526647D01*
X4348574Y6527351D01*
X3603297Y6219409D01*
X3032595Y5649702D01*
X2723353Y4904964D01*
X2722649Y4098574D01*
X1897596Y4098574D01*
X2058297Y36077986D01*
X3042701Y36077986D01*
X3305067Y35443011D01*
X3790456Y34956774D01*
X4424971Y34693300D01*
X5112014Y34692701D01*
X5746989Y34955067D01*
X6233226Y35440456D01*
X6496700Y36074971D01*
X6497299Y36762014D01*
X6234933Y37396989D01*
X6197000Y37434988D01*
X6197000Y37828918D01*
X9361083Y40993000D01*
X12178918Y40993000D01*
X14170052Y39001865D01*
X13816089Y39238376D01*
X13270000Y39347000D01*
X12268112Y39347000D01*
X12247499Y39379033D01*
X11937721Y39590696D01*
X11570000Y39665161D01*
X9970000Y39665161D01*
X9626474Y39600522D01*
X9310967Y39397499D01*
X9099304Y39087721D01*
X9024839Y38720000D01*
X9024839Y37120000D01*
X9089478Y36776474D01*
X9132111Y36710220D01*
X8860958Y36529041D01*
X4260959Y31929041D01*
X3951624Y31466089D01*
X3843000Y30920000D01*
X3843000Y29027582D01*
X3637754Y28822694D01*
X3343845Y28114884D01*
X3343176Y27348479D01*
X3635849Y26640157D01*
X4177306Y26097754D01*
X4885116Y25803845D01*
X5651521Y25803176D01*
X6359843Y26095849D01*
X6581778Y26317397D01*
X6589478Y26276474D01*
X6792501Y25960967D01*
X7102279Y25749304D01*
X7470000Y25674839D01*
X9070000Y25674839D01*
X9413526Y25739478D01*
X9574404Y25843000D01*
X12107540Y25843000D01*
X12192501Y25710967D01*
X12343000Y25608135D01*
X12343000Y25120000D01*
X12446112Y24601624D01*
X12451624Y24573911D01*
X12760959Y24110959D01*
X14960959Y21910959D01*
X15423911Y21601624D01*
X15970000Y21493000D01*
X25870000Y21493000D01*
X26416089Y21601624D01*
X26879041Y21910959D01*
X28642922Y23674839D01*
X29570000Y23674839D01*
X29913526Y23739478D01*
X29946512Y23760704D01*
X29957809Y23703911D01*
X29991624Y23533911D01*
X30300959Y23070959D01*
X33524917Y19847000D01*
X31770000Y19847000D01*
X31223911Y19738376D01*
X30760959Y19429042D01*
X24928918Y13597000D01*
X21107189Y13597000D01*
X21064524Y13700258D01*
X20304260Y14461850D01*
X19310418Y14874529D01*
X18234303Y14875468D01*
X17239742Y14464524D01*
X16478150Y13704260D01*
X16433612Y13597000D01*
X12361083Y13597000D01*
X9815161Y16142921D01*
X9815161Y17270000D01*
X9750522Y17613526D01*
X9547499Y17929033D01*
X9237721Y18140696D01*
X8967881Y18195340D01*
X9491173Y18544993D01*
X9865540Y19105272D01*
X9997000Y19766166D01*
X9997000Y19833834D01*
X9865540Y20494728D01*
X9491173Y21055007D01*
X8930894Y21429374D01*
X8270000Y21560834D01*
X8055089Y21518086D01*
X7960000Y21537000D01*
X6567582Y21537000D01*
X6362694Y21742246D01*
X5654884Y22036155D01*
X4888479Y22036824D01*
X4180157Y21744151D01*
X3637754Y21202694D01*
X3343845Y20494884D01*
X3343176Y19728479D01*
X3635849Y19020157D01*
X4177306Y18477754D01*
X4885116Y18183845D01*
X5651521Y18183176D01*
X6359843Y18475849D01*
X6567356Y18683000D01*
X6956614Y18683000D01*
X7048827Y18544993D01*
X7542455Y18215161D01*
X6670000Y18215161D01*
X6326474Y18150522D01*
X6010967Y17947499D01*
X5799304Y17637721D01*
X5724839Y17270000D01*
X5724839Y15070000D01*
X5789478Y14726474D01*
X5992501Y14410967D01*
X6302279Y14199304D01*
X6670000Y14124839D01*
X7797079Y14124839D01*
X10760958Y11160959D01*
X11223910Y10851624D01*
X11247157Y10847000D01*
X11770000Y10743000D01*
X16432811Y10743000D01*
X16475476Y10639742D01*
X17235740Y9878150D01*
X18229582Y9465471D01*
X19305697Y9464532D01*
X20300258Y9875476D01*
X21061850Y10635740D01*
X21106388Y10743000D01*
X25520000Y10743000D01*
X26066089Y10851624D01*
X26529041Y11160959D01*
X32361083Y16993000D01*
X33709872Y16993000D01*
X33674839Y16820000D01*
X33674839Y15020000D01*
X33739478Y14676474D01*
X33843000Y14515596D01*
X33843000Y5627455D01*
X33768440Y5596647D01*
X33155505Y4984782D01*
X32823379Y4184932D01*
X32822623Y3318868D01*
X33153353Y2518440D01*
X33765218Y1905505D01*
X34565068Y1573379D01*
X35431132Y1572623D01*
X36231560Y1903353D01*
X36571801Y2243000D01*
X38428312Y2243000D01*
X38765218Y1905505D01*
X39565068Y1573379D01*
X40431132Y1572623D01*
X41231560Y1903353D01*
X41844495Y2515218D01*
X42176621Y3315068D01*
X42177377Y4181132D01*
X41846647Y4981560D01*
X41234782Y5594495D01*
X40434932Y5926621D01*
X39780891Y5927192D01*
X36697000Y9011082D01*
X36697000Y14515151D01*
X36790696Y14652279D01*
X36865161Y15020000D01*
X36865161Y16820000D01*
X36832609Y16993000D01*
X40178918Y16993000D01*
X40760959Y16410958D01*
X41121579Y16170000D01*
X41223911Y16101624D01*
X41770000Y15993000D01*
X42678130Y15993000D01*
X42637754Y15952694D01*
X42343845Y15244884D01*
X42343176Y14478479D01*
X42635849Y13770157D01*
X42843000Y13562644D01*
X42843000Y9420000D01*
X42927936Y8993000D01*
X42951624Y8873911D01*
X43260959Y8410959D01*
X43593000Y8078918D01*
X43593000Y5421513D01*
X43155505Y4984782D01*
X42823379Y4184932D01*
X42822623Y3318868D01*
X43153353Y2518440D01*
X43765218Y1905505D01*
X44565068Y1573379D01*
X45431132Y1572623D01*
X46231560Y1903353D01*
X46844495Y2515218D01*
X47176621Y3315068D01*
X47177235Y4018574D01*
X67992649Y4018574D01*
X68300591Y3273297D01*
X68870298Y2702595D01*
X69615036Y2393353D01*
X70421426Y2392649D01*
X71166703Y2700591D01*
X71737405Y3270298D01*
X72046647Y4015036D01*
X72047351Y4821426D01*
X71739409Y5566703D01*
X71169702Y6137405D01*
X70424964Y6446647D01*
X69618574Y6447351D01*
X68873297Y6139409D01*
X68302595Y5569702D01*
X67993353Y4824964D01*
X67992649Y4018574D01*
X47177235Y4018574D01*
X47177377Y4181132D01*
X46846647Y4981560D01*
X46447000Y5381906D01*
X46447000Y8670000D01*
X46338376Y9216089D01*
X46029041Y9679041D01*
X45697000Y10011082D01*
X45697000Y13562418D01*
X45902246Y13767306D01*
X46191489Y14463878D01*
X46367306Y14287754D01*
X46776069Y14118020D01*
X46306774Y13649544D01*
X46043300Y13015029D01*
X46042701Y12327986D01*
X46305067Y11693011D01*
X46790456Y11206774D01*
X47424971Y10943300D01*
X48112014Y10942701D01*
X48746989Y11205067D01*
X49233226Y11690456D01*
X49496700Y12324971D01*
X49496747Y12378664D01*
X50593000Y13474917D01*
X50593000Y11920000D01*
X50644527Y11660959D01*
X50701624Y11373911D01*
X51010959Y10910959D01*
X52510958Y9410959D01*
X52973910Y9101624D01*
X53064512Y9083602D01*
X53520000Y8993000D01*
X63682226Y8993000D01*
X63777306Y8897754D01*
X64485116Y8603845D01*
X65251521Y8603176D01*
X65959843Y8895849D01*
X66502246Y9437306D01*
X66796155Y10145116D01*
X66796824Y10911521D01*
X66504151Y11619843D01*
X65962694Y12162246D01*
X65254884Y12456155D01*
X64488479Y12456824D01*
X63780157Y12164151D01*
X63462452Y11847000D01*
X59682479Y11847000D01*
X59697000Y11920000D01*
X59697000Y19918755D01*
X59697248Y20202603D01*
X59480457Y20727275D01*
X59079386Y21129047D01*
X58555093Y21346752D01*
X57987397Y21347248D01*
X57462725Y21130457D01*
X57060953Y20729386D01*
X56843248Y20205093D01*
X56843023Y19947948D01*
X56714151Y20259843D01*
X56507000Y20467356D01*
X56507000Y21122418D01*
X56712246Y21327306D01*
X57006155Y22035116D01*
X57006411Y22328328D01*
X57529042Y22850959D01*
X57838376Y23313911D01*
X57947000Y23860000D01*
X57947000Y25514887D01*
X58037436Y25454460D01*
X58698330Y25323000D01*
X59581670Y25323000D01*
X60242564Y25454460D01*
X60802843Y25828827D01*
X61177210Y26389106D01*
X61308670Y27050000D01*
X61177210Y27710894D01*
X60802843Y28271173D01*
X60729768Y28320000D01*
X60802843Y28368827D01*
X61177210Y28929106D01*
X61308670Y29590000D01*
X61177210Y30250894D01*
X60875122Y30703000D01*
X61230000Y30703000D01*
X61776089Y30811624D01*
X62239041Y31120959D01*
X63779041Y32660959D01*
X64088376Y33123911D01*
X64193240Y33651096D01*
X64325849Y33330157D01*
X64343000Y33312976D01*
X64343000Y30435707D01*
X64306774Y30399544D01*
X64043300Y29765029D01*
X64042701Y29077986D01*
X64305067Y28443011D01*
X64323000Y28425047D01*
X64323000Y28091083D01*
X60742125Y24510207D01*
X60540953Y24309386D01*
X60323248Y23785093D01*
X60322752Y23217397D01*
X60539543Y22692725D01*
X60940614Y22290953D01*
X61464907Y22073248D01*
X62032603Y22072752D01*
X62557275Y22289543D01*
X62959047Y22690614D01*
X62959296Y22691214D01*
X66759041Y26490958D01*
X67068376Y26953910D01*
X67087489Y27050000D01*
X67177000Y27500000D01*
X67177000Y28384328D01*
X67233226Y28440456D01*
X67496700Y29074971D01*
X67497299Y29762014D01*
X67234933Y30396989D01*
X67197000Y30434988D01*
X67197000Y32932749D01*
X67592246Y33327306D01*
X67886155Y34035116D01*
X67886824Y34801521D01*
X67594151Y35509843D01*
X67052694Y36052246D01*
X66834139Y36142998D01*
X72705183Y36142998D01*
X72490157Y36054151D01*
X71947754Y35512694D01*
X71653845Y34804884D01*
X71653176Y34038479D01*
X71945849Y33330157D01*
X72487306Y32787754D01*
X73195116Y32493845D01*
X73961521Y32493176D01*
X74669843Y32785849D01*
X74843000Y32958704D01*
X74843000Y32420000D01*
X74937881Y31943000D01*
X74951624Y31873911D01*
X75260959Y31410959D01*
X76510959Y30160959D01*
X76973911Y29851624D01*
X77148762Y29816844D01*
X75979172Y28647254D01*
X75927986Y28647299D01*
X75293011Y28384933D01*
X75255012Y28347000D01*
X70877913Y28347000D01*
X70862694Y28362246D01*
X70154884Y28656155D01*
X69388479Y28656824D01*
X68680157Y28364151D01*
X68137754Y27822694D01*
X67843845Y27114884D01*
X67843176Y26348479D01*
X68135849Y25640157D01*
X68677306Y25097754D01*
X69385116Y24803845D01*
X70151521Y24803176D01*
X70859843Y25095849D01*
X71257688Y25493000D01*
X75254293Y25493000D01*
X75290456Y25456774D01*
X75454857Y25388509D01*
X75320959Y25299041D01*
X74678489Y24656571D01*
X74388479Y24656824D01*
X73680157Y24364151D01*
X73137754Y23822694D01*
X72843845Y23114884D01*
X72843176Y22348479D01*
X73135849Y21640157D01*
X73677306Y21097754D01*
X74385116Y20803845D01*
X75151521Y20803176D01*
X75859843Y21095849D01*
X76402246Y21637306D01*
X76696155Y22345116D01*
X76696411Y22638329D01*
X76921082Y22863000D01*
X78055948Y22863000D01*
X78086695Y22816984D01*
X78744301Y22377585D01*
X79334032Y22260280D01*
X79223911Y22238376D01*
X78760959Y21929041D01*
X78510962Y21679044D01*
X78510959Y21679042D01*
X78385962Y21554044D01*
X78385959Y21554042D01*
X76260960Y19429042D01*
X76260959Y19429041D01*
X75951624Y18966089D01*
X75843000Y18420000D01*
X75843000Y16750424D01*
X75154884Y17036155D01*
X74388479Y17036824D01*
X73680157Y16744151D01*
X73137754Y16202694D01*
X72843845Y15494884D01*
X72843176Y14728479D01*
X73135849Y14020157D01*
X73343000Y13812644D01*
X73343000Y12435707D01*
X73306774Y12399544D01*
X73043300Y11765029D01*
X73042701Y11077986D01*
X73305067Y10443011D01*
X73790456Y9956774D01*
X74424971Y9693300D01*
X75112014Y9692701D01*
X75746989Y9955067D01*
X76233226Y10440456D01*
X76496700Y11074971D01*
X76497282Y11743000D01*
X76520000Y11743000D01*
X77066089Y11851624D01*
X77474839Y12124742D01*
X77474839Y11320000D01*
X77539478Y10976474D01*
X77742501Y10660967D01*
X78052279Y10449304D01*
X78420000Y10374839D01*
X80620000Y10374839D01*
X80963526Y10439478D01*
X81279033Y10642501D01*
X81490696Y10952279D01*
X81565161Y11320000D01*
X81565161Y13520000D01*
X81500522Y13863526D01*
X81297499Y14179033D01*
X80987721Y14390696D01*
X80947000Y14398942D01*
X80947000Y14686368D01*
X80963526Y14689478D01*
X81279033Y14892501D01*
X81490696Y15202279D01*
X81565161Y15570000D01*
X81565161Y17770000D01*
X81500522Y18113526D01*
X81297499Y18429033D01*
X80987721Y18640696D01*
X80620000Y18715161D01*
X79583244Y18715161D01*
X80361083Y19493000D01*
X85020000Y19493000D01*
X85566089Y19601624D01*
X86029041Y19910959D01*
X89359041Y23240959D01*
X89403629Y23307690D01*
X89403176Y22788479D01*
X89695849Y22080157D01*
X89903000Y21872644D01*
X89903000Y14125321D01*
X89734303Y14125468D01*
X88739742Y13714524D01*
X87978150Y12954260D01*
X87565471Y11960418D01*
X87564532Y10884303D01*
X87975476Y9889742D01*
X88735740Y9128150D01*
X89729582Y8715471D01*
X90805697Y8714532D01*
X91800258Y9125476D01*
X92561850Y9885740D01*
X92974529Y10879582D01*
X92975468Y11955697D01*
X92757000Y12484430D01*
X92757000Y21743000D01*
X93412087Y21743000D01*
X93427306Y21727754D01*
X94135116Y21433845D01*
X94901521Y21433176D01*
X95609843Y21725849D01*
X96152246Y22267306D01*
X96446155Y22975116D01*
X96446824Y23741521D01*
X96154151Y24449843D01*
X95612694Y24992246D01*
X95008813Y25243000D01*
X95928918Y25243000D01*
X97399979Y23771939D01*
X97293300Y23515029D01*
X97292701Y22827986D01*
X97555067Y22193011D01*
X98040456Y21706774D01*
X98674971Y21443300D01*
X99362014Y21442701D01*
X99996989Y21705067D01*
X100483226Y22190456D01*
X100746700Y22824971D01*
X100747299Y23512014D01*
X100484933Y24146989D01*
X100443277Y24188718D01*
X100338376Y24716089D01*
X100029041Y25179041D01*
X97529041Y27679041D01*
X97066089Y27988376D01*
X97064611Y27988670D01*
X96520000Y28097000D01*
X92317000Y28097000D01*
X92317000Y29948918D01*
X94279041Y31910958D01*
X94279043Y31910961D01*
X94381082Y32013000D01*
X94529041Y32160958D01*
X94529043Y32160961D01*
X97279042Y34910959D01*
X97588376Y35373911D01*
X97697000Y35920000D01*
X97697000Y37670000D01*
X97588376Y38216089D01*
X97588376Y38216090D01*
X97279041Y38679042D01*
X95779041Y40179041D01*
X95316089Y40488376D01*
X95303103Y40490959D01*
X94770000Y40597000D01*
X33198971Y40597000D01*
X33726311Y41123420D01*
X34096578Y42015122D01*
X34097359Y42909277D01*
X34286656Y43098574D01*
X94722649Y43098574D01*
X95030591Y42353297D01*
X95600298Y41782595D01*
X96345036Y41473353D01*
X97151426Y41472649D01*
X97896703Y41780591D01*
X98467405Y42350298D01*
X98776647Y43095036D01*
X98777351Y43901426D01*
X98469409Y44646703D01*
X97899702Y45217405D01*
X97154964Y45526647D01*
X96348574Y45527351D01*
X95603297Y45219409D01*
X95032595Y44649702D01*
X94723353Y43904964D01*
X94722649Y43098574D01*
X34286656Y43098574D01*
X36011082Y44823000D01*
X46800000Y44823000D01*
X47346089Y44931624D01*
X47809041Y45240959D01*
X47821123Y45253041D01*
X48160894Y45320626D01*
X48721173Y45694993D01*
X49095540Y46255272D01*
X49227000Y46916166D01*
X49227000Y46983834D01*
X49095540Y47644728D01*
X48721173Y48205007D01*
X48160894Y48579374D01*
X47500000Y48710834D01*
X46839106Y48579374D01*
X46278827Y48205007D01*
X45926023Y47677000D01*
X35420000Y47677000D01*
X34873911Y47568376D01*
X34410959Y47259041D01*
X32078563Y44926645D01*
X31189358Y44927421D01*
X30297011Y44558710D01*
X29613689Y43876580D01*
X29243422Y42984878D01*
X29242579Y42019358D01*
X29611290Y41127011D01*
X30140376Y40597000D01*
X28118971Y40597000D01*
X28646311Y41123420D01*
X29016578Y42015122D01*
X29017421Y42980642D01*
X28648710Y43872989D01*
X27966580Y44556311D01*
X27074878Y44926578D01*
X26109358Y44927421D01*
X25217011Y44558710D01*
X24584197Y43927000D01*
X17341083Y43927000D01*
X14698391Y46569691D01*
X14639208Y46867227D01*
X14264841Y47427506D01*
X14216993Y47475353D01*
X13656715Y47849720D01*
X12995820Y47981179D01*
X12334925Y47849720D01*
X11774647Y47475353D01*
X11400280Y46915075D01*
X11268821Y46254180D01*
X11400280Y45593285D01*
X11774647Y45033007D01*
X11822494Y44985159D01*
X12382773Y44610792D01*
X12680309Y44551609D01*
X15740959Y41490958D01*
X16203911Y41181624D01*
X16750000Y41073000D01*
X24585207Y41073000D01*
X25060376Y40597000D01*
X16611083Y40597000D01*
X13779041Y43429041D01*
X13316089Y43738376D01*
X12770000Y43847000D01*
X8770000Y43847000D01*
X8314512Y43756398D01*
X8223910Y43738376D01*
X7760958Y43429041D01*
X3760959Y39429041D01*
X3451624Y38966089D01*
X3343000Y38420000D01*
X3343000Y37435707D01*
X3306774Y37399544D01*
X3043300Y36765029D01*
X3042701Y36077986D01*
X2058297Y36077986D01*
X2098601Y44098574D01*
X3222649Y44098574D01*
X3530591Y43353297D01*
X4100298Y42782595D01*
X4845036Y42473353D01*
X5651426Y42472649D01*
X6396703Y42780591D01*
X6967405Y43350298D01*
X7276647Y44095036D01*
X7277351Y44901426D01*
X6969409Y45646703D01*
X6399702Y46217405D01*
X5654964Y46526647D01*
X4848574Y46527351D01*
X4103297Y46219409D01*
X3532595Y45649702D01*
X3223353Y44904964D01*
X3222649Y44098574D01*
X2098601Y44098574D01*
X2126363Y49623000D01*
X101372361Y49623000D01*
X101128034Y1002000D01*
G36*
X45772701Y33907986D02*
X46035067Y33273011D01*
X46194858Y33112940D01*
X43260959Y30179041D01*
X42951624Y29716089D01*
X42843000Y29170000D01*
X42843000Y23777582D01*
X42637754Y23572694D01*
X42343845Y22864884D01*
X42343176Y22098479D01*
X42426756Y21896200D01*
X41920000Y21997000D01*
X35411083Y21997000D01*
X33733599Y23674484D01*
X33850000Y23651330D01*
X34510894Y23782790D01*
X35071173Y24157157D01*
X35120000Y24230232D01*
X35168827Y24157157D01*
X35729106Y23782790D01*
X36390000Y23651330D01*
X37050894Y23782790D01*
X37611173Y24157157D01*
X37985540Y24717436D01*
X38117000Y25378330D01*
X38117000Y26261670D01*
X37985540Y26922564D01*
X37955542Y26967460D01*
X39481082Y28493000D01*
X39670000Y28493000D01*
X40216089Y28601624D01*
X40679041Y28910959D01*
X42529041Y30760959D01*
X42838376Y31223911D01*
X42850311Y31283911D01*
X42947000Y31770000D01*
X42947000Y33628918D01*
X43611083Y34293000D01*
X45773037Y34293000D01*
X45772701Y33907986D01*
X45772701Y33907986D01*
G37*
X45772701Y33907986D02*
X46035067Y33273011D01*
X46194858Y33112940D01*
X43260959Y30179041D01*
X42951624Y29716089D01*
X42843000Y29170000D01*
X42843000Y23777582D01*
X42637754Y23572694D01*
X42343845Y22864884D01*
X42343176Y22098479D01*
X42426756Y21896200D01*
X41920000Y21997000D01*
X35411083Y21997000D01*
X33733599Y23674484D01*
X33850000Y23651330D01*
X34510894Y23782790D01*
X35071173Y24157157D01*
X35120000Y24230232D01*
X35168827Y24157157D01*
X35729106Y23782790D01*
X36390000Y23651330D01*
X37050894Y23782790D01*
X37611173Y24157157D01*
X37985540Y24717436D01*
X38117000Y25378330D01*
X38117000Y26261670D01*
X37985540Y26922564D01*
X37955542Y26967460D01*
X39481082Y28493000D01*
X39670000Y28493000D01*
X40216089Y28601624D01*
X40679041Y28910959D01*
X42529041Y30760959D01*
X42838376Y31223911D01*
X42850311Y31283911D01*
X42947000Y31770000D01*
X42947000Y33628918D01*
X43611083Y34293000D01*
X45773037Y34293000D01*
X45772701Y33907986D01*
G36*
X27451624Y35766089D02*
X27343000Y35220000D01*
X27343000Y34867000D01*
X26707512Y34867000D01*
X26462694Y35112246D01*
X25754884Y35406155D01*
X24988479Y35406824D01*
X24280157Y35114151D01*
X23737754Y34572694D01*
X23443845Y33864884D01*
X23443176Y33098479D01*
X23735849Y32390157D01*
X24277306Y31847754D01*
X24985116Y31553845D01*
X25751521Y31553176D01*
X26459843Y31845849D01*
X26627286Y32013000D01*
X27391242Y32013000D01*
X27548827Y31777157D01*
X28109106Y31402790D01*
X28770000Y31271330D01*
X29430894Y31402790D01*
X29991173Y31777157D01*
X30040000Y31850232D01*
X30088827Y31777157D01*
X30649106Y31402790D01*
X31310000Y31271330D01*
X31970894Y31402790D01*
X32531173Y31777157D01*
X32905540Y32337436D01*
X33037000Y32998330D01*
X33037000Y33881670D01*
X32905540Y34542564D01*
X32531173Y35102843D01*
X31970894Y35477210D01*
X31310000Y35608670D01*
X31143666Y35575584D01*
X31711080Y36142998D01*
X41424915Y36142998D01*
X40510959Y35229041D01*
X40201624Y34766089D01*
X40093000Y34220000D01*
X40093000Y34139694D01*
X40049544Y34183226D01*
X39415029Y34446700D01*
X38727986Y34447299D01*
X38093011Y34184933D01*
X37606774Y33699544D01*
X37343300Y33065029D01*
X37342701Y32377986D01*
X37605067Y31743011D01*
X37643000Y31705012D01*
X37643000Y30691082D01*
X35591916Y28639998D01*
X35380959Y28499041D01*
X35184501Y28205022D01*
X35168376Y28286089D01*
X35168376Y28286090D01*
X34859041Y28749042D01*
X34029041Y29579041D01*
X33566089Y29888376D01*
X33020000Y29997000D01*
X20461083Y29997000D01*
X19014560Y31443523D01*
X19411521Y31443176D01*
X20119843Y31735849D01*
X20662246Y32277306D01*
X20956155Y32985116D01*
X20956824Y33751521D01*
X20828988Y34060906D01*
X22290828Y35522746D01*
X22342014Y35522701D01*
X22976989Y35785067D01*
X23335545Y36142998D01*
X27703467Y36142998D01*
X27451624Y35766089D01*
X27451624Y35766089D01*
G37*
X27451624Y35766089D02*
X27343000Y35220000D01*
X27343000Y34867000D01*
X26707512Y34867000D01*
X26462694Y35112246D01*
X25754884Y35406155D01*
X24988479Y35406824D01*
X24280157Y35114151D01*
X23737754Y34572694D01*
X23443845Y33864884D01*
X23443176Y33098479D01*
X23735849Y32390157D01*
X24277306Y31847754D01*
X24985116Y31553845D01*
X25751521Y31553176D01*
X26459843Y31845849D01*
X26627286Y32013000D01*
X27391242Y32013000D01*
X27548827Y31777157D01*
X28109106Y31402790D01*
X28770000Y31271330D01*
X29430894Y31402790D01*
X29991173Y31777157D01*
X30040000Y31850232D01*
X30088827Y31777157D01*
X30649106Y31402790D01*
X31310000Y31271330D01*
X31970894Y31402790D01*
X32531173Y31777157D01*
X32905540Y32337436D01*
X33037000Y32998330D01*
X33037000Y33881670D01*
X32905540Y34542564D01*
X32531173Y35102843D01*
X31970894Y35477210D01*
X31310000Y35608670D01*
X31143666Y35575584D01*
X31711080Y36142998D01*
X41424915Y36142998D01*
X40510959Y35229041D01*
X40201624Y34766089D01*
X40093000Y34220000D01*
X40093000Y34139694D01*
X40049544Y34183226D01*
X39415029Y34446700D01*
X38727986Y34447299D01*
X38093011Y34184933D01*
X37606774Y33699544D01*
X37343300Y33065029D01*
X37342701Y32377986D01*
X37605067Y31743011D01*
X37643000Y31705012D01*
X37643000Y30691082D01*
X35591916Y28639998D01*
X35380959Y28499041D01*
X35184501Y28205022D01*
X35168376Y28286089D01*
X35168376Y28286090D01*
X34859041Y28749042D01*
X34029041Y29579041D01*
X33566089Y29888376D01*
X33020000Y29997000D01*
X20461083Y29997000D01*
X19014560Y31443523D01*
X19411521Y31443176D01*
X20119843Y31735849D01*
X20662246Y32277306D01*
X20956155Y32985116D01*
X20956824Y33751521D01*
X20828988Y34060906D01*
X22290828Y35522746D01*
X22342014Y35522701D01*
X22976989Y35785067D01*
X23335545Y36142998D01*
X27703467Y36142998D01*
X27451624Y35766089D01*
G36*
X50123000Y53877000D02*
X1002000Y53877000D01*
X1002000Y56799845D01*
X3668716Y56799845D01*
X3976658Y56054568D01*
X4546365Y55483866D01*
X5291103Y55174624D01*
X6097493Y55173920D01*
X6842770Y55481862D01*
X7413472Y56051569D01*
X7722714Y56796307D01*
X7723418Y57602697D01*
X7415476Y58347974D01*
X6845769Y58918676D01*
X6101031Y59227918D01*
X5294641Y59228622D01*
X4549364Y58920680D01*
X3978662Y58350973D01*
X3669420Y57606235D01*
X3668716Y56799845D01*
X1002000Y56799845D01*
X1002000Y99451271D01*
X1485233Y99451271D01*
X1616693Y98790377D01*
X1991060Y98230098D01*
X2519068Y97877294D01*
X2519068Y87371271D01*
X2588366Y87022887D01*
X2627692Y86825182D01*
X2937027Y86362230D01*
X5269423Y84029834D01*
X5268647Y83140630D01*
X5637358Y82248283D01*
X6319488Y81564961D01*
X7211190Y81194694D01*
X8176710Y81193851D01*
X9069057Y81562562D01*
X9599068Y82091648D01*
X9599068Y80070243D01*
X9072648Y80597583D01*
X8180946Y80967850D01*
X7215426Y80968693D01*
X6323079Y80599982D01*
X5639757Y79917852D01*
X5269490Y79026150D01*
X5268647Y78060630D01*
X5637358Y77168283D01*
X6269068Y76535469D01*
X6269068Y69292355D01*
X3626376Y66649662D01*
X3328841Y66590479D01*
X2768562Y66216112D01*
X2720715Y66168264D01*
X2346348Y65607986D01*
X2214889Y64947091D01*
X2346348Y64286196D01*
X2720715Y63725918D01*
X3280993Y63351551D01*
X3941888Y63220092D01*
X4602783Y63351551D01*
X5163061Y63725918D01*
X5210909Y63773765D01*
X5585276Y64334044D01*
X5644459Y64631579D01*
X8705109Y67692231D01*
X9014444Y68155183D01*
X9049279Y68330312D01*
X9123068Y68701272D01*
X9123068Y76536479D01*
X9599068Y77011648D01*
X9599068Y68562356D01*
X6767026Y65730313D01*
X6624565Y65517104D01*
X6457692Y65267361D01*
X6349068Y64721272D01*
X6349067Y60721272D01*
X6457691Y60175183D01*
X6767026Y59712231D01*
X10767027Y55712229D01*
X11229979Y55402895D01*
X11776068Y55294271D01*
X12760362Y55294271D01*
X12796524Y55258046D01*
X13431039Y54994572D01*
X14118082Y54993973D01*
X14753057Y55256339D01*
X15239294Y55741728D01*
X15502768Y56376243D01*
X15503367Y57063286D01*
X15241001Y57698261D01*
X14755612Y58184498D01*
X14121097Y58447972D01*
X13434054Y58448571D01*
X12799079Y58186205D01*
X12761079Y58148271D01*
X12367151Y58148271D01*
X9203067Y61312354D01*
X9203068Y64130189D01*
X11194201Y66121323D01*
X10957691Y65767361D01*
X10946857Y65712896D01*
X10849067Y65221271D01*
X10849067Y64219383D01*
X10817035Y64198771D01*
X10605372Y63888993D01*
X10530907Y63521272D01*
X10530907Y61921272D01*
X10595546Y61577746D01*
X10798569Y61262239D01*
X11108347Y61050576D01*
X11476068Y60976111D01*
X13076068Y60976111D01*
X13419594Y61040750D01*
X13485848Y61083384D01*
X13667027Y60812231D01*
X18267026Y56212231D01*
X18729978Y55902896D01*
X18820580Y55884874D01*
X19276068Y55794272D01*
X21168486Y55794271D01*
X21373374Y55589025D01*
X22081184Y55295116D01*
X22847589Y55294447D01*
X23555911Y55587120D01*
X24098314Y56128577D01*
X24392223Y56836387D01*
X24392892Y57602792D01*
X24100219Y58311114D01*
X23878670Y58533050D01*
X23919594Y58540750D01*
X24235101Y58743773D01*
X24446764Y59053551D01*
X24521229Y59421272D01*
X24521229Y61021272D01*
X24456590Y61364798D01*
X24353068Y61525676D01*
X24353068Y64058812D01*
X24485101Y64143773D01*
X24587933Y64294272D01*
X25076068Y64294272D01*
X25622157Y64402896D01*
X25694322Y64451115D01*
X26085109Y64712230D01*
X28285109Y66912229D01*
X28594444Y67375181D01*
X28632486Y67566433D01*
X28703068Y67921271D01*
X28703068Y77821272D01*
X28594444Y78367361D01*
X28594444Y78367362D01*
X28285109Y78830314D01*
X26521229Y80594193D01*
X26521229Y81521272D01*
X26456590Y81864798D01*
X26435364Y81897784D01*
X26662157Y81942896D01*
X27125109Y82252230D01*
X30349068Y85476189D01*
X30349068Y83721272D01*
X30384276Y83544272D01*
X30457692Y83175183D01*
X30767027Y82712231D01*
X36599068Y76880189D01*
X36599068Y73058460D01*
X36495810Y73015795D01*
X35734218Y72255531D01*
X35321539Y71261689D01*
X35320600Y70185574D01*
X35731544Y69191013D01*
X36491808Y68429421D01*
X36599068Y68384883D01*
X36599068Y64312355D01*
X34053147Y61766433D01*
X32926068Y61766433D01*
X32582542Y61701794D01*
X32267035Y61498771D01*
X32055372Y61188993D01*
X32000728Y60919153D01*
X31651075Y61442445D01*
X31090796Y61816812D01*
X30429902Y61948272D01*
X30362234Y61948272D01*
X29701340Y61816812D01*
X29141061Y61442445D01*
X28766694Y60882166D01*
X28635234Y60221272D01*
X28677982Y60006363D01*
X28659067Y59911271D01*
X28659068Y58518853D01*
X28453822Y58313965D01*
X28159913Y57606155D01*
X28159244Y56839750D01*
X28451917Y56131428D01*
X28993374Y55589025D01*
X29701184Y55295116D01*
X30467589Y55294447D01*
X31175911Y55587120D01*
X31718314Y56128577D01*
X31789430Y56299845D01*
X43668717Y56299845D01*
X43976659Y55554568D01*
X44546366Y54983866D01*
X45291104Y54674624D01*
X46097494Y54673920D01*
X46842771Y54981862D01*
X47413473Y55551569D01*
X47722715Y56296307D01*
X47723419Y57102697D01*
X47415477Y57847974D01*
X46845770Y58418676D01*
X46101032Y58727918D01*
X45294642Y58728622D01*
X44549365Y58420680D01*
X43978663Y57850973D01*
X43669421Y57106235D01*
X43668717Y56299845D01*
X31789430Y56299845D01*
X32012223Y56836387D01*
X32012892Y57602792D01*
X31720219Y58311114D01*
X31513068Y58518627D01*
X31513067Y58907885D01*
X31651075Y59000099D01*
X31980907Y59493727D01*
X31980907Y58621272D01*
X32045546Y58277746D01*
X32248569Y57962239D01*
X32558347Y57750576D01*
X32926068Y57676111D01*
X35126068Y57676111D01*
X35469594Y57740750D01*
X35785101Y57943773D01*
X35996764Y58253551D01*
X36071229Y58621272D01*
X36071229Y59748351D01*
X39035109Y62712230D01*
X39344444Y63175182D01*
X39362466Y63265784D01*
X39453068Y63721272D01*
X39453068Y68384082D01*
X39556326Y68426747D01*
X40317918Y69187011D01*
X40730597Y70180853D01*
X40731536Y71256968D01*
X40320592Y72251529D01*
X39560328Y73013121D01*
X39453068Y73057659D01*
X39453068Y77471272D01*
X39344444Y78017361D01*
X39281055Y78112229D01*
X39035110Y78480313D01*
X33203068Y84312354D01*
X33203068Y85661144D01*
X33376068Y85626111D01*
X35176068Y85626111D01*
X35519594Y85690750D01*
X35680472Y85794272D01*
X40776068Y85794271D01*
X44539382Y85794271D01*
X44653353Y85518440D01*
X45265218Y84905505D01*
X46065068Y84573379D01*
X46931132Y84572623D01*
X47731560Y84903353D01*
X48344495Y85515218D01*
X48676621Y86315068D01*
X48677377Y87181132D01*
X48346647Y87981560D01*
X47953067Y88375828D01*
X47953067Y90124473D01*
X48344495Y90515218D01*
X48676621Y91315068D01*
X48677377Y92181132D01*
X48346647Y92981560D01*
X47734782Y93594495D01*
X46934932Y93926621D01*
X46068868Y93927377D01*
X45268440Y93596647D01*
X44655505Y92984782D01*
X44323379Y92184932D01*
X44323031Y91786318D01*
X41184985Y88648271D01*
X40776067Y88648271D01*
X35680917Y88648272D01*
X35543789Y88741968D01*
X35176068Y88816433D01*
X33376068Y88816433D01*
X33203068Y88783881D01*
X33203068Y92130190D01*
X33785110Y92712231D01*
X34094444Y93175183D01*
X34203068Y93721272D01*
X34203068Y94629401D01*
X34243374Y94589025D01*
X34951184Y94295116D01*
X35717589Y94294447D01*
X36425911Y94587120D01*
X36633424Y94794271D01*
X40776068Y94794271D01*
X41322157Y94902895D01*
X41785109Y95212230D01*
X42117150Y95544271D01*
X44642680Y95544272D01*
X44653353Y95518440D01*
X45265218Y94905505D01*
X46065068Y94573379D01*
X46931132Y94572623D01*
X47731560Y94903353D01*
X48344495Y95515218D01*
X48676621Y96315068D01*
X48677377Y97181132D01*
X48346647Y97981560D01*
X47734782Y98594495D01*
X46934932Y98926621D01*
X46068868Y98927377D01*
X45268440Y98596647D01*
X45069718Y98398272D01*
X41526068Y98398271D01*
X40979984Y98289648D01*
X40979979Y98289647D01*
X40517027Y97980312D01*
X40184986Y97648271D01*
X36633650Y97648271D01*
X36428762Y97853517D01*
X35732190Y98142760D01*
X35908314Y98318577D01*
X36078048Y98727341D01*
X36546524Y98258046D01*
X37181039Y97994572D01*
X37868082Y97993973D01*
X38503057Y98256339D01*
X38989294Y98741728D01*
X39252768Y99376243D01*
X39253367Y100063286D01*
X38991001Y100698261D01*
X38505612Y101184498D01*
X37871097Y101447972D01*
X37817404Y101448019D01*
X36721150Y102544272D01*
X38276068Y102544272D01*
X38822157Y102652896D01*
X39285109Y102962231D01*
X40785109Y104462230D01*
X41094444Y104925182D01*
X41166940Y105289647D01*
X41203068Y105471272D01*
X41203068Y115633498D01*
X41298314Y115728578D01*
X41592223Y116436388D01*
X41592892Y117202793D01*
X41300219Y117911115D01*
X40758762Y118453518D01*
X40050952Y118747427D01*
X39284547Y118748096D01*
X38576225Y118455423D01*
X38033822Y117913966D01*
X37739913Y117206156D01*
X37739244Y116439751D01*
X38031917Y115731429D01*
X38349068Y115413724D01*
X38349068Y111633750D01*
X38276068Y111648271D01*
X30446076Y111648271D01*
X30277321Y111648272D01*
X29993465Y111648520D01*
X29468793Y111431729D01*
X29067021Y111030658D01*
X28849316Y110506365D01*
X28848820Y109938669D01*
X29065611Y109413997D01*
X29466682Y109012225D01*
X29990975Y108794520D01*
X30248122Y108794295D01*
X29936225Y108665422D01*
X29728713Y108458272D01*
X29073649Y108458272D01*
X28868762Y108663517D01*
X28160952Y108957426D01*
X27867740Y108957682D01*
X27345109Y109480313D01*
X26882157Y109789647D01*
X26860152Y109794024D01*
X26336068Y109898271D01*
X24681180Y109898271D01*
X24741608Y109988708D01*
X24873068Y110649602D01*
X24873068Y111532942D01*
X24741608Y112193836D01*
X24367241Y112754115D01*
X23806962Y113128482D01*
X23146068Y113259942D01*
X22485174Y113128482D01*
X21924895Y112754115D01*
X21876068Y112681040D01*
X21827241Y112754115D01*
X21266962Y113128482D01*
X20606068Y113259942D01*
X19945174Y113128482D01*
X19493068Y112826394D01*
X19493068Y113181271D01*
X19384444Y113727360D01*
X19075109Y114190312D01*
X17535109Y115730312D01*
X17072157Y116039647D01*
X16544972Y116144511D01*
X16865911Y116277120D01*
X16883092Y116294271D01*
X19760361Y116294272D01*
X19796524Y116258046D01*
X20431039Y115994572D01*
X21118082Y115993973D01*
X21753057Y116256339D01*
X21771021Y116274272D01*
X22104985Y116274272D01*
X25685860Y112693397D01*
X25886682Y112492224D01*
X26410975Y112274519D01*
X26978671Y112274023D01*
X27503343Y112490814D01*
X27905115Y112891885D01*
X28122820Y113416178D01*
X28123316Y113983874D01*
X27906525Y114508546D01*
X27505454Y114910318D01*
X27504856Y114910566D01*
X23705110Y118710313D01*
X23242158Y119019648D01*
X23141545Y119039661D01*
X22696068Y119128272D01*
X21811740Y119128272D01*
X21755612Y119184498D01*
X21121097Y119447972D01*
X20434054Y119448571D01*
X19799079Y119186205D01*
X19761080Y119148272D01*
X17263318Y119148271D01*
X16868762Y119543517D01*
X16160952Y119837426D01*
X15394547Y119838095D01*
X14686225Y119545422D01*
X14143822Y119003965D01*
X14053070Y118785410D01*
X14053069Y124656455D01*
X14141917Y124441428D01*
X14683374Y123899025D01*
X15391184Y123605116D01*
X16157589Y123604447D01*
X16865911Y123897120D01*
X17408314Y124438577D01*
X17702223Y125146387D01*
X17702892Y125912792D01*
X17410219Y126621114D01*
X17237364Y126794271D01*
X17776068Y126794271D01*
X18322157Y126902895D01*
X18785109Y127212230D01*
X20035109Y128462230D01*
X20344444Y128925182D01*
X20379224Y129100033D01*
X21548814Y127930443D01*
X21548769Y127879257D01*
X21811135Y127244282D01*
X21849068Y127206283D01*
X21849068Y122829184D01*
X21833822Y122813965D01*
X21539913Y122106155D01*
X21539244Y121339750D01*
X21831917Y120631428D01*
X22373374Y120089025D01*
X23081184Y119795116D01*
X23847589Y119794447D01*
X24555911Y120087120D01*
X25098314Y120628577D01*
X25392223Y121336387D01*
X25392426Y121569845D01*
X43748717Y121569845D01*
X44056659Y120824568D01*
X44626366Y120253866D01*
X45371104Y119944624D01*
X46177494Y119943920D01*
X46922771Y120251862D01*
X47493473Y120821569D01*
X47802715Y121566307D01*
X47803419Y122372697D01*
X47495477Y123117974D01*
X46925770Y123688676D01*
X46181032Y123997918D01*
X45374642Y123998622D01*
X44629365Y123690680D01*
X44058663Y123120973D01*
X43749421Y122376235D01*
X43748717Y121569845D01*
X25392426Y121569845D01*
X25392892Y122102792D01*
X25100219Y122811114D01*
X24703068Y123208959D01*
X24703068Y127205564D01*
X24739294Y127241727D01*
X24807560Y127406128D01*
X24897027Y127272231D01*
X25539496Y126629762D01*
X25539243Y126339751D01*
X25831916Y125631429D01*
X26373373Y125089026D01*
X27081183Y124795117D01*
X27847588Y124794448D01*
X28555910Y125087121D01*
X29098313Y125628578D01*
X29392222Y126336388D01*
X29392891Y127102793D01*
X29100218Y127811115D01*
X28558761Y128353518D01*
X27850951Y128647427D01*
X27557739Y128647683D01*
X27333068Y128872354D01*
X27333068Y130007220D01*
X27379084Y130037967D01*
X27818483Y130695573D01*
X27935788Y131285304D01*
X27957692Y131175183D01*
X28267027Y130712231D01*
X28517027Y130462231D01*
X28642027Y130337230D01*
X28642030Y130337228D01*
X30767027Y128212230D01*
X31229979Y127902896D01*
X31776068Y127794272D01*
X33445643Y127794272D01*
X33159912Y127106156D01*
X33159243Y126339751D01*
X33451916Y125631429D01*
X33993373Y125089026D01*
X34701183Y124795117D01*
X35467588Y124794448D01*
X36175910Y125087121D01*
X36383423Y125294272D01*
X37760361Y125294272D01*
X37796524Y125258046D01*
X38431039Y124994572D01*
X39118082Y124993973D01*
X39753057Y125256339D01*
X40239294Y125741728D01*
X40502768Y126376243D01*
X40503367Y127063286D01*
X40241001Y127698261D01*
X39755612Y128184498D01*
X39121097Y128447972D01*
X38453067Y128448554D01*
X38453067Y128471272D01*
X38344443Y129017361D01*
X38071325Y129426111D01*
X38876068Y129426111D01*
X39219594Y129490750D01*
X39535101Y129693773D01*
X39746764Y130003551D01*
X39821229Y130371272D01*
X39821229Y132571272D01*
X39756590Y132914798D01*
X39553567Y133230305D01*
X39243789Y133441968D01*
X38876068Y133516433D01*
X36676068Y133516433D01*
X36332542Y133451794D01*
X36017035Y133248771D01*
X35805372Y132938993D01*
X35797126Y132898272D01*
X35509700Y132898272D01*
X35506590Y132914798D01*
X35303567Y133230305D01*
X34993789Y133441968D01*
X34626068Y133516433D01*
X32426068Y133516433D01*
X32082542Y133451794D01*
X31767035Y133248771D01*
X31555372Y132938993D01*
X31480907Y132571272D01*
X31480907Y131534515D01*
X30703068Y132312354D01*
X30703068Y135971273D01*
X30703067Y136971273D01*
X30651541Y137230309D01*
X30594443Y137517361D01*
X30285109Y137980313D01*
X26955109Y141310312D01*
X26888377Y141354901D01*
X27407589Y141354448D01*
X28115911Y141647121D01*
X28323424Y141854272D01*
X36070747Y141854271D01*
X36070600Y141685574D01*
X36481544Y140691013D01*
X37241808Y139929421D01*
X38235650Y139516742D01*
X39311765Y139515803D01*
X40306326Y139926747D01*
X41067918Y140687011D01*
X41480597Y141680853D01*
X41481536Y142756968D01*
X41070592Y143751529D01*
X40310328Y144513121D01*
X39316486Y144925800D01*
X38240371Y144926739D01*
X37711638Y144708271D01*
X28453068Y144708272D01*
X28453068Y145363360D01*
X28468313Y145378578D01*
X28762222Y146086388D01*
X28762891Y146852793D01*
X28470218Y147561115D01*
X27928761Y148103518D01*
X27220951Y148397427D01*
X26454546Y148398096D01*
X25746224Y148105423D01*
X25203821Y147563966D01*
X24953067Y146960085D01*
X24953067Y147880190D01*
X26424128Y149351251D01*
X26681039Y149244572D01*
X27368082Y149243973D01*
X28003057Y149506339D01*
X28489294Y149991728D01*
X28752768Y150626243D01*
X28753367Y151313286D01*
X28491001Y151948261D01*
X28005612Y152434498D01*
X27371097Y152697972D01*
X26684054Y152698571D01*
X26049079Y152436205D01*
X26007350Y152394549D01*
X25479978Y152289648D01*
X25017026Y151980313D01*
X22517026Y149480313D01*
X22207691Y149017361D01*
X22099067Y148471272D01*
X22099067Y144268272D01*
X20247151Y144268272D01*
X18285112Y146230310D01*
X18285110Y146230313D01*
X15285109Y149230313D01*
X14822157Y149539648D01*
X14276068Y149648272D01*
X12526068Y149648272D01*
X12070580Y149557670D01*
X11979978Y149539648D01*
X11517026Y149230313D01*
X10017027Y147730313D01*
X9707692Y147267361D01*
X9599068Y146721272D01*
X9599068Y85150243D01*
X9072648Y85677583D01*
X8180946Y86047850D01*
X7286790Y86048631D01*
X5373068Y87962353D01*
X5373068Y98751271D01*
X5264444Y99297360D01*
X5132865Y99494282D01*
X4955109Y99760313D01*
X4943025Y99772397D01*
X4875441Y100112165D01*
X4501074Y100672444D01*
X3940795Y101046811D01*
X3279901Y101178271D01*
X3212233Y101178271D01*
X2551339Y101046811D01*
X1991060Y100672444D01*
X1616693Y100112165D01*
X1485233Y99451271D01*
X1002000Y99451271D01*
X1002000Y148299846D01*
X4668717Y148299846D01*
X4976659Y147554569D01*
X5546366Y146983867D01*
X6291104Y146674625D01*
X7097494Y146673921D01*
X7842771Y146981863D01*
X8413473Y147551570D01*
X8722715Y148296308D01*
X8723419Y149102698D01*
X8415477Y149847975D01*
X7845770Y150418677D01*
X7101032Y150727919D01*
X6294642Y150728623D01*
X5549365Y150420681D01*
X4978663Y149850974D01*
X4669421Y149106236D01*
X4668717Y148299846D01*
X1002000Y148299846D01*
X1002000Y152748000D01*
X50123000Y152748000D01*
X50123000Y53877000D01*
X50123000Y53877000D01*
G37*
X50123000Y53877000D02*
X1002000Y53877000D01*
X1002000Y56799845D01*
X3668716Y56799845D01*
X3976658Y56054568D01*
X4546365Y55483866D01*
X5291103Y55174624D01*
X6097493Y55173920D01*
X6842770Y55481862D01*
X7413472Y56051569D01*
X7722714Y56796307D01*
X7723418Y57602697D01*
X7415476Y58347974D01*
X6845769Y58918676D01*
X6101031Y59227918D01*
X5294641Y59228622D01*
X4549364Y58920680D01*
X3978662Y58350973D01*
X3669420Y57606235D01*
X3668716Y56799845D01*
X1002000Y56799845D01*
X1002000Y99451271D01*
X1485233Y99451271D01*
X1616693Y98790377D01*
X1991060Y98230098D01*
X2519068Y97877294D01*
X2519068Y87371271D01*
X2588366Y87022887D01*
X2627692Y86825182D01*
X2937027Y86362230D01*
X5269423Y84029834D01*
X5268647Y83140630D01*
X5637358Y82248283D01*
X6319488Y81564961D01*
X7211190Y81194694D01*
X8176710Y81193851D01*
X9069057Y81562562D01*
X9599068Y82091648D01*
X9599068Y80070243D01*
X9072648Y80597583D01*
X8180946Y80967850D01*
X7215426Y80968693D01*
X6323079Y80599982D01*
X5639757Y79917852D01*
X5269490Y79026150D01*
X5268647Y78060630D01*
X5637358Y77168283D01*
X6269068Y76535469D01*
X6269068Y69292355D01*
X3626376Y66649662D01*
X3328841Y66590479D01*
X2768562Y66216112D01*
X2720715Y66168264D01*
X2346348Y65607986D01*
X2214889Y64947091D01*
X2346348Y64286196D01*
X2720715Y63725918D01*
X3280993Y63351551D01*
X3941888Y63220092D01*
X4602783Y63351551D01*
X5163061Y63725918D01*
X5210909Y63773765D01*
X5585276Y64334044D01*
X5644459Y64631579D01*
X8705109Y67692231D01*
X9014444Y68155183D01*
X9049279Y68330312D01*
X9123068Y68701272D01*
X9123068Y76536479D01*
X9599068Y77011648D01*
X9599068Y68562356D01*
X6767026Y65730313D01*
X6624565Y65517104D01*
X6457692Y65267361D01*
X6349068Y64721272D01*
X6349067Y60721272D01*
X6457691Y60175183D01*
X6767026Y59712231D01*
X10767027Y55712229D01*
X11229979Y55402895D01*
X11776068Y55294271D01*
X12760362Y55294271D01*
X12796524Y55258046D01*
X13431039Y54994572D01*
X14118082Y54993973D01*
X14753057Y55256339D01*
X15239294Y55741728D01*
X15502768Y56376243D01*
X15503367Y57063286D01*
X15241001Y57698261D01*
X14755612Y58184498D01*
X14121097Y58447972D01*
X13434054Y58448571D01*
X12799079Y58186205D01*
X12761079Y58148271D01*
X12367151Y58148271D01*
X9203067Y61312354D01*
X9203068Y64130189D01*
X11194201Y66121323D01*
X10957691Y65767361D01*
X10946857Y65712896D01*
X10849067Y65221271D01*
X10849067Y64219383D01*
X10817035Y64198771D01*
X10605372Y63888993D01*
X10530907Y63521272D01*
X10530907Y61921272D01*
X10595546Y61577746D01*
X10798569Y61262239D01*
X11108347Y61050576D01*
X11476068Y60976111D01*
X13076068Y60976111D01*
X13419594Y61040750D01*
X13485848Y61083384D01*
X13667027Y60812231D01*
X18267026Y56212231D01*
X18729978Y55902896D01*
X18820580Y55884874D01*
X19276068Y55794272D01*
X21168486Y55794271D01*
X21373374Y55589025D01*
X22081184Y55295116D01*
X22847589Y55294447D01*
X23555911Y55587120D01*
X24098314Y56128577D01*
X24392223Y56836387D01*
X24392892Y57602792D01*
X24100219Y58311114D01*
X23878670Y58533050D01*
X23919594Y58540750D01*
X24235101Y58743773D01*
X24446764Y59053551D01*
X24521229Y59421272D01*
X24521229Y61021272D01*
X24456590Y61364798D01*
X24353068Y61525676D01*
X24353068Y64058812D01*
X24485101Y64143773D01*
X24587933Y64294272D01*
X25076068Y64294272D01*
X25622157Y64402896D01*
X25694322Y64451115D01*
X26085109Y64712230D01*
X28285109Y66912229D01*
X28594444Y67375181D01*
X28632486Y67566433D01*
X28703068Y67921271D01*
X28703068Y77821272D01*
X28594444Y78367361D01*
X28594444Y78367362D01*
X28285109Y78830314D01*
X26521229Y80594193D01*
X26521229Y81521272D01*
X26456590Y81864798D01*
X26435364Y81897784D01*
X26662157Y81942896D01*
X27125109Y82252230D01*
X30349068Y85476189D01*
X30349068Y83721272D01*
X30384276Y83544272D01*
X30457692Y83175183D01*
X30767027Y82712231D01*
X36599068Y76880189D01*
X36599068Y73058460D01*
X36495810Y73015795D01*
X35734218Y72255531D01*
X35321539Y71261689D01*
X35320600Y70185574D01*
X35731544Y69191013D01*
X36491808Y68429421D01*
X36599068Y68384883D01*
X36599068Y64312355D01*
X34053147Y61766433D01*
X32926068Y61766433D01*
X32582542Y61701794D01*
X32267035Y61498771D01*
X32055372Y61188993D01*
X32000728Y60919153D01*
X31651075Y61442445D01*
X31090796Y61816812D01*
X30429902Y61948272D01*
X30362234Y61948272D01*
X29701340Y61816812D01*
X29141061Y61442445D01*
X28766694Y60882166D01*
X28635234Y60221272D01*
X28677982Y60006363D01*
X28659067Y59911271D01*
X28659068Y58518853D01*
X28453822Y58313965D01*
X28159913Y57606155D01*
X28159244Y56839750D01*
X28451917Y56131428D01*
X28993374Y55589025D01*
X29701184Y55295116D01*
X30467589Y55294447D01*
X31175911Y55587120D01*
X31718314Y56128577D01*
X31789430Y56299845D01*
X43668717Y56299845D01*
X43976659Y55554568D01*
X44546366Y54983866D01*
X45291104Y54674624D01*
X46097494Y54673920D01*
X46842771Y54981862D01*
X47413473Y55551569D01*
X47722715Y56296307D01*
X47723419Y57102697D01*
X47415477Y57847974D01*
X46845770Y58418676D01*
X46101032Y58727918D01*
X45294642Y58728622D01*
X44549365Y58420680D01*
X43978663Y57850973D01*
X43669421Y57106235D01*
X43668717Y56299845D01*
X31789430Y56299845D01*
X32012223Y56836387D01*
X32012892Y57602792D01*
X31720219Y58311114D01*
X31513068Y58518627D01*
X31513067Y58907885D01*
X31651075Y59000099D01*
X31980907Y59493727D01*
X31980907Y58621272D01*
X32045546Y58277746D01*
X32248569Y57962239D01*
X32558347Y57750576D01*
X32926068Y57676111D01*
X35126068Y57676111D01*
X35469594Y57740750D01*
X35785101Y57943773D01*
X35996764Y58253551D01*
X36071229Y58621272D01*
X36071229Y59748351D01*
X39035109Y62712230D01*
X39344444Y63175182D01*
X39362466Y63265784D01*
X39453068Y63721272D01*
X39453068Y68384082D01*
X39556326Y68426747D01*
X40317918Y69187011D01*
X40730597Y70180853D01*
X40731536Y71256968D01*
X40320592Y72251529D01*
X39560328Y73013121D01*
X39453068Y73057659D01*
X39453068Y77471272D01*
X39344444Y78017361D01*
X39281055Y78112229D01*
X39035110Y78480313D01*
X33203068Y84312354D01*
X33203068Y85661144D01*
X33376068Y85626111D01*
X35176068Y85626111D01*
X35519594Y85690750D01*
X35680472Y85794272D01*
X40776068Y85794271D01*
X44539382Y85794271D01*
X44653353Y85518440D01*
X45265218Y84905505D01*
X46065068Y84573379D01*
X46931132Y84572623D01*
X47731560Y84903353D01*
X48344495Y85515218D01*
X48676621Y86315068D01*
X48677377Y87181132D01*
X48346647Y87981560D01*
X47953067Y88375828D01*
X47953067Y90124473D01*
X48344495Y90515218D01*
X48676621Y91315068D01*
X48677377Y92181132D01*
X48346647Y92981560D01*
X47734782Y93594495D01*
X46934932Y93926621D01*
X46068868Y93927377D01*
X45268440Y93596647D01*
X44655505Y92984782D01*
X44323379Y92184932D01*
X44323031Y91786318D01*
X41184985Y88648271D01*
X40776067Y88648271D01*
X35680917Y88648272D01*
X35543789Y88741968D01*
X35176068Y88816433D01*
X33376068Y88816433D01*
X33203068Y88783881D01*
X33203068Y92130190D01*
X33785110Y92712231D01*
X34094444Y93175183D01*
X34203068Y93721272D01*
X34203068Y94629401D01*
X34243374Y94589025D01*
X34951184Y94295116D01*
X35717589Y94294447D01*
X36425911Y94587120D01*
X36633424Y94794271D01*
X40776068Y94794271D01*
X41322157Y94902895D01*
X41785109Y95212230D01*
X42117150Y95544271D01*
X44642680Y95544272D01*
X44653353Y95518440D01*
X45265218Y94905505D01*
X46065068Y94573379D01*
X46931132Y94572623D01*
X47731560Y94903353D01*
X48344495Y95515218D01*
X48676621Y96315068D01*
X48677377Y97181132D01*
X48346647Y97981560D01*
X47734782Y98594495D01*
X46934932Y98926621D01*
X46068868Y98927377D01*
X45268440Y98596647D01*
X45069718Y98398272D01*
X41526068Y98398271D01*
X40979984Y98289648D01*
X40979979Y98289647D01*
X40517027Y97980312D01*
X40184986Y97648271D01*
X36633650Y97648271D01*
X36428762Y97853517D01*
X35732190Y98142760D01*
X35908314Y98318577D01*
X36078048Y98727341D01*
X36546524Y98258046D01*
X37181039Y97994572D01*
X37868082Y97993973D01*
X38503057Y98256339D01*
X38989294Y98741728D01*
X39252768Y99376243D01*
X39253367Y100063286D01*
X38991001Y100698261D01*
X38505612Y101184498D01*
X37871097Y101447972D01*
X37817404Y101448019D01*
X36721150Y102544272D01*
X38276068Y102544272D01*
X38822157Y102652896D01*
X39285109Y102962231D01*
X40785109Y104462230D01*
X41094444Y104925182D01*
X41166940Y105289647D01*
X41203068Y105471272D01*
X41203068Y115633498D01*
X41298314Y115728578D01*
X41592223Y116436388D01*
X41592892Y117202793D01*
X41300219Y117911115D01*
X40758762Y118453518D01*
X40050952Y118747427D01*
X39284547Y118748096D01*
X38576225Y118455423D01*
X38033822Y117913966D01*
X37739913Y117206156D01*
X37739244Y116439751D01*
X38031917Y115731429D01*
X38349068Y115413724D01*
X38349068Y111633750D01*
X38276068Y111648271D01*
X30446076Y111648271D01*
X30277321Y111648272D01*
X29993465Y111648520D01*
X29468793Y111431729D01*
X29067021Y111030658D01*
X28849316Y110506365D01*
X28848820Y109938669D01*
X29065611Y109413997D01*
X29466682Y109012225D01*
X29990975Y108794520D01*
X30248122Y108794295D01*
X29936225Y108665422D01*
X29728713Y108458272D01*
X29073649Y108458272D01*
X28868762Y108663517D01*
X28160952Y108957426D01*
X27867740Y108957682D01*
X27345109Y109480313D01*
X26882157Y109789647D01*
X26860152Y109794024D01*
X26336068Y109898271D01*
X24681180Y109898271D01*
X24741608Y109988708D01*
X24873068Y110649602D01*
X24873068Y111532942D01*
X24741608Y112193836D01*
X24367241Y112754115D01*
X23806962Y113128482D01*
X23146068Y113259942D01*
X22485174Y113128482D01*
X21924895Y112754115D01*
X21876068Y112681040D01*
X21827241Y112754115D01*
X21266962Y113128482D01*
X20606068Y113259942D01*
X19945174Y113128482D01*
X19493068Y112826394D01*
X19493068Y113181271D01*
X19384444Y113727360D01*
X19075109Y114190312D01*
X17535109Y115730312D01*
X17072157Y116039647D01*
X16544972Y116144511D01*
X16865911Y116277120D01*
X16883092Y116294271D01*
X19760361Y116294272D01*
X19796524Y116258046D01*
X20431039Y115994572D01*
X21118082Y115993973D01*
X21753057Y116256339D01*
X21771021Y116274272D01*
X22104985Y116274272D01*
X25685860Y112693397D01*
X25886682Y112492224D01*
X26410975Y112274519D01*
X26978671Y112274023D01*
X27503343Y112490814D01*
X27905115Y112891885D01*
X28122820Y113416178D01*
X28123316Y113983874D01*
X27906525Y114508546D01*
X27505454Y114910318D01*
X27504856Y114910566D01*
X23705110Y118710313D01*
X23242158Y119019648D01*
X23141545Y119039661D01*
X22696068Y119128272D01*
X21811740Y119128272D01*
X21755612Y119184498D01*
X21121097Y119447972D01*
X20434054Y119448571D01*
X19799079Y119186205D01*
X19761080Y119148272D01*
X17263318Y119148271D01*
X16868762Y119543517D01*
X16160952Y119837426D01*
X15394547Y119838095D01*
X14686225Y119545422D01*
X14143822Y119003965D01*
X14053070Y118785410D01*
X14053069Y124656455D01*
X14141917Y124441428D01*
X14683374Y123899025D01*
X15391184Y123605116D01*
X16157589Y123604447D01*
X16865911Y123897120D01*
X17408314Y124438577D01*
X17702223Y125146387D01*
X17702892Y125912792D01*
X17410219Y126621114D01*
X17237364Y126794271D01*
X17776068Y126794271D01*
X18322157Y126902895D01*
X18785109Y127212230D01*
X20035109Y128462230D01*
X20344444Y128925182D01*
X20379224Y129100033D01*
X21548814Y127930443D01*
X21548769Y127879257D01*
X21811135Y127244282D01*
X21849068Y127206283D01*
X21849068Y122829184D01*
X21833822Y122813965D01*
X21539913Y122106155D01*
X21539244Y121339750D01*
X21831917Y120631428D01*
X22373374Y120089025D01*
X23081184Y119795116D01*
X23847589Y119794447D01*
X24555911Y120087120D01*
X25098314Y120628577D01*
X25392223Y121336387D01*
X25392426Y121569845D01*
X43748717Y121569845D01*
X44056659Y120824568D01*
X44626366Y120253866D01*
X45371104Y119944624D01*
X46177494Y119943920D01*
X46922771Y120251862D01*
X47493473Y120821569D01*
X47802715Y121566307D01*
X47803419Y122372697D01*
X47495477Y123117974D01*
X46925770Y123688676D01*
X46181032Y123997918D01*
X45374642Y123998622D01*
X44629365Y123690680D01*
X44058663Y123120973D01*
X43749421Y122376235D01*
X43748717Y121569845D01*
X25392426Y121569845D01*
X25392892Y122102792D01*
X25100219Y122811114D01*
X24703068Y123208959D01*
X24703068Y127205564D01*
X24739294Y127241727D01*
X24807560Y127406128D01*
X24897027Y127272231D01*
X25539496Y126629762D01*
X25539243Y126339751D01*
X25831916Y125631429D01*
X26373373Y125089026D01*
X27081183Y124795117D01*
X27847588Y124794448D01*
X28555910Y125087121D01*
X29098313Y125628578D01*
X29392222Y126336388D01*
X29392891Y127102793D01*
X29100218Y127811115D01*
X28558761Y128353518D01*
X27850951Y128647427D01*
X27557739Y128647683D01*
X27333068Y128872354D01*
X27333068Y130007220D01*
X27379084Y130037967D01*
X27818483Y130695573D01*
X27935788Y131285304D01*
X27957692Y131175183D01*
X28267027Y130712231D01*
X28517027Y130462231D01*
X28642027Y130337230D01*
X28642030Y130337228D01*
X30767027Y128212230D01*
X31229979Y127902896D01*
X31776068Y127794272D01*
X33445643Y127794272D01*
X33159912Y127106156D01*
X33159243Y126339751D01*
X33451916Y125631429D01*
X33993373Y125089026D01*
X34701183Y124795117D01*
X35467588Y124794448D01*
X36175910Y125087121D01*
X36383423Y125294272D01*
X37760361Y125294272D01*
X37796524Y125258046D01*
X38431039Y124994572D01*
X39118082Y124993973D01*
X39753057Y125256339D01*
X40239294Y125741728D01*
X40502768Y126376243D01*
X40503367Y127063286D01*
X40241001Y127698261D01*
X39755612Y128184498D01*
X39121097Y128447972D01*
X38453067Y128448554D01*
X38453067Y128471272D01*
X38344443Y129017361D01*
X38071325Y129426111D01*
X38876068Y129426111D01*
X39219594Y129490750D01*
X39535101Y129693773D01*
X39746764Y130003551D01*
X39821229Y130371272D01*
X39821229Y132571272D01*
X39756590Y132914798D01*
X39553567Y133230305D01*
X39243789Y133441968D01*
X38876068Y133516433D01*
X36676068Y133516433D01*
X36332542Y133451794D01*
X36017035Y133248771D01*
X35805372Y132938993D01*
X35797126Y132898272D01*
X35509700Y132898272D01*
X35506590Y132914798D01*
X35303567Y133230305D01*
X34993789Y133441968D01*
X34626068Y133516433D01*
X32426068Y133516433D01*
X32082542Y133451794D01*
X31767035Y133248771D01*
X31555372Y132938993D01*
X31480907Y132571272D01*
X31480907Y131534515D01*
X30703068Y132312354D01*
X30703068Y135971273D01*
X30703067Y136971273D01*
X30651541Y137230309D01*
X30594443Y137517361D01*
X30285109Y137980313D01*
X26955109Y141310312D01*
X26888377Y141354901D01*
X27407589Y141354448D01*
X28115911Y141647121D01*
X28323424Y141854272D01*
X36070747Y141854271D01*
X36070600Y141685574D01*
X36481544Y140691013D01*
X37241808Y139929421D01*
X38235650Y139516742D01*
X39311765Y139515803D01*
X40306326Y139926747D01*
X41067918Y140687011D01*
X41480597Y141680853D01*
X41481536Y142756968D01*
X41070592Y143751529D01*
X40310328Y144513121D01*
X39316486Y144925800D01*
X38240371Y144926739D01*
X37711638Y144708271D01*
X28453068Y144708272D01*
X28453068Y145363360D01*
X28468313Y145378578D01*
X28762222Y146086388D01*
X28762891Y146852793D01*
X28470218Y147561115D01*
X27928761Y148103518D01*
X27220951Y148397427D01*
X26454546Y148398096D01*
X25746224Y148105423D01*
X25203821Y147563966D01*
X24953067Y146960085D01*
X24953067Y147880190D01*
X26424128Y149351251D01*
X26681039Y149244572D01*
X27368082Y149243973D01*
X28003057Y149506339D01*
X28489294Y149991728D01*
X28752768Y150626243D01*
X28753367Y151313286D01*
X28491001Y151948261D01*
X28005612Y152434498D01*
X27371097Y152697972D01*
X26684054Y152698571D01*
X26049079Y152436205D01*
X26007350Y152394549D01*
X25479978Y152289648D01*
X25017026Y151980313D01*
X22517026Y149480313D01*
X22207691Y149017361D01*
X22099067Y148471272D01*
X22099067Y144268272D01*
X20247151Y144268272D01*
X18285112Y146230310D01*
X18285110Y146230313D01*
X15285109Y149230313D01*
X14822157Y149539648D01*
X14276068Y149648272D01*
X12526068Y149648272D01*
X12070580Y149557670D01*
X11979978Y149539648D01*
X11517026Y149230313D01*
X10017027Y147730313D01*
X9707692Y147267361D01*
X9599068Y146721272D01*
X9599068Y85150243D01*
X9072648Y85677583D01*
X8180946Y86047850D01*
X7286790Y86048631D01*
X5373068Y87962353D01*
X5373068Y98751271D01*
X5264444Y99297360D01*
X5132865Y99494282D01*
X4955109Y99760313D01*
X4943025Y99772397D01*
X4875441Y100112165D01*
X4501074Y100672444D01*
X3940795Y101046811D01*
X3279901Y101178271D01*
X3212233Y101178271D01*
X2551339Y101046811D01*
X1991060Y100672444D01*
X1616693Y100112165D01*
X1485233Y99451271D01*
X1002000Y99451271D01*
X1002000Y148299846D01*
X4668717Y148299846D01*
X4976659Y147554569D01*
X5546366Y146983867D01*
X6291104Y146674625D01*
X7097494Y146673921D01*
X7842771Y146981863D01*
X8413473Y147551570D01*
X8722715Y148296308D01*
X8723419Y149102698D01*
X8415477Y149847975D01*
X7845770Y150418677D01*
X7101032Y150727919D01*
X6294642Y150728623D01*
X5549365Y150420681D01*
X4978663Y149850974D01*
X4669421Y149106236D01*
X4668717Y148299846D01*
X1002000Y148299846D01*
X1002000Y152748000D01*
X50123000Y152748000D01*
X50123000Y53877000D01*
G36*
X14967027Y92462230D02*
X15382034Y92184932D01*
X15429979Y92152896D01*
X15976068Y92044272D01*
X16056374Y92044272D01*
X16012842Y92000816D01*
X15749368Y91366301D01*
X15748769Y90679258D01*
X16011135Y90044283D01*
X16496524Y89558046D01*
X17131039Y89294572D01*
X17818082Y89293973D01*
X18453057Y89556339D01*
X18491056Y89594272D01*
X19504984Y89594271D01*
X21556073Y87543183D01*
X21697013Y87332245D01*
X21991045Y87135773D01*
X21909978Y87119648D01*
X21447026Y86810313D01*
X20617027Y85980313D01*
X20307692Y85517361D01*
X20199068Y84971272D01*
X20199068Y72412355D01*
X18752545Y70965832D01*
X18752892Y71362793D01*
X18460219Y72071115D01*
X17918762Y72613518D01*
X17210952Y72907427D01*
X16444547Y72908096D01*
X16135162Y72780261D01*
X14673322Y74242100D01*
X14673367Y74293285D01*
X14411001Y74928260D01*
X14053070Y75286816D01*
X14053070Y79654739D01*
X14429979Y79402896D01*
X14976068Y79294272D01*
X15329068Y79294272D01*
X15329068Y78658785D01*
X15083821Y78413966D01*
X14789912Y77706156D01*
X14789243Y76939751D01*
X15081916Y76231429D01*
X15623373Y75689026D01*
X16331183Y75395117D01*
X17097588Y75394448D01*
X17805910Y75687121D01*
X18348313Y76228578D01*
X18642222Y76936388D01*
X18642891Y77702793D01*
X18350218Y78411115D01*
X18183068Y78578557D01*
X18183068Y79342514D01*
X18418911Y79500099D01*
X18793278Y80060378D01*
X18924738Y80721272D01*
X18793278Y81382166D01*
X18418911Y81942445D01*
X18345836Y81991272D01*
X18418911Y82040099D01*
X18793278Y82600378D01*
X18924738Y83261272D01*
X18793278Y83922166D01*
X18418911Y84482445D01*
X17858632Y84856812D01*
X17197738Y84988272D01*
X16314398Y84988272D01*
X15653504Y84856812D01*
X15093225Y84482445D01*
X14718858Y83922166D01*
X14587398Y83261272D01*
X14620484Y83094939D01*
X14053070Y83662352D01*
X14053070Y93376186D01*
X14967027Y92462230D01*
X14967027Y92462230D01*
G37*
X14967027Y92462230D02*
X15382034Y92184932D01*
X15429979Y92152896D01*
X15976068Y92044272D01*
X16056374Y92044272D01*
X16012842Y92000816D01*
X15749368Y91366301D01*
X15748769Y90679258D01*
X16011135Y90044283D01*
X16496524Y89558046D01*
X17131039Y89294572D01*
X17818082Y89293973D01*
X18453057Y89556339D01*
X18491056Y89594272D01*
X19504984Y89594271D01*
X21556073Y87543183D01*
X21697013Y87332245D01*
X21991045Y87135773D01*
X21909978Y87119648D01*
X21447026Y86810313D01*
X20617027Y85980313D01*
X20307692Y85517361D01*
X20199068Y84971272D01*
X20199068Y72412355D01*
X18752545Y70965832D01*
X18752892Y71362793D01*
X18460219Y72071115D01*
X17918762Y72613518D01*
X17210952Y72907427D01*
X16444547Y72908096D01*
X16135162Y72780261D01*
X14673322Y74242100D01*
X14673367Y74293285D01*
X14411001Y74928260D01*
X14053070Y75286816D01*
X14053070Y79654739D01*
X14429979Y79402896D01*
X14976068Y79294272D01*
X15329068Y79294272D01*
X15329068Y78658785D01*
X15083821Y78413966D01*
X14789912Y77706156D01*
X14789243Y76939751D01*
X15081916Y76231429D01*
X15623373Y75689026D01*
X16331183Y75395117D01*
X17097588Y75394448D01*
X17805910Y75687121D01*
X18348313Y76228578D01*
X18642222Y76936388D01*
X18642891Y77702793D01*
X18350218Y78411115D01*
X18183068Y78578557D01*
X18183068Y79342514D01*
X18418911Y79500099D01*
X18793278Y80060378D01*
X18924738Y80721272D01*
X18793278Y81382166D01*
X18418911Y81942445D01*
X18345836Y81991272D01*
X18418911Y82040099D01*
X18793278Y82600378D01*
X18924738Y83261272D01*
X18793278Y83922166D01*
X18418911Y84482445D01*
X17858632Y84856812D01*
X17197738Y84988272D01*
X16314398Y84988272D01*
X15653504Y84856812D01*
X15093225Y84482445D01*
X14718858Y83922166D01*
X14587398Y83261272D01*
X14620484Y83094939D01*
X14053070Y83662352D01*
X14053070Y93376186D01*
X14967027Y92462230D01*
G36*
X20017027Y95212229D02*
X20479979Y94902895D01*
X21026068Y94794271D01*
X21026069Y94794271D01*
X22776069Y94794272D01*
X26418486Y94794271D01*
X26623374Y94589025D01*
X27331184Y94295116D01*
X28097589Y94294447D01*
X28299868Y94378027D01*
X28199068Y93871271D01*
X28199068Y87362354D01*
X26521584Y85684871D01*
X26544738Y85801272D01*
X26413278Y86462166D01*
X26038911Y87022445D01*
X25965836Y87071272D01*
X26038911Y87120099D01*
X26413278Y87680378D01*
X26544738Y88341272D01*
X26413278Y89002166D01*
X26038911Y89562445D01*
X25478632Y89936812D01*
X24817738Y90068272D01*
X23934398Y90068272D01*
X23273504Y89936812D01*
X23228608Y89906813D01*
X21703068Y91432353D01*
X21703068Y91621270D01*
X21594445Y92167359D01*
X21594443Y92167363D01*
X21285109Y92630313D01*
X19435109Y94480313D01*
X18972157Y94789648D01*
X18426068Y94898272D01*
X16567150Y94898272D01*
X15903068Y95562354D01*
X15903068Y97724308D01*
X16288081Y97723972D01*
X16923056Y97986338D01*
X17083127Y98146130D01*
X20017027Y95212229D01*
X20017027Y95212229D01*
G37*
X20017027Y95212229D02*
X20479979Y94902895D01*
X21026068Y94794271D01*
X21026069Y94794271D01*
X22776069Y94794272D01*
X26418486Y94794271D01*
X26623374Y94589025D01*
X27331184Y94295116D01*
X28097589Y94294447D01*
X28299868Y94378027D01*
X28199068Y93871271D01*
X28199068Y87362354D01*
X26521584Y85684871D01*
X26544738Y85801272D01*
X26413278Y86462166D01*
X26038911Y87022445D01*
X25965836Y87071272D01*
X26038911Y87120099D01*
X26413278Y87680378D01*
X26544738Y88341272D01*
X26413278Y89002166D01*
X26038911Y89562445D01*
X25478632Y89936812D01*
X24817738Y90068272D01*
X23934398Y90068272D01*
X23273504Y89936812D01*
X23228608Y89906813D01*
X21703068Y91432353D01*
X21703068Y91621270D01*
X21594445Y92167359D01*
X21594443Y92167363D01*
X21285109Y92630313D01*
X19435109Y94480313D01*
X18972157Y94789648D01*
X18426068Y94898272D01*
X16567150Y94898272D01*
X15903068Y95562354D01*
X15903068Y97724308D01*
X16288081Y97723972D01*
X16923056Y97986338D01*
X17083127Y98146130D01*
X20017027Y95212229D01*
G36*
X102498000Y53877000D02*
X53627000Y53877000D01*
X53627000Y56799845D01*
X56918716Y56799845D01*
X57226658Y56054568D01*
X57796365Y55483866D01*
X58541103Y55174624D01*
X59347493Y55173920D01*
X60092770Y55481862D01*
X60663472Y56051569D01*
X60972714Y56796307D01*
X60973418Y57602697D01*
X60665476Y58347974D01*
X60095769Y58918676D01*
X59351031Y59227918D01*
X58544641Y59228622D01*
X57799364Y58920680D01*
X57228662Y58350973D01*
X56919420Y57606235D01*
X56918716Y56799845D01*
X53627000Y56799845D01*
X53627000Y99451271D01*
X54735233Y99451271D01*
X54866693Y98790377D01*
X55241060Y98230098D01*
X55769068Y97877294D01*
X55769068Y87371271D01*
X55838366Y87022887D01*
X55877692Y86825182D01*
X56187027Y86362230D01*
X58519423Y84029834D01*
X58518647Y83140630D01*
X58887358Y82248283D01*
X59569488Y81564961D01*
X60461190Y81194694D01*
X61426710Y81193851D01*
X62319057Y81562562D01*
X62849068Y82091648D01*
X62849068Y80070243D01*
X62322648Y80597583D01*
X61430946Y80967850D01*
X60465426Y80968693D01*
X59573079Y80599982D01*
X58889757Y79917852D01*
X58519490Y79026150D01*
X58518647Y78060630D01*
X58887358Y77168283D01*
X59519068Y76535469D01*
X59519068Y69292355D01*
X56876376Y66649662D01*
X56578841Y66590479D01*
X56018562Y66216112D01*
X55970715Y66168264D01*
X55596348Y65607986D01*
X55464889Y64947091D01*
X55596348Y64286196D01*
X55970715Y63725918D01*
X56530993Y63351551D01*
X57191888Y63220092D01*
X57852783Y63351551D01*
X58413061Y63725918D01*
X58460909Y63773765D01*
X58835276Y64334044D01*
X58894459Y64631579D01*
X61955109Y67692231D01*
X62264444Y68155183D01*
X62299279Y68330312D01*
X62373068Y68701272D01*
X62373068Y76536479D01*
X62849068Y77011648D01*
X62849068Y68562356D01*
X60017026Y65730313D01*
X59874565Y65517104D01*
X59707692Y65267361D01*
X59599068Y64721272D01*
X59599067Y60721272D01*
X59707691Y60175183D01*
X60017026Y59712231D01*
X64017027Y55712229D01*
X64479979Y55402895D01*
X65026068Y55294271D01*
X66010362Y55294271D01*
X66046524Y55258046D01*
X66681039Y54994572D01*
X67368082Y54993973D01*
X68003057Y55256339D01*
X68489294Y55741728D01*
X68752768Y56376243D01*
X68753367Y57063286D01*
X68491001Y57698261D01*
X68005612Y58184498D01*
X67371097Y58447972D01*
X66684054Y58448571D01*
X66049079Y58186205D01*
X66011079Y58148271D01*
X65617151Y58148271D01*
X62453067Y61312354D01*
X62453068Y64130189D01*
X64444201Y66121323D01*
X64207691Y65767361D01*
X64196857Y65712896D01*
X64099067Y65221271D01*
X64099067Y64219383D01*
X64067035Y64198771D01*
X63855372Y63888993D01*
X63780907Y63521272D01*
X63780907Y61921272D01*
X63845546Y61577746D01*
X64048569Y61262239D01*
X64358347Y61050576D01*
X64726068Y60976111D01*
X66326068Y60976111D01*
X66669594Y61040750D01*
X66735848Y61083384D01*
X66917027Y60812231D01*
X71517026Y56212231D01*
X71979978Y55902896D01*
X72070580Y55884874D01*
X72526068Y55794272D01*
X74418486Y55794271D01*
X74623374Y55589025D01*
X75331184Y55295116D01*
X76097589Y55294447D01*
X76805911Y55587120D01*
X77348314Y56128577D01*
X77642223Y56836387D01*
X77642892Y57602792D01*
X77350219Y58311114D01*
X77128670Y58533050D01*
X77169594Y58540750D01*
X77485101Y58743773D01*
X77696764Y59053551D01*
X77771229Y59421272D01*
X77771229Y61021272D01*
X77706590Y61364798D01*
X77603068Y61525676D01*
X77603068Y64058812D01*
X77735101Y64143773D01*
X77837933Y64294272D01*
X78326068Y64294272D01*
X78872157Y64402896D01*
X78944322Y64451115D01*
X79335109Y64712230D01*
X81535109Y66912229D01*
X81844444Y67375181D01*
X81882486Y67566433D01*
X81953068Y67921271D01*
X81953068Y77821272D01*
X81844444Y78367361D01*
X81844444Y78367362D01*
X81535109Y78830314D01*
X79771229Y80594193D01*
X79771229Y81521272D01*
X79706590Y81864798D01*
X79685364Y81897784D01*
X79912157Y81942896D01*
X80375109Y82252230D01*
X83599068Y85476189D01*
X83599068Y83721272D01*
X83634276Y83544272D01*
X83707692Y83175183D01*
X84017027Y82712231D01*
X89849068Y76880189D01*
X89849068Y73058460D01*
X89745810Y73015795D01*
X88984218Y72255531D01*
X88571539Y71261689D01*
X88570600Y70185574D01*
X88981544Y69191013D01*
X89741808Y68429421D01*
X89849068Y68384883D01*
X89849068Y64312355D01*
X87303147Y61766433D01*
X86176068Y61766433D01*
X85832542Y61701794D01*
X85517035Y61498771D01*
X85305372Y61188993D01*
X85250728Y60919153D01*
X84901075Y61442445D01*
X84340796Y61816812D01*
X83679902Y61948272D01*
X83612234Y61948272D01*
X82951340Y61816812D01*
X82391061Y61442445D01*
X82016694Y60882166D01*
X81885234Y60221272D01*
X81927982Y60006363D01*
X81909067Y59911271D01*
X81909068Y58518853D01*
X81703822Y58313965D01*
X81409913Y57606155D01*
X81409244Y56839750D01*
X81701917Y56131428D01*
X82243374Y55589025D01*
X82951184Y55295116D01*
X83717589Y55294447D01*
X84425911Y55587120D01*
X84968314Y56128577D01*
X85039430Y56299845D01*
X96918717Y56299845D01*
X97226659Y55554568D01*
X97796366Y54983866D01*
X98541104Y54674624D01*
X99347494Y54673920D01*
X100092771Y54981862D01*
X100663473Y55551569D01*
X100972715Y56296307D01*
X100973419Y57102697D01*
X100665477Y57847974D01*
X100095770Y58418676D01*
X99351032Y58727918D01*
X98544642Y58728622D01*
X97799365Y58420680D01*
X97228663Y57850973D01*
X96919421Y57106235D01*
X96918717Y56299845D01*
X85039430Y56299845D01*
X85262223Y56836387D01*
X85262892Y57602792D01*
X84970219Y58311114D01*
X84763068Y58518627D01*
X84763067Y58907885D01*
X84901075Y59000099D01*
X85230907Y59493727D01*
X85230907Y58621272D01*
X85295546Y58277746D01*
X85498569Y57962239D01*
X85808347Y57750576D01*
X86176068Y57676111D01*
X88376068Y57676111D01*
X88719594Y57740750D01*
X89035101Y57943773D01*
X89246764Y58253551D01*
X89321229Y58621272D01*
X89321229Y59748351D01*
X92285109Y62712230D01*
X92594444Y63175182D01*
X92612466Y63265784D01*
X92703068Y63721272D01*
X92703068Y68384082D01*
X92806326Y68426747D01*
X93567918Y69187011D01*
X93980597Y70180853D01*
X93981536Y71256968D01*
X93570592Y72251529D01*
X92810328Y73013121D01*
X92703068Y73057659D01*
X92703068Y77471272D01*
X92594444Y78017361D01*
X92531055Y78112229D01*
X92285110Y78480313D01*
X86453068Y84312354D01*
X86453068Y85661144D01*
X86626068Y85626111D01*
X88426068Y85626111D01*
X88769594Y85690750D01*
X88930472Y85794272D01*
X94026068Y85794271D01*
X97789382Y85794271D01*
X97903353Y85518440D01*
X98515218Y84905505D01*
X99315068Y84573379D01*
X100181132Y84572623D01*
X100981560Y84903353D01*
X101594495Y85515218D01*
X101926621Y86315068D01*
X101927377Y87181132D01*
X101596647Y87981560D01*
X101203067Y88375828D01*
X101203067Y90124473D01*
X101594495Y90515218D01*
X101926621Y91315068D01*
X101927377Y92181132D01*
X101596647Y92981560D01*
X100984782Y93594495D01*
X100184932Y93926621D01*
X99318868Y93927377D01*
X98518440Y93596647D01*
X97905505Y92984782D01*
X97573379Y92184932D01*
X97573031Y91786318D01*
X94434985Y88648271D01*
X94026067Y88648271D01*
X88930917Y88648272D01*
X88793789Y88741968D01*
X88426068Y88816433D01*
X86626068Y88816433D01*
X86453068Y88783881D01*
X86453068Y92130190D01*
X87035110Y92712231D01*
X87344444Y93175183D01*
X87453068Y93721272D01*
X87453068Y94629401D01*
X87493374Y94589025D01*
X88201184Y94295116D01*
X88967589Y94294447D01*
X89675911Y94587120D01*
X89883424Y94794271D01*
X94026068Y94794271D01*
X94572157Y94902895D01*
X95035109Y95212230D01*
X95367150Y95544271D01*
X97892680Y95544272D01*
X97903353Y95518440D01*
X98515218Y94905505D01*
X99315068Y94573379D01*
X100181132Y94572623D01*
X100981560Y94903353D01*
X101594495Y95515218D01*
X101926621Y96315068D01*
X101927377Y97181132D01*
X101596647Y97981560D01*
X100984782Y98594495D01*
X100184932Y98926621D01*
X99318868Y98927377D01*
X98518440Y98596647D01*
X98319718Y98398272D01*
X94776068Y98398271D01*
X94229984Y98289648D01*
X94229979Y98289647D01*
X93767027Y97980312D01*
X93434986Y97648271D01*
X89883650Y97648271D01*
X89678762Y97853517D01*
X88982190Y98142760D01*
X89158314Y98318577D01*
X89328048Y98727341D01*
X89796524Y98258046D01*
X90431039Y97994572D01*
X91118082Y97993973D01*
X91753057Y98256339D01*
X92239294Y98741728D01*
X92502768Y99376243D01*
X92503367Y100063286D01*
X92241001Y100698261D01*
X91755612Y101184498D01*
X91121097Y101447972D01*
X91067404Y101448019D01*
X89971150Y102544272D01*
X91526068Y102544272D01*
X92072157Y102652896D01*
X92535109Y102962231D01*
X94035109Y104462230D01*
X94344444Y104925182D01*
X94416940Y105289647D01*
X94453068Y105471272D01*
X94453068Y115633498D01*
X94548314Y115728578D01*
X94842223Y116436388D01*
X94842892Y117202793D01*
X94550219Y117911115D01*
X94008762Y118453518D01*
X93300952Y118747427D01*
X92534547Y118748096D01*
X91826225Y118455423D01*
X91283822Y117913966D01*
X90989913Y117206156D01*
X90989244Y116439751D01*
X91281917Y115731429D01*
X91599068Y115413724D01*
X91599068Y111633750D01*
X91526068Y111648271D01*
X83696076Y111648271D01*
X83527321Y111648272D01*
X83243465Y111648520D01*
X82718793Y111431729D01*
X82317021Y111030658D01*
X82099316Y110506365D01*
X82098820Y109938669D01*
X82315611Y109413997D01*
X82716682Y109012225D01*
X83240975Y108794520D01*
X83498122Y108794295D01*
X83186225Y108665422D01*
X82978713Y108458272D01*
X82323649Y108458272D01*
X82118762Y108663517D01*
X81410952Y108957426D01*
X81117740Y108957682D01*
X80595109Y109480313D01*
X80132157Y109789647D01*
X80110152Y109794024D01*
X79586068Y109898271D01*
X77931180Y109898271D01*
X77991608Y109988708D01*
X78123068Y110649602D01*
X78123068Y111532942D01*
X77991608Y112193836D01*
X77617241Y112754115D01*
X77056962Y113128482D01*
X76396068Y113259942D01*
X75735174Y113128482D01*
X75174895Y112754115D01*
X75126068Y112681040D01*
X75077241Y112754115D01*
X74516962Y113128482D01*
X73856068Y113259942D01*
X73195174Y113128482D01*
X72743068Y112826394D01*
X72743068Y113181271D01*
X72634444Y113727360D01*
X72325109Y114190312D01*
X70785109Y115730312D01*
X70322157Y116039647D01*
X69794972Y116144511D01*
X70115911Y116277120D01*
X70133092Y116294271D01*
X73010361Y116294272D01*
X73046524Y116258046D01*
X73681039Y115994572D01*
X74368082Y115993973D01*
X75003057Y116256339D01*
X75021021Y116274272D01*
X75354985Y116274272D01*
X78935860Y112693397D01*
X79136682Y112492224D01*
X79660975Y112274519D01*
X80228671Y112274023D01*
X80753343Y112490814D01*
X81155115Y112891885D01*
X81372820Y113416178D01*
X81373316Y113983874D01*
X81156525Y114508546D01*
X80755454Y114910318D01*
X80754856Y114910566D01*
X76955110Y118710313D01*
X76492158Y119019648D01*
X76391545Y119039661D01*
X75946068Y119128272D01*
X75061740Y119128272D01*
X75005612Y119184498D01*
X74371097Y119447972D01*
X73684054Y119448571D01*
X73049079Y119186205D01*
X73011080Y119148272D01*
X70513318Y119148271D01*
X70118762Y119543517D01*
X69410952Y119837426D01*
X68644547Y119838095D01*
X67936225Y119545422D01*
X67393822Y119003965D01*
X67303070Y118785410D01*
X67303069Y124656455D01*
X67391917Y124441428D01*
X67933374Y123899025D01*
X68641184Y123605116D01*
X69407589Y123604447D01*
X70115911Y123897120D01*
X70658314Y124438577D01*
X70952223Y125146387D01*
X70952892Y125912792D01*
X70660219Y126621114D01*
X70487364Y126794271D01*
X71026068Y126794271D01*
X71572157Y126902895D01*
X72035109Y127212230D01*
X73285109Y128462230D01*
X73594444Y128925182D01*
X73629224Y129100033D01*
X74798814Y127930443D01*
X74798769Y127879257D01*
X75061135Y127244282D01*
X75099068Y127206283D01*
X75099068Y122829184D01*
X75083822Y122813965D01*
X74789913Y122106155D01*
X74789244Y121339750D01*
X75081917Y120631428D01*
X75623374Y120089025D01*
X76331184Y119795116D01*
X77097589Y119794447D01*
X77805911Y120087120D01*
X78348314Y120628577D01*
X78642223Y121336387D01*
X78642426Y121569845D01*
X96998717Y121569845D01*
X97306659Y120824568D01*
X97876366Y120253866D01*
X98621104Y119944624D01*
X99427494Y119943920D01*
X100172771Y120251862D01*
X100743473Y120821569D01*
X101052715Y121566307D01*
X101053419Y122372697D01*
X100745477Y123117974D01*
X100175770Y123688676D01*
X99431032Y123997918D01*
X98624642Y123998622D01*
X97879365Y123690680D01*
X97308663Y123120973D01*
X96999421Y122376235D01*
X96998717Y121569845D01*
X78642426Y121569845D01*
X78642892Y122102792D01*
X78350219Y122811114D01*
X77953068Y123208959D01*
X77953068Y127205564D01*
X77989294Y127241727D01*
X78057560Y127406128D01*
X78147027Y127272231D01*
X78789496Y126629762D01*
X78789243Y126339751D01*
X79081916Y125631429D01*
X79623373Y125089026D01*
X80331183Y124795117D01*
X81097588Y124794448D01*
X81805910Y125087121D01*
X82348313Y125628578D01*
X82642222Y126336388D01*
X82642891Y127102793D01*
X82350218Y127811115D01*
X81808761Y128353518D01*
X81100951Y128647427D01*
X80807739Y128647683D01*
X80583068Y128872354D01*
X80583068Y130007220D01*
X80629084Y130037967D01*
X81068483Y130695573D01*
X81185788Y131285304D01*
X81207692Y131175183D01*
X81517027Y130712231D01*
X81767027Y130462231D01*
X81892027Y130337230D01*
X81892030Y130337228D01*
X84017027Y128212230D01*
X84479979Y127902896D01*
X85026068Y127794272D01*
X86695643Y127794272D01*
X86409912Y127106156D01*
X86409243Y126339751D01*
X86701916Y125631429D01*
X87243373Y125089026D01*
X87951183Y124795117D01*
X88717588Y124794448D01*
X89425910Y125087121D01*
X89633423Y125294272D01*
X91010361Y125294272D01*
X91046524Y125258046D01*
X91681039Y124994572D01*
X92368082Y124993973D01*
X93003057Y125256339D01*
X93489294Y125741728D01*
X93752768Y126376243D01*
X93753367Y127063286D01*
X93491001Y127698261D01*
X93005612Y128184498D01*
X92371097Y128447972D01*
X91703067Y128448554D01*
X91703067Y128471272D01*
X91594443Y129017361D01*
X91321325Y129426111D01*
X92126068Y129426111D01*
X92469594Y129490750D01*
X92785101Y129693773D01*
X92996764Y130003551D01*
X93071229Y130371272D01*
X93071229Y132571272D01*
X93006590Y132914798D01*
X92803567Y133230305D01*
X92493789Y133441968D01*
X92126068Y133516433D01*
X89926068Y133516433D01*
X89582542Y133451794D01*
X89267035Y133248771D01*
X89055372Y132938993D01*
X89047126Y132898272D01*
X88759700Y132898272D01*
X88756590Y132914798D01*
X88553567Y133230305D01*
X88243789Y133441968D01*
X87876068Y133516433D01*
X85676068Y133516433D01*
X85332542Y133451794D01*
X85017035Y133248771D01*
X84805372Y132938993D01*
X84730907Y132571272D01*
X84730907Y131534515D01*
X83953068Y132312354D01*
X83953068Y135971273D01*
X83953067Y136971273D01*
X83901541Y137230309D01*
X83844443Y137517361D01*
X83535109Y137980313D01*
X80205109Y141310312D01*
X80138377Y141354901D01*
X80657589Y141354448D01*
X81365911Y141647121D01*
X81573424Y141854272D01*
X89320747Y141854271D01*
X89320600Y141685574D01*
X89731544Y140691013D01*
X90491808Y139929421D01*
X91485650Y139516742D01*
X92561765Y139515803D01*
X93556326Y139926747D01*
X94317918Y140687011D01*
X94730597Y141680853D01*
X94731536Y142756968D01*
X94320592Y143751529D01*
X93560328Y144513121D01*
X92566486Y144925800D01*
X91490371Y144926739D01*
X90961638Y144708271D01*
X81703068Y144708272D01*
X81703068Y145363360D01*
X81718313Y145378578D01*
X82012222Y146086388D01*
X82012891Y146852793D01*
X81720218Y147561115D01*
X81178761Y148103518D01*
X80470951Y148397427D01*
X79704546Y148398096D01*
X78996224Y148105423D01*
X78453821Y147563966D01*
X78203067Y146960085D01*
X78203067Y147880190D01*
X79674128Y149351251D01*
X79931039Y149244572D01*
X80618082Y149243973D01*
X81253057Y149506339D01*
X81739294Y149991728D01*
X82002768Y150626243D01*
X82003367Y151313286D01*
X81741001Y151948261D01*
X81255612Y152434498D01*
X80621097Y152697972D01*
X79934054Y152698571D01*
X79299079Y152436205D01*
X79257350Y152394549D01*
X78729978Y152289648D01*
X78267026Y151980313D01*
X75767026Y149480313D01*
X75457691Y149017361D01*
X75349067Y148471272D01*
X75349067Y144268272D01*
X73497151Y144268272D01*
X71535112Y146230310D01*
X71535110Y146230313D01*
X68535109Y149230313D01*
X68072157Y149539648D01*
X67526068Y149648272D01*
X65776068Y149648272D01*
X65320580Y149557670D01*
X65229978Y149539648D01*
X64767026Y149230313D01*
X63267027Y147730313D01*
X62957692Y147267361D01*
X62849068Y146721272D01*
X62849068Y85150243D01*
X62322648Y85677583D01*
X61430946Y86047850D01*
X60536790Y86048631D01*
X58623068Y87962353D01*
X58623068Y98751271D01*
X58514444Y99297360D01*
X58382865Y99494282D01*
X58205109Y99760313D01*
X58193025Y99772397D01*
X58125441Y100112165D01*
X57751074Y100672444D01*
X57190795Y101046811D01*
X56529901Y101178271D01*
X56462233Y101178271D01*
X55801339Y101046811D01*
X55241060Y100672444D01*
X54866693Y100112165D01*
X54735233Y99451271D01*
X53627000Y99451271D01*
X53627000Y148299846D01*
X57918717Y148299846D01*
X58226659Y147554569D01*
X58796366Y146983867D01*
X59541104Y146674625D01*
X60347494Y146673921D01*
X61092771Y146981863D01*
X61663473Y147551570D01*
X61972715Y148296308D01*
X61973419Y149102698D01*
X61665477Y149847975D01*
X61095770Y150418677D01*
X60351032Y150727919D01*
X59544642Y150728623D01*
X58799365Y150420681D01*
X58228663Y149850974D01*
X57919421Y149106236D01*
X57918717Y148299846D01*
X53627000Y148299846D01*
X53627000Y152748000D01*
X102498000Y152748000D01*
X102498000Y53877000D01*
X102498000Y53877000D01*
G37*
X102498000Y53877000D02*
X53627000Y53877000D01*
X53627000Y56799845D01*
X56918716Y56799845D01*
X57226658Y56054568D01*
X57796365Y55483866D01*
X58541103Y55174624D01*
X59347493Y55173920D01*
X60092770Y55481862D01*
X60663472Y56051569D01*
X60972714Y56796307D01*
X60973418Y57602697D01*
X60665476Y58347974D01*
X60095769Y58918676D01*
X59351031Y59227918D01*
X58544641Y59228622D01*
X57799364Y58920680D01*
X57228662Y58350973D01*
X56919420Y57606235D01*
X56918716Y56799845D01*
X53627000Y56799845D01*
X53627000Y99451271D01*
X54735233Y99451271D01*
X54866693Y98790377D01*
X55241060Y98230098D01*
X55769068Y97877294D01*
X55769068Y87371271D01*
X55838366Y87022887D01*
X55877692Y86825182D01*
X56187027Y86362230D01*
X58519423Y84029834D01*
X58518647Y83140630D01*
X58887358Y82248283D01*
X59569488Y81564961D01*
X60461190Y81194694D01*
X61426710Y81193851D01*
X62319057Y81562562D01*
X62849068Y82091648D01*
X62849068Y80070243D01*
X62322648Y80597583D01*
X61430946Y80967850D01*
X60465426Y80968693D01*
X59573079Y80599982D01*
X58889757Y79917852D01*
X58519490Y79026150D01*
X58518647Y78060630D01*
X58887358Y77168283D01*
X59519068Y76535469D01*
X59519068Y69292355D01*
X56876376Y66649662D01*
X56578841Y66590479D01*
X56018562Y66216112D01*
X55970715Y66168264D01*
X55596348Y65607986D01*
X55464889Y64947091D01*
X55596348Y64286196D01*
X55970715Y63725918D01*
X56530993Y63351551D01*
X57191888Y63220092D01*
X57852783Y63351551D01*
X58413061Y63725918D01*
X58460909Y63773765D01*
X58835276Y64334044D01*
X58894459Y64631579D01*
X61955109Y67692231D01*
X62264444Y68155183D01*
X62299279Y68330312D01*
X62373068Y68701272D01*
X62373068Y76536479D01*
X62849068Y77011648D01*
X62849068Y68562356D01*
X60017026Y65730313D01*
X59874565Y65517104D01*
X59707692Y65267361D01*
X59599068Y64721272D01*
X59599067Y60721272D01*
X59707691Y60175183D01*
X60017026Y59712231D01*
X64017027Y55712229D01*
X64479979Y55402895D01*
X65026068Y55294271D01*
X66010362Y55294271D01*
X66046524Y55258046D01*
X66681039Y54994572D01*
X67368082Y54993973D01*
X68003057Y55256339D01*
X68489294Y55741728D01*
X68752768Y56376243D01*
X68753367Y57063286D01*
X68491001Y57698261D01*
X68005612Y58184498D01*
X67371097Y58447972D01*
X66684054Y58448571D01*
X66049079Y58186205D01*
X66011079Y58148271D01*
X65617151Y58148271D01*
X62453067Y61312354D01*
X62453068Y64130189D01*
X64444201Y66121323D01*
X64207691Y65767361D01*
X64196857Y65712896D01*
X64099067Y65221271D01*
X64099067Y64219383D01*
X64067035Y64198771D01*
X63855372Y63888993D01*
X63780907Y63521272D01*
X63780907Y61921272D01*
X63845546Y61577746D01*
X64048569Y61262239D01*
X64358347Y61050576D01*
X64726068Y60976111D01*
X66326068Y60976111D01*
X66669594Y61040750D01*
X66735848Y61083384D01*
X66917027Y60812231D01*
X71517026Y56212231D01*
X71979978Y55902896D01*
X72070580Y55884874D01*
X72526068Y55794272D01*
X74418486Y55794271D01*
X74623374Y55589025D01*
X75331184Y55295116D01*
X76097589Y55294447D01*
X76805911Y55587120D01*
X77348314Y56128577D01*
X77642223Y56836387D01*
X77642892Y57602792D01*
X77350219Y58311114D01*
X77128670Y58533050D01*
X77169594Y58540750D01*
X77485101Y58743773D01*
X77696764Y59053551D01*
X77771229Y59421272D01*
X77771229Y61021272D01*
X77706590Y61364798D01*
X77603068Y61525676D01*
X77603068Y64058812D01*
X77735101Y64143773D01*
X77837933Y64294272D01*
X78326068Y64294272D01*
X78872157Y64402896D01*
X78944322Y64451115D01*
X79335109Y64712230D01*
X81535109Y66912229D01*
X81844444Y67375181D01*
X81882486Y67566433D01*
X81953068Y67921271D01*
X81953068Y77821272D01*
X81844444Y78367361D01*
X81844444Y78367362D01*
X81535109Y78830314D01*
X79771229Y80594193D01*
X79771229Y81521272D01*
X79706590Y81864798D01*
X79685364Y81897784D01*
X79912157Y81942896D01*
X80375109Y82252230D01*
X83599068Y85476189D01*
X83599068Y83721272D01*
X83634276Y83544272D01*
X83707692Y83175183D01*
X84017027Y82712231D01*
X89849068Y76880189D01*
X89849068Y73058460D01*
X89745810Y73015795D01*
X88984218Y72255531D01*
X88571539Y71261689D01*
X88570600Y70185574D01*
X88981544Y69191013D01*
X89741808Y68429421D01*
X89849068Y68384883D01*
X89849068Y64312355D01*
X87303147Y61766433D01*
X86176068Y61766433D01*
X85832542Y61701794D01*
X85517035Y61498771D01*
X85305372Y61188993D01*
X85250728Y60919153D01*
X84901075Y61442445D01*
X84340796Y61816812D01*
X83679902Y61948272D01*
X83612234Y61948272D01*
X82951340Y61816812D01*
X82391061Y61442445D01*
X82016694Y60882166D01*
X81885234Y60221272D01*
X81927982Y60006363D01*
X81909067Y59911271D01*
X81909068Y58518853D01*
X81703822Y58313965D01*
X81409913Y57606155D01*
X81409244Y56839750D01*
X81701917Y56131428D01*
X82243374Y55589025D01*
X82951184Y55295116D01*
X83717589Y55294447D01*
X84425911Y55587120D01*
X84968314Y56128577D01*
X85039430Y56299845D01*
X96918717Y56299845D01*
X97226659Y55554568D01*
X97796366Y54983866D01*
X98541104Y54674624D01*
X99347494Y54673920D01*
X100092771Y54981862D01*
X100663473Y55551569D01*
X100972715Y56296307D01*
X100973419Y57102697D01*
X100665477Y57847974D01*
X100095770Y58418676D01*
X99351032Y58727918D01*
X98544642Y58728622D01*
X97799365Y58420680D01*
X97228663Y57850973D01*
X96919421Y57106235D01*
X96918717Y56299845D01*
X85039430Y56299845D01*
X85262223Y56836387D01*
X85262892Y57602792D01*
X84970219Y58311114D01*
X84763068Y58518627D01*
X84763067Y58907885D01*
X84901075Y59000099D01*
X85230907Y59493727D01*
X85230907Y58621272D01*
X85295546Y58277746D01*
X85498569Y57962239D01*
X85808347Y57750576D01*
X86176068Y57676111D01*
X88376068Y57676111D01*
X88719594Y57740750D01*
X89035101Y57943773D01*
X89246764Y58253551D01*
X89321229Y58621272D01*
X89321229Y59748351D01*
X92285109Y62712230D01*
X92594444Y63175182D01*
X92612466Y63265784D01*
X92703068Y63721272D01*
X92703068Y68384082D01*
X92806326Y68426747D01*
X93567918Y69187011D01*
X93980597Y70180853D01*
X93981536Y71256968D01*
X93570592Y72251529D01*
X92810328Y73013121D01*
X92703068Y73057659D01*
X92703068Y77471272D01*
X92594444Y78017361D01*
X92531055Y78112229D01*
X92285110Y78480313D01*
X86453068Y84312354D01*
X86453068Y85661144D01*
X86626068Y85626111D01*
X88426068Y85626111D01*
X88769594Y85690750D01*
X88930472Y85794272D01*
X94026068Y85794271D01*
X97789382Y85794271D01*
X97903353Y85518440D01*
X98515218Y84905505D01*
X99315068Y84573379D01*
X100181132Y84572623D01*
X100981560Y84903353D01*
X101594495Y85515218D01*
X101926621Y86315068D01*
X101927377Y87181132D01*
X101596647Y87981560D01*
X101203067Y88375828D01*
X101203067Y90124473D01*
X101594495Y90515218D01*
X101926621Y91315068D01*
X101927377Y92181132D01*
X101596647Y92981560D01*
X100984782Y93594495D01*
X100184932Y93926621D01*
X99318868Y93927377D01*
X98518440Y93596647D01*
X97905505Y92984782D01*
X97573379Y92184932D01*
X97573031Y91786318D01*
X94434985Y88648271D01*
X94026067Y88648271D01*
X88930917Y88648272D01*
X88793789Y88741968D01*
X88426068Y88816433D01*
X86626068Y88816433D01*
X86453068Y88783881D01*
X86453068Y92130190D01*
X87035110Y92712231D01*
X87344444Y93175183D01*
X87453068Y93721272D01*
X87453068Y94629401D01*
X87493374Y94589025D01*
X88201184Y94295116D01*
X88967589Y94294447D01*
X89675911Y94587120D01*
X89883424Y94794271D01*
X94026068Y94794271D01*
X94572157Y94902895D01*
X95035109Y95212230D01*
X95367150Y95544271D01*
X97892680Y95544272D01*
X97903353Y95518440D01*
X98515218Y94905505D01*
X99315068Y94573379D01*
X100181132Y94572623D01*
X100981560Y94903353D01*
X101594495Y95515218D01*
X101926621Y96315068D01*
X101927377Y97181132D01*
X101596647Y97981560D01*
X100984782Y98594495D01*
X100184932Y98926621D01*
X99318868Y98927377D01*
X98518440Y98596647D01*
X98319718Y98398272D01*
X94776068Y98398271D01*
X94229984Y98289648D01*
X94229979Y98289647D01*
X93767027Y97980312D01*
X93434986Y97648271D01*
X89883650Y97648271D01*
X89678762Y97853517D01*
X88982190Y98142760D01*
X89158314Y98318577D01*
X89328048Y98727341D01*
X89796524Y98258046D01*
X90431039Y97994572D01*
X91118082Y97993973D01*
X91753057Y98256339D01*
X92239294Y98741728D01*
X92502768Y99376243D01*
X92503367Y100063286D01*
X92241001Y100698261D01*
X91755612Y101184498D01*
X91121097Y101447972D01*
X91067404Y101448019D01*
X89971150Y102544272D01*
X91526068Y102544272D01*
X92072157Y102652896D01*
X92535109Y102962231D01*
X94035109Y104462230D01*
X94344444Y104925182D01*
X94416940Y105289647D01*
X94453068Y105471272D01*
X94453068Y115633498D01*
X94548314Y115728578D01*
X94842223Y116436388D01*
X94842892Y117202793D01*
X94550219Y117911115D01*
X94008762Y118453518D01*
X93300952Y118747427D01*
X92534547Y118748096D01*
X91826225Y118455423D01*
X91283822Y117913966D01*
X90989913Y117206156D01*
X90989244Y116439751D01*
X91281917Y115731429D01*
X91599068Y115413724D01*
X91599068Y111633750D01*
X91526068Y111648271D01*
X83696076Y111648271D01*
X83527321Y111648272D01*
X83243465Y111648520D01*
X82718793Y111431729D01*
X82317021Y111030658D01*
X82099316Y110506365D01*
X82098820Y109938669D01*
X82315611Y109413997D01*
X82716682Y109012225D01*
X83240975Y108794520D01*
X83498122Y108794295D01*
X83186225Y108665422D01*
X82978713Y108458272D01*
X82323649Y108458272D01*
X82118762Y108663517D01*
X81410952Y108957426D01*
X81117740Y108957682D01*
X80595109Y109480313D01*
X80132157Y109789647D01*
X80110152Y109794024D01*
X79586068Y109898271D01*
X77931180Y109898271D01*
X77991608Y109988708D01*
X78123068Y110649602D01*
X78123068Y111532942D01*
X77991608Y112193836D01*
X77617241Y112754115D01*
X77056962Y113128482D01*
X76396068Y113259942D01*
X75735174Y113128482D01*
X75174895Y112754115D01*
X75126068Y112681040D01*
X75077241Y112754115D01*
X74516962Y113128482D01*
X73856068Y113259942D01*
X73195174Y113128482D01*
X72743068Y112826394D01*
X72743068Y113181271D01*
X72634444Y113727360D01*
X72325109Y114190312D01*
X70785109Y115730312D01*
X70322157Y116039647D01*
X69794972Y116144511D01*
X70115911Y116277120D01*
X70133092Y116294271D01*
X73010361Y116294272D01*
X73046524Y116258046D01*
X73681039Y115994572D01*
X74368082Y115993973D01*
X75003057Y116256339D01*
X75021021Y116274272D01*
X75354985Y116274272D01*
X78935860Y112693397D01*
X79136682Y112492224D01*
X79660975Y112274519D01*
X80228671Y112274023D01*
X80753343Y112490814D01*
X81155115Y112891885D01*
X81372820Y113416178D01*
X81373316Y113983874D01*
X81156525Y114508546D01*
X80755454Y114910318D01*
X80754856Y114910566D01*
X76955110Y118710313D01*
X76492158Y119019648D01*
X76391545Y119039661D01*
X75946068Y119128272D01*
X75061740Y119128272D01*
X75005612Y119184498D01*
X74371097Y119447972D01*
X73684054Y119448571D01*
X73049079Y119186205D01*
X73011080Y119148272D01*
X70513318Y119148271D01*
X70118762Y119543517D01*
X69410952Y119837426D01*
X68644547Y119838095D01*
X67936225Y119545422D01*
X67393822Y119003965D01*
X67303070Y118785410D01*
X67303069Y124656455D01*
X67391917Y124441428D01*
X67933374Y123899025D01*
X68641184Y123605116D01*
X69407589Y123604447D01*
X70115911Y123897120D01*
X70658314Y124438577D01*
X70952223Y125146387D01*
X70952892Y125912792D01*
X70660219Y126621114D01*
X70487364Y126794271D01*
X71026068Y126794271D01*
X71572157Y126902895D01*
X72035109Y127212230D01*
X73285109Y128462230D01*
X73594444Y128925182D01*
X73629224Y129100033D01*
X74798814Y127930443D01*
X74798769Y127879257D01*
X75061135Y127244282D01*
X75099068Y127206283D01*
X75099068Y122829184D01*
X75083822Y122813965D01*
X74789913Y122106155D01*
X74789244Y121339750D01*
X75081917Y120631428D01*
X75623374Y120089025D01*
X76331184Y119795116D01*
X77097589Y119794447D01*
X77805911Y120087120D01*
X78348314Y120628577D01*
X78642223Y121336387D01*
X78642426Y121569845D01*
X96998717Y121569845D01*
X97306659Y120824568D01*
X97876366Y120253866D01*
X98621104Y119944624D01*
X99427494Y119943920D01*
X100172771Y120251862D01*
X100743473Y120821569D01*
X101052715Y121566307D01*
X101053419Y122372697D01*
X100745477Y123117974D01*
X100175770Y123688676D01*
X99431032Y123997918D01*
X98624642Y123998622D01*
X97879365Y123690680D01*
X97308663Y123120973D01*
X96999421Y122376235D01*
X96998717Y121569845D01*
X78642426Y121569845D01*
X78642892Y122102792D01*
X78350219Y122811114D01*
X77953068Y123208959D01*
X77953068Y127205564D01*
X77989294Y127241727D01*
X78057560Y127406128D01*
X78147027Y127272231D01*
X78789496Y126629762D01*
X78789243Y126339751D01*
X79081916Y125631429D01*
X79623373Y125089026D01*
X80331183Y124795117D01*
X81097588Y124794448D01*
X81805910Y125087121D01*
X82348313Y125628578D01*
X82642222Y126336388D01*
X82642891Y127102793D01*
X82350218Y127811115D01*
X81808761Y128353518D01*
X81100951Y128647427D01*
X80807739Y128647683D01*
X80583068Y128872354D01*
X80583068Y130007220D01*
X80629084Y130037967D01*
X81068483Y130695573D01*
X81185788Y131285304D01*
X81207692Y131175183D01*
X81517027Y130712231D01*
X81767027Y130462231D01*
X81892027Y130337230D01*
X81892030Y130337228D01*
X84017027Y128212230D01*
X84479979Y127902896D01*
X85026068Y127794272D01*
X86695643Y127794272D01*
X86409912Y127106156D01*
X86409243Y126339751D01*
X86701916Y125631429D01*
X87243373Y125089026D01*
X87951183Y124795117D01*
X88717588Y124794448D01*
X89425910Y125087121D01*
X89633423Y125294272D01*
X91010361Y125294272D01*
X91046524Y125258046D01*
X91681039Y124994572D01*
X92368082Y124993973D01*
X93003057Y125256339D01*
X93489294Y125741728D01*
X93752768Y126376243D01*
X93753367Y127063286D01*
X93491001Y127698261D01*
X93005612Y128184498D01*
X92371097Y128447972D01*
X91703067Y128448554D01*
X91703067Y128471272D01*
X91594443Y129017361D01*
X91321325Y129426111D01*
X92126068Y129426111D01*
X92469594Y129490750D01*
X92785101Y129693773D01*
X92996764Y130003551D01*
X93071229Y130371272D01*
X93071229Y132571272D01*
X93006590Y132914798D01*
X92803567Y133230305D01*
X92493789Y133441968D01*
X92126068Y133516433D01*
X89926068Y133516433D01*
X89582542Y133451794D01*
X89267035Y133248771D01*
X89055372Y132938993D01*
X89047126Y132898272D01*
X88759700Y132898272D01*
X88756590Y132914798D01*
X88553567Y133230305D01*
X88243789Y133441968D01*
X87876068Y133516433D01*
X85676068Y133516433D01*
X85332542Y133451794D01*
X85017035Y133248771D01*
X84805372Y132938993D01*
X84730907Y132571272D01*
X84730907Y131534515D01*
X83953068Y132312354D01*
X83953068Y135971273D01*
X83953067Y136971273D01*
X83901541Y137230309D01*
X83844443Y137517361D01*
X83535109Y137980313D01*
X80205109Y141310312D01*
X80138377Y141354901D01*
X80657589Y141354448D01*
X81365911Y141647121D01*
X81573424Y141854272D01*
X89320747Y141854271D01*
X89320600Y141685574D01*
X89731544Y140691013D01*
X90491808Y139929421D01*
X91485650Y139516742D01*
X92561765Y139515803D01*
X93556326Y139926747D01*
X94317918Y140687011D01*
X94730597Y141680853D01*
X94731536Y142756968D01*
X94320592Y143751529D01*
X93560328Y144513121D01*
X92566486Y144925800D01*
X91490371Y144926739D01*
X90961638Y144708271D01*
X81703068Y144708272D01*
X81703068Y145363360D01*
X81718313Y145378578D01*
X82012222Y146086388D01*
X82012891Y146852793D01*
X81720218Y147561115D01*
X81178761Y148103518D01*
X80470951Y148397427D01*
X79704546Y148398096D01*
X78996224Y148105423D01*
X78453821Y147563966D01*
X78203067Y146960085D01*
X78203067Y147880190D01*
X79674128Y149351251D01*
X79931039Y149244572D01*
X80618082Y149243973D01*
X81253057Y149506339D01*
X81739294Y149991728D01*
X82002768Y150626243D01*
X82003367Y151313286D01*
X81741001Y151948261D01*
X81255612Y152434498D01*
X80621097Y152697972D01*
X79934054Y152698571D01*
X79299079Y152436205D01*
X79257350Y152394549D01*
X78729978Y152289648D01*
X78267026Y151980313D01*
X75767026Y149480313D01*
X75457691Y149017361D01*
X75349067Y148471272D01*
X75349067Y144268272D01*
X73497151Y144268272D01*
X71535112Y146230310D01*
X71535110Y146230313D01*
X68535109Y149230313D01*
X68072157Y149539648D01*
X67526068Y149648272D01*
X65776068Y149648272D01*
X65320580Y149557670D01*
X65229978Y149539648D01*
X64767026Y149230313D01*
X63267027Y147730313D01*
X62957692Y147267361D01*
X62849068Y146721272D01*
X62849068Y85150243D01*
X62322648Y85677583D01*
X61430946Y86047850D01*
X60536790Y86048631D01*
X58623068Y87962353D01*
X58623068Y98751271D01*
X58514444Y99297360D01*
X58382865Y99494282D01*
X58205109Y99760313D01*
X58193025Y99772397D01*
X58125441Y100112165D01*
X57751074Y100672444D01*
X57190795Y101046811D01*
X56529901Y101178271D01*
X56462233Y101178271D01*
X55801339Y101046811D01*
X55241060Y100672444D01*
X54866693Y100112165D01*
X54735233Y99451271D01*
X53627000Y99451271D01*
X53627000Y148299846D01*
X57918717Y148299846D01*
X58226659Y147554569D01*
X58796366Y146983867D01*
X59541104Y146674625D01*
X60347494Y146673921D01*
X61092771Y146981863D01*
X61663473Y147551570D01*
X61972715Y148296308D01*
X61973419Y149102698D01*
X61665477Y149847975D01*
X61095770Y150418677D01*
X60351032Y150727919D01*
X59544642Y150728623D01*
X58799365Y150420681D01*
X58228663Y149850974D01*
X57919421Y149106236D01*
X57918717Y148299846D01*
X53627000Y148299846D01*
X53627000Y152748000D01*
X102498000Y152748000D01*
X102498000Y53877000D01*
G36*
X68217027Y92462230D02*
X68632034Y92184932D01*
X68679979Y92152896D01*
X69226068Y92044272D01*
X69306374Y92044272D01*
X69262842Y92000816D01*
X68999368Y91366301D01*
X68998769Y90679258D01*
X69261135Y90044283D01*
X69746524Y89558046D01*
X70381039Y89294572D01*
X71068082Y89293973D01*
X71703057Y89556339D01*
X71741056Y89594272D01*
X72754984Y89594271D01*
X74806073Y87543183D01*
X74947013Y87332245D01*
X75241045Y87135773D01*
X75159978Y87119648D01*
X74697026Y86810313D01*
X73867027Y85980313D01*
X73557692Y85517361D01*
X73449068Y84971272D01*
X73449068Y72412355D01*
X72002545Y70965832D01*
X72002892Y71362793D01*
X71710219Y72071115D01*
X71168762Y72613518D01*
X70460952Y72907427D01*
X69694547Y72908096D01*
X69385162Y72780261D01*
X67923322Y74242100D01*
X67923367Y74293285D01*
X67661001Y74928260D01*
X67303070Y75286816D01*
X67303070Y79654739D01*
X67679979Y79402896D01*
X68226068Y79294272D01*
X68579068Y79294272D01*
X68579068Y78658785D01*
X68333821Y78413966D01*
X68039912Y77706156D01*
X68039243Y76939751D01*
X68331916Y76231429D01*
X68873373Y75689026D01*
X69581183Y75395117D01*
X70347588Y75394448D01*
X71055910Y75687121D01*
X71598313Y76228578D01*
X71892222Y76936388D01*
X71892891Y77702793D01*
X71600218Y78411115D01*
X71433068Y78578557D01*
X71433068Y79342514D01*
X71668911Y79500099D01*
X72043278Y80060378D01*
X72174738Y80721272D01*
X72043278Y81382166D01*
X71668911Y81942445D01*
X71595836Y81991272D01*
X71668911Y82040099D01*
X72043278Y82600378D01*
X72174738Y83261272D01*
X72043278Y83922166D01*
X71668911Y84482445D01*
X71108632Y84856812D01*
X70447738Y84988272D01*
X69564398Y84988272D01*
X68903504Y84856812D01*
X68343225Y84482445D01*
X67968858Y83922166D01*
X67837398Y83261272D01*
X67870484Y83094939D01*
X67303070Y83662352D01*
X67303070Y93376186D01*
X68217027Y92462230D01*
X68217027Y92462230D01*
G37*
X68217027Y92462230D02*
X68632034Y92184932D01*
X68679979Y92152896D01*
X69226068Y92044272D01*
X69306374Y92044272D01*
X69262842Y92000816D01*
X68999368Y91366301D01*
X68998769Y90679258D01*
X69261135Y90044283D01*
X69746524Y89558046D01*
X70381039Y89294572D01*
X71068082Y89293973D01*
X71703057Y89556339D01*
X71741056Y89594272D01*
X72754984Y89594271D01*
X74806073Y87543183D01*
X74947013Y87332245D01*
X75241045Y87135773D01*
X75159978Y87119648D01*
X74697026Y86810313D01*
X73867027Y85980313D01*
X73557692Y85517361D01*
X73449068Y84971272D01*
X73449068Y72412355D01*
X72002545Y70965832D01*
X72002892Y71362793D01*
X71710219Y72071115D01*
X71168762Y72613518D01*
X70460952Y72907427D01*
X69694547Y72908096D01*
X69385162Y72780261D01*
X67923322Y74242100D01*
X67923367Y74293285D01*
X67661001Y74928260D01*
X67303070Y75286816D01*
X67303070Y79654739D01*
X67679979Y79402896D01*
X68226068Y79294272D01*
X68579068Y79294272D01*
X68579068Y78658785D01*
X68333821Y78413966D01*
X68039912Y77706156D01*
X68039243Y76939751D01*
X68331916Y76231429D01*
X68873373Y75689026D01*
X69581183Y75395117D01*
X70347588Y75394448D01*
X71055910Y75687121D01*
X71598313Y76228578D01*
X71892222Y76936388D01*
X71892891Y77702793D01*
X71600218Y78411115D01*
X71433068Y78578557D01*
X71433068Y79342514D01*
X71668911Y79500099D01*
X72043278Y80060378D01*
X72174738Y80721272D01*
X72043278Y81382166D01*
X71668911Y81942445D01*
X71595836Y81991272D01*
X71668911Y82040099D01*
X72043278Y82600378D01*
X72174738Y83261272D01*
X72043278Y83922166D01*
X71668911Y84482445D01*
X71108632Y84856812D01*
X70447738Y84988272D01*
X69564398Y84988272D01*
X68903504Y84856812D01*
X68343225Y84482445D01*
X67968858Y83922166D01*
X67837398Y83261272D01*
X67870484Y83094939D01*
X67303070Y83662352D01*
X67303070Y93376186D01*
X68217027Y92462230D01*
G36*
X73267027Y95212229D02*
X73729979Y94902895D01*
X74276068Y94794271D01*
X74276069Y94794271D01*
X76026069Y94794272D01*
X79668486Y94794271D01*
X79873374Y94589025D01*
X80581184Y94295116D01*
X81347589Y94294447D01*
X81549868Y94378027D01*
X81449068Y93871271D01*
X81449068Y87362354D01*
X79771584Y85684871D01*
X79794738Y85801272D01*
X79663278Y86462166D01*
X79288911Y87022445D01*
X79215836Y87071272D01*
X79288911Y87120099D01*
X79663278Y87680378D01*
X79794738Y88341272D01*
X79663278Y89002166D01*
X79288911Y89562445D01*
X78728632Y89936812D01*
X78067738Y90068272D01*
X77184398Y90068272D01*
X76523504Y89936812D01*
X76478608Y89906813D01*
X74953068Y91432353D01*
X74953068Y91621270D01*
X74844445Y92167359D01*
X74844443Y92167363D01*
X74535109Y92630313D01*
X72685109Y94480313D01*
X72222157Y94789648D01*
X71676068Y94898272D01*
X69817150Y94898272D01*
X69153068Y95562354D01*
X69153068Y97724308D01*
X69538081Y97723972D01*
X70173056Y97986338D01*
X70333127Y98146130D01*
X73267027Y95212229D01*
X73267027Y95212229D01*
G37*
X73267027Y95212229D02*
X73729979Y94902895D01*
X74276068Y94794271D01*
X74276069Y94794271D01*
X76026069Y94794272D01*
X79668486Y94794271D01*
X79873374Y94589025D01*
X80581184Y94295116D01*
X81347589Y94294447D01*
X81549868Y94378027D01*
X81449068Y93871271D01*
X81449068Y87362354D01*
X79771584Y85684871D01*
X79794738Y85801272D01*
X79663278Y86462166D01*
X79288911Y87022445D01*
X79215836Y87071272D01*
X79288911Y87120099D01*
X79663278Y87680378D01*
X79794738Y88341272D01*
X79663278Y89002166D01*
X79288911Y89562445D01*
X78728632Y89936812D01*
X78067738Y90068272D01*
X77184398Y90068272D01*
X76523504Y89936812D01*
X76478608Y89906813D01*
X74953068Y91432353D01*
X74953068Y91621270D01*
X74844445Y92167359D01*
X74844443Y92167363D01*
X74535109Y92630313D01*
X72685109Y94480313D01*
X72222157Y94789648D01*
X71676068Y94898272D01*
X69817150Y94898272D01*
X69153068Y95562354D01*
X69153068Y97724308D01*
X69538081Y97723972D01*
X70173056Y97986338D01*
X70333127Y98146130D01*
X73267027Y95212229D01*
M02*
