M48
;DRILL file {KiCad 4.0.7-e2-6376~58~ubuntu14.04.1} date Mon Feb 26 15:39:48 2018
;FORMAT={-:-/ absolute / metric / decimal}
FMAT,2
METRIC,TZ
T1C0.800
T2C0.800
T3C0.900
T4C1.100
T5C1.270
T6C1.300
T7C1.520
T8C1.524
T9C2.200
%
G90
G05
M71
T1
X3.246Y99.451
X3.966Y64.971
X4.77Y36.42
X4.77Y33.92
X8.27Y27.42
X8.27Y19.8
X9.776Y62.721
X10.77Y40.42
X10.77Y37.92
X12.276Y62.721
X12.626Y111.221
X12.676Y98.321
X12.946Y73.951
X13.02Y46.23
X13.026Y150.721
X13.026Y145.721
X13.776Y56.721
X14.776Y114.721
X15.526Y111.091
X15.526Y103.471
X15.776Y128.221
X15.906Y142.841
X15.906Y140.301
X15.906Y137.761
X15.906Y135.221
X15.946Y99.451
X16.276Y56.721
X16.756Y88.341
X16.756Y85.801
X16.756Y83.261
X16.756Y80.721
X17.476Y96.021
X17.476Y91.021
X18.066Y111.091
X18.066Y103.471
X19.526Y150.971
X19.776Y114.721
X20.276Y94.221
X20.276Y88.221
X20.606Y111.091
X20.606Y103.471
X20.776Y117.721
X22.Y37.25
X22.776Y60.221
X23.146Y111.091
X23.146Y103.471
X23.276Y128.221
X23.276Y100.471
X23.276Y92.971
X23.526Y142.841
X23.526Y140.301
X23.526Y137.761
X23.526Y135.221
X24.376Y88.341
X24.376Y85.801
X24.376Y83.261
X24.376Y80.721
X25.776Y117.721
X26.696Y113.701
X27.026Y150.971
X27.776Y87.471
X27.776Y82.471
X28.77Y33.44
X28.77Y25.82
X30.276Y110.221
X30.396Y60.221
X30.52Y22.42
X31.31Y33.44
X31.31Y25.82
X33.85Y33.44
X33.85Y25.82
X34.276Y89.221
X34.276Y87.221
X35.27Y15.92
X35.52Y22.42
X36.27Y29.92
X36.39Y33.44
X36.39Y25.82
X37.27Y15.92
X37.526Y107.221
X37.526Y99.721
X38.776Y126.721
X39.07Y32.72
X41.02Y26.92
X42.27Y29.92
X43.776Y126.721
X44.07Y32.72
X46.37Y37.52
X47.5Y46.95
X47.5Y34.25
X47.77Y12.67
X48.52Y26.92
X51.52Y34.67
X51.52Y32.13
X51.52Y29.59
X51.52Y27.05
X55.27Y12.67
X56.496Y99.451
X57.216Y64.971
X58.27Y19.92
X59.14Y34.67
X59.14Y32.13
X59.14Y29.59
X59.14Y27.05
X59.27Y37.57
X61.75Y23.5
X62.77Y35.42
X62.77Y30.42
X63.026Y62.721
X65.526Y62.721
X65.77Y29.42
X65.77Y24.42
X65.876Y111.221
X65.926Y98.321
X66.196Y73.951
X66.276Y150.721
X66.276Y145.721
X67.026Y56.721
X68.026Y114.721
X68.776Y111.091
X68.776Y103.471
X69.026Y128.221
X69.156Y142.841
X69.156Y140.301
X69.156Y137.761
X69.156Y135.221
X69.196Y99.451
X69.526Y56.721
X70.006Y88.341
X70.006Y85.801
X70.006Y83.261
X70.006Y80.721
X70.726Y96.021
X70.726Y91.021
X71.316Y111.091
X71.316Y103.471
X72.776Y150.971
X73.026Y114.721
X73.526Y94.221
X73.526Y88.221
X73.856Y111.091
X73.856Y103.471
X74.026Y117.721
X74.77Y11.42
X74.77Y6.42
X76.026Y60.221
X76.27Y34.42
X76.27Y26.92
X76.396Y111.091
X76.396Y103.471
X76.526Y128.221
X76.526Y100.471
X76.526Y92.971
X76.776Y142.841
X76.776Y140.301
X76.776Y137.761
X76.776Y135.221
X77.626Y88.341
X77.626Y85.801
X77.626Y83.261
X77.626Y80.721
X79.026Y117.721
X79.946Y113.701
X80.276Y150.971
X81.026Y87.471
X81.026Y82.471
X83.27Y34.29
X83.27Y26.67
X83.526Y110.221
X83.646Y60.221
X85.81Y34.29
X85.81Y26.67
X87.526Y89.221
X87.526Y87.221
X88.35Y34.29
X88.35Y26.67
X90.776Y107.221
X90.776Y99.721
X90.89Y34.29
X90.89Y26.67
X92.026Y126.721
X93.77Y37.17
X97.026Y126.721
X98.77Y37.17
X99.02Y30.67
X99.02Y23.17
T2
X5.27Y27.73
X5.27Y20.11
X11.41Y33.37
X15.216Y131.471
X15.776Y125.531
X15.776Y117.911
X16.716Y77.321
X16.716Y74.121
X16.826Y70.981
X16.826Y63.361
X19.03Y33.37
X19.216Y146.471
X22.17Y33.48
X22.17Y25.86
X22.466Y57.221
X22.836Y131.471
X23.466Y121.721
X24.336Y77.321
X24.336Y74.121
X25.37Y33.48
X25.37Y25.86
X26.836Y146.471
X27.026Y143.281
X27.026Y135.661
X27.466Y126.721
X27.716Y96.221
X27.776Y107.031
X27.776Y99.411
X30.086Y57.221
X31.026Y107.031
X31.026Y99.411
X31.086Y121.721
X34.276Y107.031
X34.276Y99.411
X35.086Y126.721
X35.336Y96.221
X39.666Y116.821
X44.27Y22.48
X44.27Y14.86
X47.286Y116.821
X47.46Y22.42
X47.46Y19.17
X47.46Y15.92
X55.08Y22.42
X55.08Y19.17
X55.08Y15.92
X64.87Y10.53
X64.87Y2.91
X65.96Y34.42
X68.466Y131.471
X69.026Y125.531
X69.026Y117.911
X69.77Y26.73
X69.77Y19.11
X69.966Y77.321
X69.966Y74.121
X70.076Y70.981
X70.076Y63.361
X72.466Y146.471
X73.58Y34.42
X74.77Y22.73
X74.77Y15.11
X75.716Y57.221
X76.086Y131.471
X76.716Y121.721
X77.586Y77.321
X77.586Y74.121
X79.52Y34.98
X79.52Y27.36
X80.086Y146.471
X80.276Y143.281
X80.276Y135.661
X80.716Y126.721
X80.966Y96.221
X81.026Y107.031
X81.026Y99.411
X83.336Y57.221
X83.71Y23.17
X84.276Y107.031
X84.276Y99.411
X84.336Y121.721
X87.526Y107.031
X87.526Y99.411
X88.336Y126.721
X88.586Y96.221
X91.33Y23.17
X92.916Y116.821
X94.52Y30.98
X94.52Y23.36
X100.536Y116.821
T3
X13.77Y27.27
X16.31Y27.27
X22.926Y68.261
X22.926Y65.721
X76.176Y68.261
X76.176Y65.721
T4
X7.77Y16.17
X7.77Y8.55
X25.906Y131.471
X33.526Y131.471
X34.026Y59.721
X37.776Y131.471
X41.646Y59.721
X45.396Y131.471
X79.156Y131.471
X79.52Y24.29
X79.52Y16.67
X79.52Y12.42
X79.52Y4.8
X86.776Y131.471
X87.276Y59.721
X91.026Y131.471
X94.896Y59.721
X98.646Y131.471
T5
X18.77Y12.17
X38.026Y70.721
X38.776Y142.221
X90.27Y11.42
X91.276Y70.721
X92.026Y142.221
T6
X35.Y3.75
X40.Y3.75
X45.Y3.75
X46.5Y96.75
X46.5Y91.75
X46.5Y86.75
X99.75Y96.75
X99.75Y91.75
X99.75Y86.75
T7
X7.696Y88.701
X7.696Y83.621
X7.696Y78.541
X26.59Y42.5
X31.67Y42.5
X36.75Y42.5
X60.946Y88.701
X60.946Y83.621
X60.946Y78.541
T8
X12.42Y18.52
X12.42Y5.82
X25.12Y18.52
X25.12Y5.82
X31.676Y77.071
X31.676Y64.371
X32.426Y148.571
X32.426Y135.871
X44.376Y77.071
X44.376Y64.371
X45.126Y148.571
X45.126Y135.871
X83.92Y17.77
X83.92Y5.07
X84.926Y77.071
X84.926Y64.371
X85.676Y148.571
X85.676Y135.871
X96.62Y17.77
X96.62Y5.07
X97.626Y77.071
X97.626Y64.371
X98.376Y148.571
X98.376Y135.871
T9
X4.75Y4.5
X5.25Y44.5
X5.696Y57.201
X6.696Y148.701
X45.696Y56.701
X45.776Y121.971
X58.946Y57.201
X59.946Y148.701
X70.02Y4.42
X96.75Y43.5
X98.946Y56.701
X99.026Y121.971
T0
M30
