G04 #@! TF.FileFunction,Copper,L1,Top,Signal*
%FSLAX46Y46*%
G04 Gerber Fmt 4.6, Leading zero omitted, Abs format (unit mm)*
G04 Created by KiCad (PCBNEW 4.0.7-e2-6376~58~ubuntu14.04.1) date Mon Feb 26 15:39:35 2018*
%MOMM*%
%LPD*%
G01*
G04 APERTURE LIST*
%ADD10C,0.100000*%
%ADD11C,1.000000*%
%ADD12C,1.000000*%
G04 APERTURE END LIST*
D10*
D11*
X20276068Y88221272D03*
X20276067Y94221271D03*
X27776068Y87471271D03*
X27776068Y82471272D03*
X81026068Y82471272D03*
X81026068Y87471271D03*
X73526067Y94221271D03*
X73526068Y88221272D03*
X36270000Y29920000D03*
X42270000Y29920000D03*
X35520000Y22420000D03*
X30520000Y22420000D03*
X12626069Y111221272D03*
X12676068Y98321272D03*
X65926068Y98321272D03*
X65876069Y111221272D03*
X59270000Y37569998D03*
X46370000Y37520000D03*
X30276068Y110221272D03*
X26696068Y113701271D03*
X79946068Y113701271D03*
X83526068Y110221272D03*
X58270000Y19920000D03*
X61750000Y23500000D03*
D12*
X20276068Y88221272D02*
X20276067Y94221271D01*
X27776068Y87471271D02*
X27776068Y82471272D01*
X81026068Y87471271D02*
X81026068Y82471272D01*
X73526068Y88221272D02*
X73526067Y94221271D01*
X36270000Y29920000D02*
X42270000Y29920000D01*
X35520000Y22420000D02*
X30520000Y22420000D01*
X12626069Y111221272D02*
X12626069Y105571274D01*
X12626069Y103721272D02*
X12626070Y103671270D01*
X12626070Y103671271D02*
X12626069Y103721272D01*
X12626069Y105571274D02*
X12626070Y103671271D01*
X12626070Y98371270D02*
X12676068Y98321272D01*
X12626070Y103671271D02*
X12626070Y98371270D01*
X65876070Y103671271D02*
X65876070Y98371270D01*
X65876070Y98371270D02*
X65926068Y98321272D01*
X65876069Y105571274D02*
X65876070Y103671271D01*
X65876070Y103671271D02*
X65876069Y103721272D01*
X65876069Y103721272D02*
X65876070Y103671270D01*
X65876069Y111221272D02*
X65876069Y105571274D01*
X59270000Y37569998D02*
X53620002Y37569998D01*
X51770000Y37569998D02*
X51719998Y37569998D01*
X51720000Y37569998D02*
X51770000Y37569998D01*
X53620002Y37569998D02*
X51720000Y37569998D01*
X46419998Y37569998D02*
X46370000Y37520000D01*
X51720000Y37569998D02*
X46419998Y37569998D01*
X26796068Y113701272D02*
X26696068Y113701271D01*
X30276068Y110221272D02*
X26796068Y113701272D01*
X83526068Y110221272D02*
X80046068Y113701272D01*
X80046068Y113701272D02*
X79946068Y113701271D01*
X61750000Y23400000D02*
X61750000Y23500000D01*
X58270000Y19920000D02*
X61750000Y23400000D01*
M02*
