M48
;DRILL file {KiCad (5.0.0-rc2-dev-493-gd776eaca8)} date Tue May 22 09:38:22 2018
;FORMAT={-:-/ absolute / metric / decimal}
FMAT,2
METRIC,TZ
T1C0.800
T2C0.800
T3C0.900
T4C1.016
T5C1.100
T6C1.520
T7C1.524
%
G90
G05
M71
T1
X7.692Y29.7
X7.832Y39.13
X23.764Y5.942
X25.812Y20.93
X30.512Y41.03
X33.67Y5.942
X34.712Y20.83
X36.512Y41.03
X37.212Y21.53
X42.312Y21.53
X42.902Y13.33
X52.112Y21.53
X52.112Y13.53
X55.112Y47.43
X61.002Y44.94
X61.012Y37.73
X63.896Y11.784
X65.342Y47.47
X73.294Y11.784
X73.512Y37.73
X73.512Y26.73
X28.032Y37.77
X28.032Y30.15
X30.572Y37.77
X30.572Y30.15
X33.112Y37.77
X33.112Y30.15
X35.652Y37.77
X35.652Y30.15
X16.012Y38.83
X16.012Y36.33
X66.112Y22.13
X66.112Y17.13
X62.712Y34.35
X62.712Y26.73
X65.252Y34.35
X65.252Y26.73
X67.792Y34.35
X67.792Y26.73
X70.332Y34.35
X70.332Y26.73
X11.382Y25.12
X19.002Y25.12
X38.302Y36.
X45.802Y36.
X53.812Y30.71
X53.812Y28.17
X53.812Y25.63
X27.512Y18.95
X27.512Y11.33
X30.052Y18.95
X30.052Y11.33
X32.592Y18.95
X32.592Y11.33
X35.132Y18.95
X35.132Y11.33
X37.672Y18.95
X37.672Y11.33
X40.212Y18.95
X40.212Y11.33
X42.752Y18.95
X42.752Y11.33
X45.292Y18.95
X45.292Y11.33
X7.742Y27.95
X7.742Y22.95
X59.212Y33.73
X59.212Y28.73
X10.032Y44.75
X10.032Y42.25
X52.362Y42.38
X52.362Y39.88
X16.512Y47.33
X16.512Y42.33
X28.762Y8.08
X33.762Y8.08
X60.086Y49.63
X65.086Y49.63
X78.628Y37.612
X78.628Y32.612
T2
X58.862Y22.06
X58.862Y14.44
X76.512Y22.04
X76.512Y14.42
X21.432Y37.81
X21.432Y30.19
X54.612Y21.24
X54.612Y13.62
X7.762Y20.24
X7.762Y12.62
X42.94Y6.75
X50.56Y6.75
X14.312Y20.25
X14.312Y12.63
X24.632Y37.81
X24.632Y30.19
X75.392Y29.66
X83.012Y29.66
X50.012Y19.08
X50.012Y11.46
X21.372Y25.08
X28.992Y25.08
X62.912Y22.14
X62.912Y14.52
X10.012Y39.14
X10.012Y31.52
X17.414Y20.24
X17.414Y12.62
X51.082Y36.76
X58.702Y36.76
X40.202Y26.83
X47.822Y26.83
X21.224Y48.64
X21.224Y41.02
X40.512Y49.64
X40.512Y42.02
X40.274Y32.358
X47.894Y32.358
X37.802Y23.93
X45.422Y23.93
X11.262Y20.2
X11.262Y12.58
X48.412Y49.64
X48.412Y42.02
X40.202Y29.73
X47.822Y29.73
X35.942Y3.75
X43.562Y3.75
T3
X12.972Y31.33
X15.512Y31.33
T4
X6.432Y7.906
X8.972Y7.906
X11.512Y7.906
X14.052Y7.906
X16.592Y7.906
T5
X44.312Y49.75
X44.312Y42.13
X73.412Y22.33
X73.412Y14.71
X79.942Y22.04
X79.942Y14.42
X69.812Y22.28
X69.812Y14.66
T6
X25.852Y46.83
X30.932Y46.83
X36.012Y46.83
T7
X59.572Y8.83
X64.652Y8.83
X71.472Y8.83
X76.552Y8.83
T0
M30
