G04 #@! TF.FileFunction,Copper,L2,Bot,Signal*
%FSLAX46Y46*%
G04 Gerber Fmt 4.6, Leading zero omitted, Abs format (unit mm)*
G04 Created by KiCad (PCBNEW 4.0.7-e2-6376~58~ubuntu14.04.1) date Thu Mar  1 13:22:35 2018*
%MOMM*%
%LPD*%
G01*
G04 APERTURE LIST*
%ADD10C,0.100000*%
%ADD11C,1.600000*%
%ADD12O,1.600000X1.600000*%
%ADD13R,1.600000X1.600000*%
%ADD14C,1.600000*%
%ADD15R,1.800000X1.800000*%
%ADD16C,1.800000*%
%ADD17R,2.200000X2.200000*%
%ADD18O,2.200000X2.200000*%
%ADD19C,3.810000*%
%ADD20C,3.556000*%
%ADD21R,3.000000X3.000000*%
%ADD22C,3.000000*%
%ADD23C,2.400000*%
%ADD24O,2.400000X2.400000*%
%ADD25C,1.998980*%
%ADD26R,2.400000X1.600000*%
%ADD27O,2.400000X1.600000*%
%ADD28R,1.600000X2.400000*%
%ADD29O,1.600000X2.400000*%
%ADD30R,1.700000X1.700000*%
%ADD31O,1.700000X1.700000*%
%ADD32C,1.000000*%
%ADD33C,1.000000*%
%ADD34C,0.254000*%
G04 APERTURE END LIST*
D10*
D11*
X16950000Y44200000D03*
D12*
X4250000Y44200000D03*
D13*
X26000000Y43000000D03*
D11*
X26000000Y40500000D03*
X39850000Y39450000D03*
X39850000Y44450000D03*
X58500000Y28200000D03*
X58500000Y33200000D03*
D13*
X32500000Y38000000D03*
D11*
X32500000Y40500000D03*
D13*
X52300000Y31800000D03*
D11*
X52300000Y29300000D03*
X36400000Y18600000D03*
X36400000Y23600000D03*
X47000000Y36500000D03*
X52000000Y36500000D03*
X48000000Y21000000D03*
X48000000Y16000000D03*
X57100000Y19200000D03*
X57100000Y14200000D03*
D13*
X32900000Y27000000D03*
D12*
X32900000Y34620000D03*
D13*
X32800000Y21900000D03*
D12*
X32800000Y14280000D03*
D10*
G36*
X52643629Y47350000D02*
X53775000Y48481371D01*
X54906371Y47350000D01*
X53775000Y46218629D01*
X52643629Y47350000D01*
X52643629Y47350000D01*
G37*
D14*
X59163154Y41961846D02*
X59163154Y41961846D01*
D15*
X83600000Y30725000D03*
D16*
X86140000Y30725000D03*
D17*
X70500000Y33500000D03*
D18*
X70500000Y41120000D03*
D19*
X5650000Y20850000D03*
D20*
X12000000Y14500000D03*
D19*
X18350000Y20850000D03*
X5650000Y8150000D03*
X18350000Y8150000D03*
D21*
X34000000Y49000000D03*
D22*
X28920000Y49000000D03*
X23840000Y49000000D03*
D19*
X78400000Y20850000D03*
D20*
X84750000Y14500000D03*
D19*
X91100000Y20850000D03*
X78400000Y8150000D03*
X91100000Y8150000D03*
D23*
X25000000Y27000000D03*
D24*
X4680000Y27000000D03*
D23*
X25000000Y34500000D03*
D24*
X4680000Y34500000D03*
D11*
X16950000Y40050000D03*
D12*
X4250000Y40050000D03*
D25*
X29700000Y26890000D03*
X29700000Y34510000D03*
X29200000Y14090000D03*
X29200000Y21710000D03*
X25000000Y14190000D03*
X25000000Y21810000D03*
X25190000Y10500000D03*
X32810000Y10500000D03*
X61900000Y30965000D03*
X61900000Y38585000D03*
X62690000Y47500000D03*
X70310000Y47500000D03*
X73110000Y25200000D03*
X65490000Y25200000D03*
X32810000Y7500000D03*
X25190000Y7500000D03*
X63444077Y41980923D03*
X58055923Y47369077D03*
X47800000Y24190000D03*
X47800000Y31810000D03*
X51000000Y24310000D03*
X51000000Y16690000D03*
X72650000Y15435000D03*
X72650000Y7815000D03*
X74305923Y38694077D03*
X79694077Y33305923D03*
X65490000Y22000000D03*
X73110000Y22000000D03*
X73110000Y28300000D03*
X65490000Y28300000D03*
D26*
X36500000Y34500000D03*
D27*
X44120000Y26880000D03*
X36500000Y31960000D03*
X44120000Y29420000D03*
X36500000Y29420000D03*
X44120000Y31960000D03*
X36500000Y26880000D03*
X44120000Y34500000D03*
D28*
X50450000Y47425000D03*
D29*
X42830000Y39805000D03*
X47910000Y47425000D03*
X45370000Y39805000D03*
X45370000Y47425000D03*
X47910000Y39805000D03*
X42830000Y47425000D03*
X50450000Y39805000D03*
D28*
X60400000Y11500000D03*
D29*
X68020000Y19120000D03*
X62940000Y11500000D03*
X65480000Y19120000D03*
X65480000Y11500000D03*
X62940000Y19120000D03*
X68020000Y11500000D03*
X60400000Y19120000D03*
D30*
X68500000Y54000000D03*
D31*
X65960000Y54000000D03*
D11*
X79600000Y49950000D03*
X82140000Y49950000D03*
X84680000Y49950000D03*
X45250000Y8250000D03*
X47790000Y8250000D03*
X50330000Y8250000D03*
D32*
X30500000Y43500000D03*
X35500000Y43500000D03*
X37600000Y37800000D03*
X41000000Y34500000D03*
X55250000Y26650000D03*
X60250000Y21500000D03*
X64725000Y31350000D03*
X72000000Y38500000D03*
X43750000Y23750000D03*
X43750000Y18500000D03*
X41250000Y27750000D03*
X41250000Y6500000D03*
X41250000Y10750000D03*
X41250000Y23750000D03*
X53800000Y13650000D03*
X53800000Y21550000D03*
X54500000Y50500000D03*
X50000000Y50500000D03*
D33*
X11750000Y39000000D02*
X11600000Y38850000D01*
X11600000Y38850000D02*
X11600000Y20400000D01*
X19000000Y12000000D02*
X14900000Y12000000D01*
X14900000Y12000000D02*
X13100000Y10200000D01*
X13100000Y10200000D02*
X10000000Y10200000D01*
X10000000Y10200000D02*
X7900000Y12300000D01*
X7900000Y12300000D02*
X7900000Y16700000D01*
X7900000Y16700000D02*
X11600000Y20400000D01*
X16950000Y44200000D02*
X11750000Y39000000D01*
X16950000Y44200000D02*
X20800000Y40350000D01*
X23575000Y40400000D02*
X25900000Y40400000D01*
X23525000Y40350000D02*
X23575000Y40400000D01*
X20800000Y40350000D02*
X23525000Y40350000D01*
X35500000Y43500000D02*
X37275000Y41725000D01*
X38600000Y41725000D02*
X37275000Y41725000D01*
X27500000Y40500000D02*
X26000000Y40500000D01*
X27500000Y40500000D02*
X30500000Y43500000D01*
X19000000Y12000000D02*
X21500000Y12000000D01*
X25500000Y2500000D02*
X22500000Y5500000D01*
X25500000Y2500000D02*
X62000000Y2500000D01*
X22500000Y11000000D02*
X22500000Y5500000D01*
X21500000Y12000000D02*
X22500000Y11000000D01*
X68020000Y11500000D02*
X68020000Y8520000D01*
X68020000Y8520000D02*
X62000000Y2500000D01*
X25900000Y40400000D02*
X26000000Y40500000D01*
X38600000Y41725000D02*
X39850000Y42975000D01*
X39850000Y42975000D02*
X39850000Y44450000D01*
X42830000Y44005000D02*
X42830000Y47425000D01*
X41075000Y42250000D02*
X42830000Y44005000D01*
X39125000Y42250000D02*
X41075000Y42250000D01*
X38600000Y41725000D02*
X39125000Y42250000D01*
X19100000Y12000000D02*
X19000000Y12000000D01*
X36400000Y23600000D02*
X36400000Y21400000D01*
X36400000Y21400000D02*
X32000000Y17000000D01*
X32000000Y17000000D02*
X24100000Y17000000D01*
X24100000Y17000000D02*
X19100000Y12000000D01*
X36500000Y26880000D02*
X37080000Y26880000D01*
X36500000Y23200000D02*
X36500000Y26880000D01*
X44120000Y34500000D02*
X48425000Y34500000D01*
X41000000Y34500000D02*
X44120000Y34500000D01*
X56200000Y33400000D02*
X55100000Y34500000D01*
X56200000Y27600000D02*
X56200000Y33400000D01*
X55250000Y26650000D02*
X56200000Y27600000D01*
X61400000Y21500000D02*
X60250000Y21500000D01*
X37600000Y37800000D02*
X32700000Y37800000D01*
X32700000Y37800000D02*
X32500000Y38000000D01*
X52000000Y36500000D02*
X50475000Y36500000D01*
X50475000Y36500000D02*
X50450000Y36525000D01*
X72000000Y38500000D02*
X72194077Y38694077D01*
X64340000Y30965000D02*
X64725000Y31350000D01*
X61900000Y30965000D02*
X64340000Y30965000D01*
X72194077Y38694077D02*
X74305923Y38694077D01*
X61900000Y30965000D02*
X61900000Y22000000D01*
X61900000Y22000000D02*
X61400000Y21500000D01*
X50450000Y39805000D02*
X50450000Y36525000D01*
X50450000Y36525000D02*
X48425000Y34500000D01*
X58500000Y33200000D02*
X56400000Y33200000D01*
X56400000Y33200000D02*
X55100000Y34500000D01*
X16950000Y40050000D02*
X19200000Y37800000D01*
X19200000Y37800000D02*
X37600000Y37800000D01*
X55100000Y34500000D02*
X48425000Y34500000D01*
X62940000Y19120000D02*
X62940000Y19960000D01*
X62940000Y19960000D02*
X61400000Y21500000D01*
X47790000Y8250000D02*
X50330000Y8250000D01*
X47790000Y8250000D02*
X47790000Y9960000D01*
X43750000Y14000000D02*
X43750000Y18500000D01*
X47790000Y9960000D02*
X43750000Y14000000D01*
X43750000Y23750000D02*
X44500000Y24500000D01*
X44500000Y24500000D02*
X45000000Y24500000D01*
X52300000Y31800000D02*
X53200000Y31800000D01*
X45000000Y24500000D02*
X47400000Y26900000D01*
X53200000Y31800000D02*
X54300000Y30700000D01*
X54300000Y30700000D02*
X54300000Y28400000D01*
X54300000Y28400000D02*
X52800000Y26900000D01*
X52800000Y26900000D02*
X47400000Y26900000D01*
X52300000Y31800000D02*
X47810000Y31800000D01*
X47810000Y31800000D02*
X47800000Y31810000D01*
X47800000Y31810000D02*
X47650000Y31960000D01*
X47650000Y31960000D02*
X44120000Y31960000D01*
X41250000Y23750000D02*
X41250000Y10750000D01*
X41200000Y6000000D02*
X41200000Y6450000D01*
X41200000Y6450000D02*
X41250000Y6500000D01*
X39900000Y4700000D02*
X41200000Y6000000D01*
X26800000Y4700000D02*
X39900000Y4700000D01*
X25190000Y6310000D02*
X26800000Y4700000D01*
X25190000Y6310000D02*
X25190000Y7500000D01*
X25000000Y14190000D02*
X25000000Y10690000D01*
X25000000Y10690000D02*
X25190000Y10500000D01*
X52300000Y29300000D02*
X44240000Y29300000D01*
X41250000Y27750000D02*
X42920000Y29420000D01*
X42920000Y29420000D02*
X44120000Y29420000D01*
X44240000Y29300000D02*
X44120000Y29420000D01*
X42920000Y29420000D02*
X44120000Y29420000D01*
X25190000Y7500000D02*
X25190000Y10500000D01*
X51000000Y24310000D02*
X53760000Y21550000D01*
X53800000Y13650000D02*
X53800000Y12000000D01*
X53760000Y21550000D02*
X53800000Y21550000D01*
X53800000Y12000000D02*
X57000000Y8800000D01*
X57000000Y8800000D02*
X64200000Y8800000D01*
X64200000Y8800000D02*
X65480000Y10080000D01*
X65480000Y11500000D02*
X65480000Y10080000D01*
X47900000Y20900000D02*
X47900000Y24090000D01*
X47900000Y24090000D02*
X47800000Y24190000D01*
X47800000Y24190000D02*
X50480000Y24190000D01*
X50480000Y24190000D02*
X50490000Y24200000D01*
X65490000Y28300000D02*
X65490000Y25200000D01*
X57100000Y19200000D02*
X57100000Y18400000D01*
X57100000Y18400000D02*
X58700000Y16800000D01*
X58700000Y16800000D02*
X64600000Y16800000D01*
X64600000Y16800000D02*
X65480000Y17680000D01*
X65480000Y17680000D02*
X65480000Y19120000D01*
X65490000Y22000000D02*
X65490000Y25290000D01*
X65490000Y25290000D02*
X65500000Y25300000D01*
X65490000Y22000000D02*
X65490000Y19130000D01*
X65490000Y19130000D02*
X65480000Y19120000D01*
X72650000Y15435000D02*
X70342500Y17742500D01*
X70400000Y17750000D02*
X70400000Y17800000D01*
X70392500Y17742500D02*
X70400000Y17750000D01*
X70342500Y17742500D02*
X70392500Y17742500D01*
X66800000Y14200000D02*
X68035000Y15435000D01*
X73110000Y22000000D02*
X73110000Y20510000D01*
X66800000Y14200000D02*
X61500000Y14200000D01*
X73110000Y20510000D02*
X70400000Y17800000D01*
X70400000Y17800000D02*
X66800000Y14200000D01*
X57100000Y14200000D02*
X61500000Y14200000D01*
X62940000Y12760000D02*
X62940000Y11500000D01*
X61500000Y14200000D02*
X62940000Y12760000D01*
X29200000Y21710000D02*
X29200000Y26390000D01*
X29200000Y26390000D02*
X29700000Y26890000D01*
X32900000Y27000000D02*
X32900000Y29900000D01*
X34960000Y31960000D02*
X36500000Y31960000D01*
X32900000Y29900000D02*
X34960000Y31960000D01*
X29700000Y26890000D02*
X32840000Y26940000D01*
X32840000Y26940000D02*
X32900000Y27000000D01*
X32800000Y21900000D02*
X32800000Y20500000D01*
X27500000Y29220000D02*
X32900000Y34620000D01*
X27500000Y25600000D02*
X27500000Y29220000D01*
X27100000Y25200000D02*
X27500000Y25600000D01*
X27100000Y20500000D02*
X27100000Y25200000D01*
X28800000Y18800000D02*
X27100000Y20500000D01*
X31100000Y18800000D02*
X28800000Y18800000D01*
X32800000Y20500000D02*
X31100000Y18800000D01*
X32900000Y34620000D02*
X33020000Y34500000D01*
X33020000Y34500000D02*
X36500000Y34500000D01*
X32810000Y10500000D02*
X32810000Y14270000D01*
X32810000Y14270000D02*
X32800000Y14280000D01*
X32900000Y14280000D02*
X29390000Y14280000D01*
X29390000Y14280000D02*
X29200000Y14090000D01*
X32500000Y10500000D02*
X32810000Y10500000D01*
X67500000Y40500000D02*
X77275000Y30725000D01*
X61500000Y52500000D02*
X67500000Y46500000D01*
X67500000Y46500000D02*
X67500000Y40500000D01*
X52000000Y47425000D02*
X52000000Y51500000D01*
X52000000Y51500000D02*
X53000000Y52500000D01*
X53000000Y52500000D02*
X61500000Y52500000D01*
X77275000Y30725000D02*
X83600000Y30725000D01*
X50450000Y47425000D02*
X52000000Y47425000D01*
X52000000Y47425000D02*
X53650000Y47425000D01*
X63444077Y41980923D02*
X59182231Y41980923D01*
X59182231Y41980923D02*
X59163154Y41961846D01*
X79694077Y33305923D02*
X80000000Y33000000D01*
X80000000Y33000000D02*
X85000000Y33000000D01*
X85000000Y33000000D02*
X86140000Y31860000D01*
X86140000Y31860000D02*
X86140000Y30725000D01*
X70500000Y33500000D02*
X70500000Y30910000D01*
X70500000Y30910000D02*
X73110000Y28300000D01*
X70500000Y33100000D02*
X70500000Y33500000D01*
X73110000Y28300000D02*
X76200000Y28300000D01*
X76200000Y28300000D02*
X84750000Y19750000D01*
X84750000Y19750000D02*
X84750000Y14500000D01*
X29700000Y34510000D02*
X25010000Y34510000D01*
X25010000Y34510000D02*
X25000000Y34500000D01*
X19000000Y14500000D02*
X25000000Y20500000D01*
X12000000Y14500000D02*
X19000000Y14500000D01*
X25000000Y20500000D02*
X25000000Y21810000D01*
X25000000Y27000000D02*
X25000000Y34500000D01*
X25000000Y21810000D02*
X25000000Y27000000D01*
X29640000Y34450000D02*
X29700000Y34510000D01*
X26220000Y51700000D02*
X27450000Y51700000D01*
X10450000Y44200000D02*
X15000000Y48750000D01*
X15000000Y48750000D02*
X19500000Y48750000D01*
X19500000Y48750000D02*
X22450000Y51700000D01*
X4250000Y44200000D02*
X10450000Y44200000D01*
X22450000Y51700000D02*
X25600000Y51700000D01*
X25600000Y51700000D02*
X26220000Y51700000D01*
X27450000Y51700000D02*
X28920000Y50230000D01*
X28920000Y50230000D02*
X28920000Y49000000D01*
X16000000Y46550000D02*
X21390000Y46550000D01*
X9600000Y40150000D02*
X16000000Y46550000D01*
X23840000Y49000000D02*
X21690000Y46850000D01*
X9500000Y40050000D02*
X9600000Y40150000D01*
X9500000Y40050000D02*
X4250000Y40050000D01*
X21390000Y46550000D02*
X21690000Y46850000D01*
X82140000Y49950000D02*
X79600000Y49950000D01*
X79600000Y49950000D02*
X72550000Y49950000D01*
X72550000Y49950000D02*
X68500000Y54000000D01*
X62690000Y47500000D02*
X62690000Y45075000D01*
X62750000Y45250000D02*
X62750000Y45075000D01*
X62750000Y45135000D02*
X62750000Y45250000D01*
X62690000Y45075000D02*
X62750000Y45135000D01*
X45370000Y47425000D02*
X45370000Y48870000D01*
X54500000Y50500000D02*
X54500000Y50425000D01*
X47000000Y50500000D02*
X50000000Y50500000D01*
X45370000Y48870000D02*
X47000000Y50500000D01*
X58055923Y47369077D02*
X60350000Y45075000D01*
X63710000Y38585000D02*
X61900000Y38585000D01*
X65750000Y40625000D02*
X63710000Y38585000D01*
X65750000Y43100000D02*
X65750000Y40625000D01*
X63775000Y45075000D02*
X65750000Y43100000D01*
X60350000Y45075000D02*
X62750000Y45075000D01*
X62750000Y45075000D02*
X63775000Y45075000D01*
X54500000Y50425000D02*
X54425000Y50425000D01*
X57480923Y47369077D02*
X54425000Y50425000D01*
X58055923Y47369077D02*
X57480923Y47369077D01*
X63375000Y35300000D02*
X68800000Y29875000D01*
X68800000Y29875000D02*
X68800000Y27050000D01*
X47910000Y47425000D02*
X47910000Y44615000D01*
X57900000Y35300000D02*
X63375000Y35300000D01*
X56300000Y36900000D02*
X57900000Y35300000D01*
X56300000Y38425000D02*
X56300000Y36900000D01*
X52550000Y42175000D02*
X56300000Y38425000D01*
X50350000Y42175000D02*
X52550000Y42175000D01*
X47910000Y44615000D02*
X50350000Y42175000D01*
X70650000Y25200000D02*
X73110000Y25200000D01*
X68800000Y27050000D02*
X70650000Y25200000D01*
X32810000Y7500000D02*
X39750000Y7500000D01*
X40500000Y8250000D02*
X45250000Y8250000D01*
X39750000Y7500000D02*
X40500000Y8250000D01*
X87500000Y35000000D02*
X87500000Y47130000D01*
X87500000Y35000000D02*
X89000000Y33500000D01*
X89000000Y33500000D02*
X89000000Y28500000D01*
X72650000Y8650000D02*
X76000000Y12000000D01*
X76000000Y12000000D02*
X81500000Y12000000D01*
X81500000Y12000000D02*
X83000000Y10500000D01*
X83000000Y10500000D02*
X85500000Y10500000D01*
X85500000Y10500000D02*
X88000000Y13000000D01*
X88000000Y13000000D02*
X88000000Y19500000D01*
X88000000Y19500000D02*
X87250000Y20250000D01*
X87250000Y20250000D02*
X87250000Y26750000D01*
X87250000Y26750000D02*
X89000000Y28500000D01*
X87500000Y47130000D02*
X84680000Y49950000D01*
X72650000Y7815000D02*
X72650000Y8650000D01*
D34*
G36*
X97198000Y802000D02*
X802000Y802000D01*
X802000Y44200000D01*
X2693084Y44200000D01*
X2809320Y43615642D01*
X3140332Y43120248D01*
X3635726Y42789236D01*
X4220084Y42673000D01*
X4279916Y42673000D01*
X4864274Y42789236D01*
X5139296Y42973000D01*
X10450000Y42973000D01*
X10746797Y43032037D01*
X8991760Y41277000D01*
X5139296Y41277000D01*
X4864274Y41460764D01*
X4279916Y41577000D01*
X4220084Y41577000D01*
X3635726Y41460764D01*
X3140332Y41129752D01*
X2809320Y40634358D01*
X2693084Y40050000D01*
X2809320Y39465642D01*
X3140332Y38970248D01*
X3635726Y38639236D01*
X4220084Y38523000D01*
X4279916Y38523000D01*
X4864274Y38639236D01*
X5139296Y38823000D01*
X9500000Y38823000D01*
X9969553Y38916400D01*
X10367620Y39182380D01*
X10456867Y39271627D01*
X10373000Y38850000D01*
X10373000Y20908240D01*
X7032380Y17567620D01*
X6766400Y17169553D01*
X6673000Y16700000D01*
X6673000Y12300000D01*
X6766400Y11830447D01*
X7023315Y11445947D01*
X7032380Y11432380D01*
X9132380Y9332380D01*
X9530447Y9066400D01*
X10000000Y8973000D01*
X13100000Y8973000D01*
X13569553Y9066400D01*
X13967620Y9332380D01*
X15408240Y10773000D01*
X20991760Y10773000D01*
X21273000Y10491760D01*
X21273000Y5500000D01*
X21366400Y5030447D01*
X21476013Y4866400D01*
X21632380Y4632380D01*
X24632380Y1632380D01*
X25030448Y1366399D01*
X25500000Y1273000D01*
X62000000Y1273000D01*
X62469553Y1366400D01*
X62867620Y1632380D01*
X68887620Y7652380D01*
X69153601Y8050448D01*
X69247000Y8520000D01*
X69247000Y10202868D01*
X69430764Y10477890D01*
X69547000Y11062248D01*
X69547000Y11937752D01*
X69430764Y12522110D01*
X69099752Y13017504D01*
X68604358Y13348516D01*
X68020000Y13464752D01*
X67745363Y13410123D01*
X70342500Y16007260D01*
X70923502Y15426258D01*
X70923211Y15093087D01*
X71185500Y14458300D01*
X71670745Y13972206D01*
X72305073Y13708810D01*
X72991913Y13708211D01*
X73626700Y13970500D01*
X74112794Y14455745D01*
X74376190Y15090073D01*
X74376789Y15776913D01*
X74114500Y16411700D01*
X73629255Y16897794D01*
X72994927Y17161190D01*
X72658757Y17161483D01*
X72077740Y17742500D01*
X73977620Y19642380D01*
X74243601Y20040448D01*
X74337000Y20510000D01*
X74337000Y20785363D01*
X74572794Y21020745D01*
X74836190Y21655073D01*
X74836789Y22341913D01*
X74574500Y22976700D01*
X74089255Y23462794D01*
X73758796Y23600013D01*
X74086700Y23735500D01*
X74572794Y24220745D01*
X74836190Y24855073D01*
X74836789Y25541913D01*
X74574500Y26176700D01*
X74089255Y26662794D01*
X73879506Y26749889D01*
X74086700Y26835500D01*
X74324616Y27073000D01*
X75691760Y27073000D01*
X83523000Y19241760D01*
X83523000Y16703428D01*
X83332885Y16624874D01*
X82627603Y15920821D01*
X82245436Y15000461D01*
X82244566Y14003911D01*
X82625126Y13082885D01*
X83329179Y12377603D01*
X84249539Y11995436D01*
X85246089Y11994566D01*
X85268647Y12003887D01*
X84991760Y11727000D01*
X83508240Y11727000D01*
X82367620Y12867620D01*
X82312100Y12904717D01*
X81969553Y13133600D01*
X81500000Y13227000D01*
X76000000Y13227000D01*
X75530447Y13133600D01*
X75187900Y12904717D01*
X75132380Y12867620D01*
X71782380Y9517620D01*
X71523064Y9129526D01*
X71187206Y8794255D01*
X70923810Y8159927D01*
X70923211Y7473087D01*
X71185500Y6838300D01*
X71670745Y6352206D01*
X72305073Y6088810D01*
X72991913Y6088211D01*
X73626700Y6350500D01*
X74112794Y6835745D01*
X74376190Y7470073D01*
X74376789Y8156913D01*
X74235090Y8499850D01*
X76508240Y10773000D01*
X80991760Y10773000D01*
X82132380Y9632380D01*
X82530447Y9366400D01*
X83000000Y9273000D01*
X85500000Y9273000D01*
X85969553Y9366400D01*
X86367620Y9632380D01*
X88867620Y12132380D01*
X88930843Y12227000D01*
X89133600Y12530447D01*
X89227000Y13000000D01*
X89227000Y19500000D01*
X89133600Y19969553D01*
X88867620Y20367620D01*
X88477000Y20758240D01*
X88477000Y26241760D01*
X89867620Y27632380D01*
X90133601Y28030448D01*
X90227000Y28500000D01*
X90227000Y33500000D01*
X90133600Y33969553D01*
X89867620Y34367620D01*
X88727000Y35508240D01*
X88727000Y47130000D01*
X88633600Y47599553D01*
X88367620Y47997620D01*
X86207183Y50158057D01*
X86207265Y50252407D01*
X85975283Y50813846D01*
X85546106Y51243773D01*
X84985072Y51476735D01*
X84377593Y51477265D01*
X83816154Y51245283D01*
X83409668Y50839506D01*
X83006106Y51243773D01*
X82445072Y51476735D01*
X81837593Y51477265D01*
X81276154Y51245283D01*
X81207752Y51177000D01*
X80532763Y51177000D01*
X80466106Y51243773D01*
X79905072Y51476735D01*
X79297593Y51477265D01*
X78736154Y51245283D01*
X78667752Y51177000D01*
X73058240Y51177000D01*
X70091242Y54143998D01*
X70091242Y54850000D01*
X70040549Y55119410D01*
X69881328Y55366846D01*
X69638385Y55532843D01*
X69350000Y55591242D01*
X67650000Y55591242D01*
X67380590Y55540549D01*
X67133154Y55381328D01*
X66967157Y55138385D01*
X66908758Y54850000D01*
X66908758Y53150000D01*
X66959451Y52880590D01*
X67118672Y52633154D01*
X67361615Y52467157D01*
X67650000Y52408758D01*
X68356002Y52408758D01*
X71682380Y49082380D01*
X72080447Y48816400D01*
X72550000Y48723000D01*
X78667237Y48723000D01*
X78733894Y48656227D01*
X79294928Y48423265D01*
X79902407Y48422735D01*
X80463846Y48654717D01*
X80532248Y48723000D01*
X81207237Y48723000D01*
X81273894Y48656227D01*
X81834928Y48423265D01*
X82442407Y48422735D01*
X83003846Y48654717D01*
X83410332Y49060494D01*
X83813894Y48656227D01*
X84374928Y48423265D01*
X84471579Y48423181D01*
X86273000Y46621760D01*
X86273000Y35000000D01*
X86366400Y34530447D01*
X86549108Y34257005D01*
X86632380Y34132380D01*
X87773000Y32991760D01*
X87773000Y29008240D01*
X86382380Y27617620D01*
X86116400Y27219553D01*
X86023000Y26750000D01*
X86023000Y20250000D01*
X86116400Y19780447D01*
X86303789Y19500000D01*
X86382380Y19382380D01*
X86773000Y18991760D01*
X86773000Y16019167D01*
X86170821Y16622397D01*
X85977000Y16702879D01*
X85977000Y19750000D01*
X85883600Y20219553D01*
X85617620Y20617620D01*
X77067620Y29167620D01*
X76961973Y29238211D01*
X76669553Y29433600D01*
X76200000Y29527000D01*
X74324637Y29527000D01*
X74089255Y29762794D01*
X73454927Y30026190D01*
X73118757Y30026483D01*
X71727000Y31418240D01*
X71727000Y31682655D01*
X71869410Y31709451D01*
X72116846Y31868672D01*
X72282843Y32111615D01*
X72341242Y32400000D01*
X72341242Y33923518D01*
X76407380Y29857380D01*
X76805448Y29591399D01*
X77275000Y29498000D01*
X82046509Y29498000D01*
X82168672Y29308154D01*
X82411615Y29142157D01*
X82700000Y29083758D01*
X84500000Y29083758D01*
X84769410Y29134451D01*
X85016846Y29293672D01*
X85119677Y29444169D01*
X85217175Y29346501D01*
X85814950Y29098283D01*
X86462211Y29097718D01*
X87060418Y29344892D01*
X87518499Y29802175D01*
X87766717Y30399950D01*
X87767282Y31047211D01*
X87520108Y31645418D01*
X87367000Y31798793D01*
X87367000Y31860000D01*
X87273600Y32329553D01*
X87007620Y32727620D01*
X85867620Y33867620D01*
X85715068Y33969552D01*
X85469553Y34133600D01*
X85000000Y34227000D01*
X81181560Y34227000D01*
X81158577Y34282623D01*
X80673332Y34768717D01*
X80039004Y35032113D01*
X79352164Y35032712D01*
X78717377Y34770423D01*
X78231283Y34285178D01*
X77967887Y33650850D01*
X77967288Y32964010D01*
X78229577Y32329223D01*
X78606141Y31952000D01*
X77783240Y31952000D01*
X72398287Y37336953D01*
X72694131Y37459194D01*
X72702028Y37467077D01*
X73091286Y37467077D01*
X73326668Y37231283D01*
X73960996Y36967887D01*
X74647836Y36967288D01*
X75282623Y37229577D01*
X75768717Y37714822D01*
X76032113Y38349150D01*
X76032712Y39035990D01*
X75770423Y39670777D01*
X75285178Y40156871D01*
X74650850Y40420267D01*
X73964010Y40420866D01*
X73329223Y40158577D01*
X73091307Y39921077D01*
X72194077Y39921077D01*
X71724524Y39827677D01*
X71432242Y39632380D01*
X71326457Y39561697D01*
X71132380Y39367620D01*
X70960407Y39195947D01*
X70836850Y38898390D01*
X68727000Y41008240D01*
X68727000Y46500000D01*
X68633600Y46969553D01*
X68367620Y47367620D01*
X62367620Y53367620D01*
X61969553Y53633600D01*
X61500000Y53727000D01*
X53000000Y53727000D01*
X52530448Y53633601D01*
X52132380Y53367620D01*
X51132380Y52367620D01*
X50866400Y51969553D01*
X50773000Y51500000D01*
X50773000Y51462405D01*
X50695947Y51539593D01*
X50245136Y51726786D01*
X50000000Y51727000D01*
X49999925Y51727000D01*
X49757005Y51727212D01*
X49756492Y51727000D01*
X47000000Y51727000D01*
X46530447Y51633600D01*
X46295682Y51476735D01*
X46132380Y51367620D01*
X44502380Y49737620D01*
X44236400Y49339553D01*
X44143000Y48870000D01*
X44143000Y48722132D01*
X44100000Y48657778D01*
X43909752Y48942504D01*
X43414358Y49273516D01*
X42830000Y49389752D01*
X42245642Y49273516D01*
X41750248Y48942504D01*
X41419236Y48447110D01*
X41303000Y47862752D01*
X41303000Y46987248D01*
X41419236Y46402890D01*
X41603000Y46127868D01*
X41603000Y44513240D01*
X41376859Y44287099D01*
X41377265Y44752407D01*
X41145283Y45313846D01*
X40716106Y45743773D01*
X40155072Y45976735D01*
X39547593Y45977265D01*
X38986154Y45745283D01*
X38556227Y45316106D01*
X38323265Y44755072D01*
X38322735Y44147593D01*
X38554717Y43586154D01*
X38623000Y43517752D01*
X38623000Y43483240D01*
X38091760Y42952000D01*
X37783240Y42952000D01*
X36367620Y44367620D01*
X36367619Y44367620D01*
X36195947Y44539593D01*
X35745136Y44726786D01*
X35500000Y44727000D01*
X35257005Y44727212D01*
X34805869Y44540806D01*
X34460407Y44195947D01*
X34273214Y43745136D01*
X34272788Y43257005D01*
X34459194Y42805869D01*
X34804053Y42460407D01*
X34804566Y42460194D01*
X36407380Y40857380D01*
X36805447Y40591400D01*
X37275000Y40498000D01*
X38600000Y40498000D01*
X39069553Y40591400D01*
X39467620Y40857380D01*
X39633240Y41023000D01*
X41075000Y41023000D01*
X41544553Y41116400D01*
X41942620Y41382380D01*
X43697620Y43137380D01*
X43777551Y43257005D01*
X43963600Y43535447D01*
X44057000Y44005000D01*
X44057000Y46127868D01*
X44100000Y46192222D01*
X44290248Y45907496D01*
X44785642Y45576484D01*
X45370000Y45460248D01*
X45954358Y45576484D01*
X46449752Y45907496D01*
X46640000Y46192222D01*
X46683000Y46127868D01*
X46683000Y44615000D01*
X46776400Y44145447D01*
X46912740Y43941400D01*
X47042380Y43747380D01*
X49428400Y41361360D01*
X49370248Y41322504D01*
X49180000Y41037778D01*
X48989752Y41322504D01*
X48494358Y41653516D01*
X47910000Y41769752D01*
X47325642Y41653516D01*
X46830248Y41322504D01*
X46499236Y40827110D01*
X46383000Y40242752D01*
X46383000Y39367248D01*
X46499236Y38782890D01*
X46830248Y38287496D01*
X47325642Y37956484D01*
X47910000Y37840248D01*
X48494358Y37956484D01*
X48989752Y38287496D01*
X49180000Y38572222D01*
X49223000Y38507868D01*
X49223000Y37033240D01*
X47916760Y35727000D01*
X45417132Y35727000D01*
X45142110Y35910764D01*
X44557752Y36027000D01*
X43682248Y36027000D01*
X43097890Y35910764D01*
X42822868Y35727000D01*
X41000000Y35727000D01*
X40757005Y35727212D01*
X40305869Y35540806D01*
X39960407Y35195947D01*
X39773214Y34745136D01*
X39772788Y34257005D01*
X39959194Y33805869D01*
X40304053Y33460407D01*
X40754864Y33273214D01*
X41000000Y33273000D01*
X41000075Y33273000D01*
X41242995Y33272788D01*
X41243508Y33273000D01*
X42822868Y33273000D01*
X42887222Y33230000D01*
X42602496Y33039752D01*
X42271484Y32544358D01*
X42155248Y31960000D01*
X42271484Y31375642D01*
X42602496Y30880248D01*
X42887222Y30690000D01*
X42781696Y30619490D01*
X42450448Y30553601D01*
X42052380Y30287620D01*
X40382380Y28617620D01*
X40210407Y28445947D01*
X40023214Y27995136D01*
X40022788Y27507005D01*
X40209194Y27055869D01*
X40554053Y26710407D01*
X41004864Y26523214D01*
X41250000Y26523000D01*
X41492995Y26522788D01*
X41944131Y26709194D01*
X42289593Y27054053D01*
X42289806Y27054566D01*
X43220156Y27984916D01*
X43682248Y27893000D01*
X44557752Y27893000D01*
X45142110Y28009236D01*
X45237539Y28073000D01*
X47128522Y28073000D01*
X46930448Y28033601D01*
X46532380Y27767620D01*
X44489714Y25724954D01*
X44030447Y25633600D01*
X43632380Y25367620D01*
X42882380Y24617620D01*
X42710407Y24445947D01*
X42523214Y23995136D01*
X42522788Y23507005D01*
X42709194Y23055869D01*
X43054053Y22710407D01*
X43504864Y22523214D01*
X43750000Y22523000D01*
X43992995Y22522788D01*
X44444131Y22709194D01*
X44789593Y23054053D01*
X44789806Y23054566D01*
X45010286Y23275046D01*
X45469553Y23366400D01*
X45867620Y23632380D01*
X46076169Y23840929D01*
X46335500Y23213300D01*
X46673000Y22875209D01*
X46673000Y21786087D01*
X46473265Y21305072D01*
X46472735Y20697593D01*
X46704717Y20136154D01*
X47133894Y19706227D01*
X47694928Y19473265D01*
X48302407Y19472735D01*
X48863846Y19704717D01*
X49293773Y20133894D01*
X49526735Y20694928D01*
X49527265Y21302407D01*
X49295283Y21863846D01*
X49127000Y22032423D01*
X49127000Y22963000D01*
X49905153Y22963000D01*
X50020745Y22847206D01*
X50655073Y22583810D01*
X50991243Y22583517D01*
X52892380Y20682380D01*
X53012505Y20602115D01*
X53104053Y20510407D01*
X53224782Y20460276D01*
X53290447Y20416400D01*
X53367228Y20401127D01*
X53554864Y20323214D01*
X53759823Y20323035D01*
X53760000Y20323000D01*
X53800000Y20323000D01*
X54042995Y20322788D01*
X54494131Y20509194D01*
X54839593Y20854053D01*
X55026786Y21304864D01*
X55027212Y21792995D01*
X54840806Y22244131D01*
X54495947Y22589593D01*
X54427030Y22618210D01*
X52726498Y24318742D01*
X52726789Y24651913D01*
X52464500Y25286700D01*
X52078875Y25673000D01*
X52800000Y25673000D01*
X53269553Y25766400D01*
X53667620Y26032380D01*
X54028477Y26393237D01*
X54209194Y25955869D01*
X54554053Y25610407D01*
X55004864Y25423214D01*
X55250000Y25423000D01*
X55492995Y25422788D01*
X55944131Y25609194D01*
X56289593Y25954053D01*
X56289806Y25954566D01*
X57067620Y26732380D01*
X57130843Y26827000D01*
X57333600Y27130447D01*
X57427000Y27600000D01*
X57427000Y31973000D01*
X57567237Y31973000D01*
X57633894Y31906227D01*
X58194928Y31673265D01*
X58802407Y31672735D01*
X59363846Y31904717D01*
X59793773Y32333894D01*
X60026735Y32894928D01*
X60027265Y33502407D01*
X59795283Y34063846D01*
X59786145Y34073000D01*
X62866760Y34073000D01*
X64397475Y32542285D01*
X64030869Y32390806D01*
X63831715Y32192000D01*
X63114637Y32192000D01*
X62879255Y32427794D01*
X62244927Y32691190D01*
X61558087Y32691789D01*
X60923300Y32429500D01*
X60437206Y31944255D01*
X60173810Y31309927D01*
X60173211Y30623087D01*
X60435500Y29988300D01*
X60673000Y29750384D01*
X60673000Y22727000D01*
X60250000Y22727000D01*
X60007005Y22727212D01*
X59555869Y22540806D01*
X59210407Y22195947D01*
X59023214Y21745136D01*
X59022788Y21257005D01*
X59209194Y20805869D01*
X59354451Y20660358D01*
X59320248Y20637504D01*
X58989236Y20142110D01*
X58873000Y19557752D01*
X58873000Y18682248D01*
X58952459Y18282781D01*
X58542697Y18692543D01*
X58626735Y18894928D01*
X58627265Y19502407D01*
X58395283Y20063846D01*
X57966106Y20493773D01*
X57405072Y20726735D01*
X56797593Y20727265D01*
X56236154Y20495283D01*
X55806227Y20066106D01*
X55573265Y19505072D01*
X55572735Y18897593D01*
X55804717Y18336154D01*
X55905852Y18234842D01*
X55966400Y17930447D01*
X56142831Y17666400D01*
X56232380Y17532380D01*
X57832380Y15932380D01*
X58230448Y15666399D01*
X58700000Y15573000D01*
X64600000Y15573000D01*
X65069553Y15666400D01*
X65467620Y15932380D01*
X66347620Y16812380D01*
X66389381Y16874880D01*
X66613600Y17210447D01*
X66707000Y17680000D01*
X66707000Y17822868D01*
X66750000Y17887222D01*
X66940248Y17602496D01*
X67435642Y17271484D01*
X68020000Y17155248D01*
X68020010Y17155250D01*
X66291760Y15427000D01*
X58032763Y15427000D01*
X57966106Y15493773D01*
X57405072Y15726735D01*
X56797593Y15727265D01*
X56236154Y15495283D01*
X55806227Y15066106D01*
X55573265Y14505072D01*
X55572735Y13897593D01*
X55804717Y13336154D01*
X56233894Y12906227D01*
X56794928Y12673265D01*
X57402407Y12672735D01*
X57963846Y12904717D01*
X58032248Y12973000D01*
X58914041Y12973000D01*
X58858758Y12700000D01*
X58858758Y10300000D01*
X58909451Y10030590D01*
X58911761Y10027000D01*
X57508240Y10027000D01*
X55027000Y12508240D01*
X55027000Y13650000D01*
X55027212Y13892995D01*
X54840806Y14344131D01*
X54495947Y14689593D01*
X54045136Y14876786D01*
X53800000Y14877000D01*
X53557005Y14877212D01*
X53105869Y14690806D01*
X52760407Y14345947D01*
X52573214Y13895136D01*
X52572788Y13407005D01*
X52573000Y13406492D01*
X52573000Y12000000D01*
X52666400Y11530447D01*
X52775198Y11367620D01*
X52932380Y11132380D01*
X56132380Y7932380D01*
X56530447Y7666400D01*
X57000000Y7573000D01*
X64200000Y7573000D01*
X64669553Y7666400D01*
X65067620Y7932380D01*
X66347620Y9212380D01*
X66450533Y9366400D01*
X66613600Y9610447D01*
X66707000Y10080000D01*
X66707000Y10202868D01*
X66750000Y10267222D01*
X66793000Y10202868D01*
X66793000Y9028240D01*
X61491760Y3727000D01*
X40609908Y3727000D01*
X40767620Y3832380D01*
X42067620Y5132380D01*
X42333601Y5530448D01*
X42427000Y6000000D01*
X42427000Y6134966D01*
X42476786Y6254864D01*
X42477212Y6742995D01*
X42383602Y6969549D01*
X42383601Y6969552D01*
X42383599Y6969555D01*
X42361516Y7023000D01*
X44317237Y7023000D01*
X44383894Y6956227D01*
X44944928Y6723265D01*
X45552407Y6722735D01*
X46113846Y6954717D01*
X46520332Y7360494D01*
X46923894Y6956227D01*
X47484928Y6723265D01*
X48092407Y6722735D01*
X48653846Y6954717D01*
X48722248Y7023000D01*
X49397237Y7023000D01*
X49463894Y6956227D01*
X50024928Y6723265D01*
X50632407Y6722735D01*
X51193846Y6954717D01*
X51623773Y7383894D01*
X51856735Y7944928D01*
X51857265Y8552407D01*
X51625283Y9113846D01*
X51196106Y9543773D01*
X50635072Y9776735D01*
X50027593Y9777265D01*
X49466154Y9545283D01*
X49397752Y9477000D01*
X49017000Y9477000D01*
X49017000Y9960000D01*
X48998292Y10054053D01*
X48923601Y10429552D01*
X48657620Y10827620D01*
X44977000Y14508240D01*
X44977000Y18500000D01*
X44977212Y18742995D01*
X44790806Y19194131D01*
X44445947Y19539593D01*
X43995136Y19726786D01*
X43750000Y19727000D01*
X43507005Y19727212D01*
X43055869Y19540806D01*
X42710407Y19195947D01*
X42523214Y18745136D01*
X42522788Y18257005D01*
X42523000Y18256492D01*
X42523000Y14000000D01*
X42616400Y13530447D01*
X42788421Y13273000D01*
X42882380Y13132380D01*
X46563000Y9451760D01*
X46563000Y9182763D01*
X46519668Y9139506D01*
X46116106Y9543773D01*
X45555072Y9776735D01*
X44947593Y9777265D01*
X44386154Y9545283D01*
X44317752Y9477000D01*
X40500000Y9477000D01*
X40030447Y9383600D01*
X39635273Y9119553D01*
X39632380Y9117620D01*
X39241760Y8727000D01*
X34024637Y8727000D01*
X33789255Y8962794D01*
X33700217Y8999766D01*
X33786700Y9035500D01*
X34272794Y9520745D01*
X34536190Y10155073D01*
X34536789Y10841913D01*
X34274500Y11476700D01*
X34037000Y11714616D01*
X34037000Y13405670D01*
X34210764Y13665726D01*
X34327000Y14250084D01*
X34327000Y14309916D01*
X34210764Y14894274D01*
X33879752Y15389668D01*
X33384358Y15720680D01*
X32800000Y15836916D01*
X32215642Y15720680D01*
X31895848Y15507000D01*
X30224969Y15507000D01*
X30179255Y15552794D01*
X29648940Y15773000D01*
X32000000Y15773000D01*
X32469553Y15866400D01*
X32867620Y16132380D01*
X37267620Y20532380D01*
X37533601Y20930448D01*
X37627000Y21400000D01*
X37627000Y22667237D01*
X37693773Y22733894D01*
X37926735Y23294928D01*
X37926920Y23507005D01*
X40022788Y23507005D01*
X40023000Y23506492D01*
X40023000Y10750000D01*
X40022788Y10507005D01*
X40209194Y10055869D01*
X40554053Y9710407D01*
X41004864Y9523214D01*
X41250000Y9523000D01*
X41492995Y9522788D01*
X41944131Y9709194D01*
X42289593Y10054053D01*
X42476786Y10504864D01*
X42477212Y10992995D01*
X42477000Y10993508D01*
X42477000Y23750000D01*
X42477212Y23992995D01*
X42290806Y24444131D01*
X41945947Y24789593D01*
X41495136Y24976786D01*
X41250000Y24977000D01*
X41007005Y24977212D01*
X40555869Y24790806D01*
X40210407Y24445947D01*
X40023214Y23995136D01*
X40022788Y23507005D01*
X37926920Y23507005D01*
X37927265Y23902407D01*
X37727000Y24387085D01*
X37727000Y25606139D01*
X38017504Y25800248D01*
X38348516Y26295642D01*
X38464752Y26880000D01*
X38348516Y27464358D01*
X38017504Y27959752D01*
X37522110Y28290764D01*
X36937752Y28407000D01*
X36062248Y28407000D01*
X35477890Y28290764D01*
X34982496Y27959752D01*
X34651484Y27464358D01*
X34535248Y26880000D01*
X34651484Y26295642D01*
X34982496Y25800248D01*
X35273000Y25606139D01*
X35273000Y24632588D01*
X35106227Y24466106D01*
X34873265Y23905072D01*
X34872735Y23297593D01*
X35104717Y22736154D01*
X35173000Y22667752D01*
X35173000Y21908240D01*
X34335270Y21070510D01*
X34341242Y21100000D01*
X34341242Y22700000D01*
X34290549Y22969410D01*
X34131328Y23216846D01*
X33888385Y23382843D01*
X33600000Y23441242D01*
X32000000Y23441242D01*
X31730590Y23390549D01*
X31483154Y23231328D01*
X31317157Y22988385D01*
X31258758Y22700000D01*
X31258758Y21100000D01*
X31309451Y20830590D01*
X31343084Y20778324D01*
X30591760Y20027000D01*
X29647890Y20027000D01*
X30176700Y20245500D01*
X30662794Y20730745D01*
X30926190Y21365073D01*
X30926789Y22051913D01*
X30664500Y22686700D01*
X30427000Y22924616D01*
X30427000Y25322326D01*
X30676700Y25425500D01*
X30934147Y25682497D01*
X31562655Y25692505D01*
X31568672Y25683154D01*
X31811615Y25517157D01*
X32100000Y25458758D01*
X33700000Y25458758D01*
X33969410Y25509451D01*
X34216846Y25668672D01*
X34382843Y25911615D01*
X34441242Y26200000D01*
X34441242Y27800000D01*
X34390549Y28069410D01*
X34231328Y28316846D01*
X34127000Y28388131D01*
X34127000Y29391760D01*
X35361947Y30626707D01*
X35477890Y30549236D01*
X36062248Y30433000D01*
X36937752Y30433000D01*
X37522110Y30549236D01*
X38017504Y30880248D01*
X38348516Y31375642D01*
X38464752Y31960000D01*
X38348516Y32544358D01*
X38017504Y33039752D01*
X38017011Y33040081D01*
X38216846Y33168672D01*
X38382843Y33411615D01*
X38441242Y33700000D01*
X38441242Y35300000D01*
X38390549Y35569410D01*
X38231328Y35816846D01*
X37988385Y35982843D01*
X37700000Y36041242D01*
X35300000Y36041242D01*
X35030590Y35990549D01*
X34783154Y35831328D01*
X34711869Y35727000D01*
X33981535Y35727000D01*
X33979752Y35729668D01*
X33484358Y36060680D01*
X32900000Y36176916D01*
X32315642Y36060680D01*
X31820248Y35729668D01*
X31489236Y35234274D01*
X31417602Y34874147D01*
X31164500Y35486700D01*
X30679255Y35972794D01*
X30044927Y36236190D01*
X29358087Y36236789D01*
X28723300Y35974500D01*
X28485384Y35737000D01*
X26487972Y35737000D01*
X26092983Y36132678D01*
X25384986Y36426665D01*
X24618378Y36427334D01*
X23909868Y36134584D01*
X23367322Y35592983D01*
X23073335Y34884986D01*
X23072666Y34118378D01*
X23365416Y33409868D01*
X23773000Y33001573D01*
X23773000Y28497954D01*
X23367322Y28092983D01*
X23073335Y27384986D01*
X23072666Y26618378D01*
X23365416Y25909868D01*
X23773000Y25501573D01*
X23773000Y23024637D01*
X23537206Y22789255D01*
X23273810Y22154927D01*
X23273211Y21468087D01*
X23535500Y20833300D01*
X23566753Y20801993D01*
X18491760Y15727000D01*
X14203428Y15727000D01*
X14124874Y15917115D01*
X13420821Y16622397D01*
X12500461Y17004564D01*
X11503911Y17005434D01*
X10582885Y16624874D01*
X9877603Y15920821D01*
X9495436Y15000461D01*
X9494566Y14003911D01*
X9875126Y13082885D01*
X10579179Y12377603D01*
X11499539Y11995436D01*
X12496089Y11994566D01*
X13417115Y12375126D01*
X14122397Y13079179D01*
X14202879Y13273000D01*
X18637760Y13273000D01*
X18591760Y13227000D01*
X14900000Y13227000D01*
X14430447Y13133600D01*
X14087900Y12904717D01*
X14032380Y12867620D01*
X12591760Y11427000D01*
X10508240Y11427000D01*
X9127000Y12808240D01*
X9127000Y16191760D01*
X12467620Y19532380D01*
X12541120Y19642380D01*
X12733600Y19930447D01*
X12827000Y20400000D01*
X12827000Y38341760D01*
X16950000Y42464760D01*
X19932380Y39482380D01*
X20330447Y39216400D01*
X20800000Y39123000D01*
X23525000Y39123000D01*
X23776367Y39173000D01*
X25213913Y39173000D01*
X25565520Y39027000D01*
X19708240Y39027000D01*
X18477183Y40258057D01*
X18477265Y40352407D01*
X18245283Y40913846D01*
X17816106Y41343773D01*
X17255072Y41576735D01*
X16647593Y41577265D01*
X16086154Y41345283D01*
X15656227Y40916106D01*
X15423265Y40355072D01*
X15422735Y39747593D01*
X15654717Y39186154D01*
X16083894Y38756227D01*
X16644928Y38523265D01*
X16741579Y38523181D01*
X18332380Y36932380D01*
X18730448Y36666399D01*
X19200000Y36573000D01*
X31329887Y36573000D01*
X31411615Y36517157D01*
X31700000Y36458758D01*
X33300000Y36458758D01*
X33569410Y36509451D01*
X33668168Y36573000D01*
X37600000Y36573000D01*
X37842995Y36572788D01*
X38294131Y36759194D01*
X38639593Y37104053D01*
X38826786Y37554864D01*
X38827212Y38042995D01*
X38640806Y38494131D01*
X38295947Y38839593D01*
X37845136Y39026786D01*
X37600000Y39027000D01*
X37599925Y39027000D01*
X37357005Y39027212D01*
X37356492Y39027000D01*
X33998529Y39027000D01*
X33990549Y39069410D01*
X33831328Y39316846D01*
X33588385Y39482843D01*
X33300000Y39541242D01*
X31700000Y39541242D01*
X31430590Y39490549D01*
X31183154Y39331328D01*
X31017157Y39088385D01*
X31004726Y39027000D01*
X26433738Y39027000D01*
X26863846Y39204717D01*
X26932248Y39273000D01*
X27500000Y39273000D01*
X27969553Y39366400D01*
X28367620Y39632380D01*
X31367620Y42632380D01*
X31367620Y42632381D01*
X31539593Y42804053D01*
X31633599Y43030446D01*
X31633601Y43030448D01*
X31633602Y43030451D01*
X31726786Y43254864D01*
X31727212Y43742995D01*
X31633602Y43969549D01*
X31633601Y43969552D01*
X31633599Y43969555D01*
X31540806Y44194131D01*
X31195947Y44539593D01*
X30969553Y44633600D01*
X30969552Y44633601D01*
X30969549Y44633602D01*
X30745136Y44726786D01*
X30500000Y44727000D01*
X30257005Y44727212D01*
X30030451Y44633602D01*
X30030448Y44633601D01*
X30030447Y44633600D01*
X29805869Y44540806D01*
X29460407Y44195947D01*
X29460194Y44195434D01*
X26991760Y41727000D01*
X26932763Y41727000D01*
X26866106Y41793773D01*
X26305072Y42026735D01*
X25697593Y42027265D01*
X25136154Y41795283D01*
X24967577Y41627000D01*
X23575000Y41627000D01*
X23323631Y41577000D01*
X21308240Y41577000D01*
X18477183Y44408057D01*
X18477265Y44502407D01*
X18245283Y45063846D01*
X17986581Y45323000D01*
X21390000Y45323000D01*
X21859553Y45416400D01*
X22257620Y45682380D01*
X23362256Y46787016D01*
X23395079Y46773387D01*
X24281034Y46772614D01*
X25099846Y47110940D01*
X25726858Y47736858D01*
X26066613Y48555079D01*
X26067386Y49441034D01*
X25729060Y50259846D01*
X25516278Y50473000D01*
X26941760Y50473000D01*
X27092432Y50322328D01*
X27033142Y50263142D01*
X26693387Y49444921D01*
X26692614Y48558966D01*
X27030940Y47740154D01*
X27656858Y47113142D01*
X28475079Y46773387D01*
X29361034Y46772614D01*
X30179846Y47110940D01*
X30806858Y47736858D01*
X31146613Y48555079D01*
X31147386Y49441034D01*
X30809060Y50259846D01*
X30183142Y50886858D01*
X29830646Y51033227D01*
X29787620Y51097620D01*
X28317620Y52567620D01*
X28218874Y52633600D01*
X27919553Y52833600D01*
X27450000Y52927000D01*
X22450000Y52927000D01*
X21980447Y52833600D01*
X21681126Y52633600D01*
X21582380Y52567620D01*
X18991760Y49977000D01*
X15000000Y49977000D01*
X14530448Y49883601D01*
X14132380Y49617620D01*
X9941760Y45427000D01*
X5139296Y45427000D01*
X4864274Y45610764D01*
X4279916Y45727000D01*
X4220084Y45727000D01*
X3635726Y45610764D01*
X3140332Y45279752D01*
X2809320Y44784358D01*
X2693084Y44200000D01*
X802000Y44200000D01*
X802000Y60698000D01*
X97198000Y60698000D01*
X97198000Y802000D01*
X97198000Y802000D01*
G37*
X97198000Y802000D02*
X802000Y802000D01*
X802000Y44200000D01*
X2693084Y44200000D01*
X2809320Y43615642D01*
X3140332Y43120248D01*
X3635726Y42789236D01*
X4220084Y42673000D01*
X4279916Y42673000D01*
X4864274Y42789236D01*
X5139296Y42973000D01*
X10450000Y42973000D01*
X10746797Y43032037D01*
X8991760Y41277000D01*
X5139296Y41277000D01*
X4864274Y41460764D01*
X4279916Y41577000D01*
X4220084Y41577000D01*
X3635726Y41460764D01*
X3140332Y41129752D01*
X2809320Y40634358D01*
X2693084Y40050000D01*
X2809320Y39465642D01*
X3140332Y38970248D01*
X3635726Y38639236D01*
X4220084Y38523000D01*
X4279916Y38523000D01*
X4864274Y38639236D01*
X5139296Y38823000D01*
X9500000Y38823000D01*
X9969553Y38916400D01*
X10367620Y39182380D01*
X10456867Y39271627D01*
X10373000Y38850000D01*
X10373000Y20908240D01*
X7032380Y17567620D01*
X6766400Y17169553D01*
X6673000Y16700000D01*
X6673000Y12300000D01*
X6766400Y11830447D01*
X7023315Y11445947D01*
X7032380Y11432380D01*
X9132380Y9332380D01*
X9530447Y9066400D01*
X10000000Y8973000D01*
X13100000Y8973000D01*
X13569553Y9066400D01*
X13967620Y9332380D01*
X15408240Y10773000D01*
X20991760Y10773000D01*
X21273000Y10491760D01*
X21273000Y5500000D01*
X21366400Y5030447D01*
X21476013Y4866400D01*
X21632380Y4632380D01*
X24632380Y1632380D01*
X25030448Y1366399D01*
X25500000Y1273000D01*
X62000000Y1273000D01*
X62469553Y1366400D01*
X62867620Y1632380D01*
X68887620Y7652380D01*
X69153601Y8050448D01*
X69247000Y8520000D01*
X69247000Y10202868D01*
X69430764Y10477890D01*
X69547000Y11062248D01*
X69547000Y11937752D01*
X69430764Y12522110D01*
X69099752Y13017504D01*
X68604358Y13348516D01*
X68020000Y13464752D01*
X67745363Y13410123D01*
X70342500Y16007260D01*
X70923502Y15426258D01*
X70923211Y15093087D01*
X71185500Y14458300D01*
X71670745Y13972206D01*
X72305073Y13708810D01*
X72991913Y13708211D01*
X73626700Y13970500D01*
X74112794Y14455745D01*
X74376190Y15090073D01*
X74376789Y15776913D01*
X74114500Y16411700D01*
X73629255Y16897794D01*
X72994927Y17161190D01*
X72658757Y17161483D01*
X72077740Y17742500D01*
X73977620Y19642380D01*
X74243601Y20040448D01*
X74337000Y20510000D01*
X74337000Y20785363D01*
X74572794Y21020745D01*
X74836190Y21655073D01*
X74836789Y22341913D01*
X74574500Y22976700D01*
X74089255Y23462794D01*
X73758796Y23600013D01*
X74086700Y23735500D01*
X74572794Y24220745D01*
X74836190Y24855073D01*
X74836789Y25541913D01*
X74574500Y26176700D01*
X74089255Y26662794D01*
X73879506Y26749889D01*
X74086700Y26835500D01*
X74324616Y27073000D01*
X75691760Y27073000D01*
X83523000Y19241760D01*
X83523000Y16703428D01*
X83332885Y16624874D01*
X82627603Y15920821D01*
X82245436Y15000461D01*
X82244566Y14003911D01*
X82625126Y13082885D01*
X83329179Y12377603D01*
X84249539Y11995436D01*
X85246089Y11994566D01*
X85268647Y12003887D01*
X84991760Y11727000D01*
X83508240Y11727000D01*
X82367620Y12867620D01*
X82312100Y12904717D01*
X81969553Y13133600D01*
X81500000Y13227000D01*
X76000000Y13227000D01*
X75530447Y13133600D01*
X75187900Y12904717D01*
X75132380Y12867620D01*
X71782380Y9517620D01*
X71523064Y9129526D01*
X71187206Y8794255D01*
X70923810Y8159927D01*
X70923211Y7473087D01*
X71185500Y6838300D01*
X71670745Y6352206D01*
X72305073Y6088810D01*
X72991913Y6088211D01*
X73626700Y6350500D01*
X74112794Y6835745D01*
X74376190Y7470073D01*
X74376789Y8156913D01*
X74235090Y8499850D01*
X76508240Y10773000D01*
X80991760Y10773000D01*
X82132380Y9632380D01*
X82530447Y9366400D01*
X83000000Y9273000D01*
X85500000Y9273000D01*
X85969553Y9366400D01*
X86367620Y9632380D01*
X88867620Y12132380D01*
X88930843Y12227000D01*
X89133600Y12530447D01*
X89227000Y13000000D01*
X89227000Y19500000D01*
X89133600Y19969553D01*
X88867620Y20367620D01*
X88477000Y20758240D01*
X88477000Y26241760D01*
X89867620Y27632380D01*
X90133601Y28030448D01*
X90227000Y28500000D01*
X90227000Y33500000D01*
X90133600Y33969553D01*
X89867620Y34367620D01*
X88727000Y35508240D01*
X88727000Y47130000D01*
X88633600Y47599553D01*
X88367620Y47997620D01*
X86207183Y50158057D01*
X86207265Y50252407D01*
X85975283Y50813846D01*
X85546106Y51243773D01*
X84985072Y51476735D01*
X84377593Y51477265D01*
X83816154Y51245283D01*
X83409668Y50839506D01*
X83006106Y51243773D01*
X82445072Y51476735D01*
X81837593Y51477265D01*
X81276154Y51245283D01*
X81207752Y51177000D01*
X80532763Y51177000D01*
X80466106Y51243773D01*
X79905072Y51476735D01*
X79297593Y51477265D01*
X78736154Y51245283D01*
X78667752Y51177000D01*
X73058240Y51177000D01*
X70091242Y54143998D01*
X70091242Y54850000D01*
X70040549Y55119410D01*
X69881328Y55366846D01*
X69638385Y55532843D01*
X69350000Y55591242D01*
X67650000Y55591242D01*
X67380590Y55540549D01*
X67133154Y55381328D01*
X66967157Y55138385D01*
X66908758Y54850000D01*
X66908758Y53150000D01*
X66959451Y52880590D01*
X67118672Y52633154D01*
X67361615Y52467157D01*
X67650000Y52408758D01*
X68356002Y52408758D01*
X71682380Y49082380D01*
X72080447Y48816400D01*
X72550000Y48723000D01*
X78667237Y48723000D01*
X78733894Y48656227D01*
X79294928Y48423265D01*
X79902407Y48422735D01*
X80463846Y48654717D01*
X80532248Y48723000D01*
X81207237Y48723000D01*
X81273894Y48656227D01*
X81834928Y48423265D01*
X82442407Y48422735D01*
X83003846Y48654717D01*
X83410332Y49060494D01*
X83813894Y48656227D01*
X84374928Y48423265D01*
X84471579Y48423181D01*
X86273000Y46621760D01*
X86273000Y35000000D01*
X86366400Y34530447D01*
X86549108Y34257005D01*
X86632380Y34132380D01*
X87773000Y32991760D01*
X87773000Y29008240D01*
X86382380Y27617620D01*
X86116400Y27219553D01*
X86023000Y26750000D01*
X86023000Y20250000D01*
X86116400Y19780447D01*
X86303789Y19500000D01*
X86382380Y19382380D01*
X86773000Y18991760D01*
X86773000Y16019167D01*
X86170821Y16622397D01*
X85977000Y16702879D01*
X85977000Y19750000D01*
X85883600Y20219553D01*
X85617620Y20617620D01*
X77067620Y29167620D01*
X76961973Y29238211D01*
X76669553Y29433600D01*
X76200000Y29527000D01*
X74324637Y29527000D01*
X74089255Y29762794D01*
X73454927Y30026190D01*
X73118757Y30026483D01*
X71727000Y31418240D01*
X71727000Y31682655D01*
X71869410Y31709451D01*
X72116846Y31868672D01*
X72282843Y32111615D01*
X72341242Y32400000D01*
X72341242Y33923518D01*
X76407380Y29857380D01*
X76805448Y29591399D01*
X77275000Y29498000D01*
X82046509Y29498000D01*
X82168672Y29308154D01*
X82411615Y29142157D01*
X82700000Y29083758D01*
X84500000Y29083758D01*
X84769410Y29134451D01*
X85016846Y29293672D01*
X85119677Y29444169D01*
X85217175Y29346501D01*
X85814950Y29098283D01*
X86462211Y29097718D01*
X87060418Y29344892D01*
X87518499Y29802175D01*
X87766717Y30399950D01*
X87767282Y31047211D01*
X87520108Y31645418D01*
X87367000Y31798793D01*
X87367000Y31860000D01*
X87273600Y32329553D01*
X87007620Y32727620D01*
X85867620Y33867620D01*
X85715068Y33969552D01*
X85469553Y34133600D01*
X85000000Y34227000D01*
X81181560Y34227000D01*
X81158577Y34282623D01*
X80673332Y34768717D01*
X80039004Y35032113D01*
X79352164Y35032712D01*
X78717377Y34770423D01*
X78231283Y34285178D01*
X77967887Y33650850D01*
X77967288Y32964010D01*
X78229577Y32329223D01*
X78606141Y31952000D01*
X77783240Y31952000D01*
X72398287Y37336953D01*
X72694131Y37459194D01*
X72702028Y37467077D01*
X73091286Y37467077D01*
X73326668Y37231283D01*
X73960996Y36967887D01*
X74647836Y36967288D01*
X75282623Y37229577D01*
X75768717Y37714822D01*
X76032113Y38349150D01*
X76032712Y39035990D01*
X75770423Y39670777D01*
X75285178Y40156871D01*
X74650850Y40420267D01*
X73964010Y40420866D01*
X73329223Y40158577D01*
X73091307Y39921077D01*
X72194077Y39921077D01*
X71724524Y39827677D01*
X71432242Y39632380D01*
X71326457Y39561697D01*
X71132380Y39367620D01*
X70960407Y39195947D01*
X70836850Y38898390D01*
X68727000Y41008240D01*
X68727000Y46500000D01*
X68633600Y46969553D01*
X68367620Y47367620D01*
X62367620Y53367620D01*
X61969553Y53633600D01*
X61500000Y53727000D01*
X53000000Y53727000D01*
X52530448Y53633601D01*
X52132380Y53367620D01*
X51132380Y52367620D01*
X50866400Y51969553D01*
X50773000Y51500000D01*
X50773000Y51462405D01*
X50695947Y51539593D01*
X50245136Y51726786D01*
X50000000Y51727000D01*
X49999925Y51727000D01*
X49757005Y51727212D01*
X49756492Y51727000D01*
X47000000Y51727000D01*
X46530447Y51633600D01*
X46295682Y51476735D01*
X46132380Y51367620D01*
X44502380Y49737620D01*
X44236400Y49339553D01*
X44143000Y48870000D01*
X44143000Y48722132D01*
X44100000Y48657778D01*
X43909752Y48942504D01*
X43414358Y49273516D01*
X42830000Y49389752D01*
X42245642Y49273516D01*
X41750248Y48942504D01*
X41419236Y48447110D01*
X41303000Y47862752D01*
X41303000Y46987248D01*
X41419236Y46402890D01*
X41603000Y46127868D01*
X41603000Y44513240D01*
X41376859Y44287099D01*
X41377265Y44752407D01*
X41145283Y45313846D01*
X40716106Y45743773D01*
X40155072Y45976735D01*
X39547593Y45977265D01*
X38986154Y45745283D01*
X38556227Y45316106D01*
X38323265Y44755072D01*
X38322735Y44147593D01*
X38554717Y43586154D01*
X38623000Y43517752D01*
X38623000Y43483240D01*
X38091760Y42952000D01*
X37783240Y42952000D01*
X36367620Y44367620D01*
X36367619Y44367620D01*
X36195947Y44539593D01*
X35745136Y44726786D01*
X35500000Y44727000D01*
X35257005Y44727212D01*
X34805869Y44540806D01*
X34460407Y44195947D01*
X34273214Y43745136D01*
X34272788Y43257005D01*
X34459194Y42805869D01*
X34804053Y42460407D01*
X34804566Y42460194D01*
X36407380Y40857380D01*
X36805447Y40591400D01*
X37275000Y40498000D01*
X38600000Y40498000D01*
X39069553Y40591400D01*
X39467620Y40857380D01*
X39633240Y41023000D01*
X41075000Y41023000D01*
X41544553Y41116400D01*
X41942620Y41382380D01*
X43697620Y43137380D01*
X43777551Y43257005D01*
X43963600Y43535447D01*
X44057000Y44005000D01*
X44057000Y46127868D01*
X44100000Y46192222D01*
X44290248Y45907496D01*
X44785642Y45576484D01*
X45370000Y45460248D01*
X45954358Y45576484D01*
X46449752Y45907496D01*
X46640000Y46192222D01*
X46683000Y46127868D01*
X46683000Y44615000D01*
X46776400Y44145447D01*
X46912740Y43941400D01*
X47042380Y43747380D01*
X49428400Y41361360D01*
X49370248Y41322504D01*
X49180000Y41037778D01*
X48989752Y41322504D01*
X48494358Y41653516D01*
X47910000Y41769752D01*
X47325642Y41653516D01*
X46830248Y41322504D01*
X46499236Y40827110D01*
X46383000Y40242752D01*
X46383000Y39367248D01*
X46499236Y38782890D01*
X46830248Y38287496D01*
X47325642Y37956484D01*
X47910000Y37840248D01*
X48494358Y37956484D01*
X48989752Y38287496D01*
X49180000Y38572222D01*
X49223000Y38507868D01*
X49223000Y37033240D01*
X47916760Y35727000D01*
X45417132Y35727000D01*
X45142110Y35910764D01*
X44557752Y36027000D01*
X43682248Y36027000D01*
X43097890Y35910764D01*
X42822868Y35727000D01*
X41000000Y35727000D01*
X40757005Y35727212D01*
X40305869Y35540806D01*
X39960407Y35195947D01*
X39773214Y34745136D01*
X39772788Y34257005D01*
X39959194Y33805869D01*
X40304053Y33460407D01*
X40754864Y33273214D01*
X41000000Y33273000D01*
X41000075Y33273000D01*
X41242995Y33272788D01*
X41243508Y33273000D01*
X42822868Y33273000D01*
X42887222Y33230000D01*
X42602496Y33039752D01*
X42271484Y32544358D01*
X42155248Y31960000D01*
X42271484Y31375642D01*
X42602496Y30880248D01*
X42887222Y30690000D01*
X42781696Y30619490D01*
X42450448Y30553601D01*
X42052380Y30287620D01*
X40382380Y28617620D01*
X40210407Y28445947D01*
X40023214Y27995136D01*
X40022788Y27507005D01*
X40209194Y27055869D01*
X40554053Y26710407D01*
X41004864Y26523214D01*
X41250000Y26523000D01*
X41492995Y26522788D01*
X41944131Y26709194D01*
X42289593Y27054053D01*
X42289806Y27054566D01*
X43220156Y27984916D01*
X43682248Y27893000D01*
X44557752Y27893000D01*
X45142110Y28009236D01*
X45237539Y28073000D01*
X47128522Y28073000D01*
X46930448Y28033601D01*
X46532380Y27767620D01*
X44489714Y25724954D01*
X44030447Y25633600D01*
X43632380Y25367620D01*
X42882380Y24617620D01*
X42710407Y24445947D01*
X42523214Y23995136D01*
X42522788Y23507005D01*
X42709194Y23055869D01*
X43054053Y22710407D01*
X43504864Y22523214D01*
X43750000Y22523000D01*
X43992995Y22522788D01*
X44444131Y22709194D01*
X44789593Y23054053D01*
X44789806Y23054566D01*
X45010286Y23275046D01*
X45469553Y23366400D01*
X45867620Y23632380D01*
X46076169Y23840929D01*
X46335500Y23213300D01*
X46673000Y22875209D01*
X46673000Y21786087D01*
X46473265Y21305072D01*
X46472735Y20697593D01*
X46704717Y20136154D01*
X47133894Y19706227D01*
X47694928Y19473265D01*
X48302407Y19472735D01*
X48863846Y19704717D01*
X49293773Y20133894D01*
X49526735Y20694928D01*
X49527265Y21302407D01*
X49295283Y21863846D01*
X49127000Y22032423D01*
X49127000Y22963000D01*
X49905153Y22963000D01*
X50020745Y22847206D01*
X50655073Y22583810D01*
X50991243Y22583517D01*
X52892380Y20682380D01*
X53012505Y20602115D01*
X53104053Y20510407D01*
X53224782Y20460276D01*
X53290447Y20416400D01*
X53367228Y20401127D01*
X53554864Y20323214D01*
X53759823Y20323035D01*
X53760000Y20323000D01*
X53800000Y20323000D01*
X54042995Y20322788D01*
X54494131Y20509194D01*
X54839593Y20854053D01*
X55026786Y21304864D01*
X55027212Y21792995D01*
X54840806Y22244131D01*
X54495947Y22589593D01*
X54427030Y22618210D01*
X52726498Y24318742D01*
X52726789Y24651913D01*
X52464500Y25286700D01*
X52078875Y25673000D01*
X52800000Y25673000D01*
X53269553Y25766400D01*
X53667620Y26032380D01*
X54028477Y26393237D01*
X54209194Y25955869D01*
X54554053Y25610407D01*
X55004864Y25423214D01*
X55250000Y25423000D01*
X55492995Y25422788D01*
X55944131Y25609194D01*
X56289593Y25954053D01*
X56289806Y25954566D01*
X57067620Y26732380D01*
X57130843Y26827000D01*
X57333600Y27130447D01*
X57427000Y27600000D01*
X57427000Y31973000D01*
X57567237Y31973000D01*
X57633894Y31906227D01*
X58194928Y31673265D01*
X58802407Y31672735D01*
X59363846Y31904717D01*
X59793773Y32333894D01*
X60026735Y32894928D01*
X60027265Y33502407D01*
X59795283Y34063846D01*
X59786145Y34073000D01*
X62866760Y34073000D01*
X64397475Y32542285D01*
X64030869Y32390806D01*
X63831715Y32192000D01*
X63114637Y32192000D01*
X62879255Y32427794D01*
X62244927Y32691190D01*
X61558087Y32691789D01*
X60923300Y32429500D01*
X60437206Y31944255D01*
X60173810Y31309927D01*
X60173211Y30623087D01*
X60435500Y29988300D01*
X60673000Y29750384D01*
X60673000Y22727000D01*
X60250000Y22727000D01*
X60007005Y22727212D01*
X59555869Y22540806D01*
X59210407Y22195947D01*
X59023214Y21745136D01*
X59022788Y21257005D01*
X59209194Y20805869D01*
X59354451Y20660358D01*
X59320248Y20637504D01*
X58989236Y20142110D01*
X58873000Y19557752D01*
X58873000Y18682248D01*
X58952459Y18282781D01*
X58542697Y18692543D01*
X58626735Y18894928D01*
X58627265Y19502407D01*
X58395283Y20063846D01*
X57966106Y20493773D01*
X57405072Y20726735D01*
X56797593Y20727265D01*
X56236154Y20495283D01*
X55806227Y20066106D01*
X55573265Y19505072D01*
X55572735Y18897593D01*
X55804717Y18336154D01*
X55905852Y18234842D01*
X55966400Y17930447D01*
X56142831Y17666400D01*
X56232380Y17532380D01*
X57832380Y15932380D01*
X58230448Y15666399D01*
X58700000Y15573000D01*
X64600000Y15573000D01*
X65069553Y15666400D01*
X65467620Y15932380D01*
X66347620Y16812380D01*
X66389381Y16874880D01*
X66613600Y17210447D01*
X66707000Y17680000D01*
X66707000Y17822868D01*
X66750000Y17887222D01*
X66940248Y17602496D01*
X67435642Y17271484D01*
X68020000Y17155248D01*
X68020010Y17155250D01*
X66291760Y15427000D01*
X58032763Y15427000D01*
X57966106Y15493773D01*
X57405072Y15726735D01*
X56797593Y15727265D01*
X56236154Y15495283D01*
X55806227Y15066106D01*
X55573265Y14505072D01*
X55572735Y13897593D01*
X55804717Y13336154D01*
X56233894Y12906227D01*
X56794928Y12673265D01*
X57402407Y12672735D01*
X57963846Y12904717D01*
X58032248Y12973000D01*
X58914041Y12973000D01*
X58858758Y12700000D01*
X58858758Y10300000D01*
X58909451Y10030590D01*
X58911761Y10027000D01*
X57508240Y10027000D01*
X55027000Y12508240D01*
X55027000Y13650000D01*
X55027212Y13892995D01*
X54840806Y14344131D01*
X54495947Y14689593D01*
X54045136Y14876786D01*
X53800000Y14877000D01*
X53557005Y14877212D01*
X53105869Y14690806D01*
X52760407Y14345947D01*
X52573214Y13895136D01*
X52572788Y13407005D01*
X52573000Y13406492D01*
X52573000Y12000000D01*
X52666400Y11530447D01*
X52775198Y11367620D01*
X52932380Y11132380D01*
X56132380Y7932380D01*
X56530447Y7666400D01*
X57000000Y7573000D01*
X64200000Y7573000D01*
X64669553Y7666400D01*
X65067620Y7932380D01*
X66347620Y9212380D01*
X66450533Y9366400D01*
X66613600Y9610447D01*
X66707000Y10080000D01*
X66707000Y10202868D01*
X66750000Y10267222D01*
X66793000Y10202868D01*
X66793000Y9028240D01*
X61491760Y3727000D01*
X40609908Y3727000D01*
X40767620Y3832380D01*
X42067620Y5132380D01*
X42333601Y5530448D01*
X42427000Y6000000D01*
X42427000Y6134966D01*
X42476786Y6254864D01*
X42477212Y6742995D01*
X42383602Y6969549D01*
X42383601Y6969552D01*
X42383599Y6969555D01*
X42361516Y7023000D01*
X44317237Y7023000D01*
X44383894Y6956227D01*
X44944928Y6723265D01*
X45552407Y6722735D01*
X46113846Y6954717D01*
X46520332Y7360494D01*
X46923894Y6956227D01*
X47484928Y6723265D01*
X48092407Y6722735D01*
X48653846Y6954717D01*
X48722248Y7023000D01*
X49397237Y7023000D01*
X49463894Y6956227D01*
X50024928Y6723265D01*
X50632407Y6722735D01*
X51193846Y6954717D01*
X51623773Y7383894D01*
X51856735Y7944928D01*
X51857265Y8552407D01*
X51625283Y9113846D01*
X51196106Y9543773D01*
X50635072Y9776735D01*
X50027593Y9777265D01*
X49466154Y9545283D01*
X49397752Y9477000D01*
X49017000Y9477000D01*
X49017000Y9960000D01*
X48998292Y10054053D01*
X48923601Y10429552D01*
X48657620Y10827620D01*
X44977000Y14508240D01*
X44977000Y18500000D01*
X44977212Y18742995D01*
X44790806Y19194131D01*
X44445947Y19539593D01*
X43995136Y19726786D01*
X43750000Y19727000D01*
X43507005Y19727212D01*
X43055869Y19540806D01*
X42710407Y19195947D01*
X42523214Y18745136D01*
X42522788Y18257005D01*
X42523000Y18256492D01*
X42523000Y14000000D01*
X42616400Y13530447D01*
X42788421Y13273000D01*
X42882380Y13132380D01*
X46563000Y9451760D01*
X46563000Y9182763D01*
X46519668Y9139506D01*
X46116106Y9543773D01*
X45555072Y9776735D01*
X44947593Y9777265D01*
X44386154Y9545283D01*
X44317752Y9477000D01*
X40500000Y9477000D01*
X40030447Y9383600D01*
X39635273Y9119553D01*
X39632380Y9117620D01*
X39241760Y8727000D01*
X34024637Y8727000D01*
X33789255Y8962794D01*
X33700217Y8999766D01*
X33786700Y9035500D01*
X34272794Y9520745D01*
X34536190Y10155073D01*
X34536789Y10841913D01*
X34274500Y11476700D01*
X34037000Y11714616D01*
X34037000Y13405670D01*
X34210764Y13665726D01*
X34327000Y14250084D01*
X34327000Y14309916D01*
X34210764Y14894274D01*
X33879752Y15389668D01*
X33384358Y15720680D01*
X32800000Y15836916D01*
X32215642Y15720680D01*
X31895848Y15507000D01*
X30224969Y15507000D01*
X30179255Y15552794D01*
X29648940Y15773000D01*
X32000000Y15773000D01*
X32469553Y15866400D01*
X32867620Y16132380D01*
X37267620Y20532380D01*
X37533601Y20930448D01*
X37627000Y21400000D01*
X37627000Y22667237D01*
X37693773Y22733894D01*
X37926735Y23294928D01*
X37926920Y23507005D01*
X40022788Y23507005D01*
X40023000Y23506492D01*
X40023000Y10750000D01*
X40022788Y10507005D01*
X40209194Y10055869D01*
X40554053Y9710407D01*
X41004864Y9523214D01*
X41250000Y9523000D01*
X41492995Y9522788D01*
X41944131Y9709194D01*
X42289593Y10054053D01*
X42476786Y10504864D01*
X42477212Y10992995D01*
X42477000Y10993508D01*
X42477000Y23750000D01*
X42477212Y23992995D01*
X42290806Y24444131D01*
X41945947Y24789593D01*
X41495136Y24976786D01*
X41250000Y24977000D01*
X41007005Y24977212D01*
X40555869Y24790806D01*
X40210407Y24445947D01*
X40023214Y23995136D01*
X40022788Y23507005D01*
X37926920Y23507005D01*
X37927265Y23902407D01*
X37727000Y24387085D01*
X37727000Y25606139D01*
X38017504Y25800248D01*
X38348516Y26295642D01*
X38464752Y26880000D01*
X38348516Y27464358D01*
X38017504Y27959752D01*
X37522110Y28290764D01*
X36937752Y28407000D01*
X36062248Y28407000D01*
X35477890Y28290764D01*
X34982496Y27959752D01*
X34651484Y27464358D01*
X34535248Y26880000D01*
X34651484Y26295642D01*
X34982496Y25800248D01*
X35273000Y25606139D01*
X35273000Y24632588D01*
X35106227Y24466106D01*
X34873265Y23905072D01*
X34872735Y23297593D01*
X35104717Y22736154D01*
X35173000Y22667752D01*
X35173000Y21908240D01*
X34335270Y21070510D01*
X34341242Y21100000D01*
X34341242Y22700000D01*
X34290549Y22969410D01*
X34131328Y23216846D01*
X33888385Y23382843D01*
X33600000Y23441242D01*
X32000000Y23441242D01*
X31730590Y23390549D01*
X31483154Y23231328D01*
X31317157Y22988385D01*
X31258758Y22700000D01*
X31258758Y21100000D01*
X31309451Y20830590D01*
X31343084Y20778324D01*
X30591760Y20027000D01*
X29647890Y20027000D01*
X30176700Y20245500D01*
X30662794Y20730745D01*
X30926190Y21365073D01*
X30926789Y22051913D01*
X30664500Y22686700D01*
X30427000Y22924616D01*
X30427000Y25322326D01*
X30676700Y25425500D01*
X30934147Y25682497D01*
X31562655Y25692505D01*
X31568672Y25683154D01*
X31811615Y25517157D01*
X32100000Y25458758D01*
X33700000Y25458758D01*
X33969410Y25509451D01*
X34216846Y25668672D01*
X34382843Y25911615D01*
X34441242Y26200000D01*
X34441242Y27800000D01*
X34390549Y28069410D01*
X34231328Y28316846D01*
X34127000Y28388131D01*
X34127000Y29391760D01*
X35361947Y30626707D01*
X35477890Y30549236D01*
X36062248Y30433000D01*
X36937752Y30433000D01*
X37522110Y30549236D01*
X38017504Y30880248D01*
X38348516Y31375642D01*
X38464752Y31960000D01*
X38348516Y32544358D01*
X38017504Y33039752D01*
X38017011Y33040081D01*
X38216846Y33168672D01*
X38382843Y33411615D01*
X38441242Y33700000D01*
X38441242Y35300000D01*
X38390549Y35569410D01*
X38231328Y35816846D01*
X37988385Y35982843D01*
X37700000Y36041242D01*
X35300000Y36041242D01*
X35030590Y35990549D01*
X34783154Y35831328D01*
X34711869Y35727000D01*
X33981535Y35727000D01*
X33979752Y35729668D01*
X33484358Y36060680D01*
X32900000Y36176916D01*
X32315642Y36060680D01*
X31820248Y35729668D01*
X31489236Y35234274D01*
X31417602Y34874147D01*
X31164500Y35486700D01*
X30679255Y35972794D01*
X30044927Y36236190D01*
X29358087Y36236789D01*
X28723300Y35974500D01*
X28485384Y35737000D01*
X26487972Y35737000D01*
X26092983Y36132678D01*
X25384986Y36426665D01*
X24618378Y36427334D01*
X23909868Y36134584D01*
X23367322Y35592983D01*
X23073335Y34884986D01*
X23072666Y34118378D01*
X23365416Y33409868D01*
X23773000Y33001573D01*
X23773000Y28497954D01*
X23367322Y28092983D01*
X23073335Y27384986D01*
X23072666Y26618378D01*
X23365416Y25909868D01*
X23773000Y25501573D01*
X23773000Y23024637D01*
X23537206Y22789255D01*
X23273810Y22154927D01*
X23273211Y21468087D01*
X23535500Y20833300D01*
X23566753Y20801993D01*
X18491760Y15727000D01*
X14203428Y15727000D01*
X14124874Y15917115D01*
X13420821Y16622397D01*
X12500461Y17004564D01*
X11503911Y17005434D01*
X10582885Y16624874D01*
X9877603Y15920821D01*
X9495436Y15000461D01*
X9494566Y14003911D01*
X9875126Y13082885D01*
X10579179Y12377603D01*
X11499539Y11995436D01*
X12496089Y11994566D01*
X13417115Y12375126D01*
X14122397Y13079179D01*
X14202879Y13273000D01*
X18637760Y13273000D01*
X18591760Y13227000D01*
X14900000Y13227000D01*
X14430447Y13133600D01*
X14087900Y12904717D01*
X14032380Y12867620D01*
X12591760Y11427000D01*
X10508240Y11427000D01*
X9127000Y12808240D01*
X9127000Y16191760D01*
X12467620Y19532380D01*
X12541120Y19642380D01*
X12733600Y19930447D01*
X12827000Y20400000D01*
X12827000Y38341760D01*
X16950000Y42464760D01*
X19932380Y39482380D01*
X20330447Y39216400D01*
X20800000Y39123000D01*
X23525000Y39123000D01*
X23776367Y39173000D01*
X25213913Y39173000D01*
X25565520Y39027000D01*
X19708240Y39027000D01*
X18477183Y40258057D01*
X18477265Y40352407D01*
X18245283Y40913846D01*
X17816106Y41343773D01*
X17255072Y41576735D01*
X16647593Y41577265D01*
X16086154Y41345283D01*
X15656227Y40916106D01*
X15423265Y40355072D01*
X15422735Y39747593D01*
X15654717Y39186154D01*
X16083894Y38756227D01*
X16644928Y38523265D01*
X16741579Y38523181D01*
X18332380Y36932380D01*
X18730448Y36666399D01*
X19200000Y36573000D01*
X31329887Y36573000D01*
X31411615Y36517157D01*
X31700000Y36458758D01*
X33300000Y36458758D01*
X33569410Y36509451D01*
X33668168Y36573000D01*
X37600000Y36573000D01*
X37842995Y36572788D01*
X38294131Y36759194D01*
X38639593Y37104053D01*
X38826786Y37554864D01*
X38827212Y38042995D01*
X38640806Y38494131D01*
X38295947Y38839593D01*
X37845136Y39026786D01*
X37600000Y39027000D01*
X37599925Y39027000D01*
X37357005Y39027212D01*
X37356492Y39027000D01*
X33998529Y39027000D01*
X33990549Y39069410D01*
X33831328Y39316846D01*
X33588385Y39482843D01*
X33300000Y39541242D01*
X31700000Y39541242D01*
X31430590Y39490549D01*
X31183154Y39331328D01*
X31017157Y39088385D01*
X31004726Y39027000D01*
X26433738Y39027000D01*
X26863846Y39204717D01*
X26932248Y39273000D01*
X27500000Y39273000D01*
X27969553Y39366400D01*
X28367620Y39632380D01*
X31367620Y42632380D01*
X31367620Y42632381D01*
X31539593Y42804053D01*
X31633599Y43030446D01*
X31633601Y43030448D01*
X31633602Y43030451D01*
X31726786Y43254864D01*
X31727212Y43742995D01*
X31633602Y43969549D01*
X31633601Y43969552D01*
X31633599Y43969555D01*
X31540806Y44194131D01*
X31195947Y44539593D01*
X30969553Y44633600D01*
X30969552Y44633601D01*
X30969549Y44633602D01*
X30745136Y44726786D01*
X30500000Y44727000D01*
X30257005Y44727212D01*
X30030451Y44633602D01*
X30030448Y44633601D01*
X30030447Y44633600D01*
X29805869Y44540806D01*
X29460407Y44195947D01*
X29460194Y44195434D01*
X26991760Y41727000D01*
X26932763Y41727000D01*
X26866106Y41793773D01*
X26305072Y42026735D01*
X25697593Y42027265D01*
X25136154Y41795283D01*
X24967577Y41627000D01*
X23575000Y41627000D01*
X23323631Y41577000D01*
X21308240Y41577000D01*
X18477183Y44408057D01*
X18477265Y44502407D01*
X18245283Y45063846D01*
X17986581Y45323000D01*
X21390000Y45323000D01*
X21859553Y45416400D01*
X22257620Y45682380D01*
X23362256Y46787016D01*
X23395079Y46773387D01*
X24281034Y46772614D01*
X25099846Y47110940D01*
X25726858Y47736858D01*
X26066613Y48555079D01*
X26067386Y49441034D01*
X25729060Y50259846D01*
X25516278Y50473000D01*
X26941760Y50473000D01*
X27092432Y50322328D01*
X27033142Y50263142D01*
X26693387Y49444921D01*
X26692614Y48558966D01*
X27030940Y47740154D01*
X27656858Y47113142D01*
X28475079Y46773387D01*
X29361034Y46772614D01*
X30179846Y47110940D01*
X30806858Y47736858D01*
X31146613Y48555079D01*
X31147386Y49441034D01*
X30809060Y50259846D01*
X30183142Y50886858D01*
X29830646Y51033227D01*
X29787620Y51097620D01*
X28317620Y52567620D01*
X28218874Y52633600D01*
X27919553Y52833600D01*
X27450000Y52927000D01*
X22450000Y52927000D01*
X21980447Y52833600D01*
X21681126Y52633600D01*
X21582380Y52567620D01*
X18991760Y49977000D01*
X15000000Y49977000D01*
X14530448Y49883601D01*
X14132380Y49617620D01*
X9941760Y45427000D01*
X5139296Y45427000D01*
X4864274Y45610764D01*
X4279916Y45727000D01*
X4220084Y45727000D01*
X3635726Y45610764D01*
X3140332Y45279752D01*
X2809320Y44784358D01*
X2693084Y44200000D01*
X802000Y44200000D01*
X802000Y60698000D01*
X97198000Y60698000D01*
X97198000Y802000D01*
M02*
