M48
;DRILL file {KiCad 4.0.7-e2-6376~58~ubuntu14.04.1} date Wed Feb 28 20:46:01 2018
;FORMAT={-:-/ absolute / metric / decimal}
FMAT,2
METRIC,TZ
T1C0.800
T2C0.800
T3C0.900
T4C1.000
T5C1.270
T6C1.520
T7C1.524
T8C2.200
%
G90
G05
M71
T1
X5.25Y25.25
X5.25Y22.75
X5.25Y17.25
X5.25Y14.75
X11.5Y37.95
X11.5Y25.25
X11.5Y22.25
X11.5Y9.55
X16.5Y37.95
X16.5Y25.25
X16.5Y22.25
X16.5Y9.55
X16.5Y6.75
X16.5Y4.75
X16.5Y2.75
X27.25Y16.5
X29.75Y16.5
X32.Y43.62
X32.Y36.
X34.54Y43.62
X34.54Y36.
X37.08Y43.62
X37.08Y36.
X38.25Y31.75
X38.25Y26.75
X38.6Y46.9
X39.62Y43.62
X39.62Y36.
X43.6Y46.9
X49.Y47.
X49.13Y43.5
X49.13Y35.88
X51.67Y43.5
X51.67Y35.88
X54.Y47.
X54.21Y43.5
X54.21Y35.88
X56.75Y43.5
X56.75Y35.88
X60.Y40.7
X60.Y35.7
T2
X21.8Y23.11
X21.8Y15.49
X22.5Y36.06
X22.5Y28.44
X29.8Y10.51
X29.8Y2.89
X32.79Y21.5
X40.41Y21.5
X43.Y36.06
X43.Y28.44
X45.8Y43.71
X45.8Y36.09
X45.8Y32.91
X45.8Y25.29
X49.8Y28.31
X49.8Y20.69
X54.99Y21.5
X62.61Y21.5
T3
X57.2Y14.64
X57.2Y12.1
T4
X27.25Y26.25
X29.79Y26.25
X32.33Y26.25
T5
X41.Y9.9
T6
X11.34Y43.25
X16.42Y43.25
X21.5Y43.25
T7
X34.65Y16.25
X34.65Y3.55
X47.35Y16.25
X47.35Y3.55
T8
X2.5Y47.5
X2.5Y2.5
X72.25Y47.5
X72.25Y2.5
T0
M30
