M48
;DRILL file {KiCad 4.0.7-e2-6376~58~ubuntu14.04.1} date Fri Mar  2 18:34:22 2018
;FORMAT={-:-/ absolute / metric / decimal}
FMAT,2
METRIC,TZ
T1C0.800
T2C0.800
T3C0.900
T4C1.143
T5C1.200
T6C1.500
T7C1.520
T8C1.800
T9C1.847
T10C4.000
T11C2.200
%
G90
G05
M71
T1
X86.1Y25.132
X86.12Y20.932
X86.3Y55.732
X86.32Y60.532
X93.72Y25.132
X93.74Y20.932
X93.92Y55.732
X93.94Y60.532
X98.695Y71.457
X101.195Y71.457
X104.695Y30.957
X104.695Y28.457
X104.695Y41.957
X104.695Y39.457
T2
X106.695Y70.267
X106.695Y62.647
X106.695Y59.267
X106.695Y51.647
X107.195Y24.767
X107.195Y17.147
T3
X98.655Y64.207
X98.695Y56.457
X101.195Y64.207
X101.235Y56.457
X116.445Y35.957
X116.445Y33.417
T4
X91.905Y50.957
X91.905Y43.207
X94.445Y50.957
X94.445Y43.207
X96.985Y50.957
X96.985Y43.207
X98.57Y24.522
X98.57Y21.982
X98.57Y19.442
T5
X75.92Y55.632
X75.92Y50.632
X75.92Y31.732
X75.92Y26.732
X94.32Y36.932
X94.32Y31.932
X115.695Y48.457
X115.695Y43.457
T6
X9.945Y67.457
X9.945Y45.457
X68.445Y14.207
X71.92Y67.532
X90.445Y14.207
X93.92Y67.532
T7
X9.945Y38.537
X9.945Y33.457
X112.945Y66.367
X112.945Y61.287
X112.945Y56.207
X114.695Y27.707
X114.695Y22.627
T8
X23.95Y11.45
X24.45Y72.45
X57.95Y71.95
X58.95Y11.45
X75.95Y40.95
T9
X9.445Y23.156
X9.445Y18.457
X9.445Y13.758
T11
X4.Y4.
X6.Y78.75
X120.Y79.75
X120.Y4.25
T10
X41.45Y76.45G85X41.45Y72.45
G05
X41.45Y11.45G85X41.45Y7.45
G05
T0
M30
