G04 #@! TF.FileFunction,Copper,L2,Bot,Signal*
%FSLAX46Y46*%
G04 Gerber Fmt 4.6, Leading zero omitted, Abs format (unit mm)*
G04 Created by KiCad (PCBNEW 4.0.7-e2-6376~58~ubuntu14.04.1) date Fri Mar  2 18:34:20 2018*
%MOMM*%
%LPD*%
G01*
G04 APERTURE LIST*
%ADD10C,0.100000*%
%ADD11R,3.000000X3.000000*%
%ADD12C,3.000000*%
%ADD13C,1.998980*%
%ADD14R,1.600000X1.600000*%
%ADD15O,1.600000X1.600000*%
%ADD16R,1.800000X1.800000*%
%ADD17C,1.800000*%
%ADD18C,2.997200*%
%ADD19R,2.400000X2.400000*%
%ADD20C,2.400000*%
%ADD21O,2.032000X2.540000*%
%ADD22O,2.540000X2.032000*%
%ADD23O,4.000000X2.500000*%
%ADD24O,2.500000X4.000000*%
%ADD25C,1.600000*%
%ADD26O,4.000000X8.000000*%
%ADD27C,1.200000*%
%ADD28C,0.800000*%
%ADD29C,0.254000*%
G04 APERTURE END LIST*
D10*
D11*
X112944544Y56207360D03*
D12*
X112944544Y61287360D03*
X112944544Y66367360D03*
D11*
X114694543Y27707359D03*
D12*
X114694543Y22627359D03*
D11*
X9944543Y33457359D03*
D12*
X9944543Y38537359D03*
D13*
X106694544Y51647359D03*
X106694544Y59267359D03*
X107194544Y17147360D03*
X107194544Y24767360D03*
X106694544Y70267360D03*
X106694544Y62647360D03*
D14*
X86319543Y60532359D03*
D15*
X93939543Y60532359D03*
D14*
X86119544Y20932360D03*
D15*
X93739544Y20932360D03*
D14*
X93919543Y55732359D03*
D15*
X86299543Y55732359D03*
D14*
X93719544Y25132360D03*
D15*
X86099544Y25132360D03*
D16*
X101194543Y64207359D03*
D17*
X98654543Y64207359D03*
D16*
X116444544Y35957359D03*
D17*
X116444544Y33417359D03*
D16*
X98694544Y56457359D03*
D17*
X101234544Y56457359D03*
D18*
X9444544Y13758359D03*
X9444544Y18457359D03*
X9444544Y23156359D03*
D19*
X94319544Y31932360D03*
D20*
X94319544Y36932360D03*
D19*
X115694544Y48457360D03*
D20*
X115694544Y43457360D03*
D19*
X75919544Y26732359D03*
D20*
X75919544Y31732359D03*
D19*
X75919544Y50632359D03*
D20*
X75919544Y55632359D03*
D21*
X94444544Y43207359D03*
X96984544Y43207359D03*
X91904544Y43207359D03*
D22*
X98569544Y21982359D03*
X98569544Y19442359D03*
X98569544Y24522359D03*
D21*
X94444544Y50957360D03*
X91904544Y50957360D03*
X96984544Y50957360D03*
D23*
X93919543Y67532359D03*
X71919543Y67532359D03*
X90444544Y14207359D03*
X68444544Y14207359D03*
D24*
X9944544Y67457359D03*
X9944544Y45457359D03*
D14*
X104694544Y41957359D03*
D25*
X104694544Y39457359D03*
D14*
X104694543Y28457359D03*
D25*
X104694543Y30957359D03*
D14*
X98694543Y71457359D03*
D25*
X101194543Y71457359D03*
D12*
X23950000Y11450000D03*
X75950000Y40950000D03*
D26*
X41450000Y74450000D03*
D12*
X57950000Y71950000D03*
X58950000Y11450000D03*
X24450000Y72450000D03*
D26*
X41450000Y9450000D03*
D27*
X36145543Y13758359D02*
X36419544Y14032360D01*
X36419544Y14032360D02*
X36220543Y13833359D01*
X91404543Y43207359D02*
X89819544Y41622359D01*
X89819544Y41622359D02*
X89819544Y30132359D01*
X91404543Y43207359D02*
X91904543Y43207360D01*
X109694543Y37457359D02*
X109694543Y45707359D01*
X98569544Y30482360D02*
X98569544Y33332359D01*
X100694544Y35457359D02*
X98569544Y33332359D01*
X107694543Y35457359D02*
X100694544Y35457359D01*
X109694543Y37457359D02*
X107694543Y35457359D01*
X112444544Y48457360D02*
X115694544Y48457360D01*
X109694543Y45707359D02*
X112444544Y48457360D01*
X98569543Y24522359D02*
X98569544Y30482360D01*
X97119544Y31932360D02*
X94319544Y31932360D01*
X98569544Y30482360D02*
X97119544Y31932360D01*
X94319544Y31932360D02*
X91619543Y31932359D01*
X91619543Y31932359D02*
X89819544Y30132359D01*
X88019543Y20932359D02*
X86119544Y20932360D01*
X89819544Y30132359D02*
X89819544Y22732360D01*
X89819544Y22732360D02*
X88019543Y20932359D01*
X83719544Y23332359D02*
X80319544Y26732359D01*
X80319544Y26732359D02*
X75919544Y26732359D01*
X86319543Y60532359D02*
X83719543Y57932359D01*
X83719544Y23332359D02*
X86119544Y20932360D01*
X83719543Y57932359D02*
X83719544Y23332359D01*
X112944544Y56207360D02*
X112944544Y55207359D01*
X112944544Y55207359D02*
X109384544Y51647359D01*
X109384544Y51647359D02*
X106694544Y51647359D01*
X102694544Y45957360D02*
X102694544Y48957359D01*
X105384544Y51647359D02*
X106694544Y51647359D01*
X102694544Y48957359D02*
X105384544Y51647359D01*
X104694544Y41957359D02*
X102694544Y43957359D01*
X102694544Y43957359D02*
X102694544Y45957360D01*
X100369544Y43632359D02*
X96909544Y43632359D01*
X102694544Y45957360D02*
X100369544Y43632359D01*
X105944544Y22207360D02*
X109194544Y22207360D01*
X104694544Y24207360D02*
X104694544Y23457360D01*
X104694544Y23457360D02*
X105944544Y22207360D01*
X109194544Y22207360D02*
X114694543Y27707359D01*
X98569544Y19442359D02*
X101679544Y19442359D01*
X101679544Y19442359D02*
X104694544Y22457359D01*
X104694544Y22457359D02*
X104694544Y19647359D01*
X104694543Y28457359D02*
X104694544Y24207360D01*
X104694544Y24207360D02*
X104694544Y22457359D01*
X104694544Y19647359D02*
X107194544Y17147359D01*
X91904543Y50957359D02*
X89694543Y53167359D01*
X89694543Y54957359D02*
X89719543Y54957360D01*
X89694543Y53167359D02*
X89694543Y54957359D01*
X89719543Y54957360D02*
X89719544Y59152359D01*
X75919544Y55632359D02*
X75919543Y57632359D01*
X89719544Y59152359D02*
X86299544Y55732359D01*
X89719544Y62232359D02*
X89719544Y59152359D01*
X87219544Y64732359D02*
X89719544Y62232359D01*
X83019544Y64732360D02*
X87219544Y64732359D01*
X75919543Y57632359D02*
X83019544Y64732360D01*
X86099544Y25132359D02*
X86299544Y25332359D01*
X86299544Y25332359D02*
X86299544Y55732359D01*
X94444544Y50957360D02*
X94444544Y52207359D01*
X94444544Y52207359D02*
X96194544Y53957359D01*
X106694544Y70267360D02*
X102754544Y70267359D01*
X102754544Y70267359D02*
X101194544Y68707359D01*
X96194543Y65207360D02*
X97944544Y66957360D01*
X97944544Y66957360D02*
X99444544Y66957359D01*
X99444544Y66957359D02*
X101194544Y68707359D01*
X96194544Y53957359D02*
X96194543Y65207360D01*
X101194544Y68707359D02*
X101194543Y71457359D01*
X106884543Y70457359D02*
X108354543Y70457359D01*
X108354543Y70457359D02*
X113444544Y65867360D01*
X106884543Y70457359D02*
X106694544Y70267360D01*
D28*
X101234544Y56457359D02*
X102194543Y56457359D01*
X105004544Y59267360D02*
X106694544Y59267359D01*
X102194543Y56457359D02*
X105004544Y59267360D01*
X107194543Y24767359D02*
X107194544Y28957359D01*
X111654544Y33417359D02*
X116444544Y33417360D01*
X107194544Y28957359D02*
X111654544Y33417359D01*
D27*
X90444543Y14207359D02*
X90444543Y15957360D01*
X93739544Y19252360D02*
X93739544Y20932359D01*
X90444543Y15957360D02*
X93739544Y19252360D01*
X93739544Y20932359D02*
X93739544Y25112359D01*
X93739544Y25112359D02*
X93719544Y25132360D01*
X93919543Y55732359D02*
X93919544Y60512359D01*
X93919544Y60512359D02*
X93939544Y60532359D01*
X93919543Y67532359D02*
X93919544Y60552359D01*
D28*
X106694544Y62647359D02*
X102504544Y62647359D01*
X102504544Y62647359D02*
X101194543Y64207359D01*
D27*
X9944544Y67457359D02*
X19457359Y67457359D01*
X19457359Y67457359D02*
X24450000Y72450000D01*
X9944544Y38537359D02*
X9944544Y45457359D01*
X58950000Y11450000D02*
X61707359Y14207359D01*
X61707359Y14207359D02*
X68444544Y14207359D01*
X68444544Y14207359D02*
X68344544Y14107360D01*
X62450000Y67532359D02*
X62367641Y67532359D01*
X62367641Y67532359D02*
X57950000Y71950000D01*
X62419544Y67532359D02*
X62450000Y67532359D01*
X62450000Y67532359D02*
X71919543Y67532359D01*
X9444544Y18457359D02*
X11444544Y18457360D01*
X12944543Y30457359D02*
X9944543Y33457359D01*
X12944543Y19957359D02*
X12944543Y30457359D01*
X11444544Y18457360D02*
X12944543Y19957359D01*
D28*
X9194544Y18457360D02*
X9444544Y18457359D01*
D27*
X19000000Y13758359D02*
X21641641Y13758359D01*
X21641641Y13758359D02*
X23950000Y11450000D01*
X9444544Y13758360D02*
X19000000Y13758359D01*
X19000000Y13758359D02*
X19395543Y13758359D01*
D28*
X9444544Y13758360D02*
X9643543Y13957360D01*
D29*
G36*
X123698000Y802000D02*
X802000Y802000D01*
X802000Y3638182D01*
X2172684Y3638182D01*
X2450242Y2966440D01*
X2963736Y2452048D01*
X3634993Y2173318D01*
X4361818Y2172684D01*
X5033560Y2450242D01*
X5547952Y2963736D01*
X5826682Y3634993D01*
X5826902Y3888182D01*
X118172684Y3888182D01*
X118450242Y3216440D01*
X118963736Y2702048D01*
X119634993Y2423318D01*
X120361818Y2422684D01*
X121033560Y2700242D01*
X121547952Y3213736D01*
X121826682Y3884993D01*
X121827316Y4611818D01*
X121549758Y5283560D01*
X121036264Y5797952D01*
X120365007Y6076682D01*
X119638182Y6077316D01*
X118966440Y5799758D01*
X118452048Y5286264D01*
X118173318Y4615007D01*
X118172684Y3888182D01*
X5826902Y3888182D01*
X5827316Y4361818D01*
X5549758Y5033560D01*
X5036264Y5547952D01*
X4365007Y5826682D01*
X3638182Y5827316D01*
X2966440Y5549758D01*
X2452048Y5036264D01*
X2173318Y4365007D01*
X2172684Y3638182D01*
X802000Y3638182D01*
X802000Y17976994D01*
X7018524Y17976994D01*
X7387022Y17085162D01*
X8068758Y16402235D01*
X8778338Y16107591D01*
X8072347Y15815881D01*
X7389420Y15134145D01*
X7019366Y14242957D01*
X7018524Y13277994D01*
X7387022Y12386162D01*
X8068758Y11703235D01*
X8959946Y11333181D01*
X9924909Y11332339D01*
X10816741Y11700837D01*
X11348191Y12231360D01*
X19000000Y12231359D01*
X21009137Y12231359D01*
X21523232Y11717264D01*
X21522579Y10969358D01*
X21891290Y10077011D01*
X22573420Y9393689D01*
X23465122Y9023422D01*
X24430642Y9022579D01*
X25322989Y9391290D01*
X26006311Y10073420D01*
X26376578Y10965122D01*
X26377082Y11542607D01*
X38723000Y11542607D01*
X38723000Y7357393D01*
X38930581Y6313815D01*
X39521720Y5429113D01*
X40406422Y4837974D01*
X41450000Y4630393D01*
X42493578Y4837974D01*
X43378280Y5429113D01*
X43969419Y6313815D01*
X44177000Y7357393D01*
X44177000Y10969358D01*
X56522579Y10969358D01*
X56891290Y10077011D01*
X57573420Y9393689D01*
X58465122Y9023422D01*
X59430642Y9022579D01*
X60322989Y9391290D01*
X61006311Y10073420D01*
X61376578Y10965122D01*
X61377235Y11717731D01*
X62339863Y12680359D01*
X66089564Y12680359D01*
X66097830Y12667988D01*
X66804099Y12196073D01*
X67637201Y12030359D01*
X69251887Y12030359D01*
X70084989Y12196073D01*
X70791258Y12667988D01*
X71263173Y13374257D01*
X71428887Y14207359D01*
X87460201Y14207359D01*
X87625915Y13374257D01*
X88097830Y12667988D01*
X88804099Y12196073D01*
X89637201Y12030359D01*
X91251887Y12030359D01*
X92084989Y12196073D01*
X92791258Y12667988D01*
X93263173Y13374257D01*
X93428887Y14207359D01*
X93263173Y15040461D01*
X92791258Y15746730D01*
X92552770Y15906083D01*
X94819296Y18172608D01*
X95150308Y18668002D01*
X95266544Y19252359D01*
X95266544Y19442359D01*
X96329502Y19442359D01*
X96477404Y18698805D01*
X96898594Y18068451D01*
X97528948Y17647261D01*
X98272502Y17499359D01*
X98866586Y17499359D01*
X99610140Y17647261D01*
X100011376Y17915359D01*
X101679544Y17915359D01*
X102263902Y18031595D01*
X102759296Y18362607D01*
X103354240Y18957551D01*
X103420756Y18858002D01*
X103614792Y18567607D01*
X105267850Y16914549D01*
X105267720Y16765839D01*
X105560393Y16057517D01*
X106101850Y15515114D01*
X106809660Y15221205D01*
X107576065Y15220536D01*
X108284387Y15513209D01*
X108826790Y16054666D01*
X109120699Y16762476D01*
X109121368Y17528881D01*
X108828695Y18237203D01*
X108287238Y18779606D01*
X107579428Y19073515D01*
X107427760Y19073647D01*
X106221544Y20279863D01*
X106221544Y20680360D01*
X109194544Y20680360D01*
X109778902Y20796596D01*
X110274296Y21127608D01*
X114408886Y25262198D01*
X116194543Y25262198D01*
X116538069Y25326837D01*
X116853576Y25529860D01*
X117065239Y25839638D01*
X117139704Y26207359D01*
X117139704Y29207359D01*
X117075065Y29550885D01*
X116872042Y29866392D01*
X116562264Y30078055D01*
X116194543Y30152520D01*
X113194543Y30152520D01*
X112851017Y30087881D01*
X112535510Y29884858D01*
X112323847Y29575080D01*
X112249382Y29207359D01*
X112249382Y27421702D01*
X108686844Y23859164D01*
X108920734Y24422433D01*
X108921333Y25109273D01*
X108659044Y25744060D01*
X108321543Y26082151D01*
X108321544Y28490541D01*
X112121363Y32290359D01*
X115270657Y32290360D01*
X115521719Y32038860D01*
X116119494Y31790642D01*
X116766755Y31790077D01*
X117364962Y32037251D01*
X117823043Y32494534D01*
X118071261Y33092309D01*
X118071826Y33739570D01*
X117824652Y34337777D01*
X117367369Y34795858D01*
X116769594Y35044076D01*
X116122333Y35044641D01*
X115524126Y34797467D01*
X115270577Y34544360D01*
X111654544Y34544359D01*
X111294814Y34472804D01*
X111223259Y34458571D01*
X110857634Y34214268D01*
X106397635Y29754268D01*
X106335859Y29661813D01*
X106172042Y29916392D01*
X105862264Y30128055D01*
X105494543Y30202520D01*
X103894543Y30202520D01*
X103551017Y30137881D01*
X103235510Y29934858D01*
X103023847Y29625080D01*
X102949382Y29257359D01*
X102949382Y27657359D01*
X103014021Y27313833D01*
X103167543Y27075252D01*
X103167544Y24207360D01*
X103167544Y23089863D01*
X101047040Y20969359D01*
X100011376Y20969359D01*
X99610140Y21237457D01*
X98866586Y21385359D01*
X98272502Y21385359D01*
X97528948Y21237457D01*
X96898594Y20816267D01*
X96477404Y20185913D01*
X96329502Y19442359D01*
X95266544Y19442359D01*
X95266544Y20118253D01*
X95368918Y20271466D01*
X95500378Y20932360D01*
X95368918Y21593254D01*
X95266544Y21746467D01*
X95266544Y23783605D01*
X95390240Y23964639D01*
X95464705Y24332360D01*
X95464705Y25932360D01*
X95400066Y26275886D01*
X95197043Y26591393D01*
X94887265Y26803056D01*
X94519544Y26877521D01*
X92919544Y26877521D01*
X92576018Y26812882D01*
X92260511Y26609859D01*
X92048848Y26300081D01*
X91974383Y25932360D01*
X91974383Y24332360D01*
X92039022Y23988834D01*
X92212544Y23719173D01*
X92212544Y21746467D01*
X92110170Y21593254D01*
X91978710Y20932360D01*
X92110170Y20271466D01*
X92212544Y20118253D01*
X92212544Y19884864D01*
X89364791Y17037112D01*
X89033779Y16541718D01*
X88976330Y16252904D01*
X88804099Y16218645D01*
X88097830Y15746730D01*
X87625915Y15040461D01*
X87460201Y14207359D01*
X71428887Y14207359D01*
X71263173Y15040461D01*
X70791258Y15746730D01*
X70084989Y16218645D01*
X69251887Y16384359D01*
X67637201Y16384359D01*
X66804099Y16218645D01*
X66097830Y15746730D01*
X66089564Y15734359D01*
X61707359Y15734359D01*
X61123001Y15618123D01*
X60627607Y15287111D01*
X59217264Y13876768D01*
X58469358Y13877421D01*
X57577011Y13508710D01*
X56893689Y12826580D01*
X56523422Y11934878D01*
X56522579Y10969358D01*
X44177000Y10969358D01*
X44177000Y11542607D01*
X43969419Y12586185D01*
X43378280Y13470887D01*
X42493578Y14062026D01*
X41450000Y14269607D01*
X40406422Y14062026D01*
X39521720Y13470887D01*
X38930581Y12586185D01*
X38723000Y11542607D01*
X26377082Y11542607D01*
X26377421Y11930642D01*
X26008710Y12822989D01*
X25326580Y13506311D01*
X24719581Y13758359D01*
X34818543Y13758359D01*
X34919555Y13250538D01*
X35207212Y12820028D01*
X35637722Y12532371D01*
X36145543Y12431359D01*
X36653364Y12532371D01*
X37083874Y12820028D01*
X37357875Y13094029D01*
X37645532Y13524539D01*
X37746544Y14032360D01*
X37645532Y14540181D01*
X37357875Y14970691D01*
X36927365Y15258348D01*
X36419544Y15359360D01*
X35911723Y15258348D01*
X35481213Y14970691D01*
X35207212Y14696690D01*
X34919555Y14266180D01*
X34818543Y13758359D01*
X24719581Y13758359D01*
X24434878Y13876578D01*
X23682269Y13877235D01*
X22721392Y14838112D01*
X22225999Y15169123D01*
X21641641Y15285359D01*
X19000000Y15285359D01*
X11347532Y15285360D01*
X10820330Y15813483D01*
X10110750Y16108127D01*
X10816741Y16399837D01*
X11348191Y16930360D01*
X11444545Y16930360D01*
X12028903Y17046596D01*
X12524297Y17377609D01*
X14024295Y18877607D01*
X14148172Y19063002D01*
X14355307Y19373001D01*
X14471543Y19957359D01*
X14471543Y27932359D01*
X73774383Y27932359D01*
X73774383Y25532359D01*
X73839022Y25188833D01*
X74042045Y24873326D01*
X74351823Y24661663D01*
X74719544Y24587198D01*
X77119544Y24587198D01*
X77463070Y24651837D01*
X77778577Y24854860D01*
X77990240Y25164638D01*
X77998486Y25205359D01*
X79687040Y25205359D01*
X82639792Y22252607D01*
X84374383Y20518017D01*
X84374383Y20132360D01*
X84439022Y19788834D01*
X84642045Y19473327D01*
X84951823Y19261664D01*
X85319544Y19187199D01*
X86919544Y19187199D01*
X87263070Y19251838D01*
X87501649Y19405359D01*
X88019543Y19405359D01*
X88603900Y19521595D01*
X88627124Y19537113D01*
X89099294Y19852606D01*
X90899296Y21652608D01*
X91046558Y21873001D01*
X91230308Y22148002D01*
X91346544Y22732360D01*
X91346544Y29499855D01*
X92238468Y30391779D01*
X92239022Y30388834D01*
X92442045Y30073327D01*
X92751823Y29861664D01*
X93119544Y29787199D01*
X95519544Y29787199D01*
X95863070Y29851838D01*
X96178577Y30054861D01*
X96390240Y30364639D01*
X96398486Y30405360D01*
X96487040Y30405360D01*
X97042544Y29849856D01*
X97042543Y25992451D01*
X96898594Y25896267D01*
X96477404Y25265913D01*
X96329502Y24522359D01*
X96477404Y23778805D01*
X96898594Y23148451D01*
X97528948Y22727261D01*
X98272502Y22579359D01*
X98866586Y22579359D01*
X99610140Y22727261D01*
X100240494Y23148451D01*
X100661684Y23778805D01*
X100809586Y24522359D01*
X100661684Y25265913D01*
X100240494Y25896267D01*
X100096543Y25992452D01*
X100096544Y30482360D01*
X100096544Y32699855D01*
X101327048Y33930359D01*
X107694543Y33930359D01*
X108278901Y34046595D01*
X108774295Y34377607D01*
X110774295Y36377607D01*
X110880872Y36537111D01*
X111105307Y36873001D01*
X111221543Y37457359D01*
X111221543Y45074855D01*
X113077048Y46930360D01*
X113610912Y46930360D01*
X113614022Y46913834D01*
X113817045Y46598327D01*
X114126823Y46386664D01*
X114494544Y46312199D01*
X116894544Y46312199D01*
X117238070Y46376838D01*
X117553577Y46579861D01*
X117765240Y46889639D01*
X117839705Y47257360D01*
X117839705Y49657360D01*
X117775066Y50000886D01*
X117572043Y50316393D01*
X117262265Y50528056D01*
X116894544Y50602521D01*
X114494544Y50602521D01*
X114151018Y50537882D01*
X113835511Y50334859D01*
X113623848Y50025081D01*
X113615602Y49984360D01*
X112444544Y49984360D01*
X111860187Y49868125D01*
X111364792Y49537112D01*
X108614791Y46787111D01*
X108283779Y46291717D01*
X108167543Y45707359D01*
X108167543Y38089863D01*
X107062039Y36984359D01*
X100694544Y36984359D01*
X100110186Y36868123D01*
X99614792Y36537111D01*
X97489792Y34412111D01*
X97158780Y33916717D01*
X97067806Y33459360D01*
X96403176Y33459360D01*
X96400066Y33475886D01*
X96197043Y33791393D01*
X95887265Y34003056D01*
X95519544Y34077521D01*
X93119544Y34077521D01*
X92776018Y34012882D01*
X92460511Y33809859D01*
X92248848Y33500081D01*
X92240602Y33459359D01*
X91619542Y33459359D01*
X91346544Y33405056D01*
X91346544Y40989855D01*
X91420323Y41063634D01*
X91904544Y40967317D01*
X92648098Y41115219D01*
X93278452Y41536409D01*
X93699642Y42166763D01*
X93847544Y42910317D01*
X93847544Y43504401D01*
X95041544Y43504401D01*
X95041544Y42910317D01*
X95189446Y42166763D01*
X95610636Y41536409D01*
X96240990Y41115219D01*
X96984544Y40967317D01*
X97728098Y41115219D01*
X98358452Y41536409D01*
X98738613Y42105359D01*
X100369544Y42105359D01*
X100953902Y42221595D01*
X101449296Y42552607D01*
X101694544Y42797855D01*
X102949383Y41543016D01*
X102949383Y41157359D01*
X103014022Y40813833D01*
X103217045Y40498326D01*
X103526823Y40286663D01*
X103894544Y40212198D01*
X105494544Y40212198D01*
X105838070Y40276837D01*
X106153577Y40479860D01*
X106365240Y40789638D01*
X106439705Y41157359D01*
X106439705Y42757359D01*
X106375066Y43100885D01*
X106172043Y43416392D01*
X105862265Y43628055D01*
X105494544Y43702520D01*
X105108887Y43702520D01*
X104221544Y44589863D01*
X104221544Y48324855D01*
X105820861Y49924172D01*
X106309660Y49721204D01*
X107076065Y49720535D01*
X107784387Y50013208D01*
X107891725Y50120359D01*
X109384544Y50120359D01*
X109968902Y50236595D01*
X110464296Y50567607D01*
X113658888Y53762199D01*
X114444544Y53762199D01*
X114788070Y53826838D01*
X115103577Y54029861D01*
X115315240Y54339639D01*
X115389705Y54707360D01*
X115389705Y57707360D01*
X115325066Y58050886D01*
X115122043Y58366393D01*
X114812265Y58578056D01*
X114444544Y58652521D01*
X111444544Y58652521D01*
X111101018Y58587882D01*
X110785511Y58384859D01*
X110573848Y58075081D01*
X110499383Y57707360D01*
X110499383Y54921702D01*
X108752040Y53174359D01*
X107892300Y53174359D01*
X107787238Y53279605D01*
X107079428Y53573514D01*
X106313023Y53574183D01*
X105604701Y53281510D01*
X105497363Y53174359D01*
X105384544Y53174359D01*
X104800186Y53058123D01*
X104304792Y52727111D01*
X101614792Y50037111D01*
X101283780Y49541717D01*
X101167544Y48957359D01*
X101167544Y46589864D01*
X99737040Y45159359D01*
X97937832Y45159359D01*
X97728098Y45299499D01*
X96984544Y45447401D01*
X96240990Y45299499D01*
X95610636Y44878309D01*
X95189446Y44247955D01*
X95041544Y43504401D01*
X93847544Y43504401D01*
X93699642Y44247955D01*
X93278452Y44878309D01*
X92648098Y45299499D01*
X91904544Y45447401D01*
X91160990Y45299499D01*
X90530636Y44878309D01*
X90109446Y44247955D01*
X90065698Y44028018D01*
X88739792Y42702111D01*
X88408780Y42206717D01*
X88292544Y41622359D01*
X88292544Y23364864D01*
X87431906Y22504226D01*
X87287265Y22603056D01*
X86919544Y22677521D01*
X86533887Y22677521D01*
X85741572Y23469835D01*
X86065710Y23405360D01*
X86133378Y23405360D01*
X86794272Y23536820D01*
X87354551Y23911187D01*
X87728918Y24471466D01*
X87860378Y25132360D01*
X87823570Y25317407D01*
X87826544Y25332359D01*
X87826544Y54918253D01*
X87928917Y55071465D01*
X87961386Y55234697D01*
X88192543Y55465854D01*
X88192543Y55083043D01*
X88167543Y54957359D01*
X88167543Y53167359D01*
X88283779Y52583001D01*
X88534775Y52207359D01*
X88614791Y52087607D01*
X89961544Y50740854D01*
X89961544Y50660318D01*
X90109446Y49916764D01*
X90530636Y49286410D01*
X91160990Y48865220D01*
X91904544Y48717318D01*
X92648098Y48865220D01*
X93174544Y49216981D01*
X93700990Y48865220D01*
X94444544Y48717318D01*
X95188098Y48865220D01*
X95818452Y49286410D01*
X96239642Y49916764D01*
X96387544Y50660318D01*
X96387544Y51254402D01*
X96265359Y51868670D01*
X97274296Y52877607D01*
X97467902Y53167359D01*
X97605308Y53373001D01*
X97721544Y53957359D01*
X97721543Y64574856D01*
X98577047Y65430360D01*
X99444543Y65430359D01*
X99444544Y65430359D01*
X99665364Y65474283D01*
X99611700Y65395744D01*
X99553301Y65107359D01*
X99553301Y63307359D01*
X99603994Y63037949D01*
X99763215Y62790513D01*
X100006158Y62624516D01*
X100294543Y62566117D01*
X101101106Y62566117D01*
X101641486Y61922611D01*
X101680122Y61891627D01*
X101707635Y61850450D01*
X101850489Y61754998D01*
X101984531Y61647501D01*
X102032083Y61633660D01*
X102073260Y61606147D01*
X102241775Y61572627D01*
X102406744Y61524611D01*
X102455970Y61530021D01*
X102504544Y61520359D01*
X105380082Y61520359D01*
X105715289Y61184566D01*
X106263028Y60957125D01*
X105717844Y60731859D01*
X105379754Y60394360D01*
X105004545Y60394360D01*
X104573260Y60308572D01*
X104207635Y60064270D01*
X102031492Y57888127D01*
X101559594Y58084076D01*
X100912333Y58084641D01*
X100314126Y57837467D01*
X99856045Y57380184D01*
X99607827Y56782409D01*
X99607262Y56135148D01*
X99854436Y55536941D01*
X100311719Y55078860D01*
X100909494Y54830642D01*
X101556755Y54830077D01*
X102154962Y55077251D01*
X102461757Y55383511D01*
X102625827Y55416147D01*
X102991452Y55660450D01*
X105425682Y58094679D01*
X105715289Y57804565D01*
X106349617Y57541169D01*
X107036457Y57540570D01*
X107671244Y57802859D01*
X108157338Y58288104D01*
X108420734Y58922432D01*
X108421333Y59609272D01*
X108159044Y60244059D01*
X107673799Y60730153D01*
X107126060Y60957594D01*
X107671244Y61182860D01*
X108157338Y61668105D01*
X108420734Y62302433D01*
X108421333Y62989273D01*
X108159044Y63624060D01*
X107673799Y64110154D01*
X107039471Y64373550D01*
X106352631Y64374149D01*
X105717844Y64111860D01*
X105379752Y63774359D01*
X103029813Y63774359D01*
X102835785Y64005415D01*
X102835785Y65107359D01*
X102785092Y65376769D01*
X102625871Y65624205D01*
X102382928Y65790202D01*
X102094543Y65848601D01*
X100480886Y65848601D01*
X100524295Y65877606D01*
X103387048Y68740359D01*
X105496788Y68740360D01*
X105601850Y68635114D01*
X106309660Y68341205D01*
X107076065Y68340536D01*
X107784387Y68633209D01*
X107932871Y68781434D01*
X110517615Y66450595D01*
X110517123Y65886718D01*
X110885834Y64994371D01*
X111567964Y64311049D01*
X112459666Y63940782D01*
X113425186Y63939939D01*
X114317533Y64308650D01*
X115000855Y64990780D01*
X115371122Y65882482D01*
X115371965Y66848002D01*
X115003254Y67740349D01*
X114321124Y68423671D01*
X113429422Y68793938D01*
X112478405Y68794768D01*
X109377159Y71591372D01*
X109154457Y71724093D01*
X108938901Y71868123D01*
X108899692Y71875922D01*
X108865349Y71896389D01*
X108608806Y71933783D01*
X108354543Y71984359D01*
X107583131Y71984359D01*
X107079428Y72193515D01*
X106313023Y72194184D01*
X105604701Y71901511D01*
X105497362Y71794360D01*
X102921838Y71794359D01*
X102921842Y71799373D01*
X102659476Y72434348D01*
X102174087Y72920585D01*
X101539572Y73184059D01*
X100852529Y73184658D01*
X100217554Y72922292D01*
X99731317Y72436903D01*
X99467843Y71802388D01*
X99467244Y71115345D01*
X99667543Y70630583D01*
X99667544Y69339863D01*
X98812040Y68484359D01*
X97944545Y68484360D01*
X97944544Y68484360D01*
X97360187Y68368124D01*
X96871684Y68041717D01*
X96864792Y68037112D01*
X96813656Y67985976D01*
X96738172Y68365461D01*
X96266257Y69071730D01*
X95559988Y69543645D01*
X94726886Y69709359D01*
X93112200Y69709359D01*
X92279098Y69543645D01*
X91572829Y69071730D01*
X91100914Y68365461D01*
X90935200Y67532359D01*
X91100914Y66699257D01*
X91572829Y65992988D01*
X92279098Y65521073D01*
X92392543Y65498507D01*
X92392544Y61316536D01*
X92310169Y61193253D01*
X92178709Y60532359D01*
X92310169Y59871465D01*
X92392544Y59748183D01*
X92392543Y57110386D01*
X92248847Y56900080D01*
X92174382Y56532359D01*
X92174382Y54932359D01*
X92239021Y54588833D01*
X92442044Y54273326D01*
X92751822Y54061663D01*
X93119543Y53987198D01*
X94064879Y53987198D01*
X93364792Y53287111D01*
X93033816Y52791771D01*
X92648098Y53049500D01*
X91904544Y53197402D01*
X91837366Y53184040D01*
X91221543Y53799863D01*
X91221543Y54831676D01*
X91246543Y54957360D01*
X91246544Y59152359D01*
X91246544Y62232359D01*
X91130308Y62816717D01*
X90799296Y63312111D01*
X88299296Y65812111D01*
X88187639Y65886718D01*
X87803902Y66143123D01*
X87219544Y66259359D01*
X83019544Y66259360D01*
X82435187Y66143125D01*
X81939792Y65812112D01*
X74839791Y58712111D01*
X74508779Y58216716D01*
X74414272Y57741595D01*
X74392543Y57632358D01*
X74392543Y57113431D01*
X74117413Y56838781D01*
X73792914Y56057302D01*
X73792176Y55211129D01*
X74115310Y54429085D01*
X74713122Y53830228D01*
X75494601Y53505729D01*
X76340774Y53504991D01*
X77122818Y53828125D01*
X77721675Y54425937D01*
X78046174Y55207416D01*
X78046912Y56053589D01*
X77723778Y56835633D01*
X77503242Y57056554D01*
X83652048Y63205360D01*
X86587040Y63205359D01*
X88192544Y61599855D01*
X88192544Y59784863D01*
X88045574Y59637893D01*
X88064704Y59732359D01*
X88064704Y61332359D01*
X88000065Y61675885D01*
X87797042Y61991392D01*
X87487264Y62203055D01*
X87119543Y62277520D01*
X85519543Y62277520D01*
X85176017Y62212881D01*
X84860510Y62009858D01*
X84648847Y61700080D01*
X84574382Y61332359D01*
X84574382Y60946702D01*
X82639791Y59012111D01*
X82308779Y58516717D01*
X82192543Y57932359D01*
X82192544Y27018863D01*
X81399296Y27812111D01*
X81219332Y27932359D01*
X80903902Y28143123D01*
X80319544Y28259359D01*
X78003176Y28259359D01*
X78000066Y28275885D01*
X77797043Y28591392D01*
X77487265Y28803055D01*
X77119544Y28877520D01*
X74719544Y28877520D01*
X74376018Y28812881D01*
X74060511Y28609858D01*
X73848848Y28300080D01*
X73774383Y27932359D01*
X14471543Y27932359D01*
X14471543Y30457359D01*
X14458766Y30521595D01*
X14355308Y31041716D01*
X14024295Y31537111D01*
X12389704Y33171702D01*
X12389704Y34957359D01*
X12325065Y35300885D01*
X12122042Y35616392D01*
X11812264Y35828055D01*
X11444543Y35902520D01*
X8444543Y35902520D01*
X8101017Y35837881D01*
X7785510Y35634858D01*
X7573847Y35325080D01*
X7499382Y34957359D01*
X7499382Y31957359D01*
X7564021Y31613833D01*
X7767044Y31298326D01*
X8076822Y31086663D01*
X8444543Y31012198D01*
X10230200Y31012198D01*
X11417543Y29824855D01*
X11417543Y24209390D01*
X11332416Y24415413D01*
X10706891Y25042031D01*
X9889185Y25381572D01*
X9003787Y25382344D01*
X8185490Y25044231D01*
X7558872Y24418706D01*
X7219331Y23601000D01*
X7218559Y22715602D01*
X7556672Y21897305D01*
X8182197Y21270687D01*
X8999903Y20931146D01*
X9885301Y20930374D01*
X10703598Y21268487D01*
X11330216Y21894012D01*
X11417543Y22104319D01*
X11417543Y20589863D01*
X11080020Y20252340D01*
X10820330Y20512483D01*
X9929142Y20882537D01*
X8964179Y20883379D01*
X8072347Y20514881D01*
X7389420Y19833145D01*
X7019366Y18941957D01*
X7018524Y17976994D01*
X802000Y17976994D01*
X802000Y38056717D01*
X7517122Y38056717D01*
X7885833Y37164370D01*
X8567963Y36481048D01*
X9459665Y36110781D01*
X10425185Y36109938D01*
X11317532Y36478649D01*
X12000854Y37160779D01*
X12371121Y38052481D01*
X12371964Y39018001D01*
X12003253Y39910348D01*
X11471544Y40442986D01*
X11471544Y43102379D01*
X11483915Y43110645D01*
X11955830Y43816914D01*
X12121544Y44650016D01*
X12121544Y46264702D01*
X11955830Y47097804D01*
X11483915Y47804073D01*
X10777646Y48275988D01*
X9944544Y48441702D01*
X9111442Y48275988D01*
X8405173Y47804073D01*
X7933258Y47097804D01*
X7767544Y46264702D01*
X7767544Y44650016D01*
X7933258Y43816914D01*
X8405173Y43110645D01*
X8417544Y43102379D01*
X8417544Y40442328D01*
X7888232Y39913939D01*
X7517965Y39022237D01*
X7517122Y38056717D01*
X802000Y38056717D01*
X802000Y68264702D01*
X7767544Y68264702D01*
X7767544Y66650016D01*
X7933258Y65816914D01*
X8405173Y65110645D01*
X9111442Y64638730D01*
X9944544Y64473016D01*
X10777646Y64638730D01*
X11483915Y65110645D01*
X11955830Y65816914D01*
X11978396Y65930359D01*
X19457359Y65930359D01*
X20041717Y66046595D01*
X20537111Y66377607D01*
X24182736Y70023232D01*
X24930642Y70022579D01*
X25822989Y70391290D01*
X26506311Y71073420D01*
X26876578Y71965122D01*
X26877421Y72930642D01*
X26508710Y73822989D01*
X25826580Y74506311D01*
X24934878Y74876578D01*
X23969358Y74877421D01*
X23077011Y74508710D01*
X22393689Y73826580D01*
X22023422Y72934878D01*
X22022765Y72182269D01*
X18824855Y68984359D01*
X11978396Y68984359D01*
X11955830Y69097804D01*
X11483915Y69804073D01*
X10777646Y70275988D01*
X9944544Y70441702D01*
X9111442Y70275988D01*
X8405173Y69804073D01*
X7933258Y69097804D01*
X7767544Y68264702D01*
X802000Y68264702D01*
X802000Y76542607D01*
X38723000Y76542607D01*
X38723000Y72357393D01*
X38930581Y71313815D01*
X39521720Y70429113D01*
X40406422Y69837974D01*
X41450000Y69630393D01*
X42493578Y69837974D01*
X43378280Y70429113D01*
X43969419Y71313815D01*
X44000358Y71469358D01*
X55522579Y71469358D01*
X55891290Y70577011D01*
X56573420Y69893689D01*
X57465122Y69523422D01*
X58217731Y69522765D01*
X61287889Y66452607D01*
X61783283Y66121595D01*
X62367641Y66005359D01*
X69564563Y66005359D01*
X69572829Y65992988D01*
X70279098Y65521073D01*
X71112200Y65355359D01*
X72726886Y65355359D01*
X73559988Y65521073D01*
X74266257Y65992988D01*
X74738172Y66699257D01*
X74903886Y67532359D01*
X74738172Y68365461D01*
X74266257Y69071730D01*
X73559988Y69543645D01*
X72726886Y69709359D01*
X71112200Y69709359D01*
X70279098Y69543645D01*
X69572829Y69071730D01*
X69564563Y69059359D01*
X63000145Y69059359D01*
X60376768Y71682736D01*
X60377421Y72430642D01*
X60008710Y73322989D01*
X59326580Y74006311D01*
X58434878Y74376578D01*
X57469358Y74377421D01*
X56577011Y74008710D01*
X55893689Y73326580D01*
X55523422Y72434878D01*
X55522579Y71469358D01*
X44000358Y71469358D01*
X44177000Y72357393D01*
X44177000Y76542607D01*
X43969419Y77586185D01*
X43378280Y78470887D01*
X42493578Y79062026D01*
X41450000Y79269607D01*
X40406422Y79062026D01*
X39521720Y78470887D01*
X38930581Y77586185D01*
X38723000Y76542607D01*
X802000Y76542607D01*
X802000Y78388182D01*
X4172684Y78388182D01*
X4450242Y77716440D01*
X4963736Y77202048D01*
X5634993Y76923318D01*
X6361818Y76922684D01*
X7033560Y77200242D01*
X7547952Y77713736D01*
X7826682Y78384993D01*
X7827316Y79111818D01*
X7713125Y79388182D01*
X118172684Y79388182D01*
X118450242Y78716440D01*
X118963736Y78202048D01*
X119634993Y77923318D01*
X120361818Y77922684D01*
X121033560Y78200242D01*
X121547952Y78713736D01*
X121826682Y79384993D01*
X121827316Y80111818D01*
X121549758Y80783560D01*
X121036264Y81297952D01*
X120365007Y81576682D01*
X119638182Y81577316D01*
X118966440Y81299758D01*
X118452048Y80786264D01*
X118173318Y80115007D01*
X118172684Y79388182D01*
X7713125Y79388182D01*
X7549758Y79783560D01*
X7036264Y80297952D01*
X6365007Y80576682D01*
X5638182Y80577316D01*
X4966440Y80299758D01*
X4452048Y79786264D01*
X4173318Y79115007D01*
X4172684Y78388182D01*
X802000Y78388182D01*
X802000Y83448000D01*
X123698000Y83448000D01*
X123698000Y802000D01*
X123698000Y802000D01*
G37*
X123698000Y802000D02*
X802000Y802000D01*
X802000Y3638182D01*
X2172684Y3638182D01*
X2450242Y2966440D01*
X2963736Y2452048D01*
X3634993Y2173318D01*
X4361818Y2172684D01*
X5033560Y2450242D01*
X5547952Y2963736D01*
X5826682Y3634993D01*
X5826902Y3888182D01*
X118172684Y3888182D01*
X118450242Y3216440D01*
X118963736Y2702048D01*
X119634993Y2423318D01*
X120361818Y2422684D01*
X121033560Y2700242D01*
X121547952Y3213736D01*
X121826682Y3884993D01*
X121827316Y4611818D01*
X121549758Y5283560D01*
X121036264Y5797952D01*
X120365007Y6076682D01*
X119638182Y6077316D01*
X118966440Y5799758D01*
X118452048Y5286264D01*
X118173318Y4615007D01*
X118172684Y3888182D01*
X5826902Y3888182D01*
X5827316Y4361818D01*
X5549758Y5033560D01*
X5036264Y5547952D01*
X4365007Y5826682D01*
X3638182Y5827316D01*
X2966440Y5549758D01*
X2452048Y5036264D01*
X2173318Y4365007D01*
X2172684Y3638182D01*
X802000Y3638182D01*
X802000Y17976994D01*
X7018524Y17976994D01*
X7387022Y17085162D01*
X8068758Y16402235D01*
X8778338Y16107591D01*
X8072347Y15815881D01*
X7389420Y15134145D01*
X7019366Y14242957D01*
X7018524Y13277994D01*
X7387022Y12386162D01*
X8068758Y11703235D01*
X8959946Y11333181D01*
X9924909Y11332339D01*
X10816741Y11700837D01*
X11348191Y12231360D01*
X19000000Y12231359D01*
X21009137Y12231359D01*
X21523232Y11717264D01*
X21522579Y10969358D01*
X21891290Y10077011D01*
X22573420Y9393689D01*
X23465122Y9023422D01*
X24430642Y9022579D01*
X25322989Y9391290D01*
X26006311Y10073420D01*
X26376578Y10965122D01*
X26377082Y11542607D01*
X38723000Y11542607D01*
X38723000Y7357393D01*
X38930581Y6313815D01*
X39521720Y5429113D01*
X40406422Y4837974D01*
X41450000Y4630393D01*
X42493578Y4837974D01*
X43378280Y5429113D01*
X43969419Y6313815D01*
X44177000Y7357393D01*
X44177000Y10969358D01*
X56522579Y10969358D01*
X56891290Y10077011D01*
X57573420Y9393689D01*
X58465122Y9023422D01*
X59430642Y9022579D01*
X60322989Y9391290D01*
X61006311Y10073420D01*
X61376578Y10965122D01*
X61377235Y11717731D01*
X62339863Y12680359D01*
X66089564Y12680359D01*
X66097830Y12667988D01*
X66804099Y12196073D01*
X67637201Y12030359D01*
X69251887Y12030359D01*
X70084989Y12196073D01*
X70791258Y12667988D01*
X71263173Y13374257D01*
X71428887Y14207359D01*
X87460201Y14207359D01*
X87625915Y13374257D01*
X88097830Y12667988D01*
X88804099Y12196073D01*
X89637201Y12030359D01*
X91251887Y12030359D01*
X92084989Y12196073D01*
X92791258Y12667988D01*
X93263173Y13374257D01*
X93428887Y14207359D01*
X93263173Y15040461D01*
X92791258Y15746730D01*
X92552770Y15906083D01*
X94819296Y18172608D01*
X95150308Y18668002D01*
X95266544Y19252359D01*
X95266544Y19442359D01*
X96329502Y19442359D01*
X96477404Y18698805D01*
X96898594Y18068451D01*
X97528948Y17647261D01*
X98272502Y17499359D01*
X98866586Y17499359D01*
X99610140Y17647261D01*
X100011376Y17915359D01*
X101679544Y17915359D01*
X102263902Y18031595D01*
X102759296Y18362607D01*
X103354240Y18957551D01*
X103420756Y18858002D01*
X103614792Y18567607D01*
X105267850Y16914549D01*
X105267720Y16765839D01*
X105560393Y16057517D01*
X106101850Y15515114D01*
X106809660Y15221205D01*
X107576065Y15220536D01*
X108284387Y15513209D01*
X108826790Y16054666D01*
X109120699Y16762476D01*
X109121368Y17528881D01*
X108828695Y18237203D01*
X108287238Y18779606D01*
X107579428Y19073515D01*
X107427760Y19073647D01*
X106221544Y20279863D01*
X106221544Y20680360D01*
X109194544Y20680360D01*
X109778902Y20796596D01*
X110274296Y21127608D01*
X114408886Y25262198D01*
X116194543Y25262198D01*
X116538069Y25326837D01*
X116853576Y25529860D01*
X117065239Y25839638D01*
X117139704Y26207359D01*
X117139704Y29207359D01*
X117075065Y29550885D01*
X116872042Y29866392D01*
X116562264Y30078055D01*
X116194543Y30152520D01*
X113194543Y30152520D01*
X112851017Y30087881D01*
X112535510Y29884858D01*
X112323847Y29575080D01*
X112249382Y29207359D01*
X112249382Y27421702D01*
X108686844Y23859164D01*
X108920734Y24422433D01*
X108921333Y25109273D01*
X108659044Y25744060D01*
X108321543Y26082151D01*
X108321544Y28490541D01*
X112121363Y32290359D01*
X115270657Y32290360D01*
X115521719Y32038860D01*
X116119494Y31790642D01*
X116766755Y31790077D01*
X117364962Y32037251D01*
X117823043Y32494534D01*
X118071261Y33092309D01*
X118071826Y33739570D01*
X117824652Y34337777D01*
X117367369Y34795858D01*
X116769594Y35044076D01*
X116122333Y35044641D01*
X115524126Y34797467D01*
X115270577Y34544360D01*
X111654544Y34544359D01*
X111294814Y34472804D01*
X111223259Y34458571D01*
X110857634Y34214268D01*
X106397635Y29754268D01*
X106335859Y29661813D01*
X106172042Y29916392D01*
X105862264Y30128055D01*
X105494543Y30202520D01*
X103894543Y30202520D01*
X103551017Y30137881D01*
X103235510Y29934858D01*
X103023847Y29625080D01*
X102949382Y29257359D01*
X102949382Y27657359D01*
X103014021Y27313833D01*
X103167543Y27075252D01*
X103167544Y24207360D01*
X103167544Y23089863D01*
X101047040Y20969359D01*
X100011376Y20969359D01*
X99610140Y21237457D01*
X98866586Y21385359D01*
X98272502Y21385359D01*
X97528948Y21237457D01*
X96898594Y20816267D01*
X96477404Y20185913D01*
X96329502Y19442359D01*
X95266544Y19442359D01*
X95266544Y20118253D01*
X95368918Y20271466D01*
X95500378Y20932360D01*
X95368918Y21593254D01*
X95266544Y21746467D01*
X95266544Y23783605D01*
X95390240Y23964639D01*
X95464705Y24332360D01*
X95464705Y25932360D01*
X95400066Y26275886D01*
X95197043Y26591393D01*
X94887265Y26803056D01*
X94519544Y26877521D01*
X92919544Y26877521D01*
X92576018Y26812882D01*
X92260511Y26609859D01*
X92048848Y26300081D01*
X91974383Y25932360D01*
X91974383Y24332360D01*
X92039022Y23988834D01*
X92212544Y23719173D01*
X92212544Y21746467D01*
X92110170Y21593254D01*
X91978710Y20932360D01*
X92110170Y20271466D01*
X92212544Y20118253D01*
X92212544Y19884864D01*
X89364791Y17037112D01*
X89033779Y16541718D01*
X88976330Y16252904D01*
X88804099Y16218645D01*
X88097830Y15746730D01*
X87625915Y15040461D01*
X87460201Y14207359D01*
X71428887Y14207359D01*
X71263173Y15040461D01*
X70791258Y15746730D01*
X70084989Y16218645D01*
X69251887Y16384359D01*
X67637201Y16384359D01*
X66804099Y16218645D01*
X66097830Y15746730D01*
X66089564Y15734359D01*
X61707359Y15734359D01*
X61123001Y15618123D01*
X60627607Y15287111D01*
X59217264Y13876768D01*
X58469358Y13877421D01*
X57577011Y13508710D01*
X56893689Y12826580D01*
X56523422Y11934878D01*
X56522579Y10969358D01*
X44177000Y10969358D01*
X44177000Y11542607D01*
X43969419Y12586185D01*
X43378280Y13470887D01*
X42493578Y14062026D01*
X41450000Y14269607D01*
X40406422Y14062026D01*
X39521720Y13470887D01*
X38930581Y12586185D01*
X38723000Y11542607D01*
X26377082Y11542607D01*
X26377421Y11930642D01*
X26008710Y12822989D01*
X25326580Y13506311D01*
X24719581Y13758359D01*
X34818543Y13758359D01*
X34919555Y13250538D01*
X35207212Y12820028D01*
X35637722Y12532371D01*
X36145543Y12431359D01*
X36653364Y12532371D01*
X37083874Y12820028D01*
X37357875Y13094029D01*
X37645532Y13524539D01*
X37746544Y14032360D01*
X37645532Y14540181D01*
X37357875Y14970691D01*
X36927365Y15258348D01*
X36419544Y15359360D01*
X35911723Y15258348D01*
X35481213Y14970691D01*
X35207212Y14696690D01*
X34919555Y14266180D01*
X34818543Y13758359D01*
X24719581Y13758359D01*
X24434878Y13876578D01*
X23682269Y13877235D01*
X22721392Y14838112D01*
X22225999Y15169123D01*
X21641641Y15285359D01*
X19000000Y15285359D01*
X11347532Y15285360D01*
X10820330Y15813483D01*
X10110750Y16108127D01*
X10816741Y16399837D01*
X11348191Y16930360D01*
X11444545Y16930360D01*
X12028903Y17046596D01*
X12524297Y17377609D01*
X14024295Y18877607D01*
X14148172Y19063002D01*
X14355307Y19373001D01*
X14471543Y19957359D01*
X14471543Y27932359D01*
X73774383Y27932359D01*
X73774383Y25532359D01*
X73839022Y25188833D01*
X74042045Y24873326D01*
X74351823Y24661663D01*
X74719544Y24587198D01*
X77119544Y24587198D01*
X77463070Y24651837D01*
X77778577Y24854860D01*
X77990240Y25164638D01*
X77998486Y25205359D01*
X79687040Y25205359D01*
X82639792Y22252607D01*
X84374383Y20518017D01*
X84374383Y20132360D01*
X84439022Y19788834D01*
X84642045Y19473327D01*
X84951823Y19261664D01*
X85319544Y19187199D01*
X86919544Y19187199D01*
X87263070Y19251838D01*
X87501649Y19405359D01*
X88019543Y19405359D01*
X88603900Y19521595D01*
X88627124Y19537113D01*
X89099294Y19852606D01*
X90899296Y21652608D01*
X91046558Y21873001D01*
X91230308Y22148002D01*
X91346544Y22732360D01*
X91346544Y29499855D01*
X92238468Y30391779D01*
X92239022Y30388834D01*
X92442045Y30073327D01*
X92751823Y29861664D01*
X93119544Y29787199D01*
X95519544Y29787199D01*
X95863070Y29851838D01*
X96178577Y30054861D01*
X96390240Y30364639D01*
X96398486Y30405360D01*
X96487040Y30405360D01*
X97042544Y29849856D01*
X97042543Y25992451D01*
X96898594Y25896267D01*
X96477404Y25265913D01*
X96329502Y24522359D01*
X96477404Y23778805D01*
X96898594Y23148451D01*
X97528948Y22727261D01*
X98272502Y22579359D01*
X98866586Y22579359D01*
X99610140Y22727261D01*
X100240494Y23148451D01*
X100661684Y23778805D01*
X100809586Y24522359D01*
X100661684Y25265913D01*
X100240494Y25896267D01*
X100096543Y25992452D01*
X100096544Y30482360D01*
X100096544Y32699855D01*
X101327048Y33930359D01*
X107694543Y33930359D01*
X108278901Y34046595D01*
X108774295Y34377607D01*
X110774295Y36377607D01*
X110880872Y36537111D01*
X111105307Y36873001D01*
X111221543Y37457359D01*
X111221543Y45074855D01*
X113077048Y46930360D01*
X113610912Y46930360D01*
X113614022Y46913834D01*
X113817045Y46598327D01*
X114126823Y46386664D01*
X114494544Y46312199D01*
X116894544Y46312199D01*
X117238070Y46376838D01*
X117553577Y46579861D01*
X117765240Y46889639D01*
X117839705Y47257360D01*
X117839705Y49657360D01*
X117775066Y50000886D01*
X117572043Y50316393D01*
X117262265Y50528056D01*
X116894544Y50602521D01*
X114494544Y50602521D01*
X114151018Y50537882D01*
X113835511Y50334859D01*
X113623848Y50025081D01*
X113615602Y49984360D01*
X112444544Y49984360D01*
X111860187Y49868125D01*
X111364792Y49537112D01*
X108614791Y46787111D01*
X108283779Y46291717D01*
X108167543Y45707359D01*
X108167543Y38089863D01*
X107062039Y36984359D01*
X100694544Y36984359D01*
X100110186Y36868123D01*
X99614792Y36537111D01*
X97489792Y34412111D01*
X97158780Y33916717D01*
X97067806Y33459360D01*
X96403176Y33459360D01*
X96400066Y33475886D01*
X96197043Y33791393D01*
X95887265Y34003056D01*
X95519544Y34077521D01*
X93119544Y34077521D01*
X92776018Y34012882D01*
X92460511Y33809859D01*
X92248848Y33500081D01*
X92240602Y33459359D01*
X91619542Y33459359D01*
X91346544Y33405056D01*
X91346544Y40989855D01*
X91420323Y41063634D01*
X91904544Y40967317D01*
X92648098Y41115219D01*
X93278452Y41536409D01*
X93699642Y42166763D01*
X93847544Y42910317D01*
X93847544Y43504401D01*
X95041544Y43504401D01*
X95041544Y42910317D01*
X95189446Y42166763D01*
X95610636Y41536409D01*
X96240990Y41115219D01*
X96984544Y40967317D01*
X97728098Y41115219D01*
X98358452Y41536409D01*
X98738613Y42105359D01*
X100369544Y42105359D01*
X100953902Y42221595D01*
X101449296Y42552607D01*
X101694544Y42797855D01*
X102949383Y41543016D01*
X102949383Y41157359D01*
X103014022Y40813833D01*
X103217045Y40498326D01*
X103526823Y40286663D01*
X103894544Y40212198D01*
X105494544Y40212198D01*
X105838070Y40276837D01*
X106153577Y40479860D01*
X106365240Y40789638D01*
X106439705Y41157359D01*
X106439705Y42757359D01*
X106375066Y43100885D01*
X106172043Y43416392D01*
X105862265Y43628055D01*
X105494544Y43702520D01*
X105108887Y43702520D01*
X104221544Y44589863D01*
X104221544Y48324855D01*
X105820861Y49924172D01*
X106309660Y49721204D01*
X107076065Y49720535D01*
X107784387Y50013208D01*
X107891725Y50120359D01*
X109384544Y50120359D01*
X109968902Y50236595D01*
X110464296Y50567607D01*
X113658888Y53762199D01*
X114444544Y53762199D01*
X114788070Y53826838D01*
X115103577Y54029861D01*
X115315240Y54339639D01*
X115389705Y54707360D01*
X115389705Y57707360D01*
X115325066Y58050886D01*
X115122043Y58366393D01*
X114812265Y58578056D01*
X114444544Y58652521D01*
X111444544Y58652521D01*
X111101018Y58587882D01*
X110785511Y58384859D01*
X110573848Y58075081D01*
X110499383Y57707360D01*
X110499383Y54921702D01*
X108752040Y53174359D01*
X107892300Y53174359D01*
X107787238Y53279605D01*
X107079428Y53573514D01*
X106313023Y53574183D01*
X105604701Y53281510D01*
X105497363Y53174359D01*
X105384544Y53174359D01*
X104800186Y53058123D01*
X104304792Y52727111D01*
X101614792Y50037111D01*
X101283780Y49541717D01*
X101167544Y48957359D01*
X101167544Y46589864D01*
X99737040Y45159359D01*
X97937832Y45159359D01*
X97728098Y45299499D01*
X96984544Y45447401D01*
X96240990Y45299499D01*
X95610636Y44878309D01*
X95189446Y44247955D01*
X95041544Y43504401D01*
X93847544Y43504401D01*
X93699642Y44247955D01*
X93278452Y44878309D01*
X92648098Y45299499D01*
X91904544Y45447401D01*
X91160990Y45299499D01*
X90530636Y44878309D01*
X90109446Y44247955D01*
X90065698Y44028018D01*
X88739792Y42702111D01*
X88408780Y42206717D01*
X88292544Y41622359D01*
X88292544Y23364864D01*
X87431906Y22504226D01*
X87287265Y22603056D01*
X86919544Y22677521D01*
X86533887Y22677521D01*
X85741572Y23469835D01*
X86065710Y23405360D01*
X86133378Y23405360D01*
X86794272Y23536820D01*
X87354551Y23911187D01*
X87728918Y24471466D01*
X87860378Y25132360D01*
X87823570Y25317407D01*
X87826544Y25332359D01*
X87826544Y54918253D01*
X87928917Y55071465D01*
X87961386Y55234697D01*
X88192543Y55465854D01*
X88192543Y55083043D01*
X88167543Y54957359D01*
X88167543Y53167359D01*
X88283779Y52583001D01*
X88534775Y52207359D01*
X88614791Y52087607D01*
X89961544Y50740854D01*
X89961544Y50660318D01*
X90109446Y49916764D01*
X90530636Y49286410D01*
X91160990Y48865220D01*
X91904544Y48717318D01*
X92648098Y48865220D01*
X93174544Y49216981D01*
X93700990Y48865220D01*
X94444544Y48717318D01*
X95188098Y48865220D01*
X95818452Y49286410D01*
X96239642Y49916764D01*
X96387544Y50660318D01*
X96387544Y51254402D01*
X96265359Y51868670D01*
X97274296Y52877607D01*
X97467902Y53167359D01*
X97605308Y53373001D01*
X97721544Y53957359D01*
X97721543Y64574856D01*
X98577047Y65430360D01*
X99444543Y65430359D01*
X99444544Y65430359D01*
X99665364Y65474283D01*
X99611700Y65395744D01*
X99553301Y65107359D01*
X99553301Y63307359D01*
X99603994Y63037949D01*
X99763215Y62790513D01*
X100006158Y62624516D01*
X100294543Y62566117D01*
X101101106Y62566117D01*
X101641486Y61922611D01*
X101680122Y61891627D01*
X101707635Y61850450D01*
X101850489Y61754998D01*
X101984531Y61647501D01*
X102032083Y61633660D01*
X102073260Y61606147D01*
X102241775Y61572627D01*
X102406744Y61524611D01*
X102455970Y61530021D01*
X102504544Y61520359D01*
X105380082Y61520359D01*
X105715289Y61184566D01*
X106263028Y60957125D01*
X105717844Y60731859D01*
X105379754Y60394360D01*
X105004545Y60394360D01*
X104573260Y60308572D01*
X104207635Y60064270D01*
X102031492Y57888127D01*
X101559594Y58084076D01*
X100912333Y58084641D01*
X100314126Y57837467D01*
X99856045Y57380184D01*
X99607827Y56782409D01*
X99607262Y56135148D01*
X99854436Y55536941D01*
X100311719Y55078860D01*
X100909494Y54830642D01*
X101556755Y54830077D01*
X102154962Y55077251D01*
X102461757Y55383511D01*
X102625827Y55416147D01*
X102991452Y55660450D01*
X105425682Y58094679D01*
X105715289Y57804565D01*
X106349617Y57541169D01*
X107036457Y57540570D01*
X107671244Y57802859D01*
X108157338Y58288104D01*
X108420734Y58922432D01*
X108421333Y59609272D01*
X108159044Y60244059D01*
X107673799Y60730153D01*
X107126060Y60957594D01*
X107671244Y61182860D01*
X108157338Y61668105D01*
X108420734Y62302433D01*
X108421333Y62989273D01*
X108159044Y63624060D01*
X107673799Y64110154D01*
X107039471Y64373550D01*
X106352631Y64374149D01*
X105717844Y64111860D01*
X105379752Y63774359D01*
X103029813Y63774359D01*
X102835785Y64005415D01*
X102835785Y65107359D01*
X102785092Y65376769D01*
X102625871Y65624205D01*
X102382928Y65790202D01*
X102094543Y65848601D01*
X100480886Y65848601D01*
X100524295Y65877606D01*
X103387048Y68740359D01*
X105496788Y68740360D01*
X105601850Y68635114D01*
X106309660Y68341205D01*
X107076065Y68340536D01*
X107784387Y68633209D01*
X107932871Y68781434D01*
X110517615Y66450595D01*
X110517123Y65886718D01*
X110885834Y64994371D01*
X111567964Y64311049D01*
X112459666Y63940782D01*
X113425186Y63939939D01*
X114317533Y64308650D01*
X115000855Y64990780D01*
X115371122Y65882482D01*
X115371965Y66848002D01*
X115003254Y67740349D01*
X114321124Y68423671D01*
X113429422Y68793938D01*
X112478405Y68794768D01*
X109377159Y71591372D01*
X109154457Y71724093D01*
X108938901Y71868123D01*
X108899692Y71875922D01*
X108865349Y71896389D01*
X108608806Y71933783D01*
X108354543Y71984359D01*
X107583131Y71984359D01*
X107079428Y72193515D01*
X106313023Y72194184D01*
X105604701Y71901511D01*
X105497362Y71794360D01*
X102921838Y71794359D01*
X102921842Y71799373D01*
X102659476Y72434348D01*
X102174087Y72920585D01*
X101539572Y73184059D01*
X100852529Y73184658D01*
X100217554Y72922292D01*
X99731317Y72436903D01*
X99467843Y71802388D01*
X99467244Y71115345D01*
X99667543Y70630583D01*
X99667544Y69339863D01*
X98812040Y68484359D01*
X97944545Y68484360D01*
X97944544Y68484360D01*
X97360187Y68368124D01*
X96871684Y68041717D01*
X96864792Y68037112D01*
X96813656Y67985976D01*
X96738172Y68365461D01*
X96266257Y69071730D01*
X95559988Y69543645D01*
X94726886Y69709359D01*
X93112200Y69709359D01*
X92279098Y69543645D01*
X91572829Y69071730D01*
X91100914Y68365461D01*
X90935200Y67532359D01*
X91100914Y66699257D01*
X91572829Y65992988D01*
X92279098Y65521073D01*
X92392543Y65498507D01*
X92392544Y61316536D01*
X92310169Y61193253D01*
X92178709Y60532359D01*
X92310169Y59871465D01*
X92392544Y59748183D01*
X92392543Y57110386D01*
X92248847Y56900080D01*
X92174382Y56532359D01*
X92174382Y54932359D01*
X92239021Y54588833D01*
X92442044Y54273326D01*
X92751822Y54061663D01*
X93119543Y53987198D01*
X94064879Y53987198D01*
X93364792Y53287111D01*
X93033816Y52791771D01*
X92648098Y53049500D01*
X91904544Y53197402D01*
X91837366Y53184040D01*
X91221543Y53799863D01*
X91221543Y54831676D01*
X91246543Y54957360D01*
X91246544Y59152359D01*
X91246544Y62232359D01*
X91130308Y62816717D01*
X90799296Y63312111D01*
X88299296Y65812111D01*
X88187639Y65886718D01*
X87803902Y66143123D01*
X87219544Y66259359D01*
X83019544Y66259360D01*
X82435187Y66143125D01*
X81939792Y65812112D01*
X74839791Y58712111D01*
X74508779Y58216716D01*
X74414272Y57741595D01*
X74392543Y57632358D01*
X74392543Y57113431D01*
X74117413Y56838781D01*
X73792914Y56057302D01*
X73792176Y55211129D01*
X74115310Y54429085D01*
X74713122Y53830228D01*
X75494601Y53505729D01*
X76340774Y53504991D01*
X77122818Y53828125D01*
X77721675Y54425937D01*
X78046174Y55207416D01*
X78046912Y56053589D01*
X77723778Y56835633D01*
X77503242Y57056554D01*
X83652048Y63205360D01*
X86587040Y63205359D01*
X88192544Y61599855D01*
X88192544Y59784863D01*
X88045574Y59637893D01*
X88064704Y59732359D01*
X88064704Y61332359D01*
X88000065Y61675885D01*
X87797042Y61991392D01*
X87487264Y62203055D01*
X87119543Y62277520D01*
X85519543Y62277520D01*
X85176017Y62212881D01*
X84860510Y62009858D01*
X84648847Y61700080D01*
X84574382Y61332359D01*
X84574382Y60946702D01*
X82639791Y59012111D01*
X82308779Y58516717D01*
X82192543Y57932359D01*
X82192544Y27018863D01*
X81399296Y27812111D01*
X81219332Y27932359D01*
X80903902Y28143123D01*
X80319544Y28259359D01*
X78003176Y28259359D01*
X78000066Y28275885D01*
X77797043Y28591392D01*
X77487265Y28803055D01*
X77119544Y28877520D01*
X74719544Y28877520D01*
X74376018Y28812881D01*
X74060511Y28609858D01*
X73848848Y28300080D01*
X73774383Y27932359D01*
X14471543Y27932359D01*
X14471543Y30457359D01*
X14458766Y30521595D01*
X14355308Y31041716D01*
X14024295Y31537111D01*
X12389704Y33171702D01*
X12389704Y34957359D01*
X12325065Y35300885D01*
X12122042Y35616392D01*
X11812264Y35828055D01*
X11444543Y35902520D01*
X8444543Y35902520D01*
X8101017Y35837881D01*
X7785510Y35634858D01*
X7573847Y35325080D01*
X7499382Y34957359D01*
X7499382Y31957359D01*
X7564021Y31613833D01*
X7767044Y31298326D01*
X8076822Y31086663D01*
X8444543Y31012198D01*
X10230200Y31012198D01*
X11417543Y29824855D01*
X11417543Y24209390D01*
X11332416Y24415413D01*
X10706891Y25042031D01*
X9889185Y25381572D01*
X9003787Y25382344D01*
X8185490Y25044231D01*
X7558872Y24418706D01*
X7219331Y23601000D01*
X7218559Y22715602D01*
X7556672Y21897305D01*
X8182197Y21270687D01*
X8999903Y20931146D01*
X9885301Y20930374D01*
X10703598Y21268487D01*
X11330216Y21894012D01*
X11417543Y22104319D01*
X11417543Y20589863D01*
X11080020Y20252340D01*
X10820330Y20512483D01*
X9929142Y20882537D01*
X8964179Y20883379D01*
X8072347Y20514881D01*
X7389420Y19833145D01*
X7019366Y18941957D01*
X7018524Y17976994D01*
X802000Y17976994D01*
X802000Y38056717D01*
X7517122Y38056717D01*
X7885833Y37164370D01*
X8567963Y36481048D01*
X9459665Y36110781D01*
X10425185Y36109938D01*
X11317532Y36478649D01*
X12000854Y37160779D01*
X12371121Y38052481D01*
X12371964Y39018001D01*
X12003253Y39910348D01*
X11471544Y40442986D01*
X11471544Y43102379D01*
X11483915Y43110645D01*
X11955830Y43816914D01*
X12121544Y44650016D01*
X12121544Y46264702D01*
X11955830Y47097804D01*
X11483915Y47804073D01*
X10777646Y48275988D01*
X9944544Y48441702D01*
X9111442Y48275988D01*
X8405173Y47804073D01*
X7933258Y47097804D01*
X7767544Y46264702D01*
X7767544Y44650016D01*
X7933258Y43816914D01*
X8405173Y43110645D01*
X8417544Y43102379D01*
X8417544Y40442328D01*
X7888232Y39913939D01*
X7517965Y39022237D01*
X7517122Y38056717D01*
X802000Y38056717D01*
X802000Y68264702D01*
X7767544Y68264702D01*
X7767544Y66650016D01*
X7933258Y65816914D01*
X8405173Y65110645D01*
X9111442Y64638730D01*
X9944544Y64473016D01*
X10777646Y64638730D01*
X11483915Y65110645D01*
X11955830Y65816914D01*
X11978396Y65930359D01*
X19457359Y65930359D01*
X20041717Y66046595D01*
X20537111Y66377607D01*
X24182736Y70023232D01*
X24930642Y70022579D01*
X25822989Y70391290D01*
X26506311Y71073420D01*
X26876578Y71965122D01*
X26877421Y72930642D01*
X26508710Y73822989D01*
X25826580Y74506311D01*
X24934878Y74876578D01*
X23969358Y74877421D01*
X23077011Y74508710D01*
X22393689Y73826580D01*
X22023422Y72934878D01*
X22022765Y72182269D01*
X18824855Y68984359D01*
X11978396Y68984359D01*
X11955830Y69097804D01*
X11483915Y69804073D01*
X10777646Y70275988D01*
X9944544Y70441702D01*
X9111442Y70275988D01*
X8405173Y69804073D01*
X7933258Y69097804D01*
X7767544Y68264702D01*
X802000Y68264702D01*
X802000Y76542607D01*
X38723000Y76542607D01*
X38723000Y72357393D01*
X38930581Y71313815D01*
X39521720Y70429113D01*
X40406422Y69837974D01*
X41450000Y69630393D01*
X42493578Y69837974D01*
X43378280Y70429113D01*
X43969419Y71313815D01*
X44000358Y71469358D01*
X55522579Y71469358D01*
X55891290Y70577011D01*
X56573420Y69893689D01*
X57465122Y69523422D01*
X58217731Y69522765D01*
X61287889Y66452607D01*
X61783283Y66121595D01*
X62367641Y66005359D01*
X69564563Y66005359D01*
X69572829Y65992988D01*
X70279098Y65521073D01*
X71112200Y65355359D01*
X72726886Y65355359D01*
X73559988Y65521073D01*
X74266257Y65992988D01*
X74738172Y66699257D01*
X74903886Y67532359D01*
X74738172Y68365461D01*
X74266257Y69071730D01*
X73559988Y69543645D01*
X72726886Y69709359D01*
X71112200Y69709359D01*
X70279098Y69543645D01*
X69572829Y69071730D01*
X69564563Y69059359D01*
X63000145Y69059359D01*
X60376768Y71682736D01*
X60377421Y72430642D01*
X60008710Y73322989D01*
X59326580Y74006311D01*
X58434878Y74376578D01*
X57469358Y74377421D01*
X56577011Y74008710D01*
X55893689Y73326580D01*
X55523422Y72434878D01*
X55522579Y71469358D01*
X44000358Y71469358D01*
X44177000Y72357393D01*
X44177000Y76542607D01*
X43969419Y77586185D01*
X43378280Y78470887D01*
X42493578Y79062026D01*
X41450000Y79269607D01*
X40406422Y79062026D01*
X39521720Y78470887D01*
X38930581Y77586185D01*
X38723000Y76542607D01*
X802000Y76542607D01*
X802000Y78388182D01*
X4172684Y78388182D01*
X4450242Y77716440D01*
X4963736Y77202048D01*
X5634993Y76923318D01*
X6361818Y76922684D01*
X7033560Y77200242D01*
X7547952Y77713736D01*
X7826682Y78384993D01*
X7827316Y79111818D01*
X7713125Y79388182D01*
X118172684Y79388182D01*
X118450242Y78716440D01*
X118963736Y78202048D01*
X119634993Y77923318D01*
X120361818Y77922684D01*
X121033560Y78200242D01*
X121547952Y78713736D01*
X121826682Y79384993D01*
X121827316Y80111818D01*
X121549758Y80783560D01*
X121036264Y81297952D01*
X120365007Y81576682D01*
X119638182Y81577316D01*
X118966440Y81299758D01*
X118452048Y80786264D01*
X118173318Y80115007D01*
X118172684Y79388182D01*
X7713125Y79388182D01*
X7549758Y79783560D01*
X7036264Y80297952D01*
X6365007Y80576682D01*
X5638182Y80577316D01*
X4966440Y80299758D01*
X4452048Y79786264D01*
X4173318Y79115007D01*
X4172684Y78388182D01*
X802000Y78388182D01*
X802000Y83448000D01*
X123698000Y83448000D01*
X123698000Y802000D01*
M02*
