G04 #@! TF.FileFunction,Copper,L2,Bot,Signal*
%FSLAX46Y46*%
G04 Gerber Fmt 4.6, Leading zero omitted, Abs format (unit mm)*
G04 Created by KiCad (PCBNEW 4.0.7-e2-6376~58~ubuntu14.04.1) date Thu Mar  1 13:35:32 2018*
%MOMM*%
%LPD*%
G01*
G04 APERTURE LIST*
%ADD10C,0.100000*%
%ADD11R,1.600000X1.600000*%
%ADD12C,1.600000*%
%ADD13C,3.810000*%
%ADD14C,3.556000*%
%ADD15C,1.998980*%
%ADD16R,1.600000X2.400000*%
%ADD17O,1.600000X2.400000*%
%ADD18R,3.000000X3.000000*%
%ADD19C,3.000000*%
%ADD20O,1.600000X1.600000*%
%ADD21R,1.800000X1.800000*%
%ADD22C,1.800000*%
%ADD23O,1.800000X1.800000*%
%ADD24R,1.800000X1.300000*%
%ADD25O,1.800000X1.300000*%
%ADD26C,1.000000*%
%ADD27C,0.254000*%
G04 APERTURE END LIST*
D10*
D11*
X5250000Y14750000D03*
D12*
X5250000Y17250000D03*
D11*
X5250000Y22750000D03*
D12*
X5250000Y25250000D03*
X38250000Y26750000D03*
X38250000Y31750000D03*
X43600000Y46900000D03*
X38600000Y46900000D03*
D11*
X29750000Y16500000D03*
D12*
X27250000Y16500000D03*
X54000000Y47000000D03*
X49000000Y47000000D03*
D13*
X34650000Y16250000D03*
D14*
X41000000Y9900000D03*
D13*
X47350000Y16250000D03*
X34650000Y3550000D03*
X47350000Y3550000D03*
D15*
X43000000Y28440000D03*
X43000000Y36060000D03*
X45800000Y36090000D03*
X45800000Y43710000D03*
X21800000Y15490000D03*
X21800000Y23110000D03*
X22500000Y28440000D03*
X22500000Y36060000D03*
X29800000Y10510000D03*
X29800000Y2890000D03*
X45800000Y25290000D03*
X45800000Y32910000D03*
X49800000Y28310000D03*
X49800000Y20690000D03*
X40410000Y21500000D03*
X32790000Y21500000D03*
X62610000Y21500000D03*
X54990000Y21500000D03*
D16*
X32000000Y36000000D03*
D17*
X39620000Y43620000D03*
X34540000Y36000000D03*
X37080000Y43620000D03*
X37080000Y36000000D03*
X34540000Y43620000D03*
X39620000Y36000000D03*
X32000000Y43620000D03*
D16*
X56750000Y43500000D03*
D17*
X49130000Y35880000D03*
X54210000Y43500000D03*
X51670000Y35880000D03*
X51670000Y43500000D03*
X54210000Y35880000D03*
X49130000Y43500000D03*
X56750000Y35880000D03*
D18*
X21500000Y43250000D03*
D19*
X16420000Y43250000D03*
X11340000Y43250000D03*
D12*
X16500000Y22250000D03*
D20*
X16500000Y9550000D03*
D12*
X11500000Y22250000D03*
D20*
X11500000Y9550000D03*
D12*
X16500000Y25250000D03*
D20*
X16500000Y37950000D03*
D12*
X11500000Y25250000D03*
D20*
X11500000Y37950000D03*
D21*
X57200000Y12100000D03*
D22*
X57200000Y14640000D03*
D21*
X27250000Y26250000D03*
D23*
X29790000Y26250000D03*
X32330000Y26250000D03*
D24*
X20500000Y9500000D03*
D25*
X20500000Y7500000D03*
X20500000Y5500000D03*
D12*
X60000000Y40700000D03*
X60000000Y35700000D03*
D26*
X49130000Y42130000D02*
X49130000Y40330000D01*
X38600000Y46900000D02*
X40000000Y46900000D01*
X40000000Y46900000D02*
X43000000Y43900000D01*
X43000000Y43900000D02*
X43000000Y42000000D01*
X43000000Y42000000D02*
X43000000Y39200000D01*
X49130000Y42130000D02*
X49130000Y43500000D01*
X43000000Y39200000D02*
X48000000Y39200000D01*
X49130000Y40330000D02*
X48000000Y39200000D01*
X35000000Y46000000D02*
X35900000Y46900000D01*
X35900000Y46900000D02*
X38600000Y46900000D01*
X49000000Y47000000D02*
X49000000Y43630000D01*
X49000000Y43630000D02*
X49130000Y43500000D01*
X33250000Y46000000D02*
X35000000Y46000000D01*
X35000000Y46000000D02*
X35000000Y46000000D01*
X5250000Y25250000D02*
X7500000Y27500000D01*
X8500000Y27500000D02*
X14250000Y27500000D01*
X14250000Y27500000D02*
X16500000Y25250000D01*
X7500000Y27500000D02*
X8500000Y27500000D01*
X34540000Y43620000D02*
X34540000Y44710000D01*
X34540000Y44710000D02*
X33250000Y46000000D01*
X33250000Y46000000D02*
X30000000Y46000000D01*
X30000000Y46000000D02*
X23250000Y39250000D01*
X23250000Y39250000D02*
X21500000Y39250000D01*
X21500000Y39250000D02*
X16500000Y34250000D01*
X16500000Y34250000D02*
X16500000Y25250000D01*
X20000000Y29500000D02*
X21300000Y30800000D01*
X20000000Y27900000D02*
X22000000Y25900000D01*
X22000000Y25900000D02*
X23400000Y25900000D01*
X23400000Y25900000D02*
X25000000Y24300000D01*
X25000000Y24300000D02*
X25000000Y21700000D01*
X25000000Y21700000D02*
X22400000Y19100000D01*
X22400000Y19100000D02*
X21600000Y19100000D01*
X21600000Y19100000D02*
X18450000Y22250000D01*
X16500000Y22250000D02*
X18450000Y22250000D01*
X37500000Y32500000D02*
X38250000Y31750000D01*
X20000000Y29500000D02*
X20000000Y28700000D01*
X26600000Y32500000D02*
X25600000Y31500000D01*
X37500000Y32500000D02*
X26600000Y32500000D01*
X20000000Y28700000D02*
X20000000Y27900000D01*
X24900000Y30800000D02*
X25600000Y31500000D01*
X21300000Y30800000D02*
X24900000Y30800000D01*
X52000000Y20100000D02*
X52000000Y11900000D01*
X62610000Y12710000D02*
X62610000Y21500000D01*
X59200000Y9300000D02*
X62610000Y12710000D01*
X54600000Y9300000D02*
X59200000Y9300000D01*
X52000000Y11900000D02*
X54600000Y9300000D01*
X45800000Y25290000D02*
X40790000Y25290000D01*
X52000000Y21900000D02*
X52000000Y20100000D01*
X52000000Y20100000D02*
X52000000Y19900000D01*
X51000000Y22900000D02*
X52000000Y21900000D01*
X49000000Y22900000D02*
X51000000Y22900000D01*
X45400000Y19300000D02*
X49000000Y22900000D01*
X39400000Y19300000D02*
X45400000Y19300000D01*
X38200000Y20500000D02*
X39400000Y19300000D01*
X38200000Y22700000D02*
X38200000Y20500000D01*
X40790000Y25290000D02*
X38200000Y22700000D01*
X43000000Y28440000D02*
X45800000Y26040000D01*
X45800000Y26040000D02*
X45800000Y25290000D01*
X39620000Y33120000D02*
X39620000Y31820000D01*
X39620000Y31820000D02*
X43000000Y28440000D01*
X38360000Y31640000D02*
X39800000Y31640000D01*
X39800000Y31640000D02*
X43000000Y28440000D01*
X38360000Y31640000D02*
X38250000Y31750000D01*
X39620000Y36000000D02*
X39620000Y33120000D01*
X62610000Y21500000D02*
X62610000Y26490000D01*
X56750000Y32350000D02*
X56750000Y35880000D01*
X62610000Y26490000D02*
X56750000Y32350000D01*
X60000000Y35700000D02*
X56930000Y35700000D01*
X56930000Y35700000D02*
X56750000Y35880000D01*
X56600000Y35730000D02*
X56750000Y35880000D01*
X16500000Y22250000D02*
X11500000Y17250000D01*
X9000000Y14750000D02*
X5250000Y14750000D01*
X9000000Y14750000D02*
X11500000Y17250000D01*
X16500000Y22250000D02*
X17000000Y22250000D01*
X11500000Y22250000D02*
X16500000Y22250000D01*
X11500000Y22250000D02*
X11500000Y25250000D01*
X29750000Y18460000D02*
X29750000Y19750000D01*
X31500000Y21500000D02*
X32790000Y21500000D01*
X29750000Y19750000D02*
X31500000Y21500000D01*
X32790000Y21500000D02*
X32790000Y23540000D01*
X32790000Y23540000D02*
X34500000Y25250000D01*
X34500000Y25250000D02*
X34500000Y27000000D01*
X34500000Y27000000D02*
X33000000Y28500000D01*
X33000000Y28500000D02*
X31000000Y28500000D01*
X31000000Y28500000D02*
X29790000Y27290000D01*
X29790000Y27290000D02*
X29790000Y26250000D01*
X29790000Y26250000D02*
X29790000Y26840000D01*
X29800000Y10510000D02*
X29800000Y16450000D01*
X29800000Y16450000D02*
X29750000Y16500000D01*
X29750000Y18460000D02*
X29750000Y16500000D01*
X29750000Y16500000D02*
X36000000Y10250000D01*
X36000000Y10250000D02*
X41000000Y10250000D01*
X29790000Y16540000D02*
X29750000Y16500000D01*
X54210000Y25890000D02*
X58000000Y22100000D01*
X54210000Y35880000D02*
X54210000Y25890000D01*
X58400000Y12100000D02*
X57200000Y12100000D01*
X59800000Y13500000D02*
X58400000Y12100000D01*
X59800000Y15700000D02*
X59800000Y13500000D01*
X58000000Y17500000D02*
X59800000Y15700000D01*
X58000000Y22100000D02*
X58000000Y17500000D01*
X57200000Y14640000D02*
X54990000Y16850000D01*
X54990000Y16850000D02*
X54990000Y21500000D01*
X54800000Y21310000D02*
X54990000Y21500000D01*
X16500000Y37950000D02*
X16500000Y43170000D01*
X16500000Y43170000D02*
X16420000Y43250000D01*
X11500000Y37950000D02*
X11500000Y43090000D01*
X11500000Y43090000D02*
X11340000Y43250000D01*
X20500000Y9500000D02*
X16550000Y9500000D01*
X16550000Y9500000D02*
X16500000Y9550000D01*
X20500000Y7500000D02*
X15750000Y7500000D01*
X15750000Y7500000D02*
X14000000Y9250000D01*
X14000000Y12750000D02*
X16740000Y15490000D01*
X14000000Y9250000D02*
X14000000Y12750000D01*
X21800000Y15490000D02*
X16740000Y15490000D01*
X23950000Y17050000D02*
X32330000Y25430000D01*
X32330000Y25430000D02*
X32330000Y26250000D01*
X24000000Y17100000D02*
X23950000Y17050000D01*
X23950000Y17050000D02*
X22390000Y15490000D01*
X22390000Y15490000D02*
X21800000Y15490000D01*
X23840000Y16940000D02*
X24000000Y17100000D01*
X20500000Y5500000D02*
X13750000Y5500000D01*
X13750000Y5500000D02*
X11500000Y7750000D01*
X11500000Y9550000D02*
X11500000Y7750000D01*
X22500000Y28440000D02*
X25060000Y28440000D01*
X25060000Y28440000D02*
X27250000Y26250000D01*
X27190000Y26190000D02*
X27250000Y26250000D01*
X37080000Y36000000D02*
X37080000Y36680000D01*
X37080000Y36680000D02*
X38800000Y38400000D01*
X40660000Y38400000D02*
X43000000Y36060000D01*
X38800000Y38400000D02*
X40660000Y38400000D01*
X45800000Y36090000D02*
X43030000Y36090000D01*
X43030000Y36090000D02*
X43000000Y36060000D01*
X37080000Y36000000D02*
X37080000Y36580000D01*
X24800000Y33500000D02*
X29800000Y38500000D01*
X18200000Y26710000D02*
X18200000Y28110000D01*
X20800000Y33500000D02*
X24800000Y33500000D01*
X18200000Y30900000D02*
X20800000Y33500000D01*
X18200000Y28110000D02*
X18200000Y30900000D01*
X21800000Y23110000D02*
X18200000Y26710000D01*
X29800000Y38500000D02*
X34000000Y38500000D01*
X34000000Y38500000D02*
X34540000Y37960000D01*
X34540000Y37960000D02*
X34540000Y36000000D01*
X36300000Y41300000D02*
X35400000Y40400000D01*
X35400000Y40400000D02*
X27400000Y40400000D01*
X22500000Y36060000D02*
X23060000Y36060000D01*
X23060000Y36060000D02*
X27400000Y40400000D01*
X36250000Y41250000D02*
X36300000Y41300000D01*
X36300000Y41300000D02*
X37080000Y42080000D01*
X37080000Y42080000D02*
X37080000Y43620000D01*
X45800000Y32910000D02*
X46210000Y32500000D01*
X46210000Y32500000D02*
X49200000Y32500000D01*
X49800000Y28310000D02*
X49800000Y31900000D01*
X49800000Y31900000D02*
X49200000Y32500000D01*
X49200000Y32500000D02*
X49190000Y32510000D01*
X49200000Y32510000D02*
X49190000Y32510000D01*
X49130000Y35880000D02*
X49130000Y32580000D01*
X49130000Y32580000D02*
X49200000Y32510000D01*
X43800000Y21500000D02*
X45000000Y21500000D01*
X40410000Y21500000D02*
X43800000Y21500000D01*
X49600000Y25900000D02*
X51600000Y25900000D01*
X51600000Y25900000D02*
X52400000Y26700000D01*
X52400000Y26700000D02*
X52400000Y27900000D01*
X51670000Y31230000D02*
X51670000Y35880000D01*
X52400000Y30500000D02*
X52400000Y27900000D01*
X51670000Y31230000D02*
X52400000Y30500000D01*
X49400000Y25900000D02*
X49600000Y25900000D01*
X45000000Y21500000D02*
X49400000Y25900000D01*
D27*
G36*
X70532595Y48649702D02*
X70223353Y47904964D01*
X70222649Y47098574D01*
X70530591Y46353297D01*
X71100298Y45782595D01*
X71845036Y45473353D01*
X72651426Y45472649D01*
X73396703Y45780591D01*
X73748000Y46131276D01*
X73748000Y3868499D01*
X73399702Y4217405D01*
X72654964Y4526647D01*
X71848574Y4527351D01*
X71103297Y4219409D01*
X70532595Y3649702D01*
X70223353Y2904964D01*
X70222649Y2098574D01*
X70530591Y1353297D01*
X70881276Y1002000D01*
X3868499Y1002000D01*
X4217405Y1350298D01*
X4526647Y2095036D01*
X4527351Y2901426D01*
X4219409Y3646703D01*
X3649702Y4217405D01*
X2904964Y4526647D01*
X2098574Y4527351D01*
X1353297Y4219409D01*
X1002000Y3868724D01*
X1002000Y15550000D01*
X3504839Y15550000D01*
X3504839Y13950000D01*
X3569478Y13606474D01*
X3772501Y13290967D01*
X4082279Y13079304D01*
X4450000Y13004839D01*
X6050000Y13004839D01*
X6393526Y13069478D01*
X6709033Y13272501D01*
X6743538Y13323000D01*
X9000000Y13323000D01*
X9546089Y13431624D01*
X10009041Y13740959D01*
X16790828Y20522746D01*
X16842014Y20522701D01*
X17476989Y20785067D01*
X17514988Y20823000D01*
X17858918Y20823000D01*
X20590959Y18090958D01*
X21053911Y17781624D01*
X21600000Y17673000D01*
X22400000Y17673000D01*
X22593385Y17711467D01*
X22264863Y17382945D01*
X22184884Y17416155D01*
X21418479Y17416824D01*
X20710157Y17124151D01*
X20502644Y16917000D01*
X16740000Y16917000D01*
X16193911Y16808376D01*
X15730959Y16499041D01*
X12990959Y13759041D01*
X12681624Y13296089D01*
X12573000Y12750000D01*
X12573000Y10904013D01*
X12160894Y11179374D01*
X11500000Y11310834D01*
X10839106Y11179374D01*
X10278827Y10805007D01*
X9904460Y10244728D01*
X9773000Y9583834D01*
X9773000Y9516166D01*
X9904460Y8855272D01*
X10073000Y8603034D01*
X10073000Y7750000D01*
X10181624Y7203911D01*
X10490959Y6740959D01*
X12740959Y4490958D01*
X13147362Y4219409D01*
X13203911Y4181624D01*
X13750000Y4073000D01*
X19565880Y4073000D01*
X19610715Y4043042D01*
X20214207Y3923000D01*
X20785793Y3923000D01*
X21389285Y4043042D01*
X21900900Y4384893D01*
X22242751Y4896508D01*
X22362793Y5500000D01*
X22242751Y6103492D01*
X21977812Y6500000D01*
X22242751Y6896508D01*
X22362793Y7500000D01*
X22242751Y8103492D01*
X22128605Y8274323D01*
X22270696Y8482279D01*
X22345161Y8850000D01*
X22345161Y10150000D01*
X22280522Y10493526D01*
X22077499Y10809033D01*
X21767721Y11020696D01*
X21400000Y11095161D01*
X19600000Y11095161D01*
X19256474Y11030522D01*
X19095596Y10927000D01*
X17538598Y10927000D01*
X17160894Y11179374D01*
X16500000Y11310834D01*
X15839106Y11179374D01*
X15427000Y10904013D01*
X15427000Y12158918D01*
X17331082Y14063000D01*
X20502418Y14063000D01*
X20707306Y13857754D01*
X21415116Y13563845D01*
X22181521Y13563176D01*
X22889843Y13855849D01*
X23432246Y14397306D01*
X23515226Y14597144D01*
X24959041Y16040959D01*
X25009042Y16090959D01*
X25009044Y16090962D01*
X28323000Y19404918D01*
X28323000Y17998112D01*
X28290967Y17977499D01*
X28079304Y17667721D01*
X28004839Y17300000D01*
X28004839Y15700000D01*
X28069478Y15356474D01*
X28272501Y15040967D01*
X28373000Y14972299D01*
X28373000Y11807582D01*
X28167754Y11602694D01*
X27873845Y10894884D01*
X27873176Y10128479D01*
X28165849Y9420157D01*
X28707306Y8877754D01*
X29415116Y8583845D01*
X30181521Y8583176D01*
X30889843Y8875849D01*
X31432246Y9417306D01*
X31726155Y10125116D01*
X31726824Y10891521D01*
X31434151Y11599843D01*
X31227000Y11807356D01*
X31227000Y13004918D01*
X34990959Y9240958D01*
X35453911Y8931624D01*
X36000000Y8823000D01*
X38518194Y8823000D01*
X38705476Y8369742D01*
X39465740Y7608150D01*
X40459582Y7195471D01*
X41535697Y7194532D01*
X42530258Y7605476D01*
X43291850Y8365740D01*
X43704529Y9359582D01*
X43705468Y10435697D01*
X43294524Y11430258D01*
X42534260Y12191850D01*
X41540418Y12604529D01*
X40464303Y12605468D01*
X39469742Y12194524D01*
X38951314Y11677000D01*
X36591083Y11677000D01*
X31495161Y16772921D01*
X31495161Y17300000D01*
X31430522Y17643526D01*
X31227499Y17959033D01*
X31177000Y17993538D01*
X31177000Y19158918D01*
X31830521Y19812438D01*
X32405116Y19573845D01*
X33171521Y19573176D01*
X33879843Y19865849D01*
X34422246Y20407306D01*
X34716155Y21115116D01*
X34716824Y21881521D01*
X34424151Y22589843D01*
X34217000Y22797356D01*
X34217000Y22948918D01*
X35509041Y24240958D01*
X35818376Y24703910D01*
X35868627Y24956541D01*
X35927000Y25250000D01*
X35927000Y27000000D01*
X35829342Y27490959D01*
X35818376Y27546090D01*
X35509041Y28009042D01*
X34009041Y29509041D01*
X33546089Y29818376D01*
X33000000Y29927000D01*
X31000000Y29927000D01*
X30544512Y29836398D01*
X30453910Y29818376D01*
X29990958Y29509041D01*
X28780959Y28299041D01*
X28570760Y27984456D01*
X28517721Y28020696D01*
X28150000Y28095161D01*
X27422922Y28095161D01*
X26069041Y29449041D01*
X25733183Y29673454D01*
X25909041Y29790959D01*
X26609041Y30490958D01*
X26609043Y30490961D01*
X27191083Y31073000D01*
X36661114Y31073000D01*
X36785067Y30773011D01*
X37270456Y30286774D01*
X37904971Y30023300D01*
X38592014Y30022701D01*
X39052573Y30213000D01*
X39208918Y30213000D01*
X41073429Y28348488D01*
X41073176Y28058479D01*
X41365849Y27350157D01*
X41907306Y26807754D01*
X42125865Y26717000D01*
X40790000Y26717000D01*
X40243911Y26608376D01*
X39780959Y26299041D01*
X37190959Y23709041D01*
X36881624Y23246089D01*
X36773000Y22700000D01*
X36773000Y20500000D01*
X36857936Y20073000D01*
X36881624Y19953911D01*
X37190959Y19490959D01*
X38390958Y18290959D01*
X38853910Y17981624D01*
X38927431Y17967000D01*
X39400000Y17873000D01*
X45400000Y17873000D01*
X45946089Y17981624D01*
X46409041Y18290959D01*
X49591083Y21473000D01*
X50408918Y21473000D01*
X50573000Y21308917D01*
X50573000Y11900000D01*
X50665642Y11434260D01*
X50681624Y11353911D01*
X50990959Y10890959D01*
X53590958Y8290959D01*
X54053910Y7981624D01*
X54065574Y7979304D01*
X54600000Y7873000D01*
X59200000Y7873000D01*
X59746089Y7981624D01*
X60209041Y8290959D01*
X63619041Y11700958D01*
X63928376Y12163910D01*
X63946398Y12254512D01*
X64037000Y12710000D01*
X64037000Y20202418D01*
X64242246Y20407306D01*
X64536155Y21115116D01*
X64536824Y21881521D01*
X64244151Y22589843D01*
X64037000Y22797356D01*
X64037000Y26490000D01*
X63932969Y27013000D01*
X63928376Y27036090D01*
X63619041Y27499042D01*
X58177000Y32941082D01*
X58177000Y34273000D01*
X58984293Y34273000D01*
X59020456Y34236774D01*
X59654971Y33973300D01*
X60342014Y33972701D01*
X60976989Y34235067D01*
X61463226Y34720456D01*
X61726700Y35354971D01*
X61727299Y36042014D01*
X61464933Y36676989D01*
X60979544Y37163226D01*
X60345029Y37426700D01*
X59657986Y37427299D01*
X59023011Y37164933D01*
X58985012Y37127000D01*
X58249031Y37127000D01*
X57971173Y37542843D01*
X57410894Y37917210D01*
X56750000Y38048670D01*
X56089106Y37917210D01*
X55528827Y37542843D01*
X55480000Y37469768D01*
X55431173Y37542843D01*
X54870894Y37917210D01*
X54210000Y38048670D01*
X53549106Y37917210D01*
X52988827Y37542843D01*
X52940000Y37469768D01*
X52891173Y37542843D01*
X52330894Y37917210D01*
X51670000Y38048670D01*
X51009106Y37917210D01*
X50448827Y37542843D01*
X50400000Y37469768D01*
X50351173Y37542843D01*
X49790894Y37917210D01*
X49130000Y38048670D01*
X48654554Y37954098D01*
X49009041Y38190959D01*
X50139041Y39320958D01*
X50448376Y39783910D01*
X50477758Y39931624D01*
X50557000Y40330000D01*
X50557000Y42145198D01*
X50725540Y42397436D01*
X50857000Y43058330D01*
X50857000Y43941670D01*
X50725540Y44602564D01*
X50660436Y44700000D01*
X55004839Y44700000D01*
X55004839Y42300000D01*
X55069478Y41956474D01*
X55272501Y41640967D01*
X55582279Y41429304D01*
X55950000Y41354839D01*
X57550000Y41354839D01*
X57893526Y41419478D01*
X58209033Y41622501D01*
X58420696Y41932279D01*
X58495161Y42300000D01*
X58495161Y44700000D01*
X58430522Y45043526D01*
X58227499Y45359033D01*
X57917721Y45570696D01*
X57550000Y45645161D01*
X55950000Y45645161D01*
X55606474Y45580522D01*
X55290967Y45377499D01*
X55079304Y45067721D01*
X55004839Y44700000D01*
X50660436Y44700000D01*
X50427000Y45049360D01*
X50427000Y45984293D01*
X50463226Y46020456D01*
X50726700Y46654971D01*
X50727299Y47342014D01*
X50464933Y47976989D01*
X49979544Y48463226D01*
X49345029Y48726700D01*
X48657986Y48727299D01*
X48023011Y48464933D01*
X47536774Y47979544D01*
X47273300Y47345029D01*
X47272701Y46657986D01*
X47535067Y46023011D01*
X47573000Y45985012D01*
X47573000Y44660243D01*
X47534460Y44602564D01*
X47403000Y43941670D01*
X47403000Y43058330D01*
X47534460Y42397436D01*
X47703000Y42145198D01*
X47703000Y40921083D01*
X47408918Y40627000D01*
X44427000Y40627000D01*
X44427000Y43900000D01*
X44318376Y44446089D01*
X44270995Y44517000D01*
X44009042Y44909041D01*
X41009041Y47909041D01*
X40546089Y48218376D01*
X40000000Y48327000D01*
X39615707Y48327000D01*
X39579544Y48363226D01*
X38945029Y48626700D01*
X38257986Y48627299D01*
X37623011Y48364933D01*
X37585012Y48327000D01*
X35900000Y48327000D01*
X35502841Y48248000D01*
X35353910Y48218376D01*
X34890958Y47909041D01*
X34408918Y47427000D01*
X30000000Y47427000D01*
X29453911Y47318376D01*
X28990959Y47009042D01*
X22658918Y40677000D01*
X21500000Y40677000D01*
X20953911Y40568376D01*
X20490959Y40259042D01*
X18225134Y37993216D01*
X18095540Y38644728D01*
X17927000Y38896966D01*
X17927000Y41325067D01*
X18476311Y41873420D01*
X18846578Y42765122D01*
X18847421Y43730642D01*
X18478710Y44622989D01*
X17796580Y45306311D01*
X16904878Y45676578D01*
X15939358Y45677421D01*
X15047011Y45308710D01*
X14363689Y44626580D01*
X13993422Y43734878D01*
X13992579Y42769358D01*
X14361290Y41877011D01*
X15043420Y41193689D01*
X15073000Y41181406D01*
X15073000Y38896966D01*
X14904460Y38644728D01*
X14773000Y37983834D01*
X14773000Y37916166D01*
X14904460Y37255272D01*
X15278827Y36694993D01*
X15839106Y36320626D01*
X16434177Y36202259D01*
X15490959Y35259041D01*
X15181624Y34796089D01*
X15073000Y34250000D01*
X15073000Y28633350D01*
X14796089Y28818376D01*
X14763371Y28824884D01*
X14250000Y28927000D01*
X7500000Y28927000D01*
X6953911Y28818376D01*
X6490959Y28509042D01*
X4959172Y26977254D01*
X4907986Y26977299D01*
X4273011Y26714933D01*
X3786774Y26229544D01*
X3523300Y25595029D01*
X3522701Y24907986D01*
X3785067Y24273011D01*
X4270456Y23786774D01*
X4904971Y23523300D01*
X5592014Y23522701D01*
X6226989Y23785067D01*
X6713226Y24270456D01*
X6976700Y24904971D01*
X6976747Y24958664D01*
X8091083Y26073000D01*
X9971771Y26073000D01*
X9773300Y25595029D01*
X9772701Y24907986D01*
X10035067Y24273011D01*
X10073000Y24235012D01*
X10073000Y23265707D01*
X10036774Y23229544D01*
X9773300Y22595029D01*
X9772701Y21907986D01*
X10035067Y21273011D01*
X10520456Y20786774D01*
X11154971Y20523300D01*
X11842014Y20522701D01*
X12476989Y20785067D01*
X12514988Y20823000D01*
X13054917Y20823000D01*
X10490959Y18259041D01*
X8408918Y16177000D01*
X6748112Y16177000D01*
X6727499Y16209033D01*
X6417721Y16420696D01*
X6050000Y16495161D01*
X4450000Y16495161D01*
X4106474Y16430522D01*
X3790967Y16227499D01*
X3579304Y15917721D01*
X3504839Y15550000D01*
X1002000Y15550000D01*
X1002000Y42769358D01*
X8912579Y42769358D01*
X9281290Y41877011D01*
X9963420Y41193689D01*
X10073000Y41148187D01*
X10073000Y38896966D01*
X9904460Y38644728D01*
X9773000Y37983834D01*
X9773000Y37916166D01*
X9904460Y37255272D01*
X10278827Y36694993D01*
X10839106Y36320626D01*
X11500000Y36189166D01*
X12160894Y36320626D01*
X12721173Y36694993D01*
X13095540Y37255272D01*
X13227000Y37916166D01*
X13227000Y37983834D01*
X13095540Y38644728D01*
X12927000Y38896966D01*
X12927000Y41404928D01*
X13396311Y41873420D01*
X13766578Y42765122D01*
X13767421Y43730642D01*
X13398710Y44622989D01*
X12716580Y45306311D01*
X11824878Y45676578D01*
X10859358Y45677421D01*
X9967011Y45308710D01*
X9283689Y44626580D01*
X8913422Y43734878D01*
X8912579Y42769358D01*
X1002000Y42769358D01*
X1002000Y46131501D01*
X1350298Y45782595D01*
X2095036Y45473353D01*
X2901426Y45472649D01*
X3646703Y45780591D01*
X4217405Y46350298D01*
X4526647Y47095036D01*
X4527351Y47901426D01*
X4219409Y48646703D01*
X3868724Y48998000D01*
X70881501Y48998000D01*
X70532595Y48649702D01*
X70532595Y48649702D01*
G37*
X70532595Y48649702D02*
X70223353Y47904964D01*
X70222649Y47098574D01*
X70530591Y46353297D01*
X71100298Y45782595D01*
X71845036Y45473353D01*
X72651426Y45472649D01*
X73396703Y45780591D01*
X73748000Y46131276D01*
X73748000Y3868499D01*
X73399702Y4217405D01*
X72654964Y4526647D01*
X71848574Y4527351D01*
X71103297Y4219409D01*
X70532595Y3649702D01*
X70223353Y2904964D01*
X70222649Y2098574D01*
X70530591Y1353297D01*
X70881276Y1002000D01*
X3868499Y1002000D01*
X4217405Y1350298D01*
X4526647Y2095036D01*
X4527351Y2901426D01*
X4219409Y3646703D01*
X3649702Y4217405D01*
X2904964Y4526647D01*
X2098574Y4527351D01*
X1353297Y4219409D01*
X1002000Y3868724D01*
X1002000Y15550000D01*
X3504839Y15550000D01*
X3504839Y13950000D01*
X3569478Y13606474D01*
X3772501Y13290967D01*
X4082279Y13079304D01*
X4450000Y13004839D01*
X6050000Y13004839D01*
X6393526Y13069478D01*
X6709033Y13272501D01*
X6743538Y13323000D01*
X9000000Y13323000D01*
X9546089Y13431624D01*
X10009041Y13740959D01*
X16790828Y20522746D01*
X16842014Y20522701D01*
X17476989Y20785067D01*
X17514988Y20823000D01*
X17858918Y20823000D01*
X20590959Y18090958D01*
X21053911Y17781624D01*
X21600000Y17673000D01*
X22400000Y17673000D01*
X22593385Y17711467D01*
X22264863Y17382945D01*
X22184884Y17416155D01*
X21418479Y17416824D01*
X20710157Y17124151D01*
X20502644Y16917000D01*
X16740000Y16917000D01*
X16193911Y16808376D01*
X15730959Y16499041D01*
X12990959Y13759041D01*
X12681624Y13296089D01*
X12573000Y12750000D01*
X12573000Y10904013D01*
X12160894Y11179374D01*
X11500000Y11310834D01*
X10839106Y11179374D01*
X10278827Y10805007D01*
X9904460Y10244728D01*
X9773000Y9583834D01*
X9773000Y9516166D01*
X9904460Y8855272D01*
X10073000Y8603034D01*
X10073000Y7750000D01*
X10181624Y7203911D01*
X10490959Y6740959D01*
X12740959Y4490958D01*
X13147362Y4219409D01*
X13203911Y4181624D01*
X13750000Y4073000D01*
X19565880Y4073000D01*
X19610715Y4043042D01*
X20214207Y3923000D01*
X20785793Y3923000D01*
X21389285Y4043042D01*
X21900900Y4384893D01*
X22242751Y4896508D01*
X22362793Y5500000D01*
X22242751Y6103492D01*
X21977812Y6500000D01*
X22242751Y6896508D01*
X22362793Y7500000D01*
X22242751Y8103492D01*
X22128605Y8274323D01*
X22270696Y8482279D01*
X22345161Y8850000D01*
X22345161Y10150000D01*
X22280522Y10493526D01*
X22077499Y10809033D01*
X21767721Y11020696D01*
X21400000Y11095161D01*
X19600000Y11095161D01*
X19256474Y11030522D01*
X19095596Y10927000D01*
X17538598Y10927000D01*
X17160894Y11179374D01*
X16500000Y11310834D01*
X15839106Y11179374D01*
X15427000Y10904013D01*
X15427000Y12158918D01*
X17331082Y14063000D01*
X20502418Y14063000D01*
X20707306Y13857754D01*
X21415116Y13563845D01*
X22181521Y13563176D01*
X22889843Y13855849D01*
X23432246Y14397306D01*
X23515226Y14597144D01*
X24959041Y16040959D01*
X25009042Y16090959D01*
X25009044Y16090962D01*
X28323000Y19404918D01*
X28323000Y17998112D01*
X28290967Y17977499D01*
X28079304Y17667721D01*
X28004839Y17300000D01*
X28004839Y15700000D01*
X28069478Y15356474D01*
X28272501Y15040967D01*
X28373000Y14972299D01*
X28373000Y11807582D01*
X28167754Y11602694D01*
X27873845Y10894884D01*
X27873176Y10128479D01*
X28165849Y9420157D01*
X28707306Y8877754D01*
X29415116Y8583845D01*
X30181521Y8583176D01*
X30889843Y8875849D01*
X31432246Y9417306D01*
X31726155Y10125116D01*
X31726824Y10891521D01*
X31434151Y11599843D01*
X31227000Y11807356D01*
X31227000Y13004918D01*
X34990959Y9240958D01*
X35453911Y8931624D01*
X36000000Y8823000D01*
X38518194Y8823000D01*
X38705476Y8369742D01*
X39465740Y7608150D01*
X40459582Y7195471D01*
X41535697Y7194532D01*
X42530258Y7605476D01*
X43291850Y8365740D01*
X43704529Y9359582D01*
X43705468Y10435697D01*
X43294524Y11430258D01*
X42534260Y12191850D01*
X41540418Y12604529D01*
X40464303Y12605468D01*
X39469742Y12194524D01*
X38951314Y11677000D01*
X36591083Y11677000D01*
X31495161Y16772921D01*
X31495161Y17300000D01*
X31430522Y17643526D01*
X31227499Y17959033D01*
X31177000Y17993538D01*
X31177000Y19158918D01*
X31830521Y19812438D01*
X32405116Y19573845D01*
X33171521Y19573176D01*
X33879843Y19865849D01*
X34422246Y20407306D01*
X34716155Y21115116D01*
X34716824Y21881521D01*
X34424151Y22589843D01*
X34217000Y22797356D01*
X34217000Y22948918D01*
X35509041Y24240958D01*
X35818376Y24703910D01*
X35868627Y24956541D01*
X35927000Y25250000D01*
X35927000Y27000000D01*
X35829342Y27490959D01*
X35818376Y27546090D01*
X35509041Y28009042D01*
X34009041Y29509041D01*
X33546089Y29818376D01*
X33000000Y29927000D01*
X31000000Y29927000D01*
X30544512Y29836398D01*
X30453910Y29818376D01*
X29990958Y29509041D01*
X28780959Y28299041D01*
X28570760Y27984456D01*
X28517721Y28020696D01*
X28150000Y28095161D01*
X27422922Y28095161D01*
X26069041Y29449041D01*
X25733183Y29673454D01*
X25909041Y29790959D01*
X26609041Y30490958D01*
X26609043Y30490961D01*
X27191083Y31073000D01*
X36661114Y31073000D01*
X36785067Y30773011D01*
X37270456Y30286774D01*
X37904971Y30023300D01*
X38592014Y30022701D01*
X39052573Y30213000D01*
X39208918Y30213000D01*
X41073429Y28348488D01*
X41073176Y28058479D01*
X41365849Y27350157D01*
X41907306Y26807754D01*
X42125865Y26717000D01*
X40790000Y26717000D01*
X40243911Y26608376D01*
X39780959Y26299041D01*
X37190959Y23709041D01*
X36881624Y23246089D01*
X36773000Y22700000D01*
X36773000Y20500000D01*
X36857936Y20073000D01*
X36881624Y19953911D01*
X37190959Y19490959D01*
X38390958Y18290959D01*
X38853910Y17981624D01*
X38927431Y17967000D01*
X39400000Y17873000D01*
X45400000Y17873000D01*
X45946089Y17981624D01*
X46409041Y18290959D01*
X49591083Y21473000D01*
X50408918Y21473000D01*
X50573000Y21308917D01*
X50573000Y11900000D01*
X50665642Y11434260D01*
X50681624Y11353911D01*
X50990959Y10890959D01*
X53590958Y8290959D01*
X54053910Y7981624D01*
X54065574Y7979304D01*
X54600000Y7873000D01*
X59200000Y7873000D01*
X59746089Y7981624D01*
X60209041Y8290959D01*
X63619041Y11700958D01*
X63928376Y12163910D01*
X63946398Y12254512D01*
X64037000Y12710000D01*
X64037000Y20202418D01*
X64242246Y20407306D01*
X64536155Y21115116D01*
X64536824Y21881521D01*
X64244151Y22589843D01*
X64037000Y22797356D01*
X64037000Y26490000D01*
X63932969Y27013000D01*
X63928376Y27036090D01*
X63619041Y27499042D01*
X58177000Y32941082D01*
X58177000Y34273000D01*
X58984293Y34273000D01*
X59020456Y34236774D01*
X59654971Y33973300D01*
X60342014Y33972701D01*
X60976989Y34235067D01*
X61463226Y34720456D01*
X61726700Y35354971D01*
X61727299Y36042014D01*
X61464933Y36676989D01*
X60979544Y37163226D01*
X60345029Y37426700D01*
X59657986Y37427299D01*
X59023011Y37164933D01*
X58985012Y37127000D01*
X58249031Y37127000D01*
X57971173Y37542843D01*
X57410894Y37917210D01*
X56750000Y38048670D01*
X56089106Y37917210D01*
X55528827Y37542843D01*
X55480000Y37469768D01*
X55431173Y37542843D01*
X54870894Y37917210D01*
X54210000Y38048670D01*
X53549106Y37917210D01*
X52988827Y37542843D01*
X52940000Y37469768D01*
X52891173Y37542843D01*
X52330894Y37917210D01*
X51670000Y38048670D01*
X51009106Y37917210D01*
X50448827Y37542843D01*
X50400000Y37469768D01*
X50351173Y37542843D01*
X49790894Y37917210D01*
X49130000Y38048670D01*
X48654554Y37954098D01*
X49009041Y38190959D01*
X50139041Y39320958D01*
X50448376Y39783910D01*
X50477758Y39931624D01*
X50557000Y40330000D01*
X50557000Y42145198D01*
X50725540Y42397436D01*
X50857000Y43058330D01*
X50857000Y43941670D01*
X50725540Y44602564D01*
X50660436Y44700000D01*
X55004839Y44700000D01*
X55004839Y42300000D01*
X55069478Y41956474D01*
X55272501Y41640967D01*
X55582279Y41429304D01*
X55950000Y41354839D01*
X57550000Y41354839D01*
X57893526Y41419478D01*
X58209033Y41622501D01*
X58420696Y41932279D01*
X58495161Y42300000D01*
X58495161Y44700000D01*
X58430522Y45043526D01*
X58227499Y45359033D01*
X57917721Y45570696D01*
X57550000Y45645161D01*
X55950000Y45645161D01*
X55606474Y45580522D01*
X55290967Y45377499D01*
X55079304Y45067721D01*
X55004839Y44700000D01*
X50660436Y44700000D01*
X50427000Y45049360D01*
X50427000Y45984293D01*
X50463226Y46020456D01*
X50726700Y46654971D01*
X50727299Y47342014D01*
X50464933Y47976989D01*
X49979544Y48463226D01*
X49345029Y48726700D01*
X48657986Y48727299D01*
X48023011Y48464933D01*
X47536774Y47979544D01*
X47273300Y47345029D01*
X47272701Y46657986D01*
X47535067Y46023011D01*
X47573000Y45985012D01*
X47573000Y44660243D01*
X47534460Y44602564D01*
X47403000Y43941670D01*
X47403000Y43058330D01*
X47534460Y42397436D01*
X47703000Y42145198D01*
X47703000Y40921083D01*
X47408918Y40627000D01*
X44427000Y40627000D01*
X44427000Y43900000D01*
X44318376Y44446089D01*
X44270995Y44517000D01*
X44009042Y44909041D01*
X41009041Y47909041D01*
X40546089Y48218376D01*
X40000000Y48327000D01*
X39615707Y48327000D01*
X39579544Y48363226D01*
X38945029Y48626700D01*
X38257986Y48627299D01*
X37623011Y48364933D01*
X37585012Y48327000D01*
X35900000Y48327000D01*
X35502841Y48248000D01*
X35353910Y48218376D01*
X34890958Y47909041D01*
X34408918Y47427000D01*
X30000000Y47427000D01*
X29453911Y47318376D01*
X28990959Y47009042D01*
X22658918Y40677000D01*
X21500000Y40677000D01*
X20953911Y40568376D01*
X20490959Y40259042D01*
X18225134Y37993216D01*
X18095540Y38644728D01*
X17927000Y38896966D01*
X17927000Y41325067D01*
X18476311Y41873420D01*
X18846578Y42765122D01*
X18847421Y43730642D01*
X18478710Y44622989D01*
X17796580Y45306311D01*
X16904878Y45676578D01*
X15939358Y45677421D01*
X15047011Y45308710D01*
X14363689Y44626580D01*
X13993422Y43734878D01*
X13992579Y42769358D01*
X14361290Y41877011D01*
X15043420Y41193689D01*
X15073000Y41181406D01*
X15073000Y38896966D01*
X14904460Y38644728D01*
X14773000Y37983834D01*
X14773000Y37916166D01*
X14904460Y37255272D01*
X15278827Y36694993D01*
X15839106Y36320626D01*
X16434177Y36202259D01*
X15490959Y35259041D01*
X15181624Y34796089D01*
X15073000Y34250000D01*
X15073000Y28633350D01*
X14796089Y28818376D01*
X14763371Y28824884D01*
X14250000Y28927000D01*
X7500000Y28927000D01*
X6953911Y28818376D01*
X6490959Y28509042D01*
X4959172Y26977254D01*
X4907986Y26977299D01*
X4273011Y26714933D01*
X3786774Y26229544D01*
X3523300Y25595029D01*
X3522701Y24907986D01*
X3785067Y24273011D01*
X4270456Y23786774D01*
X4904971Y23523300D01*
X5592014Y23522701D01*
X6226989Y23785067D01*
X6713226Y24270456D01*
X6976700Y24904971D01*
X6976747Y24958664D01*
X8091083Y26073000D01*
X9971771Y26073000D01*
X9773300Y25595029D01*
X9772701Y24907986D01*
X10035067Y24273011D01*
X10073000Y24235012D01*
X10073000Y23265707D01*
X10036774Y23229544D01*
X9773300Y22595029D01*
X9772701Y21907986D01*
X10035067Y21273011D01*
X10520456Y20786774D01*
X11154971Y20523300D01*
X11842014Y20522701D01*
X12476989Y20785067D01*
X12514988Y20823000D01*
X13054917Y20823000D01*
X10490959Y18259041D01*
X8408918Y16177000D01*
X6748112Y16177000D01*
X6727499Y16209033D01*
X6417721Y16420696D01*
X6050000Y16495161D01*
X4450000Y16495161D01*
X4106474Y16430522D01*
X3790967Y16227499D01*
X3579304Y15917721D01*
X3504839Y15550000D01*
X1002000Y15550000D01*
X1002000Y42769358D01*
X8912579Y42769358D01*
X9281290Y41877011D01*
X9963420Y41193689D01*
X10073000Y41148187D01*
X10073000Y38896966D01*
X9904460Y38644728D01*
X9773000Y37983834D01*
X9773000Y37916166D01*
X9904460Y37255272D01*
X10278827Y36694993D01*
X10839106Y36320626D01*
X11500000Y36189166D01*
X12160894Y36320626D01*
X12721173Y36694993D01*
X13095540Y37255272D01*
X13227000Y37916166D01*
X13227000Y37983834D01*
X13095540Y38644728D01*
X12927000Y38896966D01*
X12927000Y41404928D01*
X13396311Y41873420D01*
X13766578Y42765122D01*
X13767421Y43730642D01*
X13398710Y44622989D01*
X12716580Y45306311D01*
X11824878Y45676578D01*
X10859358Y45677421D01*
X9967011Y45308710D01*
X9283689Y44626580D01*
X8913422Y43734878D01*
X8912579Y42769358D01*
X1002000Y42769358D01*
X1002000Y46131501D01*
X1350298Y45782595D01*
X2095036Y45473353D01*
X2901426Y45472649D01*
X3646703Y45780591D01*
X4217405Y46350298D01*
X4526647Y47095036D01*
X4527351Y47901426D01*
X4219409Y48646703D01*
X3868724Y48998000D01*
X70881501Y48998000D01*
X70532595Y48649702D01*
M02*
