G04 #@! TF.FileFunction,Copper,L1,Top,Signal*
%FSLAX46Y46*%
G04 Gerber Fmt 4.6, Leading zero omitted, Abs format (unit mm)*
G04 Created by KiCad (PCBNEW 4.0.7-e2-6376~58~ubuntu14.04.1) date Fri Mar  2 16:59:10 2018*
%MOMM*%
%LPD*%
G01*
G04 APERTURE LIST*
%ADD10C,0.100000*%
%ADD11C,1.000000*%
%ADD12C,1.000000*%
G04 APERTURE END LIST*
D10*
D11*
X30500000Y43500000D03*
X35500000Y43500000D03*
X37600000Y37800000D03*
X41000000Y34500000D03*
X55250000Y26650000D03*
X60250000Y21500000D03*
X64725000Y31350000D03*
X72000000Y38500000D03*
X43750000Y23750000D03*
X43750000Y18500000D03*
X41250000Y27750000D03*
X41250000Y6500000D03*
X41250000Y10750000D03*
X41250000Y23750000D03*
X53800000Y13650000D03*
X53800000Y21550000D03*
X54500000Y50500000D03*
X50000000Y50500000D03*
D12*
X30500000Y43500000D02*
X35500000Y43500000D01*
X37600000Y37800000D02*
X40900000Y34500000D01*
X40900000Y34500000D02*
X41000000Y34500000D01*
X60250000Y21500000D02*
X60250000Y21650000D01*
X60250000Y21650000D02*
X55250000Y26650000D01*
X64725000Y31350000D02*
X71925000Y38500000D01*
X71925000Y38500000D02*
X72000000Y38500000D01*
X43750000Y18500000D02*
X43750000Y23750000D01*
X41250000Y10750000D02*
X41250000Y6500000D01*
X41250000Y27750000D02*
X41250000Y23750000D01*
X53800000Y21550000D02*
X53800000Y13650000D01*
X50000000Y50500000D02*
X54500000Y50500000D01*
M02*
