M48
;DRILL file {KiCad 4.0.7-e2-6376~58~ubuntu14.04.1} date Fri Mar  2 16:59:13 2018
;FORMAT={-:-/ absolute / metric / decimal}
FMAT,2
METRIC,TZ
T1C0.800
T2C0.800
T3C0.900
T4C1.000
T5C1.100
T6C1.200
T7C1.270
T8C1.520
T9C1.524
T10C2.200
%
G90
G05
M71
T1
X4.25Y44.2
X4.25Y40.05
X16.95Y44.2
X16.95Y40.05
X26.Y43.
X26.Y40.5
X30.5Y43.5
X32.5Y40.5
X32.5Y38.
X32.8Y21.9
X32.8Y14.28
X32.9Y34.62
X32.9Y27.
X35.5Y43.5
X36.4Y23.6
X36.4Y18.6
X36.5Y34.5
X36.5Y31.96
X36.5Y29.42
X36.5Y26.88
X37.6Y37.8
X39.85Y44.45
X39.85Y39.45
X41.Y34.5
X41.25Y27.75
X41.25Y23.75
X41.25Y10.75
X41.25Y6.5
X42.83Y47.425
X42.83Y39.805
X43.75Y23.75
X43.75Y18.5
X44.12Y34.5
X44.12Y31.96
X44.12Y29.42
X44.12Y26.88
X45.25Y8.25
X45.37Y47.425
X45.37Y39.805
X47.Y36.5
X47.79Y8.25
X47.91Y47.425
X47.91Y39.805
X48.Y21.
X48.Y16.
X50.Y50.5
X50.33Y8.25
X50.45Y47.425
X50.45Y39.805
X52.Y36.5
X52.3Y31.8
X52.3Y29.3
X53.775Y47.35
X53.8Y21.55
X53.8Y13.65
X54.5Y50.5
X55.25Y26.65
X57.1Y19.2
X57.1Y14.2
X58.5Y33.2
X58.5Y28.2
X59.163Y41.962
X60.25Y21.5
X60.4Y19.12
X60.4Y11.5
X62.94Y19.12
X62.94Y11.5
X64.725Y31.35
X65.48Y19.12
X65.48Y11.5
X68.02Y19.12
X68.02Y11.5
X72.Y38.5
X79.6Y49.95
X82.14Y49.95
X84.68Y49.95
T2
X25.Y21.81
X25.Y14.19
X25.19Y10.5
X25.19Y7.5
X29.2Y21.71
X29.2Y14.09
X29.7Y34.51
X29.7Y26.89
X32.81Y10.5
X32.81Y7.5
X47.8Y31.81
X47.8Y24.19
X51.Y24.31
X51.Y16.69
X58.056Y47.369
X61.9Y38.585
X61.9Y30.965
X62.69Y47.5
X63.444Y41.981
X65.49Y28.3
X65.49Y25.2
X65.49Y22.
X70.31Y47.5
X72.65Y15.435
X72.65Y7.815
X73.11Y28.3
X73.11Y25.2
X73.11Y22.
X74.306Y38.694
X79.694Y33.306
T3
X83.6Y30.725
X86.14Y30.725
T4
X65.96Y54.
X68.5Y54.
T5
X70.5Y41.12
X70.5Y33.5
T6
X4.68Y34.5
X4.68Y27.
X25.Y34.5
X25.Y27.
T7
X12.Y14.5
X84.75Y14.5
T8
X23.84Y49.
X28.92Y49.
X34.Y49.
T9
X5.65Y20.85
X5.65Y8.15
X18.35Y20.85
X18.35Y8.15
X78.4Y20.85
X78.4Y8.15
X91.1Y20.85
X91.1Y8.15
T10
X3.25Y58.25
X3.25Y3.25
X94.75Y58.25
X94.75Y3.25
T0
M30
